<?xml version="1.0" encoding="utf-8"?>
<!-- Generator: Adobe Illustrator 17.0.0, SVG Export Plug-In . SVG Version: 6.00 Build 0)  -->
<!DOCTYPE svg PUBLIC "-//W3C//DTD SVG 1.1//EN" "http://www.w3.org/Graphics/SVG/1.1/DTD/svg11.dtd">
<svg version="1.1" id="Layer_1" xmlns="http://www.w3.org/2000/svg" xmlns:xlink="http://www.w3.org/1999/xlink" x="0px" y="0px"
	 width="200px" height="200px" viewBox="0 0 200 200" enable-background="new 0 0 200 200" xml:space="preserve">
<path fill="#97BF0D" d="M200,188.003c0,6.902-5.373,12.496-12,12.496H12c-6.627,0-12-5.595-12-12.496V12.11
	C0,5.208,5.373-0.387,12-0.387h176c6.627,0,12,5.595,12,12.496V188.003z"/>
<g>
	<path fill="#41281B" d="M152.555,133.939h-8.675v-16.418H55.549v16.418h-8.604V73.84c0-2.372,1.926-4.322,4.296-4.322
		c2.404,0,4.3,1.951,4.3,4.322v35.537h97.012v24.562H152.555z"/>
	<path fill="#41281B" d="M65.02,102.916c-2.138,0-3.855-1.711-3.855-3.835c0-2.11,1.715-3.85,3.855-3.85h16.021V83.666
		c0-2.095,1.722-3.822,3.829-3.822c0.115,0,0.209,0.06,0.348,0.088l61.231,6.092c3.319,0.42,6.182,2.759,6.211,6.165l0.03,10.725
		H65.02V102.916z"/>
	<path fill="#41281B" d="M60.993,83.354c0-4.293,3.481-7.77,7.805-7.77c4.298,0,7.777,3.477,7.777,7.77
		c0,4.323-3.481,7.805-7.777,7.805C64.475,91.159,60.993,87.677,60.993,83.354z"/>
</g>
</svg>
