<?xml version="1.0" encoding="utf-8"?>
<!-- Generator: Adobe Illustrator 17.0.0, SVG Export Plug-In . SVG Version: 6.00 Build 0)  -->
<!DOCTYPE svg PUBLIC "-//W3C//DTD SVG 1.1//EN" "http://www.w3.org/Graphics/SVG/1.1/DTD/svg11.dtd">
<svg version="1.1" id="Layer_1" xmlns="http://www.w3.org/2000/svg" xmlns:xlink="http://www.w3.org/1999/xlink" x="0px" y="0px"
	 width="200px" height="200px" viewBox="0 0 200 200" enable-background="new 0 0 200 200" xml:space="preserve">
<path fill="#97BF0D" d="M200,188.003c0,6.902-5.373,12.496-12,12.496H12c-6.627,0-12-5.595-12-12.496V12.11
	C0,5.208,5.373-0.387,12-0.387h176c6.627,0,12,5.595,12,12.496V188.003z"/>
<g>
	<path fill="#41281B" d="M150.691,154.751h-8.209v-15.537h-83.59v15.537h-8.142V97.878c0-2.244,1.822-4.09,4.066-4.09
		c2.275,0,4.07,1.847,4.07,4.09v33.629h91.804v23.243H150.691z"/>
	<path fill="#41281B" d="M67.855,125.393c-2.023,0-3.648-1.619-3.648-3.629c0-1.996,1.623-3.644,3.648-3.644h15.161v-10.944
		c0-1.983,1.63-3.617,3.623-3.617c0.109,0,0.198,0.057,0.329,0.084l57.944,5.765c3.141,0.398,5.85,2.611,5.877,5.834l0.028,10.149
		H67.855V125.393z"/>
	<path fill="#41281B" d="M64.044,106.881c0-4.063,3.294-7.353,7.386-7.353c4.067,0,7.36,3.29,7.36,7.353
		c0,4.091-3.294,7.386-7.36,7.386C67.339,114.267,64.044,110.973,64.044,106.881z"/>
	<polygon fill="#41281B" points="149.93,83.862 100.782,59.431 51.636,83.862 47.176,74.882 100.714,48.274 100.734,48.2 
		100.782,48.235 100.832,48.207 100.854,48.281 154.39,74.893 	"/>
</g>
</svg>
