<?xml version="1.0" encoding="utf-8"?>
<!-- Generator: Adobe Illustrator 17.0.0, SVG Export Plug-In . SVG Version: 6.00 Build 0)  -->
<!DOCTYPE svg PUBLIC "-//W3C//DTD SVG 1.1//EN" "http://www.w3.org/Graphics/SVG/1.1/DTD/svg11.dtd">
<svg version="1.1" id="Layer_1" xmlns="http://www.w3.org/2000/svg" xmlns:xlink="http://www.w3.org/1999/xlink" x="0px" y="0px"
	 width="200px" height="200px" viewBox="0 0 200 200" enable-background="new 0 0 200 200" xml:space="preserve">
<path fill="#97BF0D" d="M200,188.003c0,6.902-5.373,12.496-12,12.496H12c-6.627,0-12-5.595-12-12.496V12.11
	C0,5.208,5.373-0.387,12-0.387h176c6.627,0,12,5.595,12,12.496V188.003z"/>
<g>
	<path fill="#41281B" d="M151.179,73.24c-0.194-0.355-0.492-0.642-0.854-0.825l-19.82-9.91c-0.557-0.279-1.215-0.279-1.774,0
		l-19.82,9.91c-0.363,0.18-0.66,0.468-0.854,0.825L96.164,95.042c-0.157,0.291-0.24,0.618-0.24,0.949v39.64
		c0,1.094,0.888,1.982,1.982,1.982h25.766h11.892h25.766c1.094,0,1.982-0.888,1.982-1.982v-39.64c0-0.331-0.083-0.658-0.242-0.949
		L151.179,73.24z M119.708,73.028l7.928,7.928v8.269l-7.928-7.928V73.028z M131.6,80.956l7.928-7.928v8.269l-7.928,7.928V80.956z
		 M131.6,75.351v-7.865l5.242,2.622L131.6,75.351z M127.636,75.351l-5.242-5.242l5.242-2.622V75.351z M119.708,86.902l7.107,7.107
		h-7.107V86.902z M139.528,86.902v7.107h-7.107L139.528,86.902z M157.991,94.009h-13.678l8.852-8.852L157.991,94.009z
		 M151.185,81.531l-7.692,7.694V73.432l4.503,2.252L151.185,81.531z M111.239,75.684l4.505-2.252v15.793l-7.694-7.694
		L111.239,75.684z M114.924,94.009h-13.678l4.828-8.852L114.924,94.009z M125.654,133.649v-11.892c0-2.186,1.778-3.964,3.964-3.964
		c2.186,0,3.964,1.778,3.964,3.964v11.892H125.654z M137.546,133.649v-11.892c0-4.372-3.556-7.928-7.928-7.928
		c-4.372,0-7.928,3.556-7.928,7.928v11.892H99.888V97.973h59.46v35.676H137.546z"/>
	<path fill="#41281B" d="M115.744,101.937h-9.91c-1.094,0-1.982,0.888-1.982,1.982v9.91c0,1.094,0.888,1.982,1.982,1.982h9.91
		c1.094,0,1.982-0.888,1.982-1.982v-9.91C117.726,102.825,116.838,101.937,115.744,101.937z M113.762,111.847h-5.946v-5.946h5.946
		V111.847z"/>
	<path fill="#41281B" d="M153.402,101.937h-9.91c-1.094,0-1.982,0.888-1.982,1.982v9.91c0,1.094,0.888,1.982,1.982,1.982h9.91
		c1.094,0,1.982-0.888,1.982-1.982v-9.91C155.384,102.825,154.496,101.937,153.402,101.937z M151.42,111.847h-5.946v-5.946h5.946
		V111.847z"/>
	<path fill="#41281B" d="M87.996,113.829H66.194v-3.964H62.23v3.964H40.428v-3.964h-3.964v3.964v3.964v11.892v3.964v3.964h3.964
		v-3.964H62.23v3.964h3.964v-3.964h21.802v3.964h3.964v-3.964v-3.964v-11.892v-3.964v-3.964h-3.964V113.829z M66.194,119.357
		l7.119,4.382l-7.119,4.382V119.357z M62.23,128.122l-7.119-4.382l7.119-4.382V128.122z M71.215,117.793h11.763l-5.883,3.619
		L71.215,117.793z M51.329,121.412l-5.881-3.619h11.763L51.329,121.412z M47.547,123.739l-7.119,4.382v-8.762L47.547,123.739z
		 M51.329,126.066l5.881,3.619H45.449L51.329,126.066z M77.095,126.066l5.881,3.619H71.213L77.095,126.066z M80.877,123.739
		l7.119-4.382v8.762L80.877,123.739z"/>
	<rect x="143.492" y="127.703" fill="#41281B" width="3.964" height="3.964"/>
	<rect x="151.42" y="127.703" fill="#41281B" width="3.964" height="3.964"/>
</g>
</svg>
