<?xml version="1.0" encoding="utf-8"?>
<!-- Generator: Adobe Illustrator 17.0.0, SVG Export Plug-In . SVG Version: 6.00 Build 0)  -->
<!DOCTYPE svg PUBLIC "-//W3C//DTD SVG 1.1//EN" "http://www.w3.org/Graphics/SVG/1.1/DTD/svg11.dtd">
<svg version="1.1" id="Layer_1" xmlns="http://www.w3.org/2000/svg" xmlns:xlink="http://www.w3.org/1999/xlink" x="0px" y="0px"
	 width="200px" height="200px" viewBox="0 0 200 200" enable-background="new 0 0 200 200" xml:space="preserve">
<path fill="#97BF0D" d="M200,188.003c0,6.902-5.373,12.496-12,12.496H12c-6.627,0-12-5.595-12-12.496V12.11
	C0,5.208,5.373-0.387,12-0.387h176c6.627,0,12,5.595,12,12.496V188.003z"/>
<g>
	<path fill="#41281B" d="M156.891,79.767c0-8.268-7.63-15.068-17.417-15.904c-2.747-6.091-9.855-10.44-18.22-10.44
		c-3.662,0-7.074,0.848-9.997,2.294c-3.324-4.895-9.679-8.21-16.983-8.21c-9.683,0-17.692,5.827-19.178,13.445
		c-0.79-0.079-1.589-0.134-2.405-0.134c-10.74,0-19.448,7.159-19.448,15.992c0,0.433,0.039,0.856,0.08,1.28
		c-5.446,2.834-9.071,7.818-9.071,13.509c0,5.031,2.831,9.513,7.248,12.444c-0.019,0.288-0.054,0.574-0.054,0.865
		c0,8.831,8.706,15.992,19.448,15.992c3.219,0,6.247-0.653,8.921-1.791c3.704,2.188,9.009,4.925,11.577,4.379
		c0,0,0.956,12.17,0.749,15.261c-0.393,5.88-2.538,12.426-4.048,17.724h23.383c0,0-3.447-11.81-3.597-15.753
		c-0.15-3.943,1.499-11.205,1.499-11.205l8.111-6.899c3.122,1.755,6.894,2.753,10.961,2.753c10.055,0,18.325-6.29,19.341-14.337
		c7.407-2.258,12.696-8.119,12.696-14.998c0-4.062-1.855-7.756-4.888-10.578C156.421,83.689,156.891,81.774,156.891,79.767z
		 M84.308,116.47c1.559-1.224,2.867-2.654,3.865-4.242l3.818,6.578C91.99,118.807,89.913,119.561,84.308,116.47z M98.585,120.532
		c-1.976,0.295-5.341-4.708-7.729-8.775c2.648,1.111,5.637,1.75,8.816,1.75c0.816,0,1.617-0.055,2.408-0.136
		C101.465,116.626,100.383,120.262,98.585,120.532z M106.98,123.733c-4.57,1.044-1.834-6.741-0.524-11.247
		c0.947-0.29,1.864-0.63,2.736-1.035c0.526,3.284,2.261,6.248,4.832,8.591C111.797,121.669,109.233,123.22,106.98,123.733z"/>
</g>
</svg>
