<?xml version="1.0" encoding="utf-8"?>
<!-- Generator: Adobe Illustrator 17.0.0, SVG Export Plug-In . SVG Version: 6.00 Build 0)  -->
<!DOCTYPE svg PUBLIC "-//W3C//DTD SVG 1.1//EN" "http://www.w3.org/Graphics/SVG/1.1/DTD/svg11.dtd">
<svg version="1.1" id="Layer_1" xmlns="http://www.w3.org/2000/svg" xmlns:xlink="http://www.w3.org/1999/xlink" x="0px" y="0px"
	 width="200px" height="200px" viewBox="0 0 200 200" enable-background="new 0 0 200 200" xml:space="preserve">
<path fill="#97BF0D" d="M200,188.003c0,6.902-5.373,12.496-12,12.496H12c-6.627,0-12-5.595-12-12.496V12.11
	C0,5.208,5.373-0.387,12-0.387h176c6.627,0,12,5.595,12,12.496V188.003z"/>
<g>
	<path fill="#41281A" d="M147.739,85.734l-46.367-23.049L55.004,85.734l-4.208-8.47l50.51-25.112l0.019-0.053l0.047,0.027
		l0.046-0.027l0.02,0.06l50.509,25.106L147.739,85.734z M88.039,153.17v-29.483H114.7v29.483h13.645V85.734H114.7v26.535H88.039
		V85.734H74.398v67.436L88.039,153.17z"/>
</g>
</svg>
