<?xml version="1.0" encoding="utf-8"?>
<!-- Generator: Adobe Illustrator 17.0.0, SVG Export Plug-In . SVG Version: 6.00 Build 0)  -->
<!DOCTYPE svg PUBLIC "-//W3C//DTD SVG 1.1//EN" "http://www.w3.org/Graphics/SVG/1.1/DTD/svg11.dtd">
<svg version="1.1" id="Layer_1" xmlns="http://www.w3.org/2000/svg" xmlns:xlink="http://www.w3.org/1999/xlink" x="0px" y="0px"
	 width="200px" height="200px" viewBox="0 0 200 200" enable-background="new 0 0 200 200" xml:space="preserve">
<path fill="#97BF0D" d="M200,188.003c0,6.902-5.373,12.496-12,12.496H12c-6.627,0-12-5.595-12-12.496V12.11
	C0,5.208,5.373-0.387,12-0.387h176c6.627,0,12,5.595,12,12.496V188.003z"/>
<path fill="#41281B" d="M154.462,84.313c-0.825-2.564-2.517-4.688-4.797-6.046c0.848-1.87,0.965-3.956,0.326-5.92
	c-0.679-2.084-2.13-3.782-4.087-4.78c-1.151-0.587-2.439-0.898-3.725-0.898c-1.182,0-2.358,0.261-3.432,0.75
	c-0.42-0.623-0.907-1.201-1.457-1.729c-0.07-0.067-0.14-0.133-0.21-0.195c-0.21-0.191-0.65-0.511-1.242-0.511l-0.931,0.01
	l-0.445,0.791c-0.279,0.496-0.266,1.112,0.034,1.608c4.244,7.001,4.563,15.519,0.853,22.787c-0.491,0.962-1.052,1.896-1.668,2.778
	c-0.384,0.551-0.55,1.756-0.55,2.064c0,6.076-3.18,11.785-8.3,14.901c-0.016,0.01-0.031,0.021-0.047,0.031
	c-0.853,0.337-1.444,1.169-1.444,2.168v35.322h-5H93.52v-32.522l0.099,0.05l0.337,0.165h0.123c2.162,0.932,4.549,1.578,6.931,1.578
	c6.125,0,11.659-3.384,14.442-8.837c0.807-1.58,1.341-3.245,1.598-4.972c0.236,0.02,0.473,0.031,0.711,0.031
	c4.535,0,8.225-3.69,8.225-8.225c0-1.439-0.374-2.835-1.073-4.063c1.81-1.296,3.282-3.005,4.309-5.016
	c3.454-6.766,0.901-15.041-5.679-18.683c1.249-2.467,1.467-5.271,0.61-7.899c-0.859-2.635-2.694-4.782-5.169-6.045
	c-1.455-0.743-3.083-1.135-4.709-1.135c-1.639,0-3.269,0.396-4.73,1.135c-1.296-2.081-3.115-3.752-5.336-4.886
	c-1.896-0.968-4.027-1.479-6.161-1.479c-3.061,0-6.099,1.049-8.494,2.908l-4.326-2.208c-0.109-0.057-0.226-0.1-0.345-0.13
	c-2.219-1.083-4.592-1.631-7.056-1.631c-6.122,0-11.653,3.385-14.435,8.835c-0.907,1.777-1.478,3.715-1.683,5.691
	c-0.262-0.025-0.527-0.038-0.792-0.038c-4.535,0-8.225,3.69-8.225,8.225c0,1.284,0.29,2.519,0.848,3.643
	c-1.631,1.26-2.968,2.868-3.914,4.72c-1.704,3.338-2.011,7.146-0.864,10.721c1.1,3.43,3.41,6.244,6.524,7.968
	c-1.374,4.677,0.791,9.927,5.251,12.204c1.465,0.748,3.041,1.127,4.686,1.127c1.156,0,2.309-0.195,3.404-0.569
	c1.288,2.616,3.374,4.742,6.001,6.083c1.898,0.969,4.03,1.48,6.166,1.48c1.475,0,2.943-0.246,4.338-0.707v32.483h-7.305
	c-1.379,0-2.635,1.25-2.635,2.622v3.019c0,1.457,1.363,2.436,2.635,2.436h60.568c1.357,0,2.342-1.024,2.342-2.436v-3.019
	c0-1.47-1.029-2.622-2.342-2.622h-3.184h-5.035v-31.241c0.657,0.089,1.325,0.125,2.001,0.125c4.763,0,9.066-2.631,11.23-6.871
	c0.573-1.123,0.97-2.3,1.186-3.52c0.071,0.002,0.143,0.003,0.214,0.003c3.631,0,6.584-2.954,6.584-6.584
	c0-1.037-0.242-2.045-0.699-2.954c1.291-0.987,2.347-2.25,3.097-3.72C155.121,90.076,155.36,87.104,154.462,84.313z"/>
</svg>
