<?xml version="1.0" encoding="utf-8"?>
<!-- Generator: Adobe Illustrator 17.0.0, SVG Export Plug-In . SVG Version: 6.00 Build 0)  -->
<!DOCTYPE svg PUBLIC "-//W3C//DTD SVG 1.1//EN" "http://www.w3.org/Graphics/SVG/1.1/DTD/svg11.dtd">
<svg version="1.1" id="Layer_1" xmlns="http://www.w3.org/2000/svg" xmlns:xlink="http://www.w3.org/1999/xlink" x="0px" y="0px"
	 width="200px" height="200px" viewBox="0 0 200 200" enable-background="new 0 0 200 200" xml:space="preserve">
<path fill="#97BF0D" d="M200,188.003c0,6.902-5.373,12.496-12,12.496H12c-6.627,0-12-5.595-12-12.496V12.11
	C0,5.208,5.373-0.387,12-0.387h176c6.627,0,12,5.595,12,12.496V188.003z"/>
<g>
	<path fill="#41281B" d="M121.276,101.67c-6.356-0.826-10.474-1.597-13.158-3.114c0.929-1.699,2.369-3.667,4.332-6.217
		c0.316-0.41,0.278-0.991-0.088-1.357c-0.366-0.366-0.947-0.403-1.357-0.088c-2.557,1.969-4.54,3.396-6.227,4.317
		c-1.511-2.685-2.279-6.798-3.104-13.143c-0.067-0.513-0.504-0.897-1.022-0.897c-0.518,0-0.955,0.384-1.022,0.897
		c-0.824,6.343-1.593,10.459-3.104,13.143c-1.687-0.921-3.67-2.349-6.228-4.317c-0.41-0.316-0.991-0.278-1.357,0.088
		c-0.366,0.366-0.404,0.947-0.088,1.357c1.963,2.55,3.404,4.519,4.333,6.218c-2.684,1.517-6.8,2.287-13.158,3.113
		c-0.513,0.067-0.897,0.504-0.897,1.022s0.384,0.955,0.897,1.022c6.356,0.826,10.474,1.596,13.159,3.113
		c-0.929,1.699-2.369,3.668-4.333,6.218c-0.316,0.41-0.278,0.991,0.088,1.357c0.366,0.366,0.947,0.404,1.357,0.088
		c2.557-1.969,4.539-3.396,6.226-4.317c1.512,2.685,2.28,6.797,3.105,13.142c0.067,0.513,0.504,0.897,1.022,0.897
		c0.518,0,0.955-0.384,1.022-0.897c0.824-6.343,1.593-10.459,3.104-13.143c1.687,0.921,3.67,2.349,6.228,4.318
		c0.186,0.144,0.408,0.214,0.628,0.214c0.002,0,0.005,0,0.005,0c0.569,0,1.03-0.461,1.03-1.03c0-0.268-0.102-0.511-0.269-0.695
		c-1.937-2.518-3.361-4.467-4.282-6.151c2.684-1.517,6.8-2.288,13.158-3.114c0.513-0.067,0.897-0.504,0.897-1.022
		C122.173,102.175,121.789,101.737,121.276,101.67z M100.652,89.01c0.574,2.994,1.253,5.25,2.243,7.058
		c-0.786,0.274-1.522,0.414-2.243,0.414c-0.721,0-1.456-0.14-2.243-0.414C99.4,94.26,100.079,92.003,100.652,89.01z M86.97,102.692
		c3.001-0.575,5.261-1.255,7.07-2.249c0.531,1.551,0.531,2.947,0,4.498C92.231,103.948,89.971,103.268,86.97,102.692z
		 M100.653,116.374c-0.574-2.995-1.254-5.249-2.245-7.057c0.787-0.274,1.523-0.415,2.245-0.415c0.721,0,1.457,0.14,2.243,0.414
		C101.905,111.124,101.227,113.381,100.653,116.374z M100.653,106.842c-2.029,0-4.003,0.766-6.502,2.346
		c3.137-4.985,3.136-8.008,0-12.993c2.5,1.58,4.473,2.346,6.503,2.346s4.003-0.766,6.503-2.346c-3.137,4.985-3.137,8.008,0,12.993
		C104.656,107.608,102.682,106.842,100.653,106.842z M107.266,104.943c-0.532-1.552-0.532-2.95,0-4.502
		c1.81,0.994,4.068,1.676,7.07,2.251C111.334,103.267,109.076,103.949,107.266,104.943z"/>
	<path fill="#41281B" d="M100.653,76.987c-14.174,0-25.705,11.531-25.705,25.705c0,14.174,11.531,25.705,25.705,25.705
		c14.174,0,25.705-11.531,25.705-25.705C126.358,88.518,114.827,76.987,100.653,76.987z M100.653,126.337
		c-13.038,0-23.645-10.607-23.645-23.645c0-13.038,10.607-23.645,23.645-23.645s23.645,10.607,23.645,23.645
		C124.298,115.73,113.691,126.337,100.653,126.337z"/>
	<path fill="#41281B" d="M100.653,61.107c-22.93,0-41.585,18.655-41.585,41.585s18.655,41.585,41.585,41.585
		s41.585-18.655,41.585-41.585S123.583,61.107,100.653,61.107z M100.653,142.216c-21.794,0-39.524-17.73-39.524-39.524
		s17.731-39.524,39.524-39.524s39.524,17.73,39.524,39.524S122.447,142.216,100.653,142.216z"/>
	<path fill="#41281B" d="M100.653,55.408c-26.072,0-47.284,21.211-47.284,47.284s21.211,47.284,47.284,47.284
		s47.284-21.211,47.284-47.284S126.725,55.408,100.653,55.408z M100.653,147.916c-24.936,0-45.223-20.287-45.223-45.223
		s20.287-45.223,45.223-45.223s45.223,20.287,45.223,45.223S125.589,147.916,100.653,147.916z"/>
	<path fill="#41281B" d="M139.197,103.215c0.224-0.196,0.352-0.478,0.352-0.775s-0.128-0.58-0.352-0.775
		c-1.532-1.34-2.709-2.472-3.96-3.825c0.841-1.589,1.673-2.963,2.782-4.618c0.166-0.247,0.216-0.553,0.139-0.84
		c-0.077-0.287-0.274-0.527-0.541-0.658c-1.826-0.897-3.255-1.686-4.815-2.67c0.401-1.753,0.849-3.296,1.492-5.18
		c0.096-0.281,0.066-0.59-0.083-0.848c-0.149-0.257-0.401-0.438-0.693-0.496c-1.996-0.394-3.581-0.786-5.341-1.332
		c-0.067-1.796-0.033-3.402,0.1-5.39c0.02-0.297-0.09-0.587-0.3-0.797c-0.21-0.21-0.497-0.321-0.797-0.3
		c-1.354,0.091-4.859,0.121-5.505,0.096c-0.529-1.717-0.912-3.277-1.298-5.232c-0.058-0.292-0.238-0.544-0.496-0.693
		c-0.258-0.149-0.567-0.178-0.848-0.083c-1.926,0.657-3.495,1.11-5.292,1.517c-0.955-1.522-1.729-2.93-2.608-4.718
		c-0.131-0.267-0.371-0.464-0.658-0.541c-0.287-0.077-0.593-0.026-0.84,0.139c-1.69,1.132-3.088,1.976-4.72,2.835
		c-0.658-0.611-3.348-3.433-3.741-3.882c-0.196-0.224-0.479-0.352-0.776-0.352c-0.297,0-0.58,0.128-0.776,0.352
		c-0.391,0.447-2.866,3.073-3.825,3.96c-0.241-0.128-3.214-1.841-4.618-2.782c-0.062-0.041-0.127-0.076-0.195-0.102
		c-0.204-0.081-0.43-0.094-0.645-0.037c-0.287,0.077-0.527,0.274-0.658,0.541c-0.39,0.793-2.113,3.933-2.669,4.815
		c-1.754-0.401-3.296-0.849-5.181-1.492c-0.281-0.096-0.59-0.066-0.848,0.083c-0.257,0.149-0.438,0.401-0.496,0.693
		c-0.394,1.996-0.786,3.581-1.332,5.341c-0.605,0.022-4.038-0.009-5.39-0.1c-0.301-0.02-0.587,0.09-0.797,0.3
		c-0.21,0.21-0.32,0.501-0.3,0.797c0.136,2.03,0.168,3.663,0.095,5.505c-1.718,0.529-3.278,0.912-5.232,1.298
		c-0.292,0.058-0.544,0.238-0.693,0.496c-0.148,0.257-0.179,0.566-0.083,0.848c0.657,1.925,1.11,3.494,1.517,5.292
		c-1.523,0.956-2.931,1.73-4.718,2.608c-0.267,0.131-0.464,0.371-0.541,0.658c-0.077,0.287-0.026,0.593,0.139,0.84
		c1.132,1.69,1.976,3.088,2.835,4.72c-1.224,1.317-2.383,2.43-3.882,3.741c-0.224,0.196-0.352,0.479-0.352,0.776
		c0,0.297,0.128,0.58,0.352,0.776c1.532,1.34,2.709,2.472,3.96,3.825c-0.841,1.589-1.673,2.963-2.782,4.618
		c-0.166,0.247-0.216,0.553-0.139,0.84c0.077,0.287,0.274,0.527,0.541,0.658c1.827,0.898,3.257,1.686,4.815,2.669
		c-0.401,1.753-0.849,3.296-1.492,5.181c-0.096,0.281-0.066,0.59,0.083,0.848c0.149,0.257,0.401,0.438,0.693,0.496
		c1.997,0.394,3.582,0.786,5.342,1.332c0.066,1.797,0.033,3.403-0.101,5.39c-0.02,0.296,0.09,0.587,0.3,0.797
		c0.21,0.21,0.498,0.319,0.797,0.3c1.354-0.091,2.511-0.133,3.641-0.133c0.605,0,1.218,0.013,1.864,0.038
		c0.529,1.717,0.912,3.278,1.298,5.233c0.058,0.291,0.238,0.544,0.496,0.693c0.158,0.091,0.336,0.138,0.515,0.138
		c0.112,0,0.224-0.018,0.333-0.055c1.926-0.657,3.494-1.11,5.292-1.517c0.956,1.524,1.73,2.931,2.608,4.718
		c0.131,0.267,0.371,0.464,0.658,0.541c0.088,0.024,0.177,0.035,0.267,0.035c0.202,0,0.402-0.06,0.574-0.174
		c1.69-1.132,3.088-1.976,4.72-2.835c1.318,1.224,2.43,2.383,3.741,3.882c0.196,0.224,0.479,0.352,0.776,0.352
		s0.58-0.128,0.776-0.352c1.34-1.532,2.472-2.709,3.825-3.96c1.59,0.841,2.964,1.673,4.618,2.782
		c0.171,0.115,0.371,0.174,0.574,0.174c0.089,0,0.179-0.012,0.266-0.035c0.287-0.077,0.527-0.274,0.658-0.541
		c0.898-1.826,1.687-3.256,2.67-4.815c1.753,0.401,3.295,0.849,5.18,1.492c0.108,0.037,0.221,0.055,0.333,0.055
		c0.179,0,0.357-0.046,0.515-0.138c0.257-0.149,0.438-0.401,0.496-0.693c0.394-1.997,0.786-3.582,1.332-5.342
		c0.605-0.022,4.037,0.009,5.39,0.1c0.023,0.002,0.046,0.002,0.069,0.002c0.001,0,0.003,0,0.005,0c0.569,0,1.03-0.461,1.03-1.03
		c0-0.057-0.005-0.112-0.013-0.166c-0.131-1.985-0.16-3.594-0.089-5.407c1.718-0.529,3.278-0.912,5.233-1.298
		c0.291-0.058,0.544-0.238,0.693-0.496c0.148-0.257,0.179-0.566,0.083-0.848c-0.656-1.925-1.11-3.494-1.517-5.292
		c1.522-0.956,2.93-1.73,4.718-2.609c0.267-0.131,0.464-0.371,0.541-0.658c0.077-0.287,0.026-0.593-0.139-0.84
		c-1.132-1.689-1.976-3.087-2.835-4.719C136.538,105.639,137.697,104.527,139.197,103.215z M136.967,102.44
		c-0.981,0.887-1.835,1.716-2.697,2.62c-0.119-0.108-0.261-0.19-0.42-0.232c-0.287-0.077-0.593-0.026-0.84,0.139
		c-0.172,0.115-0.34,0.226-0.506,0.336c-0.94-0.999-1.858-1.897-2.927-2.863c1.046-0.945,1.947-1.825,2.867-2.8
		c0.143,0.095,0.288,0.191,0.435,0.29c0.171,0.115,0.371,0.174,0.574,0.174c0.089,0,0.179-0.012,0.267-0.035
		c0.194-0.052,0.362-0.162,0.494-0.308C135.094,100.687,135.964,101.533,136.967,102.44z M126.302,110.106
		c0.958,1.43,1.708,2.651,2.436,3.978c-1.425,0.413-2.798,0.739-4.453,1.066c-0.291,0.057-0.544,0.238-0.692,0.495
		c-0.148,0.257-0.179,0.566-0.083,0.848c0.555,1.627,0.964,3,1.324,4.471c-0.318,0.007-3.225-0.032-4.577-0.122
		c-0.298-0.02-0.587,0.09-0.797,0.3c-0.21,0.21-0.319,0.5-0.3,0.797c0.114,1.716,0.155,3.148,0.121,4.662
		c-1.442-0.355-2.793-0.759-4.389-1.304c-0.282-0.096-0.59-0.066-0.848,0.083c-0.258,0.148-0.438,0.401-0.496,0.693
		c-0.334,1.688-0.665,3.082-1.09,4.535c-1.3-0.715-2.501-1.456-3.903-2.396c-0.247-0.166-0.553-0.216-0.84-0.139
		c-0.287,0.077-0.527,0.274-0.658,0.541c-0.759,1.543-1.44,2.803-2.226,4.098c-1.071-1.028-2.039-2.054-3.15-3.324
		c-0.196-0.224-0.478-0.352-0.776-0.352c-0.297,0-0.58,0.128-0.775,0.352c-1.133,1.295-2.117,2.336-3.211,3.383
		c-0.768-1.27-1.438-2.511-2.182-4.026c-0.131-0.267-0.371-0.464-0.658-0.541c-0.287-0.076-0.593-0.026-0.84,0.139
		c-1.429,0.957-2.649,1.708-3.977,2.436c-0.413-1.425-0.739-2.798-1.066-4.453c-0.058-0.291-0.238-0.544-0.496-0.692
		c-0.257-0.149-0.566-0.179-0.847-0.083c-1.629,0.555-3.002,0.964-4.472,1.324c-0.03-1.483,0.011-2.894,0.123-4.577
		c0.02-0.296-0.09-0.587-0.299-0.797c-0.21-0.21-0.501-0.321-0.797-0.3c-1.354,0.091-2.511,0.133-3.641,0.133
		c-0.336,0-0.676-0.004-1.021-0.012c0.355-1.441,0.759-2.792,1.303-4.39c0.096-0.281,0.066-0.59-0.083-0.848
		c-0.148-0.257-0.401-0.438-0.693-0.496c-1.686-0.333-3.079-0.664-4.534-1.089c0.715-1.299,1.456-2.5,2.395-3.902
		c0.166-0.247,0.216-0.553,0.139-0.84c-0.077-0.287-0.274-0.527-0.541-0.658c-1.543-0.758-2.803-1.44-4.098-2.227
		c1.028-1.071,2.054-2.039,3.324-3.15c0.224-0.196,0.352-0.479,0.352-0.776s-0.128-0.58-0.352-0.776
		c-1.294-1.132-2.335-2.116-3.382-3.211c1.27-0.768,2.511-1.438,4.026-2.182c0.267-0.131,0.464-0.371,0.541-0.658
		c0.077-0.287,0.026-0.593-0.139-0.84c-0.957-1.428-1.708-2.648-2.436-3.977c1.426-0.414,2.799-0.739,4.453-1.066
		c0.291-0.058,0.544-0.238,0.693-0.496c0.148-0.257,0.179-0.566,0.083-0.848c-0.555-1.627-0.964-3-1.324-4.471
		c0.316-0.006,3.224,0.032,4.578,0.122c0.023,0.002,0.046,0.002,0.069,0.002c0.272,0,0.535-0.108,0.729-0.302
		c0.21-0.21,0.319-0.501,0.299-0.797c-0.115-1.716-0.155-3.147-0.121-4.662c1.442,0.355,2.793,0.759,4.39,1.304
		c0.108,0.037,0.22,0.055,0.332,0.055c0.179,0,0.357-0.046,0.515-0.138c0.257-0.149,0.438-0.401,0.496-0.693
		c0.333-1.687,0.665-3.081,1.09-4.535c1.3,0.716,2.501,1.456,3.902,2.395c0.171,0.115,0.371,0.174,0.574,0.174h0h0
		c0.089,0,0.179-0.012,0.267-0.035c0.287-0.077,0.527-0.274,0.658-0.541c0.613-1.248,1.176-2.31,1.784-3.356
		c0.144-0.247,0.291-0.494,0.442-0.742c0.739,0.709,2.805,2.93,3.149,3.324c0.196,0.224,0.478,0.352,0.776,0.352l0,0h0
		c0.297,0,0.58-0.128,0.775-0.352c1.113-1.273,2.083-2.3,3.154-3.329c0.019-0.018,0.038-0.036,0.057-0.054
		c0.768,1.27,1.438,2.512,2.182,4.026c0.131,0.267,0.371,0.464,0.658,0.541c0.088,0.024,0.177,0.035,0.266,0.035
		c0.202,0,0.402-0.06,0.574-0.175c1.427-0.957,2.648-1.708,3.977-2.437c0.413,1.426,0.739,2.799,1.066,4.454
		c0.058,0.291,0.238,0.544,0.496,0.693c0.158,0.091,0.336,0.138,0.515,0.138c0.112,0,0.224-0.018,0.333-0.055
		c1.627-0.555,3-0.965,4.471-1.324c0.03,1.484-0.011,2.895-0.123,4.578c-0.02,0.296,0.089,0.587,0.299,0.797
		c0.21,0.21,0.498,0.318,0.797,0.299c1.356-0.091,2.513-0.133,3.643-0.133c0.336,0,0.674,0.004,1.019,0.012
		c-0.355,1.441-0.759,2.792-1.303,4.389c-0.096,0.281-0.066,0.59,0.083,0.847c0.148,0.258,0.401,0.438,0.692,0.496
		c1.688,0.334,3.082,0.666,4.535,1.09c-0.715,1.3-1.456,2.501-2.395,3.903c-0.166,0.247-0.216,0.553-0.139,0.84
		s0.274,0.527,0.541,0.658c1.544,0.759,2.804,1.44,4.098,2.227c-1.028,1.071-2.054,2.039-3.324,3.15
		c-0.224,0.196-0.352,0.479-0.352,0.776c0,0.297,0.128,0.58,0.352,0.775c1.294,1.132,2.335,2.117,3.382,3.211
		c-1.269,0.768-2.511,1.438-4.025,2.182c-0.267,0.131-0.464,0.371-0.541,0.658C126.086,109.553,126.137,109.859,126.302,110.106z
		 M91.01,67.681c1.055,0.682,2.031,1.267,3.066,1.837c0.054,0.03,0.109,0.06,0.163,0.09c-0.04,0.078-0.073,0.16-0.092,0.246
		c-0.015,0.072-0.024,0.145-0.024,0.219c0,0.297,0.128,0.58,0.352,0.776c0.156,0.136,0.307,0.27,0.455,0.402
		c-0.32,0.517-1.642,2.854-2.008,3.569c-1.131-0.731-2.17-1.352-3.289-1.96c-0.052-0.028-0.105-0.057-0.157-0.085
		c0.054-0.163,0.11-0.327,0.167-0.495c0.096-0.281,0.066-0.59-0.083-0.848c-0.1-0.174-0.25-0.308-0.425-0.398
		C89.609,70.259,90.831,68.03,91.01,67.681z M100.4,66.378c0.386,0.426,2.109,2.21,2.62,2.696c-0.107,0.119-0.189,0.261-0.232,0.42
		c-0.077,0.287-0.026,0.593,0.139,0.84c0.115,0.172,0.227,0.34,0.336,0.507c-0.037,0.035-0.075,0.07-0.112,0.105
		c-0.957,0.905-1.822,1.794-2.752,2.822c-0.274-0.303-2.051-2.158-2.71-2.783c-0.03-0.028-0.06-0.056-0.09-0.084
		c0.095-0.143,0.191-0.288,0.29-0.435c0.166-0.247,0.216-0.553,0.139-0.84c-0.052-0.194-0.162-0.362-0.308-0.494
		C98.509,68.384,100.262,66.53,100.4,66.378z M133.737,96.278c-0.143-0.073-0.301-0.116-0.465-0.116
		c-0.297,0-0.58,0.128-0.776,0.352c-0.136,0.156-0.269,0.307-0.402,0.455c-1.167-0.722-2.286-1.351-3.568-2.008
		c0.766-1.184,1.409-2.267,2.045-3.446c0.163,0.054,0.328,0.11,0.495,0.167c0.108,0.037,0.22,0.055,0.332,0.055
		c0.179,0,0.357-0.046,0.515-0.138c0.174-0.1,0.308-0.25,0.397-0.425c1.091,0.667,2.15,1.259,3.353,1.875
		C134.946,94.16,134.335,95.182,133.737,96.278z M130.95,87.934c-0.158-0.033-0.321-0.033-0.48,0.009
		c-0.287,0.077-0.527,0.274-0.658,0.541c-0.091,0.186-0.181,0.366-0.27,0.544c-1.313-0.395-2.558-0.714-3.967-1.016
		c0.433-1.341,0.774-2.554,1.084-3.858c0.171,0.01,0.344,0.021,0.522,0.033c0.023,0.002,0.046,0.002,0.069,0.002
		c0.002,0,0.004,0,0.005,0c0.494,0,0.906-0.348,1.006-0.813c1.223,0.361,2.397,0.658,3.716,0.941
		C131.569,85.574,131.244,86.72,130.95,87.934z M126.152,76.835c-0.067,1.321-0.085,2.512-0.055,3.76
		c-0.16,0.008-0.319,0.051-0.461,0.133c-0.257,0.149-0.438,0.401-0.496,0.693c-0.04,0.203-0.08,0.4-0.12,0.595
		c-1.373-0.042-2.633-0.027-4.095,0.046c0.071-1.407,0.087-2.667,0.048-4.008c0.168-0.034,0.339-0.069,0.513-0.103
		c0.291-0.058,0.544-0.238,0.693-0.496c0.1-0.174,0.141-0.37,0.132-0.566C123.59,76.922,124.782,76.904,126.152,76.835z
		 M119.511,74.761c-0.153,0.05-0.294,0.132-0.41,0.248c-0.21,0.21-0.319,0.501-0.3,0.797c0.014,0.206,0.026,0.407,0.038,0.606
		c-1.336,0.315-2.572,0.661-3.943,1.104c-0.296-1.378-0.606-2.599-0.991-3.884c0.154-0.077,0.309-0.154,0.468-0.232
		c0.267-0.131,0.464-0.371,0.541-0.658c0.052-0.193,0.041-0.394-0.019-0.581c1.243-0.299,2.41-0.63,3.696-1.045
		C118.868,72.41,119.159,73.564,119.511,74.761z M109.808,67.55c0.602,1.178,1.182,2.217,1.832,3.283
		c-0.135,0.088-0.25,0.203-0.332,0.345c-0.149,0.257-0.179,0.566-0.083,0.848c0.067,0.196,0.131,0.387,0.193,0.576
		c-1.21,0.65-2.315,1.305-3.523,2.087c-0.642-1.255-1.258-2.353-1.962-3.495c0.128-0.114,0.259-0.229,0.392-0.346
		c0.224-0.196,0.352-0.479,0.352-0.776c0-0.2-0.062-0.392-0.169-0.557C107.631,68.905,108.673,68.284,109.808,67.55z M82.277,71.369
		c1.258,0.406,2.403,0.731,3.617,1.026c-0.033,0.158-0.034,0.321,0.009,0.48c0.077,0.287,0.274,0.527,0.541,0.658
		c0.186,0.091,0.366,0.181,0.544,0.27c-0.396,1.314-0.714,2.558-1.016,3.966c-1.34-0.433-2.553-0.774-3.858-1.084
		c0.01-0.171,0.021-0.345,0.033-0.521c0.02-0.297-0.089-0.587-0.299-0.797c-0.142-0.142-0.321-0.234-0.514-0.275
		C81.696,73.867,81.993,72.691,82.277,71.369z M78.556,77.246c0.008,0.16,0.051,0.319,0.133,0.461
		c0.149,0.257,0.401,0.438,0.693,0.496c0.203,0.04,0.4,0.08,0.595,0.12c-0.042,1.372-0.027,2.656,0.045,4.095
		c-1.43-0.072-2.666-0.087-4.007-0.048c-0.034-0.168-0.069-0.338-0.103-0.512c-0.058-0.291-0.238-0.544-0.496-0.693
		c-0.174-0.1-0.371-0.142-0.567-0.132c0.033-1.278,0.015-2.491-0.053-3.841C75.72,77.239,78.167,77.256,78.556,77.246z
		 M72.723,83.834c0.05,0.152,0.131,0.294,0.247,0.41c0.21,0.21,0.5,0.32,0.797,0.3c0.207-0.014,0.408-0.026,0.607-0.038
		c0.315,1.337,0.661,2.573,1.104,3.944c-1.377,0.295-2.598,0.606-3.883,0.991c-0.077-0.153-0.154-0.309-0.232-0.468
		c-0.131-0.267-0.371-0.464-0.658-0.541c-0.194-0.052-0.395-0.041-0.582,0.019c-0.299-1.243-0.63-2.41-1.046-3.696
		C70.37,84.477,71.525,84.185,72.723,83.834z M68.794,91.704c0.088,0.135,0.203,0.25,0.345,0.332
		c0.158,0.091,0.336,0.138,0.515,0.138c0.112,0,0.224-0.018,0.332-0.055c0.196-0.067,0.387-0.131,0.576-0.193
		c0.65,1.209,1.304,2.314,2.086,3.523c-1.255,0.642-2.354,1.259-3.494,1.962c-0.114-0.128-0.228-0.258-0.345-0.392
		c-0.196-0.224-0.478-0.352-0.776-0.352c-0.201,0-0.392,0.063-0.557,0.169c-0.611-1.123-1.232-2.165-1.966-3.3
		C66.687,92.935,67.727,92.355,68.794,91.704z M64.338,102.945c0.981-0.887,1.835-1.716,2.698-2.62
		c0.119,0.107,0.261,0.189,0.42,0.232c0.088,0.023,0.177,0.035,0.266,0.035c0.202,0,0.402-0.06,0.574-0.174
		c0.172-0.115,0.34-0.226,0.506-0.336c0.941,1,1.859,1.898,2.927,2.863c-1.046,0.945-1.948,1.825-2.868,2.8
		c-0.143-0.095-0.288-0.191-0.435-0.289c-0.247-0.166-0.553-0.216-0.84-0.139c-0.193,0.052-0.362,0.162-0.494,0.307
		C66.212,104.697,65.341,103.851,64.338,102.945z M67.568,109.106c0.143,0.073,0.301,0.115,0.465,0.115
		c0.297,0,0.58-0.128,0.776-0.352c0.136-0.156,0.27-0.307,0.402-0.456c1.168,0.723,2.287,1.352,3.569,2.008
		c-0.766,1.184-1.409,2.267-2.045,3.446c-0.163-0.054-0.328-0.11-0.495-0.167c-0.282-0.096-0.59-0.066-0.848,0.083
		c-0.174,0.1-0.308,0.25-0.398,0.425c-1.09-0.667-2.149-1.258-3.353-1.874C66.359,111.225,66.97,110.203,67.568,109.106z
		 M70.355,117.452c0.07,0.015,0.141,0.025,0.213,0.025c0.089,0,0.179-0.012,0.266-0.035c0.287-0.077,0.527-0.274,0.658-0.541
		c0.091-0.186,0.181-0.367,0.271-0.545c1.315,0.396,2.559,0.714,3.966,1.016c-0.433,1.341-0.774,2.554-1.083,3.858
		c-0.171-0.01-0.344-0.021-0.521-0.033c-0.297-0.021-0.587,0.09-0.797,0.3c-0.142,0.141-0.233,0.321-0.274,0.513
		c-1.226-0.362-2.402-0.659-3.725-0.943C69.736,119.811,70.061,118.666,70.355,117.452z M75.153,128.549
		c0.067-1.32,0.085-2.51,0.055-3.758c0.16-0.008,0.318-0.052,0.461-0.134c0.257-0.149,0.438-0.401,0.496-0.693
		c0.04-0.203,0.08-0.4,0.12-0.596c1.375,0.042,2.634,0.028,4.095-0.045c-0.071,1.408-0.087,2.667-0.048,4.007
		c-0.168,0.034-0.339,0.069-0.513,0.103c-0.291,0.058-0.544,0.238-0.693,0.496c-0.1,0.174-0.141,0.371-0.132,0.567
		c-0.417-0.011-0.824-0.016-1.228-0.016C76.928,128.48,76.078,128.502,75.153,128.549z M81.794,130.621
		c0.153-0.05,0.295-0.131,0.411-0.247c0.21-0.21,0.32-0.501,0.3-0.797c-0.014-0.206-0.026-0.407-0.038-0.606
		c1.335-0.314,2.572-0.661,3.943-1.103c0.296,1.378,0.606,2.599,0.99,3.883c-0.153,0.077-0.309,0.154-0.468,0.232
		c-0.267,0.131-0.464,0.371-0.541,0.658c-0.052,0.194-0.041,0.395,0.019,0.582c-1.243,0.299-2.41,0.63-3.696,1.045
		C82.437,132.974,82.146,131.819,81.794,130.621z M91.498,137.834c-0.602-1.177-1.182-2.217-1.832-3.284
		c0.135-0.087,0.25-0.203,0.332-0.345c0.148-0.257,0.179-0.566,0.083-0.848c-0.067-0.196-0.131-0.387-0.193-0.576
		c1.209-0.65,2.314-1.304,3.524-2.086c0.642,1.254,1.258,2.353,1.962,3.494c-0.128,0.114-0.259,0.229-0.392,0.346
		c-0.224,0.196-0.352,0.479-0.352,0.776c0,0.2,0.062,0.392,0.169,0.557C93.674,136.479,92.632,137.1,91.498,137.834z
		 M100.905,139.007c-0.886-0.981-1.715-1.835-2.62-2.697c0.108-0.119,0.19-0.261,0.232-0.42c0.077-0.287,0.026-0.593-0.139-0.84
		c-0.115-0.172-0.226-0.34-0.336-0.506c0.999-0.94,1.897-1.859,2.863-2.928c0.945,1.045,1.824,1.947,2.8,2.868
		c-0.094,0.143-0.191,0.288-0.289,0.435c-0.166,0.247-0.216,0.553-0.139,0.84c0.052,0.194,0.162,0.362,0.308,0.494
		C102.657,137.133,101.812,138.004,100.905,139.007z M110.295,137.703c-1.11-0.718-2.132-1.329-3.229-1.927
		c0.073-0.143,0.115-0.301,0.115-0.465c0-0.297-0.128-0.58-0.352-0.775c-0.156-0.136-0.307-0.27-0.456-0.402
		c0.723-1.168,1.352-2.287,2.008-3.569c1.184,0.766,2.267,1.409,3.447,2.045c-0.054,0.163-0.11,0.328-0.167,0.495
		c-0.096,0.281-0.065,0.59,0.083,0.848c0.1,0.173,0.25,0.308,0.424,0.397C111.503,135.441,110.911,136.5,110.295,137.703z
		 M119.029,134.015c-1.258-0.406-2.403-0.731-3.617-1.026c0.033-0.157,0.033-0.321-0.009-0.479
		c-0.077-0.287-0.274-0.527-0.541-0.658c-0.186-0.091-0.366-0.181-0.544-0.27c0.396-1.314,0.714-2.558,1.016-3.967
		c1.34,0.433,2.553,0.775,3.859,1.084c-0.01,0.171-0.021,0.345-0.033,0.521c-0.02,0.296,0.09,0.587,0.3,0.797
		c0.141,0.141,0.321,0.233,0.513,0.274C119.609,131.517,119.312,132.693,119.029,134.015z M122.749,128.137
		c-0.008-0.16-0.051-0.318-0.133-0.46c-0.149-0.257-0.401-0.438-0.693-0.496c-0.203-0.04-0.4-0.08-0.595-0.12
		c0.042-1.372,0.027-2.656-0.045-4.094c1.43,0.072,2.666,0.087,4.008,0.048c0.034,0.168,0.069,0.338,0.103,0.512
		c0.058,0.291,0.238,0.544,0.496,0.692c0.158,0.092,0.336,0.138,0.515,0.138c0.017,0,0.034-0.003,0.051-0.004
		c-0.033,1.278-0.015,2.49,0.053,3.839C125.169,128.124,123.997,128.106,122.749,128.137z M128.583,121.55
		c-0.05-0.152-0.131-0.294-0.247-0.41c-0.21-0.21-0.499-0.32-0.797-0.3c-0.207,0.014-0.408,0.026-0.606,0.038
		c-0.315-1.336-0.661-2.572-1.104-3.943c1.379-0.296,2.599-0.607,3.883-0.991c0.077,0.154,0.154,0.31,0.233,0.469
		c0.131,0.267,0.371,0.464,0.658,0.541c0.088,0.024,0.177,0.035,0.266,0.035c0.107,0,0.214-0.018,0.316-0.051
		c0.299,1.242,0.63,2.408,1.045,3.692C130.935,120.908,129.781,121.199,128.583,121.55z M132.512,113.68
		c-0.087-0.135-0.203-0.25-0.345-0.333c-0.258-0.149-0.567-0.179-0.848-0.083c-0.196,0.067-0.387,0.131-0.576,0.193
		c-0.649-1.208-1.304-2.313-2.086-3.523c1.255-0.642,2.354-1.259,3.494-1.962c0.114,0.128,0.229,0.259,0.346,0.392
		c0.196,0.224,0.478,0.352,0.775,0.352c0.2,0,0.392-0.062,0.557-0.169c0.611,1.123,1.232,2.165,1.966,3.3
		C134.618,112.449,133.578,113.029,132.512,113.68z"/>
</g>
</svg>
