<?xml version="1.0" encoding="utf-8"?>
<!-- Generator: Adobe Illustrator 17.0.0, SVG Export Plug-In . SVG Version: 6.00 Build 0)  -->
<!DOCTYPE svg PUBLIC "-//W3C//DTD SVG 1.1//EN" "http://www.w3.org/Graphics/SVG/1.1/DTD/svg11.dtd">
<svg version="1.1" id="Layer_1" xmlns="http://www.w3.org/2000/svg" xmlns:xlink="http://www.w3.org/1999/xlink" x="0px" y="0px"
	 width="200px" height="200px" viewBox="0 0 200 200" enable-background="new 0 0 200 200" xml:space="preserve">
<path fill="#97BF0D" d="M200,188.003c0,6.902-5.373,12.496-12,12.496H12c-6.627,0-12-5.595-12-12.496V12.11
	C0,5.208,5.373-0.387,12-0.387h176c6.627,0,12,5.595,12,12.496V188.003z"/>
<g>
	<g>
		<path fill="#41281B" d="M119.299,110.772c3.411,4.874,11.596,0.398,8.152-4.53c-5.513-7.877-11.163-17.28-19.774-21.745
			c-0.435-0.226-0.866-0.372-1.291-0.463c-1.651-1.416-4.01-1.94-6.219-1.569c-0.398,0.035-0.807,0.113-1.232,0.259
			c-9.138,3.137-16.765,12.485-23.344,19.452c-4.137,4.38,3.206,10.14,7.296,5.809c3.284-3.477,6.905-7.792,10.909-11.264
			c-0.075,1.378-0.15,2.756-0.24,4.132c-3.987,3.178-17.781,14.719-19.713,23.598c0,0,8.213,3.629,20.012,4.787
			c-1.67,4.93-5.923,15.225-8.136,19.388c-1.195,2.246,0.21,5.182,2.402,6.136c2.462,1.08,4.947-0.164,6.141-2.402
			c2.303-4.325,4.161-8.806,5.678-13.465c0.647-1.994-3.778-7.658-5.346-9.585c0.915,0.082,1.854,0.139,2.808,0.184
			c5.106,6.786,10.965,13.157,14,21.011c2.164,5.605,10.812,2.105,8.642-3.509c-2.34-6.052-6.287-11.165-10.288-16.25
			c-0.419-0.534-0.71-1.082-0.919-1.642c5.899-0.705,12.12-2.279,18.318-5.194c-7.884-13.734-18.395-22.467-19.181-23.111
			c0.096-1.472,0.181-2.945,0.254-4.42C112.572,100.476,115.969,106.015,119.299,110.772z"/>
		<path fill="#41281B" d="M84.898,57.041c0.511,0.343,1.193,0.4,1.792,0.543c-0.223,0.832-0.343,1.773,0.235,2.335
			c0.771,0.75,1.94,0.764,2.853,1.305c0.075,0.043,0.155,0.075,0.237,0.101c-0.261,1.282-0.176,2.618,1.188,3.257
			c1.124,0.529,2.62-0.2,3.726-0.863c0.007,0.003,0.016,0.007,0.021,0.009c0.207,0.08,0.611,0.972,1.011,1.847
			c-1.028,0.705-1.816,1.606-2.253,2.629c-4.184-1.522-8.044-1.374-8.728,0.386c-0.706,1.816,2.241,4.659,6.584,6.344
			c0.943,0.367,1.87,0.644,2.756,0.842c0.364,0.948,0.922,1.841,1.687,2.608c2.924,2.933,7.673,2.938,10.605,0.016
			c0.83-0.828,1.413-1.802,1.776-2.839c0.698-0.16,1.418-0.364,2.145-0.623c4.387-1.555,7.425-4.306,6.778-6.141
			c-0.616-1.743-4.326-2.035-8.451-0.736c-1.094-2.361-4.053-4.057-7.538-4.057c-0.484,0-0.955,0.037-1.416,0.101
			c-0.136-1.491-0.532-3.537-0.844-3.883c-0.005-0.005-0.009-0.009-0.016-0.014c-0.066-1.846-0.463-3.646-1.219-5.422
			c-0.219-0.515-0.487-1.014-0.785-1.493c0.08-0.47-0.089-0.931-0.642-1.312c-0.172-0.12-0.367-0.251-0.574-0.377
			c-0.183-0.226-0.367-0.449-0.555-0.665c-0.703-0.812-1.929-2.248-2.989-2.602c-2.731-0.917-1.113,5.29-0.303,6.49
			c0.212,0.381,0.522,0.619,0.885,0.746c0,0.047,0.003,0.097,0.009,0.146c0.143,1.119,0.531,1.954,1.054,2.669
			c-2.428-1.747-5.106-3.001-8.315-3.504C84.399,54.691,83.983,56.425,84.898,57.041z M92.262,62.62
			c-0.01-0.012-0.016-0.017-0.021-0.028c-0.002-0.005-0.002-0.005-0.005-0.012C92.245,62.594,92.255,62.606,92.262,62.62z
			 M92.001,62.354c0.003,0.002,0.005,0.003,0.01,0.009c-0.038-0.002-0.077-0.002-0.113-0.007
			C91.959,62.359,91.987,62.357,92.001,62.354z"/>
	</g>
</g>
</svg>
