<?xml version="1.0" encoding="utf-8"?>
<!-- Generator: Adobe Illustrator 17.0.0, SVG Export Plug-In . SVG Version: 6.00 Build 0)  -->
<!DOCTYPE svg PUBLIC "-//W3C//DTD SVG 1.1//EN" "http://www.w3.org/Graphics/SVG/1.1/DTD/svg11.dtd">
<svg version="1.1" id="Layer_1" xmlns="http://www.w3.org/2000/svg" xmlns:xlink="http://www.w3.org/1999/xlink" x="0px" y="0px"
	 width="200px" height="200px" viewBox="0 0 200 200" enable-background="new 0 0 200 200" xml:space="preserve">
<path fill="#97BF0D" d="M200,188.003c0,6.902-5.373,12.496-12,12.496H12c-6.627,0-12-5.595-12-12.496V12.11
	C0,5.208,5.373-0.387,12-0.387h176c6.627,0,12,5.595,12,12.496V188.003z"/>
<g>
	<g>
		<g>
			<path fill="#41281B" d="M69.38,152.44L69.38,152.44c-0.001,1.965,1.221,3.549,2.939,3.549c1.719,0,3.112-1.585,3.112-3.549
				v-13.342H69.38V152.44z"/>
			<path fill="#41281B" d="M77.687,152.374L77.687,152.374c0.001,1.959,1.394,3.549,3.112,3.549c1.721,0,3.115-1.591,3.115-3.549
				l0.052-13.276h-6.28v13.276H77.687z"/>
			<circle fill="#41281B" cx="77.377" cy="92.9" r="5.794"/>
			<path fill="#41281B" d="M97.117,92.698c-2.289-2.78-4.511-5.575-7.194-7.993c-3.054-2.749-7.587,1.756-4.52,4.521
				c2.034,1.831,3.8,3.881,5.532,5.974c-1.817,2.712-4.008,4.969-6.75,6.752c-0.673-0.463-1.341-0.853-2.006-1.156
				c-4.898-2.537-9.898-0.068-10.602,0.306c-2.704-1.776-4.872-4.014-6.674-6.698c1.734-2.095,3.501-4.146,5.535-5.977
				c3.069-2.763-1.467-7.27-4.521-4.52c-2.685,2.418-4.905,5.211-7.194,7.993c-0.933,1.132-1.266,2.531-0.5,3.872
				c2.564,4.49,5.952,8.256,10.293,10.974c0.296,2.387,0.916,4.981,0.916,4.981L69,115.041c-5.725,13.436-4.487,23.286-4.474,23.408
				c0.037,0.343,0.329,0.606,0.678,0.606h4.371h6.054h2.261h6.274h4.005c0.333,0,0.62-0.244,0.674-0.574
				c0.076-0.5,1.847-9.988-3.888-23.441c-0.453-1.074-0.88-2.837-0.88-2.837l0.534-3.341c0.348-0.058,0.707-0.159,1.074-0.354
				c5.143-2.753,9.058-6.892,11.934-11.937C98.381,95.23,98.047,93.831,97.117,92.698z"/>
			<path fill="#41281B" d="M78.088,86.402c4.629,0,8.376-3.197,8.376-7.14c0-2.913-2.051-5.416-4.987-6.525
				c-1.245-2.052,1.497-3.677,1.497-3.677h-9.859c0,0,2.514,1.928,1.486,3.719c-2.882,1.126-4.886,3.602-4.886,6.483
				C69.711,83.205,73.463,86.402,78.088,86.402z"/>
		</g>
	</g>
</g>
<g>
	<g>
		<g>
			<path fill="#41281B" d="M108.281,150.905L108.281,150.905c-0.002,2.435,1.513,4.399,3.643,4.399c2.131,0,3.857-1.964,3.857-4.399
				v-16.537h-7.499V150.905z"/>
			<path fill="#41281B" d="M118.577,150.823L118.577,150.823c0.002,2.428,1.727,4.399,3.857,4.399c2.133,0,3.86-1.971,3.86-4.399
				l0.065-16.454h-7.784v16.454H118.577z"/>
			<circle fill="#41281B" cx="118.192" cy="77.11" r="7.182"/>
			<path fill="#41281B" d="M142.658,76.859c-2.837-3.446-5.591-6.91-8.916-9.906c-3.785-3.407-9.404,2.177-5.602,5.604
				c2.521,2.27,4.71,4.81,6.857,7.405c-2.252,3.362-4.968,6.158-8.367,8.368c-0.834-0.574-1.662-1.057-2.486-1.432
				c-6.07-3.144-12.267-0.084-13.14,0.379c-3.351-2.201-6.039-4.975-8.272-8.302c2.149-2.596,4.34-5.138,6.86-7.408
				c3.804-3.425-1.819-9.011-5.604-5.602c-3.328,2.997-6.079,6.458-8.916,9.906c-1.157,1.403-1.569,3.137-0.62,4.799
				c3.177,5.565,7.377,10.233,12.757,13.602c0.367,2.958,1.136,6.174,1.136,6.174l-0.537,4.106
				c-7.096,16.653-5.561,28.862-5.546,29.013c0.046,0.425,0.407,0.751,0.841,0.751h5.417h7.503h2.802h7.777h4.965
				c0.413,0,0.769-0.302,0.836-0.711c0.095-0.62,2.289-12.38-4.819-29.053c-0.562-1.331-1.09-3.516-1.09-3.516l0.662-4.141
				c0.432-0.072,0.876-0.197,1.331-0.439c6.374-3.413,11.226-8.542,14.792-14.795C144.226,79.998,143.812,78.263,142.658,76.859z"/>
			<path fill="#41281B" d="M119.073,69.056c5.737,0,10.382-3.962,10.382-8.849c0-3.611-2.542-6.713-6.181-8.088
				c-1.543-2.544,1.856-4.557,1.856-4.557h-12.22c0,0,3.116,2.389,1.842,4.61c-3.572,1.396-6.056,4.464-6.056,8.035
				C108.691,65.094,113.342,69.056,119.073,69.056z"/>
		</g>
	</g>
</g>
</svg>
