<?xml version="1.0" encoding="utf-8"?>
<!-- Generator: Adobe Illustrator 17.0.0, SVG Export Plug-In . SVG Version: 6.00 Build 0)  -->
<!DOCTYPE svg PUBLIC "-//W3C//DTD SVG 1.1//EN" "http://www.w3.org/Graphics/SVG/1.1/DTD/svg11.dtd">
<svg version="1.1" id="Layer_1" xmlns="http://www.w3.org/2000/svg" xmlns:xlink="http://www.w3.org/1999/xlink" x="0px" y="0px"
	 width="200px" height="200px" viewBox="0 0 200 200" enable-background="new 0 0 200 200" xml:space="preserve">
<path fill="#97BF0D" d="M200,188.003c0,6.902-5.373,12.496-12,12.496H12c-6.627,0-12-5.595-12-12.496V12.11
	C0,5.208,5.373-0.387,12-0.387h176c6.627,0,12,5.595,12,12.496V188.003z"/>
<g>
	<path fill="#41281B" d="M109.971,102.51c-12.178,0-22.086,9.908-22.086,22.086s9.908,22.086,22.086,22.086
		c12.178,0,22.086-9.908,22.086-22.086S122.149,102.51,109.971,102.51z M128.046,130.514c-1.899-2.767-4.462-4.228-7.831-4.453
		l-5.258-0.93c0.019-0.176,0.029-0.354,0.029-0.535c0-0.181-0.011-0.359-0.029-0.535l5.258-0.93
		c3.369-0.225,5.932-1.686,7.831-4.453c0.612,1.864,0.947,3.852,0.947,5.918C128.993,126.662,128.658,128.651,128.046,130.514z
		 M124.55,134.253c-2.533-0.152-4.285-1.164-5.683-3.281l-1.995-2.39l2.892,0.512l0.175,0.021c2.533,0.152,4.285,1.164,5.683,3.281
		c0.532,0.806,0.58,1.349,0.483,1.517C126.008,134.081,125.514,134.31,124.55,134.253z M111.043,142.051
		c-0.432,0.863-0.878,1.177-1.073,1.177c-0.195,0-0.641-0.313-1.073-1.177l0,0c-1.135-2.269-1.135-4.293,0-6.562l1.073-2.923
		l1.003,2.761l0.07,0.162C112.178,137.758,112.178,139.782,111.043,142.051z M93.835,133.912c-0.097-0.169-0.049-0.712,0.483-1.517
		l0,0c1.398-2.117,3.15-3.129,5.683-3.281l3.068-0.532l-1.889,2.249l-0.106,0.141c-1.398,2.117-3.15,3.129-5.683,3.281
		C94.427,134.31,93.933,134.081,93.835,133.912z M99.727,126.061c-3.369,0.225-5.932,1.686-7.831,4.453
		c-0.612-1.864-0.947-3.852-0.947-5.918c0-2.066,0.336-4.054,0.947-5.918c1.899,2.767,4.462,4.228,7.831,4.453l5.258,0.93
		c-0.019,0.176-0.029,0.354-0.029,0.535c0,0.181,0.011,0.359,0.029,0.535L99.727,126.061z M95.391,114.94
		c2.532,0.152,4.285,1.164,5.683,3.281l1.995,2.39l-2.892-0.512l-0.175-0.021c-2.533-0.152-4.285-1.164-5.683-3.281
		c-0.532-0.806-0.58-1.349-0.483-1.517c0.087-0.15,0.49-0.35,1.261-0.35C95.189,114.931,95.287,114.934,95.391,114.94L95.391,114.94
		z M108.898,107.142c0.432-0.864,0.878-1.177,1.073-1.177c0.195,0,0.641,0.313,1.073,1.177l0,0c1.135,2.269,1.135,4.293,0,6.562
		l-1.073,2.923l-1.003-2.761l-0.07-0.162C107.764,111.435,107.764,109.411,108.898,107.142z M109.971,126.548
		c-1.076,0-1.952-0.876-1.952-1.952s0.876-1.952,1.952-1.952s1.952,0.876,1.952,1.952S111.047,126.548,109.971,126.548z
		 M124.845,114.931c0.771,0,1.174,0.199,1.261,0.35c0.097,0.169,0.049,0.712-0.483,1.517c-1.398,2.117-3.15,3.129-5.683,3.281
		l-3.068,0.533l1.889-2.249l0.106-0.141c1.398-2.117,3.151-3.129,5.683-3.281C124.654,114.934,124.752,114.931,124.845,114.931z
		 M124.123,111.903c-3.341,0.263-5.884,1.752-7.762,4.555l-3.439,4.093c-0.287-0.21-0.595-0.391-0.923-0.537l1.824-5.021
		c1.49-3.032,1.507-5.983,0.058-9.013C117.909,106.825,121.47,108.948,124.123,111.903z M106.06,105.98
		c-1.449,3.029-1.433,5.981,0.058,9.013l1.824,5.021c-0.328,0.146-0.636,0.327-0.923,0.537l-3.439-4.093
		c-1.878-2.802-4.421-4.292-7.762-4.555C98.471,108.948,102.033,106.825,106.06,105.98z M95.818,137.29
		c3.341-0.263,5.884-1.752,7.762-4.555l3.439-4.093c0.287,0.21,0.595,0.391,0.923,0.537l-1.824,5.021
		c-1.49,3.032-1.507,5.983-0.058,9.013C102.033,142.368,98.471,140.245,95.818,137.29z M113.881,143.213
		c1.449-3.029,1.433-5.981-0.057-9.013L112,129.179c0.328-0.146,0.636-0.327,0.923-0.537l3.439,4.093
		c1.878,2.802,4.421,4.292,7.762,4.555C121.47,140.245,117.909,142.368,113.881,143.213z"/>
	<path fill="#41281B" d="M147.921,118.397c-4.375-3.645-7.487-8.473-9-13.963c-1.513-5.49-1.314-11.231,0.575-16.603l0.134-0.382
		c0.165-0.469,0.092-0.988-0.195-1.394c-0.287-0.405-0.753-0.646-1.25-0.646h-6.316c5.309-3.258,8.858-9.116,8.858-15.789v-2.239
		c0-0.846-0.686-1.532-1.532-1.532h-2.242c-4.029,0-7.949,1.338-11.137,3.735c-0.226-1.228-0.574-2.434-1.049-3.606l-0.841-2.077
		c-0.152-0.377-0.448-0.677-0.823-0.836c-0.374-0.159-0.796-0.162-1.173-0.009l-2.074,0.841c-2.596,1.051-4.882,2.649-6.735,4.684
		c-0.925-2.188-2.266-4.19-3.966-5.889l-1.584-1.584c-0.287-0.287-0.677-0.449-1.083-0.449c-0.406,0-0.796,0.161-1.083,0.449
		l-1.584,1.584c-1.699,1.699-3.041,3.701-3.964,5.89c-1.853-2.036-4.14-3.634-6.736-4.685l-2.075-0.841
		c-0.377-0.152-0.798-0.149-1.173,0.009s-0.67,0.459-0.823,0.836l-0.841,2.077c-0.476,1.173-0.823,2.379-1.049,3.607
		c-3.188-2.397-7.107-3.735-11.136-3.735h-2.242c-0.846,0-1.532,0.686-1.532,1.532v2.239c0,6.672,3.549,12.53,8.858,15.789h-6.847
		c-0.591,0-1.129,0.34-1.383,0.873c-0.254,0.534-0.179,1.166,0.194,1.624c4.743,5.841,6.953,13.186,6.221,20.68l-0.925,9.456H41.473
		c-0.846,0-1.532,0.686-1.532,1.532s0.686,1.532,1.532,1.532h41.383c-0.146,1.143-0.222,2.308-0.222,3.491
		c0,15.073,12.263,27.337,27.337,27.337s27.337-12.263,27.337-27.337c0-1.182-0.076-2.348-0.222-3.491h9.855
		c0.645,0,1.221-0.404,1.44-1.011C148.601,119.489,148.417,118.81,147.921,118.397z M126.117,73.359
		c2.904-2.87,6.728-4.446,10.837-4.446h0.71v0.707c0,8.518-6.93,15.449-15.448,15.449h-0.631
		C124.428,81.798,126.018,77.688,126.117,73.359z M121.008,66.736l0.654-0.265l0.266,0.658c0.729,1.797,1.11,3.685,1.132,5.612
		c0.048,3.962-1.484,7.891-4.206,10.783c-0.649,0.693-1.371,1.323-2.145,1.885h-4.836c2.415-3.956,3.253-8.735,2.334-13.301
		C115.913,69.703,118.252,67.852,121.008,66.736z M105.989,64.858l0.501-0.501l0.501,0.501c2.014,2.014,3.429,4.534,4.094,7.288
		c0.996,4.132,0.242,8.529-2.073,12.069c-0.263,0.406-0.553,0.805-0.863,1.193h-3.317c-0.296-0.37-0.575-0.752-0.832-1.143
		c-0.011-0.019-0.023-0.037-0.034-0.055c-2.309-3.535-3.063-7.931-2.067-12.062C102.561,69.393,103.975,66.873,105.989,64.858z
		 M91.052,67.128l0.266-0.657l0.655,0.266c2.757,1.116,5.096,2.968,6.802,5.374c-0.919,4.563-0.082,9.341,2.332,13.298H96.27
		c-0.773-0.562-1.496-1.192-2.147-1.888c-2.719-2.89-4.251-6.819-4.203-10.782C89.942,70.814,90.323,68.926,91.052,67.128z
		 M75.317,69.62v-0.707h0.71c4.109,0,7.933,1.576,10.837,4.446c0.099,4.331,1.69,8.442,4.532,11.71h-0.631
		C82.247,85.068,75.317,78.138,75.317,69.62z M109.971,148.87c-13.384,0-24.273-10.889-24.273-24.273
		c0-13.384,10.889-24.273,24.273-24.273s24.273,10.889,24.273,24.273C134.244,137.981,123.355,148.87,109.971,148.87z
		 M136.511,118.042c-2.944-11.918-13.726-20.782-26.54-20.782s-23.596,8.864-26.54,20.782h-1.981l0.896-9.158
		c0.709-7.266-1.077-14.405-5.057-20.412h58.786c-1.591,5.478-1.632,11.242-0.107,16.776c1.328,4.819,3.767,9.179,7.13,12.794
		H136.511z"/>
	<path fill="#41281B" d="M131.221,89.997H82.673c-0.846,0-1.532,0.686-1.532,1.532s0.686,1.532,1.532,1.532h48.548
		c0.846,0,1.532-0.686,1.532-1.532S132.067,89.997,131.221,89.997z"/>
</g>
</svg>
