<?xml version="1.0" encoding="utf-8"?>
<!-- Generator: Adobe Illustrator 17.0.0, SVG Export Plug-In . SVG Version: 6.00 Build 0)  -->
<!DOCTYPE svg PUBLIC "-//W3C//DTD SVG 1.1//EN" "http://www.w3.org/Graphics/SVG/1.1/DTD/svg11.dtd">
<svg version="1.1" id="Layer_1" xmlns="http://www.w3.org/2000/svg" xmlns:xlink="http://www.w3.org/1999/xlink" x="0px" y="0px"
	 width="200px" height="200px" viewBox="0 0 200 200" enable-background="new 0 0 200 200" xml:space="preserve">
<path fill="#97BF0D" d="M200,188.003c0,6.902-5.373,12.496-12,12.496H12c-6.627,0-12-5.595-12-12.496V12.11
	C0,5.208,5.373-0.387,12-0.387h176c6.627,0,12,5.595,12,12.496V188.003z"/>
<g>
	<g>
		<path fill="#41281B" d="M111.124,65.748c-7.501,1.749-14.03,5.357-18.689,12.471c-1.134-2.383-1.971-4.398-3.02-6.297
			c-3.54-6.416-10.308-8.49-16.833-5.138c-1.446,0.743-2.915,1.631-4.039,2.78c-4.06,4.148-8.882,6.998-13.975,9.401
			c-0.095-0.004-0.196,0.011-0.305,0.053c-4.418,1.683-14.449,3.78-12.609,10.565c0.269,0.989,1.803,0.569,1.534-0.423
			c-0.912-3.361,2.467-5.365,5.979-6.725c4.369-0.683,8.943-1.422,13.545-1.972c4.421-0.529,8.018,1.454,9.741,5.414
			c6.359,14.619,16.492,26.161,27.705,37.126c3.706,6.418,5.628,13.729,5.557,21.23c-0.011,1.167,1.527,1.335,1.989,0.511
			c0.16,0.614,0.321,1.228,0.483,1.841c0.31,1.184,1.978,0.855,2.076-0.177c0.213,0.459,0.425,0.917,0.638,1.375
			c0.094,0.202,0.222,0.338,0.367,0.426c0.061,0.194,0.119,0.393,0.181,0.586c0.044,0.138,0.108,0.252,0.184,0.35
			c0.232,0.521,0.85,0.914,1.516,0.593c0.201-0.097,0.381-0.215,0.55-0.342c0.277,1.084,0.553,2.168,0.83,3.252
			c0.179,0.703,0.837,0.871,1.367,0.68c0.315,0.995,0.629,1.989,0.943,2.985c0.097,0.364,0.195,0.728,0.291,1.093
			c0.04-0.007,0.079-0.014,0.119-0.02c0.022,0.028,0.045,0.05,0.069,0.075c0.005,0.028,0.011,0.056,0.016,0.084
			c0.234,1.346,2.279,0.773,2.046-0.564c-0.752-4.326-1.823-8.574-3.187-12.718c-0.835-5.526-1.756-11.029-3.117-16.421
			c-2.018-8.002-5.454-15.683-8.682-23.33c-2.039-4.831-2.287-5.8,1.451-8.277c0.622-0.067,1.24-0.155,1.857-0.255
			c0.409-0.01,0.819-0.02,1.228-0.03c-0.048,0.032-0.096,0.065-0.145,0.098c1.582-0.043,3.146-0.111,4.695-0.208l0.311-0.008
			c0.089-0.003,0.164-0.023,0.249-0.031c14.344-0.97,27.293-4.537,39.164-14.539c-2.138,0-3.103-0.042-4.064,0.007
			c-5.953,0.3-11.906,0.594-17.854,0.957c-0.342,0.02-0.699,0.055-1.056,0.099h-3.387c8.213-5.993,15.96-12.577,22.833-20.259
			c3.548-3.966,6.682-8.311,9.91-12.554c0.848-1.115,1.338-2.501,1.287-4.474c-1.143,0.538-2.386,0.93-3.413,1.636
			C143.376,56.355,127.627,61.901,111.124,65.748z"/>
	</g>
</g>
</svg>
