<?xml version="1.0" encoding="utf-8"?>
<!-- Generator: Adobe Illustrator 17.0.0, SVG Export Plug-In . SVG Version: 6.00 Build 0)  -->
<!DOCTYPE svg PUBLIC "-//W3C//DTD SVG 1.1//EN" "http://www.w3.org/Graphics/SVG/1.1/DTD/svg11.dtd">
<svg version="1.1" id="Layer_1" xmlns="http://www.w3.org/2000/svg" xmlns:xlink="http://www.w3.org/1999/xlink" x="0px" y="0px"
	 width="200px" height="200px" viewBox="0 0 200 200" enable-background="new 0 0 200 200" xml:space="preserve">
<path fill="#97BF0D" d="M200,188.003c0,6.902-5.373,12.496-12,12.496H12c-6.627,0-12-5.595-12-12.496V12.11
	C0,5.208,5.373-0.387,12-0.387h176c6.627,0,12,5.595,12,12.496V188.003z"/>
<g>
	<path fill="#41281B" d="M91.505,97.757c-0.216,0-0.429-0.094-0.573-0.276c-4.891-6.129-6.266-14.528-6.321-14.883
		c-1.229-6.016,0.223-15.236,0.285-15.626c0.033-0.21,0.156-0.394,0.336-0.506c0.18-0.112,0.4-0.14,0.603-0.078
		c0.977,0.301,2.294-0.607,2.679-0.948c1.519-1.321,1.357-2.667,1.35-2.724c-0.03-0.22,0.041-0.453,0.195-0.614
		c4.468-4.681,10.599-4.198,10.858-4.175c0.403,0.036,0.701,0.391,0.666,0.795c-0.036,0.403-0.391,0.702-0.794,0.666
		c-0.081-0.005-5.506-0.409-9.453,3.506c-0.007,0.711-0.234,2.239-1.854,3.648c-0.069,0.061-1.57,1.372-3.229,1.372
		c-0.004,0-0.008,0-0.012,0c-0.314,2.283-1.177,9.573-0.188,14.424c0.019,0.115,1.381,8.409,6.025,14.229
		c0.253,0.316,0.201,0.778-0.116,1.03C91.826,97.705,91.665,97.757,91.505,97.757z"/>
	<path fill="#41281B" d="M85.618,67.822c-0.149,0-0.3-0.045-0.43-0.14c-5.289-3.839-5.411-11.621-5.414-11.951
		c0.137-4.42,0.757-6.919,1.894-7.667c0.352-0.232,0.706-0.265,0.967-0.214c0.768,0.076,1.138,0.937,1.228,1.746
		c0.002,0.019,0.003,0.038,0.004,0.056c0.288,8.524,7.003,12.275,7.071,12.312c0.356,0.194,0.487,0.639,0.294,0.994
		c-0.194,0.356-0.639,0.487-0.994,0.294c-0.306-0.167-7.503-4.187-7.834-13.517c-0.013-0.099-0.037-0.21-0.065-0.306
		c-0.296,0.39-0.956,1.763-1.098,6.319c0.001,0.044,0.125,7.347,4.809,10.747c0.327,0.238,0.4,0.696,0.163,1.024
		C86.069,67.717,85.845,67.822,85.618,67.822z"/>
	<path fill="#41281B" d="M81.929,55.371c-0.633,0-1.201-0.207-1.558-0.424c-0.346-0.21-0.456-0.661-0.246-1.007
		c0.209-0.345,0.656-0.455,1.002-0.249c0.194,0.112,1.189,0.611,1.96-0.469c0.235-0.329,0.693-0.406,1.023-0.171
		c0.329,0.235,0.406,0.693,0.171,1.023C83.577,55.06,82.704,55.371,81.929,55.371z"/>
	<path fill="#41281B" d="M87.423,75.946"/>
	<path fill="#41281B" d="M89.107,80.479c-0.047,0-0.094-0.004-0.142-0.014c-0.397-0.078-0.656-0.463-0.578-0.861
		c0.4-2.037-1.303-2.993-1.32-3.002c-0.355-0.194-0.486-0.639-0.292-0.995c0.194-0.355,0.639-0.486,0.995-0.292
		c0.923,0.504,2.54,2.107,2.056,4.572C89.757,80.237,89.451,80.479,89.107,80.479z"/>
	<path fill="#41281B" d="M86.76,79.715c-1.28,0-2.321-1.041-2.321-2.321c0-1.28,1.041-2.321,2.321-2.321s2.321,1.041,2.321,2.321
		C89.081,78.674,88.04,79.715,86.76,79.715z M86.76,76.538c-0.472,0-0.855,0.384-0.855,0.855c0,0.472,0.384,0.855,0.855,0.855
		s0.855-0.384,0.855-0.855S87.231,76.538,86.76,76.538z"/>
	<path fill="#41281B" d="M78.466,77.496c-3.05,0-5.3-1.254-5.639-1.453c-3.63-1.776-4.075-4.679-3.798-6.014
		c0.214-1.984,2.247-2.6,2.334-2.625c7.377-2.417,13.917,3.292,14.192,3.536c0.303,0.269,0.329,0.732,0.061,1.034
		c-0.268,0.303-0.731,0.331-1.034,0.063c-0.061-0.054-6.196-5.39-12.784-3.232c-0.067,0.021-1.218,0.386-1.313,1.407
		c-0.003,0.032-0.008,0.064-0.015,0.094c-0.021,0.104-0.517,2.713,3.026,4.432c0.025,0.012,0.049,0.025,0.072,0.041
		c0.207,0.13,5.174,3.16,10.551-0.593c0.332-0.232,0.789-0.15,1.02,0.182c0.232,0.332,0.151,0.789-0.182,1.02
		C82.663,76.99,80.404,77.496,78.466,77.496z"/>
	<path fill="#41281B" d="M78.78,75.393c-3.518,0-4.844-1.245-5.035-1.445c-0.686-0.725-0.978-1.462-0.871-2.191
		c0.148-1.004,1.002-1.521,1.099-1.577c0.395-0.208,3.861-1.809,11.038,2.068c0.356,0.193,0.489,0.637,0.297,0.993
		c-0.015,0.028-0.031,0.054-0.049,0.079c0.049,0.069,0.087,0.147,0.111,0.234c0.108,0.391-0.122,0.794-0.513,0.901
		C82.338,75.147,80.343,75.393,78.78,75.393z M74.68,71.464c0.004,0-0.317,0.213-0.357,0.513c-0.043,0.325,0.24,0.703,0.486,0.962
		c0.01,0.009,2.151,1.98,8.916,0.296C81.502,72.139,76.869,70.315,74.68,71.464L74.68,71.464z"/>
	<path fill="#41281B" d="M94.172,66.662c-1.145,0-2.077-1.014-2.077-2.26c0-0.405,0.328-0.733,0.733-0.733s0.733,0.328,0.733,0.733
		c0,0.431,0.28,0.794,0.611,0.794c0.331,0,0.611-0.364,0.611-0.794c0-0.405,0.328-0.733,0.733-0.733s0.733,0.328,0.733,0.733
		C96.249,65.647,95.317,66.662,94.172,66.662z"/>
	<path fill="#41281B" d="M99.533,66.107c-1.145,0-2.077-1.014-2.077-2.26c0-0.405,0.328-0.733,0.733-0.733s0.733,0.328,0.733,0.733
		c0,0.431,0.28,0.794,0.611,0.794c0.331,0,0.611-0.364,0.611-0.794c0-0.405,0.328-0.733,0.733-0.733s0.733,0.328,0.733,0.733
		C101.61,65.093,100.678,66.107,99.533,66.107z"/>
	<path fill="#41281B" d="M95.514,64.843c-0.375,0-0.694-0.286-0.729-0.667c-0.053-0.584,0.101-1.156,0.432-1.61
		c0.353-0.483,0.861-0.777,1.432-0.829c1.143-0.107,2.161,0.822,2.274,2.063c0.037,0.403-0.26,0.76-0.664,0.796
		c-0.397,0.036-0.76-0.26-0.796-0.664c-0.039-0.429-0.346-0.763-0.681-0.736c-0.195,0.018-0.322,0.154-0.38,0.234
		c-0.12,0.164-0.176,0.387-0.156,0.612c0.037,0.403-0.26,0.76-0.664,0.796C95.559,64.842,95.536,64.843,95.514,64.843z"/>
	<path fill="#41281B" d="M97.919,92.197c-0.188,0-0.375-0.071-0.519-0.215c-3.855-3.855-2.999-8.982-2.96-9.198
		c0.07-0.398,0.452-0.664,0.85-0.594c0.398,0.071,0.664,0.45,0.594,0.848l0,0c-0.008,0.046-0.75,4.605,2.553,7.908
		c0.286,0.286,0.286,0.75,0,1.037C98.294,92.126,98.107,92.197,97.919,92.197z"/>
	<path fill="#41281B" d="M95.597,102.461c-1.347,0-2.444-1.096-2.444-2.444c0-1.347,1.096-2.444,2.444-2.444
		s2.444,1.096,2.444,2.444C98.041,101.365,96.945,102.461,95.597,102.461z M95.597,99.04c-0.539,0-0.977,0.438-0.977,0.977
		c0,0.539,0.438,0.977,0.977,0.977s0.977-0.438,0.977-0.977C96.575,99.479,96.137,99.04,95.597,99.04z"/>
	<path fill="#41281B" d="M95.586,105.787c-0.218,0-0.381-0.016-0.47-0.027c-2.744-0.034-5.139-2.674-5.139-5.682
		c0-1.209,0.425-2.386,1.196-3.316c0.99-1.193,2.447-1.877,3.996-1.877c1.04,0,2.043,0.306,2.901,0.886
		c0.336,0.226,0.424,0.682,0.197,1.018c-0.226,0.336-0.682,0.425-1.018,0.197c-0.615-0.415-1.335-0.634-2.081-0.634
		c-1.112,0-2.158,0.491-2.868,1.348c-0.553,0.666-0.858,1.511-0.858,2.379c0,1.99,1.594,4.215,3.727,4.215
		c0.043,0,0.087,0.004,0.13,0.012c0.044,0.006,1.249,0.188,2.482-0.748c1.607-1.222,2.502-1.202,2.985-1.19l0.086,0.001
		c0.405,0,0.733,0.328,0.733,0.733c0,0.405-0.328,0.733-0.733,0.733l-0.12-0.002c-0.323-0.008-0.864-0.021-2.063,0.891
		C97.471,105.635,96.263,105.787,95.586,105.787z"/>
	<path fill="#41281B" d="M100.851,107.261H99.63c-2.596,0-3.479-1.825-3.515-1.903c-0.172-0.367-0.013-0.803,0.354-0.975
		c0.364-0.17,0.797-0.016,0.971,0.346c0.031,0.06,0.572,1.066,2.191,1.066h1.222c0.405,0,0.733,0.328,0.733,0.733
		C101.584,106.933,101.257,107.261,100.851,107.261z"/>
	<path fill="#41281B" d="M110.32,97.757c-0.16,0-0.322-0.052-0.457-0.16c-0.316-0.253-0.368-0.714-0.116-1.03
		c4.644-5.82,6.006-14.114,6.019-14.197c0.995-4.877,0.132-12.171-0.182-14.455c-0.004,0-0.008,0-0.011,0
		c-1.66,0-3.161-1.311-3.234-1.376c-1.616-1.405-1.843-2.933-1.849-3.644c-3.97-3.94-9.396-3.511-9.452-3.506
		c-0.404,0.037-0.759-0.262-0.795-0.666c-0.036-0.403,0.262-0.759,0.666-0.795c0.26-0.023,6.391-0.506,10.858,4.175
		c0.159,0.166,0.23,0.397,0.194,0.624c-0.006,0.047-0.168,1.393,1.346,2.71c0.42,0.369,1.713,1.251,2.684,0.952
		c0.202-0.062,0.423-0.034,0.603,0.078c0.18,0.112,0.303,0.297,0.336,0.506c0.063,0.39,1.514,9.61,0.28,15.658
		c-0.05,0.323-1.425,8.721-6.315,14.851C110.749,97.663,110.536,97.757,110.32,97.757z"/>
	<path fill="#41281B" d="M116.207,67.822c-0.227,0-0.451-0.105-0.594-0.303c-0.238-0.328-0.165-0.786,0.163-1.024
		c4.696-3.409,4.808-10.702,4.809-10.776c-0.142-4.532-0.802-5.901-1.098-6.291c-0.028,0.101-0.052,0.214-0.065,0.305
		c-0.332,9.329-7.528,13.352-7.834,13.518c-0.356,0.194-0.801,0.062-0.994-0.294c-0.194-0.355-0.063-0.8,0.292-0.994l0,0
		c0.068-0.037,6.785-3.819,7.072-12.313c0-0.019,0.002-0.038,0.004-0.056c0.09-0.809,0.46-1.67,1.228-1.746
		c0.261-0.051,0.616-0.018,0.967,0.214c1.137,0.748,1.757,3.247,1.894,7.638c-0.002,0.358-0.125,8.14-5.413,11.979
		C116.507,67.777,116.356,67.822,116.207,67.822z"/>
	<path fill="#41281B" d="M119.896,55.371c-0.775,0-1.648-0.311-2.352-1.296c-0.235-0.329-0.159-0.787,0.171-1.023
		c0.329-0.236,0.787-0.159,1.023,0.171c0.772,1.081,1.769,0.58,1.961,0.468c0.347-0.202,0.796-0.088,1.002,0.258
		c0.205,0.346,0.097,0.79-0.247,0.999C121.097,55.164,120.529,55.371,119.896,55.371z"/>
	<path fill="#41281B" d="M114.403,75.946"/>
	<path fill="#41281B" d="M112.718,80.479c-0.344,0-0.65-0.242-0.718-0.592c-0.484-2.464,1.133-4.068,2.056-4.572
		c0.356-0.194,0.801-0.063,0.995,0.292c0.194,0.354,0.064,0.798-0.289,0.993c-0.082,0.047-1.717,1.002-1.323,3.004
		c0.078,0.397-0.181,0.783-0.578,0.861C112.812,80.475,112.765,80.479,112.718,80.479z"/>
	<path fill="#41281B" d="M115.065,79.715c-1.28,0-2.321-1.041-2.321-2.321c0-1.28,1.041-2.321,2.321-2.321s2.321,1.041,2.321,2.321
		C117.387,78.674,116.345,79.715,115.065,79.715z M115.065,76.538c-0.472,0-0.855,0.384-0.855,0.855
		c0,0.472,0.384,0.855,0.855,0.855s0.855-0.384,0.855-0.855S115.537,76.538,115.065,76.538z"/>
	<path fill="#41281B" d="M123.359,77.496c-1.937,0-4.196-0.506-6.493-2.108c-0.332-0.232-0.413-0.689-0.182-1.02
		c0.232-0.332,0.689-0.413,1.02-0.182c5.377,3.752,10.345,0.723,10.553,0.592c0.022-0.014,0.047-0.028,0.071-0.04
		c3.543-1.719,3.048-4.329,3.025-4.439c-0.005-0.027-0.011-0.061-0.014-0.088c-0.096-1.039-1.278-1.396-1.29-1.4
		c-6.631-2.174-12.746,3.17-12.807,3.224c-0.303,0.269-0.766,0.242-1.035-0.061c-0.269-0.303-0.242-0.766,0.061-1.035
		c0.275-0.244,6.815-5.955,14.215-3.529c0.065,0.019,2.097,0.635,2.311,2.618c0.277,1.335-0.168,4.238-3.798,6.014
		C128.659,76.243,126.408,77.496,123.359,77.496z"/>
	<path fill="#41281B" d="M123.045,75.393c-1.562,0-3.557-0.246-6.076-0.938c-0.39-0.107-0.62-0.511-0.513-0.901
		c0.023-0.087,0.062-0.165,0.111-0.234c-0.018-0.025-0.034-0.051-0.049-0.079c-0.193-0.356-0.06-0.801,0.297-0.994
		c7.178-3.877,10.642-2.277,11.014-2.081c0.121,0.069,0.975,0.586,1.123,1.589c0.108,0.729-0.185,1.466-0.87,2.19
		C127.89,74.147,126.562,75.393,123.045,75.393z M118.099,73.235c6.787,1.691,8.899-0.277,8.919-0.298
		c0.246-0.26,0.531-0.641,0.483-0.967c-0.045-0.305-0.375-0.517-0.378-0.519C124.952,70.312,120.322,72.138,118.099,73.235z"/>
	<path fill="#41281B" d="M107.653,66.662c-1.145,0-2.077-1.014-2.077-2.26c0-0.405,0.328-0.733,0.733-0.733s0.733,0.328,0.733,0.733
		c0,0.431,0.28,0.794,0.611,0.794c0.331,0,0.611-0.364,0.611-0.794c0-0.405,0.328-0.733,0.733-0.733s0.733,0.328,0.733,0.733
		C109.73,65.647,108.798,66.662,107.653,66.662z"/>
	<path fill="#41281B" d="M102.292,66.107c-1.145,0-2.077-1.014-2.077-2.26c0-0.405,0.328-0.733,0.733-0.733
		c0.405,0,0.733,0.328,0.733,0.733c0,0.431,0.28,0.794,0.611,0.794c0.331,0,0.611-0.364,0.611-0.794
		c0-0.405,0.328-0.733,0.733-0.733c0.405,0,0.733,0.328,0.733,0.733C104.369,65.093,103.438,66.107,102.292,66.107z"/>
	<path fill="#41281B" d="M106.311,64.843c-0.022,0-0.044-0.001-0.067-0.003c-0.403-0.037-0.7-0.393-0.664-0.796
		c0.021-0.225-0.037-0.449-0.156-0.612c-0.058-0.08-0.185-0.216-0.38-0.234c-0.325-0.029-0.642,0.307-0.681,0.736
		c-0.037,0.403-0.394,0.699-0.796,0.664c-0.403-0.037-0.7-0.393-0.664-0.796c0.113-1.241,1.133-2.17,2.274-2.063
		c0.57,0.051,1.079,0.346,1.432,0.829c0.332,0.455,0.485,1.026,0.432,1.61C107.006,64.557,106.686,64.843,106.311,64.843z"/>
	<path fill="#41281B" d="M103.906,92.197c-0.188,0-0.375-0.071-0.519-0.215c-0.286-0.286-0.286-0.751,0-1.037
		c3.32-3.32,2.561-7.86,2.553-7.906c-0.071-0.399,0.195-0.779,0.594-0.85c0.398-0.071,0.78,0.195,0.85,0.594
		c0.039,0.217,0.895,5.344-2.96,9.198C104.281,92.126,104.094,92.197,103.906,92.197z"/>
	<path fill="#41281B" d="M106.227,102.461c-1.347,0-2.444-1.096-2.444-2.444c0-1.347,1.096-2.444,2.444-2.444
		s2.444,1.096,2.444,2.444C108.671,101.365,107.575,102.461,106.227,102.461z M106.227,99.04c-0.539,0-0.977,0.438-0.977,0.977
		c0,0.539,0.438,0.977,0.977,0.977s0.977-0.438,0.977-0.977C107.205,99.479,106.767,99.04,106.227,99.04z"/>
	<path fill="#41281B" d="M106.24,105.787c-0.677,0-1.886-0.152-3.082-1.062c-1.199-0.911-1.741-0.899-2.063-0.891l-0.12,0.002
		c-0.405,0-0.733-0.328-0.733-0.733c0-0.405,0.328-0.733,0.733-0.733l0.086-0.001c0.481-0.012,1.377-0.032,2.985,1.19
		c1.232,0.936,2.436,0.755,2.488,0.747c0.039-0.006,0.085-0.01,0.124-0.01c2.133,0,3.727-2.226,3.727-4.215
		c0-0.868-0.305-1.713-0.858-2.379c-0.711-0.857-1.757-1.348-2.869-1.348c-0.746,0-1.466,0.219-2.081,0.634
		c-0.335,0.227-0.791,0.138-1.018-0.197c-0.226-0.336-0.138-0.791,0.197-1.018c0.858-0.579,1.861-0.886,2.901-0.886
		c1.55,0,3.007,0.684,3.997,1.878c0.771,0.929,1.196,2.106,1.196,3.315c0,3.007-2.395,5.647-5.139,5.682
		C106.62,105.772,106.458,105.787,106.24,105.787z"/>
	<path fill="#41281B" d="M102.195,107.261h-1.222c-0.405,0-0.733-0.328-0.733-0.733c0-0.405,0.328-0.733,0.733-0.733h1.222
		c1.646,0,2.182-1.047,2.187-1.058c0.172-0.367,0.608-0.525,0.975-0.354c0.367,0.172,0.525,0.608,0.354,0.975
		C105.674,105.436,104.791,107.261,102.195,107.261z"/>
</g>
<g>
	<path fill="#41281B" d="M75.953,153.035c-0.54,0-0.906-0.17-1.011-0.226c-2.129-1.021-3.331-2.972-3.381-3.055
		c-1.874-2.681-1.534-4.617-1.406-5.346c0.008-0.042,0.015-0.079,0.019-0.109c-0.183-0.569-1.662-3.719-3.008-6.492
		c-3.394-7.156-2.458-12.547-1.833-14.681c-2.745,0.553-10.333,1.313-13.721-6.143c-0.099-0.181-0.506-1.018-0.209-1.998
		c0.128-0.651,0.639-1.245,1.391-1.138c0.626,0.088,12.633,1.406,12.755,1.42c0.3,0.033,0.517,0.303,0.484,0.603
		c-0.033,0.3-0.304,0.515-0.603,0.484c-0.496-0.055-12.145-1.334-12.788-1.424c-0.069,0.019-0.144,0.16-0.168,0.284
		c-0.004,0.021-0.011,0.048-0.018,0.069c-0.198,0.619,0.113,1.171,0.116,1.177c0.009,0.015,0.02,0.036,0.027,0.052
		c1.566,3.461,4.278,5.413,8.06,5.801c2.878,0.294,5.332-0.467,5.356-0.475c0.206-0.065,0.431-0.003,0.574,0.158
		c0.143,0.161,0.179,0.392,0.09,0.589c-0.006,0.014-0.672,1.528-0.821,4.09c-0.138,2.365,0.148,6.133,2.295,10.66
		c3.121,6.432,3.121,6.78,3.121,6.929c0,0.099-0.017,0.198-0.041,0.334c-0.106,0.607-0.39,2.22,1.245,4.56
		c0.03,0.046,1.114,1.796,2.949,2.671c0.012,0.006,0.024,0.012,0.036,0.019c0.009,0.004,0.457,0.229,1.132-0.035
		c1.693-0.662,3.084-2.635,3.097-2.655c1.635-2.34,1.352-3.953,1.245-4.56c-0.024-0.137-0.041-0.236-0.041-0.334
		c0-0.149,0-0.497,3.123-6.933c2.144-4.522,2.43-8.291,2.292-10.655c-0.15-2.562-0.815-4.076-0.822-4.091
		c-0.088-0.197-0.052-0.427,0.091-0.588c0.143-0.16,0.367-0.223,0.573-0.158c0.024,0.008,2.478,0.77,5.356,0.475
		c3.782-0.388,6.494-2.34,8.06-5.801c0.009-0.019,0.019-0.038,0.03-0.056c0.001-0.001,0.312-0.553,0.114-1.172
		c-0.008-0.024-0.014-0.049-0.018-0.074c-0.023-0.119-0.098-0.261-0.139-0.28c-0.671,0.092-12.32,1.371-12.816,1.425
		c-0.302,0.031-0.57-0.184-0.603-0.484s0.184-0.57,0.484-0.603c0.121-0.013,12.128-1.332,12.755-1.42
		c0.75-0.106,1.263,0.487,1.391,1.138c0.297,0.98-0.11,1.817-0.209,1.998c-3.388,7.454-10.976,6.697-13.721,6.143
		c0.625,2.134,1.561,7.524-1.831,14.677c-1.348,2.779-2.828,5.931-3.01,6.497c0.005,0.028,0.012,0.065,0.02,0.108
		c0.128,0.729,0.468,2.665-1.425,5.375c-0.064,0.092-1.597,2.266-3.596,3.048C76.603,152.983,76.252,153.035,75.953,153.035z"/>
	<path fill="#41281B" d="M65.761,122.917c-0.05,0-0.101-0.007-0.151-0.022c-7.542-2.164-13.39-7.693-13.636-7.927
		c-0.218-0.209-0.226-0.555-0.018-0.773c0.209-0.218,0.555-0.226,0.773-0.018c0.058,0.055,5.905,5.579,13.182,7.667
		c0.29,0.084,0.458,0.386,0.375,0.676C66.217,122.761,65.999,122.917,65.761,122.917z"/>
	<path fill="#41281B" d="M66.296,130.418c-0.287,0-0.578-0.066-0.855-0.205c-0.069-0.034-0.138-0.074-0.204-0.117
		c-0.253-0.165-0.324-0.504-0.159-0.757c0.165-0.253,0.504-0.324,0.757-0.159c0.029,0.019,0.059,0.037,0.091,0.053
		c0.451,0.225,0.866-0.005,1.061-0.315c0.028-0.043,0.051-0.182-0.002-0.372c-0.07-0.251-0.235-0.467-0.431-0.564
		c-0.351-0.175-0.618-0.231-0.752-0.156c-0.265,0.146-0.597,0.049-0.743-0.215s-0.049-0.597,0.215-0.743
		c0.712-0.392,1.507,0.005,1.769,0.136c0.471,0.235,0.844,0.702,0.997,1.25c0.129,0.463,0.082,0.919-0.128,1.251
		C67.539,130.093,66.929,130.418,66.296,130.418z"/>
	<path fill="#41281B" d="M68.335,130.956c-0.249,0-0.474-0.171-0.532-0.424c-0.324-1.406-0.878-2.208-0.884-2.216
		c-0.173-0.248-0.113-0.589,0.135-0.762c0.248-0.173,0.589-0.113,0.762,0.135c0.028,0.039,0.682,0.986,1.053,2.597
		c0.068,0.294-0.116,0.588-0.41,0.656C68.417,130.951,68.376,130.956,68.335,130.956z"/>
	<path fill="#41281B" d="M75.52,150.707c-2.269,0-4.799-3.314-5.109-3.732c-0.18-0.243-0.129-0.585,0.114-0.765
		c0.242-0.18,0.585-0.129,0.765,0.113c1.016,1.368,2.96,3.312,4.247,3.291v-1.694c0-0.302,0.245-0.547,0.547-0.547
		s0.547,0.245,0.547,0.547v2.139c0,0.227-0.14,0.43-0.352,0.511C76.032,150.665,75.778,150.707,75.52,150.707z"/>
	<path fill="#41281B" d="M74.663,147.197c-0.124,0-0.249-0.042-0.352-0.128l-1.364-1.147c-0.231-0.194-0.261-0.539-0.067-0.77
		c0.194-0.231,0.539-0.261,0.77-0.067l1.364,1.147c0.231,0.194,0.261,0.539,0.067,0.77C74.974,147.13,74.819,147.197,74.663,147.197
		z"/>
	<path fill="#41281B" d="M76.023,123.201c-1.189,0-2.206-0.663-2.667-1.631c-0.505,0.37-1.131,0.581-1.785,0.581
		c-1.473,0-2.696-1.041-2.902-2.394c-0.338,0.127-0.701,0.193-1.074,0.193c-1.617,0-2.932-1.255-2.932-2.799
		c0-0.486,0.129-0.954,0.377-1.371c-0.248-0.417-0.377-0.884-0.377-1.371c0-1.543,1.315-2.799,2.932-2.799
		c0.373,0,0.736,0.066,1.074,0.193c0.206-1.352,1.429-2.394,2.902-2.394c0.654,0,1.28,0.211,1.786,0.582
		c0.461-0.968,1.478-1.631,2.667-1.631c0.302,0,0.547,0.245,0.547,0.547s-0.245,0.547-0.547,0.547c-1.001,0-1.807,0.727-1.835,1.656
		c-0.008,0.242-0.174,0.451-0.408,0.512c-0.235,0.061-0.481-0.038-0.607-0.246c-0.326-0.539-0.94-0.874-1.603-0.874
		c-1.014,0-1.839,0.765-1.839,1.705c0,0.147,0.023,0.297,0.067,0.448c0.069,0.237-0.028,0.49-0.238,0.62
		c-0.21,0.129-0.481,0.102-0.661-0.066c-0.348-0.326-0.812-0.505-1.305-0.505c-1.014,0-1.838,0.765-1.838,1.705
		c0,0.371,0.129,0.726,0.373,1.025c0.164,0.201,0.164,0.49,0,0.691c-0.244,0.299-0.373,0.654-0.373,1.025
		c0,0.94,0.824,1.705,1.838,1.705c0.494,0,0.957-0.179,1.305-0.505c0.18-0.168,0.45-0.196,0.661-0.066
		c0.21,0.129,0.307,0.383,0.238,0.62c-0.044,0.151-0.067,0.302-0.067,0.448c0,0.94,0.825,1.704,1.839,1.704
		c0.663,0,1.277-0.334,1.603-0.873c0.125-0.207,0.372-0.307,0.607-0.246c0.234,0.062,0.4,0.27,0.408,0.512
		c0.028,0.928,0.834,1.656,1.835,1.656c0.302,0,0.547,0.245,0.547,0.547C76.571,122.958,76.326,123.201,76.023,123.201z"/>
	<path fill="#41281B" d="M66.409,138.036"/>
	<path fill="#41281B" d="M68.037,142.238c-1.483,0-2.694-1.184-2.737-2.656c-0.257,0.079-0.527,0.121-0.8,0.121
		c-1.51,0-2.738-1.228-2.738-2.738c0-0.264,0.037-0.523,0.109-0.769c-1.467-0.05-2.644-1.258-2.644-2.736
		c0-0.579,0.179-1.126,0.499-1.578c-1.023-0.397-1.751-1.392-1.751-2.554c0-0.733,0.298-1.419,0.792-1.921
		c-0.815-0.472-1.356-1.352-1.356-2.368c0-1.51,1.228-2.738,2.738-2.738c0.302,0,0.547,0.245,0.547,0.547s-0.245,0.547-0.547,0.547
		c-0.907,0-1.644,0.737-1.644,1.644c0,0.897,0.703,1.618,1.6,1.641c0.269,0.007,0.493,0.209,0.528,0.475s-0.129,0.52-0.387,0.596
		c-0.694,0.205-1.178,0.853-1.178,1.576c0,0.907,0.737,1.644,1.644,1.644c0.071,0,0.14-0.006,0.208-0.015
		c0.267-0.033,0.516,0.128,0.593,0.383c0.078,0.256-0.04,0.53-0.28,0.649c-0.564,0.281-0.914,0.845-0.914,1.471
		c0,0.907,0.737,1.644,1.644,1.644c0.259,0,0.509-0.061,0.742-0.179c0.241-0.122,0.533-0.051,0.691,0.167
		c0.158,0.218,0.134,0.519-0.057,0.708c-0.312,0.311-0.485,0.725-0.485,1.165c0,0.906,0.738,1.644,1.645,1.644
		c0.463,0,0.908-0.199,1.221-0.547c0.187-0.207,0.5-0.241,0.726-0.078c0.226,0.163,0.294,0.47,0.157,0.713
		c-0.138,0.245-0.211,0.523-0.211,0.804c0,0.906,0.738,1.644,1.645,1.644c0.381,0,0.739-0.127,1.035-0.367
		c0.234-0.19,0.579-0.155,0.769,0.08c0.19,0.234,0.155,0.579-0.08,0.769C69.276,142.02,68.664,142.238,68.037,142.238z"/>
	<path fill="#41281B" d="M86.408,122.917c-0.238,0-0.457-0.156-0.525-0.396c-0.084-0.29,0.085-0.593,0.375-0.676
		c7.286-2.09,13.124-7.612,13.182-7.667c0.218-0.209,0.565-0.201,0.773,0.018c0.209,0.218,0.201,0.564-0.018,0.773
		c-0.245,0.234-6.094,5.763-13.636,7.927C86.508,122.91,86.458,122.917,86.408,122.917z"/>
	<path fill="#41281B" d="M85.874,130.419c-0.633,0-1.243-0.325-1.617-0.915c-0.21-0.331-0.257-0.787-0.128-1.25
		c0.152-0.548,0.525-1.015,0.997-1.25c0.261-0.13,1.057-0.527,1.768-0.136c0.265,0.146,0.361,0.478,0.215,0.743
		s-0.478,0.361-0.743,0.215c-0.135-0.074-0.402-0.019-0.752,0.156c-0.197,0.098-0.362,0.314-0.432,0.564
		c-0.053,0.19-0.03,0.328-0.002,0.371c0.197,0.31,0.61,0.541,1.058,0.318c0.036-0.018,0.066-0.035,0.096-0.054
		c0.253-0.166,0.592-0.094,0.757,0.159c0.165,0.253,0.094,0.592-0.159,0.757c-0.066,0.043-0.135,0.083-0.209,0.119
		C86.449,130.353,86.159,130.419,85.874,130.419z"/>
	<path fill="#41281B" d="M83.834,130.956c-0.041,0-0.082-0.005-0.124-0.014c-0.294-0.068-0.478-0.362-0.41-0.656
		c0.372-1.611,1.026-2.558,1.053-2.597c0.173-0.247,0.514-0.308,0.762-0.135c0.247,0.173,0.307,0.513,0.135,0.761
		c-0.014,0.02-0.566,0.838-0.885,2.217C84.308,130.784,84.082,130.956,83.834,130.956z"/>
	<path fill="#41281B" d="M76.648,150.707c-0.258,0-0.512-0.043-0.759-0.137c-0.212-0.081-0.352-0.284-0.352-0.511v-2.139
		c0-0.302,0.245-0.547,0.547-0.547c0.302,0,0.547,0.245,0.547,0.547v1.696c1.414,0.034,3.56-2.365,4.248-3.293
		c0.18-0.243,0.523-0.293,0.765-0.113c0.243,0.18,0.294,0.523,0.113,0.765C81.447,147.393,78.917,150.707,76.648,150.707z"/>
	<path fill="#41281B" d="M77.506,147.197c-0.156,0-0.311-0.066-0.419-0.195c-0.194-0.231-0.165-0.576,0.067-0.77l1.363-1.147
		c0.232-0.194,0.577-0.164,0.77,0.067c0.194,0.231,0.165,0.576-0.067,0.77l-1.363,1.147
		C77.755,147.154,77.63,147.197,77.506,147.197z"/>
	<path fill="#41281B" d="M76.145,123.201c-0.302,0-0.547-0.245-0.547-0.547s0.245-0.547,0.547-0.547
		c1.001,0,1.807-0.727,1.835-1.656c0.008-0.242,0.174-0.451,0.408-0.512c0.234-0.061,0.481,0.038,0.607,0.245
		c0.326,0.539,0.941,0.873,1.603,0.873c1.014,0,1.839-0.765,1.839-1.704c0-0.147-0.023-0.297-0.067-0.448
		c-0.069-0.237,0.028-0.49,0.238-0.62c0.21-0.129,0.48-0.102,0.661,0.066c0.348,0.326,0.812,0.505,1.305,0.505
		c1.014,0,1.839-0.765,1.839-1.705c0-0.371-0.129-0.725-0.373-1.025c-0.164-0.201-0.164-0.49,0-0.691
		c0.244-0.3,0.373-0.654,0.373-1.025c0-0.94-0.825-1.705-1.839-1.705c-0.493,0-0.957,0.179-1.305,0.505
		c-0.18,0.168-0.45,0.195-0.661,0.066c-0.21-0.129-0.307-0.383-0.238-0.62c0.044-0.151,0.067-0.302,0.067-0.448
		c0-0.94-0.825-1.705-1.839-1.705c-0.662,0-1.276,0.335-1.603,0.874c-0.125,0.207-0.372,0.307-0.607,0.245
		c-0.234-0.062-0.4-0.27-0.408-0.512c-0.028-0.928-0.834-1.656-1.835-1.656c-0.302,0-0.547-0.245-0.547-0.547
		c0-0.302,0.245-0.547,0.547-0.547c1.189,0,2.206,0.663,2.667,1.631c0.505-0.371,1.132-0.582,1.786-0.582
		c1.473,0,2.696,1.042,2.902,2.394c0.338-0.127,0.7-0.193,1.074-0.193c1.617,0,2.932,1.255,2.932,2.799
		c0,0.486-0.129,0.953-0.377,1.371c0.248,0.418,0.377,0.884,0.377,1.371c0,1.543-1.315,2.799-2.932,2.799
		c-0.373,0-0.736-0.066-1.074-0.193c-0.206,1.352-1.429,2.394-2.902,2.394c-0.654,0-1.28-0.211-1.785-0.582
		C78.352,122.539,77.334,123.201,76.145,123.201z"/>
	<path fill="#41281B" d="M85.76,138.036"/>
	<path fill="#41281B" d="M84.132,142.238c-0.626,0-1.239-0.217-1.724-0.612c-0.234-0.19-0.27-0.535-0.08-0.769
		c0.19-0.235,0.535-0.271,0.769-0.08c0.296,0.24,0.653,0.367,1.035,0.367c0.907,0,1.645-0.737,1.645-1.644
		c0-0.281-0.073-0.559-0.211-0.804c-0.137-0.243-0.069-0.55,0.158-0.713c0.226-0.163,0.539-0.129,0.726,0.078
		c0.312,0.348,0.758,0.547,1.221,0.547c0.907,0,1.644-0.738,1.644-1.644c0-0.44-0.172-0.854-0.485-1.165
		c-0.191-0.19-0.215-0.49-0.057-0.708c0.158-0.218,0.451-0.289,0.691-0.167c0.234,0.119,0.483,0.179,0.742,0.179
		c0.907,0,1.645-0.737,1.645-1.644c0-0.626-0.35-1.19-0.914-1.471c-0.239-0.119-0.357-0.393-0.28-0.649
		c0.078-0.255,0.327-0.416,0.593-0.383c0.068,0.009,0.137,0.015,0.207,0.015c0.907,0,1.645-0.737,1.645-1.644
		c0-0.723-0.485-1.371-1.178-1.576c-0.258-0.076-0.423-0.329-0.387-0.596c0.035-0.267,0.259-0.469,0.528-0.475
		c0.897-0.023,1.601-0.744,1.601-1.641c0-0.907-0.737-1.644-1.644-1.644c-0.302,0-0.547-0.245-0.547-0.547
		c0-0.302,0.245-0.547,0.547-0.547c1.51,0,2.738,1.228,2.738,2.738c0,1.016-0.54,1.895-1.356,2.368
		c0.494,0.502,0.792,1.188,0.792,1.921c0,1.162-0.727,2.157-1.751,2.554c0.32,0.452,0.499,0.999,0.499,1.578
		c0,1.479-1.178,2.687-2.645,2.736c0.072,0.247,0.109,0.505,0.109,0.769c0,1.51-1.228,2.738-2.738,2.738
		c-0.273,0-0.543-0.042-0.8-0.121C86.826,141.053,85.615,142.238,84.132,142.238z"/>
</g>
<g>
	<path fill="#41281B" d="M115.024,137.44c-1.157,0-2.098-0.941-2.098-2.098c0-1.157,0.942-2.098,2.098-2.098
		s2.098,0.941,2.098,2.098C117.123,136.499,116.181,137.44,115.024,137.44z M115.024,134.388c-0.526,0-0.954,0.428-0.954,0.954
		c0,0.526,0.428,0.954,0.954,0.954c0.526,0,0.954-0.428,0.954-0.954C115.978,134.816,115.55,134.388,115.024,134.388z"/>
	<path fill="#41281B" d="M119.936,146.978c-1.078,0-1.955-0.877-1.955-1.955c0-1.078,0.877-1.955,1.955-1.955
		c1.078,0,1.955,0.877,1.955,1.955C121.892,146.101,121.015,146.978,119.936,146.978z M119.936,144.212
		c-0.447,0-0.811,0.364-0.811,0.811s0.364,0.811,0.811,0.811s0.811-0.364,0.811-0.811S120.384,144.212,119.936,144.212z"/>
	<path fill="#41281B" d="M119.021,150.742c-1.238,0-2.283-0.691-2.79-1.223c-1.951-2.233-1.637-4.808,1.005-8.366
		c2.854-3.845,6.355-3.673,6.504-3.664c0.315,0.02,0.555,0.291,0.535,0.607c-0.02,0.314-0.288,0.551-0.605,0.536
		c-0.129-0.007-3.052-0.116-5.516,3.203c-2.873,3.871-2.216,5.61-1.077,6.913c0.045,0.046,1.548,1.565,3.257,0.425
		c0.596-0.397,1.021-0.7,1.362-0.944c0.888-0.633,1.22-0.869,2.055-0.869c0.316,0,0.572,0.256,0.572,0.572
		c0,0.316-0.256,0.572-0.572,0.572c-0.457,0-0.533,0.047-1.391,0.657c-0.33,0.235-0.782,0.557-1.392,0.964
		C120.3,150.571,119.637,150.742,119.021,150.742z"/>
	<path fill="#41281B" d="M123.609,156.612c-5.238,0-9.998-1.572-13.402-4.427c-3.711-3.113-5.674-7.552-5.674-12.837
		c0-5.482,1.958-11.079,5.371-15.354c3.659-4.584,8.527-7.108,13.705-7.108c0.316,0,0.572,0.256,0.572,0.572
		s-0.256,0.572-0.572,0.572c-10.567,0-17.932,11.235-17.932,21.318c0,11.135,9.006,16.119,17.932,16.119
		c0.316,0,0.572,0.256,0.572,0.572S123.924,156.612,123.609,156.612z"/>
	<path fill="#41281B" d="M108.872,126.662c-0.153,0-0.306-0.061-0.419-0.182c-3.616-3.876-5.102-9.143-5.078-11.612
		c-0.69-0.199-1.195-0.834-1.195-1.586c0-0.91,0.74-1.649,1.65-1.649c0.763,0,1.407,0.52,1.594,1.225
		c2.431,0.076,7.227,2.052,10.914,6.002c0.216,0.231,0.203,0.593-0.028,0.809c-0.23,0.215-0.592,0.203-0.809-0.028
		c-3.835-4.108-8.882-5.846-10.523-5.622c-0.191,0.026-0.379-0.045-0.505-0.188c-0.116-0.13-0.165-0.305-0.135-0.475
		c-0.002-0.02-0.002-0.044-0.002-0.073c0-0.278-0.227-0.505-0.506-0.505s-0.505,0.227-0.505,0.505c0,0.279,0.227,0.505,0.505,0.505
		c0.033,0,0.059,0.001,0.081,0.003c0.17-0.019,0.338,0.035,0.462,0.151c0.136,0.129,0.204,0.316,0.177,0.501
		c-0.228,1.513,0.847,7.083,4.741,11.256c0.216,0.231,0.203,0.593-0.028,0.809C109.153,126.611,109.013,126.662,108.872,126.662z"/>
	<path fill="#41281B" d="M114.261,120.892c-0.135,0-0.272-0.048-0.381-0.146c-4.858-4.343-9.64-3.915-9.686-3.911
		c-0.315,0.035-0.595-0.197-0.627-0.512c-0.032-0.314,0.197-0.595,0.512-0.627c0.216-0.022,5.334-0.481,10.565,4.196
		c0.235,0.211,0.256,0.572,0.045,0.808C114.575,120.827,114.418,120.892,114.261,120.892z"/>
	<path fill="#41281B" d="M132.384,137.44c-1.157,0-2.098-0.941-2.098-2.098c0-1.157,0.942-2.098,2.098-2.098
		s2.098,0.941,2.098,2.098C134.482,136.499,133.541,137.44,132.384,137.44z M132.384,134.388c-0.526,0-0.954,0.428-0.954,0.954
		c0,0.526,0.428,0.954,0.954,0.954s0.954-0.428,0.954-0.954C133.337,134.816,132.91,134.388,132.384,134.388z"/>
	<path fill="#41281B" d="M127.471,146.978c-1.078,0-1.955-0.877-1.955-1.955c0-1.078,0.877-1.955,1.955-1.955
		s1.955,0.877,1.955,1.955C129.427,146.101,128.55,146.978,127.471,146.978z M127.471,144.212c-0.447,0-0.811,0.364-0.811,0.811
		s0.364,0.811,0.811,0.811s0.811-0.364,0.811-0.811S127.919,144.212,127.471,144.212z"/>
	<path fill="#41281B" d="M128.384,150.741c-0.615,0-1.278-0.171-1.945-0.616c-0.61-0.407-1.062-0.729-1.392-0.964
		c-0.857-0.611-0.933-0.657-1.391-0.657c-0.316,0-0.572-0.256-0.572-0.572c0-0.316,0.256-0.572,0.572-0.572
		c0.835,0,1.167,0.237,2.055,0.869c0.342,0.243,0.767,0.547,1.362,0.944c1.728,1.151,3.212-0.377,3.274-0.443
		c1.122-1.285,1.78-3.024-1.094-6.895c-2.489-3.354-5.483-3.207-5.514-3.204c-0.322,0.018-0.587-0.22-0.607-0.535
		c-0.02-0.316,0.22-0.587,0.535-0.607c0.148-0.01,3.65-0.181,6.504,3.664c2.642,3.558,2.956,6.133,1.021,8.348
		C130.675,150.045,129.625,150.741,128.384,150.741z"/>
	<path fill="#41281B" d="M123.799,156.612c-0.316,0-0.572-0.256-0.572-0.572s0.256-0.572,0.572-0.572
		c8.926,0,17.932-4.984,17.932-16.119c0-10.083-7.364-21.318-17.932-21.318c-0.316,0-0.572-0.256-0.572-0.572
		s0.256-0.572,0.572-0.572c5.178,0,10.046,2.524,13.705,7.108c3.413,4.275,5.371,9.872,5.371,15.354
		c0,5.285-1.962,9.723-5.673,12.837C133.798,155.039,129.038,156.612,123.799,156.612z"/>
	<path fill="#41281B" d="M138.536,126.662c-0.14,0-0.28-0.051-0.39-0.154c-0.231-0.216-0.244-0.578-0.028-0.809
		c3.896-4.174,4.97-9.743,4.741-11.256c-0.028-0.187,0.038-0.375,0.175-0.504c0.126-0.118,0.297-0.171,0.466-0.149
		c0.022-0.002,0.047-0.003,0.078-0.003c0.279,0,0.505-0.227,0.505-0.505c0-0.278-0.227-0.505-0.505-0.505
		c-0.278,0-0.504,0.227-0.504,0.505c0,0.035-0.001,0.062-0.003,0.085c0.02,0.165-0.03,0.337-0.142,0.46
		c-0.127,0.14-0.317,0.216-0.499,0.191c-1.633-0.222-6.687,1.513-10.522,5.622c-0.216,0.231-0.578,0.243-0.809,0.028
		c-0.231-0.216-0.244-0.578-0.028-0.809c3.687-3.95,8.483-5.927,10.913-6.002c0.188-0.705,0.831-1.225,1.593-1.225
		c0.91,0,1.65,0.74,1.65,1.649c0,0.752-0.506,1.388-1.195,1.586c0.025,2.468-1.461,7.735-5.079,11.612
		C138.841,126.601,138.689,126.662,138.536,126.662z"/>
	<path fill="#41281B" d="M133.147,120.892c-0.157,0-0.314-0.064-0.427-0.191c-0.211-0.236-0.19-0.597,0.045-0.808
		c5.231-4.677,10.349-4.218,10.566-4.197c0.314,0.032,0.544,0.312,0.512,0.627c-0.032,0.314-0.317,0.543-0.626,0.512
		c-0.077-0.007-4.867-0.4-9.689,3.911C133.419,120.844,133.283,120.892,133.147,120.892z"/>
</g>
</svg>
