<?xml version="1.0" encoding="utf-8"?>
<!-- Generator: Adobe Illustrator 17.0.0, SVG Export Plug-In . SVG Version: 6.00 Build 0)  -->
<!DOCTYPE svg PUBLIC "-//W3C//DTD SVG 1.1//EN" "http://www.w3.org/Graphics/SVG/1.1/DTD/svg11.dtd">
<svg version="1.1" id="Layer_1" xmlns="http://www.w3.org/2000/svg" xmlns:xlink="http://www.w3.org/1999/xlink" x="0px" y="0px"
	 width="200px" height="200px" viewBox="0 0 200 200" enable-background="new 0 0 200 200" xml:space="preserve">
<path fill="#97BF0D" d="M200,188.003c0,6.902-5.373,12.496-12,12.496H12c-6.627,0-12-5.595-12-12.496V12.11
	C0,5.208,5.373-0.387,12-0.387h176c6.627,0,12,5.595,12,12.496V188.003z"/>
<g>
	<g id="Layer_3_49_">
		<path fill="#41281B" d="M111.059,76.735h-4.852c-0.63,0-1.142-0.511-1.142-1.142s0.511-1.142,1.142-1.142h4.852
			c0.63,0,1.142,0.511,1.142,1.142S111.69,76.735,111.059,76.735z"/>
		<g>
			<path fill="#41281B" d="M125.644,93.399c-15.635,0-28.356,11.289-28.356,26.925c0,7.493,2.974,14.341,8.373,19.281
				c5.244,4.798,12.341,7.441,19.982,7.441c7.642,0,14.739-2.643,19.983-7.441c5.399-4.94,8.373-11.787,8.373-19.281
				C154,104.689,141.28,93.399,125.644,93.399z M125.644,132.404c-6.661,0-12.08-5.419-12.08-12.08
				c0-6.661,5.419-12.081,12.08-12.081c6.661,0,12.08,5.419,12.08,12.081C137.724,126.985,132.305,132.404,125.644,132.404z"/>
			<path fill="#41281B" d="M67.307,108.051c-11.069,0-20.074,9.006-20.074,20.075c0,5.306,2.106,10.154,5.929,13.652
				c3.713,3.397,8.737,5.268,14.146,5.268c5.41,0,10.433-1.871,14.146-5.268c3.823-3.498,5.929-8.347,5.929-13.652
				C87.382,117.057,78.377,108.051,67.307,108.051z M67.307,136.639c-4.694,0-8.512-3.819-8.512-8.513
				c0-4.694,3.819-8.513,8.512-8.513c4.694,0,8.512,3.819,8.512,8.513C75.82,132.82,72.001,136.639,67.307,136.639z"/>
			<path fill="#41281B" d="M103.569,98.812c5.822-5.416,13.661-8.399,22.075-8.399c5.668,0,11.076,1.355,15.781,3.895
				c0.024,0.013,0.047,0.02,0.07,0.03c0.432,0.311,0.972,0.475,1.543,0.424c1.264-0.113,2.196-1.228,2.084-2.492
				c-0.021-0.24-2.148-24.102-2.55-28.782c-0.636-7.4-5.983-7.4-7.995-7.4H103.57c-2.767-0.006-7.896-0.003-9.48,7.84
				c-0.891,4.414-2.851,13.703-4.364,20.796c-7.962,0-15.423,0-21.191,0V73.108c0-1.694-1.373-3.067-3.067-3.067
				c-1.694,0-3.067,1.373-3.067,3.067v11.618c-2.943,0-4.808,0-5.173,0c-8.884,0-11.628,19.081-6.736,27.636
				c4.21-4.488,10.19-7.297,16.815-7.297c11.599,0,21.224,8.608,22.825,19.772h4.503c-0.22-1.475-0.333-2.981-0.333-4.513
				C94.303,112.011,97.594,104.372,103.569,98.812z M137.995,63.883c0.252,2.933,1.18,13.377,1.843,20.843
				c-3.633,0-10.634,0-19.088,0V60.683h13.826C136.812,60.683,137.73,60.806,137.995,63.883z M98.593,64.839
				c0.84-4.157,2.403-4.154,4.976-4.156h13.507v24.043c-7.118,0-15.004,0-22.654,0C96.017,77.229,97.96,67.974,98.593,64.839z"/>
		</g>
	</g>
</g>
</svg>
