<?xml version="1.0" encoding="utf-8"?>
<!-- Generator: Adobe Illustrator 17.0.0, SVG Export Plug-In . SVG Version: 6.00 Build 0)  -->
<!DOCTYPE svg PUBLIC "-//W3C//DTD SVG 1.1//EN" "http://www.w3.org/Graphics/SVG/1.1/DTD/svg11.dtd">
<svg version="1.1" id="Layer_1" xmlns="http://www.w3.org/2000/svg" xmlns:xlink="http://www.w3.org/1999/xlink" x="0px" y="0px"
	 width="200px" height="200px" viewBox="0 0 200 200" enable-background="new 0 0 200 200" xml:space="preserve">
<path fill="#97BF0D" d="M200,188.003c0,6.902-5.373,12.496-12,12.496H12c-6.627,0-12-5.595-12-12.496V12.11
	C0,5.208,5.373-0.387,12-0.387h176c6.627,0,12,5.595,12,12.496V188.003z"/>
<g>
	<g>
		<path fill="#41281B" d="M143.098,112.936c-6.458-4.98-14.592-5.482-19.382-1.573l-11.138-5.497
			c14.203-9.968,25.777-17.338,26.055-17.515l-2.368-3.737c-1.802,1.132-29.67,18.877-52.191,36.925l-0.135-0.532
			c-10.748,2.701-32.163,4.782-32.379,4.798l0.424,4.413c0.716-0.067,14.537-1.418,25.668-3.384
			c-9.708,8.227-17.651,16.193-20.795,22.31l3.932,2.025c5.449-10.613,27.398-27.879,46.608-41.625l0.923,7.805
			c-6.315,1.513-10.693,8.87-9.951,17.361c0.808,9.135,7.219,16.039,14.321,15.411c7.101-0.62,12.21-8.539,11.407-17.676
			c-0.087-0.977-0.269-1.922-0.477-2.84c1.057,1.354,2.256,2.65,3.718,3.778c7.269,5.6,16.695,5.569,21.044-0.084
			C152.735,127.652,150.359,118.536,143.098,112.936z M112.58,105.87l-0.945,1.902l-0.131-1.143
			C111.868,106.375,112.222,106.119,112.58,105.87z M109.56,144.917c-2.391-1.656-9.625-7.581-5.741-16.133
			c0,0-1.103,7.383,6.464,16.611C110.283,145.403,110.009,145.235,109.56,144.917z M112.754,117.25l-0.795-6.738l8.985,4.429
			c-1.034,2.197-1.248,4.715-0.763,7.28C118.179,119.64,115.606,117.845,112.754,117.25z M145.681,128.731
			c-3.694-11.346-10.51-14.393-10.51-14.393c9.294,1.334,10.387,10.625,10.502,13.532
			C145.689,128.414,145.681,128.731,145.681,128.731z"/>
		<path fill="#41281B" d="M104.087,104.645l1.128-1.076C104.072,104.66,87.03,77.81,87.03,77.81v-0.927
			c4.533,8.663,16.887,21.603,20.085,24.868l2.033-1.946c-0.2-1.549-0.508-2.952-0.802-4.354l1.581,0.036
			c20.518-26.774,1.206-46.094,1.206-46.094c-9.841,9.098-13.699,17.53-14.615,24.627c-8.937-7.613-19.114-7.658-19.114-7.658
			C75.93,104.022,104.087,104.645,104.087,104.645z M109.846,64.295l0.652-0.652c-2.319,7.42-3.05,20.212-3.28,27.459
			c-0.549-1.773-1.161-3.42-1.843-4.946C107.01,76.994,109.846,64.295,109.846,64.295z"/>
	</g>
</g>
</svg>
