<?xml version="1.0" encoding="utf-8"?>
<!-- Generator: Adobe Illustrator 17.0.0, SVG Export Plug-In . SVG Version: 6.00 Build 0)  -->
<!DOCTYPE svg PUBLIC "-//W3C//DTD SVG 1.1//EN" "http://www.w3.org/Graphics/SVG/1.1/DTD/svg11.dtd">
<svg version="1.1" id="Layer_1" xmlns="http://www.w3.org/2000/svg" xmlns:xlink="http://www.w3.org/1999/xlink" x="0px" y="0px"
	 width="200px" height="200px" viewBox="0 0 200 200" enable-background="new 0 0 200 200" xml:space="preserve">
<path fill="#97BF0D" d="M200,188.003c0,6.902-5.373,12.496-12,12.496H12c-6.627,0-12-5.595-12-12.496V12.11
	C0,5.208,5.373-0.387,12-0.387h176c6.627,0,12,5.595,12,12.496V188.003z"/>
<g>
	<path fill="#41281B" d="M76.462,98.912h6.391c0.75,0,1.358-0.608,1.358-1.358s-0.608-1.358-1.358-1.358h-6.391
		c-0.75,0-1.358,0.608-1.358,1.358S75.712,98.912,76.462,98.912z"/>
	<path fill="#41281B" d="M105.328,115.112c-4.553,0-8.257,3.704-8.257,8.257c0,4.553,3.704,8.257,8.257,8.257
		c0.75,0,1.358-0.608,1.358-1.358V116.47C106.687,115.72,106.079,115.112,105.328,115.112z M103.97,128.741
		c-2.401-0.607-4.182-2.785-4.182-5.372c0-2.587,1.782-4.765,4.182-5.372V128.741z"/>
	<path fill="#41281B" d="M109.755,115.112c-0.75,0-1.358,0.608-1.358,1.358v13.798c0,0.75,0.608,1.358,1.358,1.358
		c4.553,0,8.257-3.704,8.257-8.257C118.012,118.816,114.308,115.112,109.755,115.112z M111.113,128.741v-10.744
		c2.401,0.607,4.182,2.785,4.182,5.372C115.295,125.956,113.514,128.134,111.113,128.741z"/>
	<path fill="#41281B" d="M120.66,99.771c-4.112,0-8.131,1.147-11.579,3.267c0.393-3.028,1.427-5.936,3.053-8.531
		c0.392-0.625,0.249-1.472-0.361-1.886c-0.639-0.434-1.505-0.249-1.913,0.399c-1.95,3.097-3.154,6.588-3.54,10.218
		c-3.518-2.247-7.656-3.467-11.896-3.467c-2.02,0-3.975,0.271-5.832,0.777c0.216-3.502,0.327-7.046,0.327-10.564
		c0-4.833-2.465-9.222-6.592-11.739c-1.837-1.123-3.912-1.791-6.055-1.962l6.935-17.892c0.271-0.699-0.076-1.486-0.776-1.757
		c-0.699-0.271-1.486,0.076-1.757,0.776l-4.937,12.737V54.549c0-0.744-0.573-1.392-1.317-1.415c-0.769-0.023-1.4,0.594-1.4,1.358
		v15.656L68.082,57.41c-0.271-0.699-1.058-1.046-1.757-0.776c-0.699,0.271-1.047,1.058-0.776,1.757l6.935,17.892
		c-2.145,0.171-4.218,0.839-6.052,1.961c-0.929,0.565-1.793,1.245-2.568,2.02c-2.596,2.596-4.026,6.049-4.026,9.721
		c0,11.424,1.143,22.869,3.401,34.066c0.426,1.755,0.853,3.508,1.279,5.263l3.64,12.94c0.806,2.863,3.247,4.712,6.22,4.712
		c0,0,0.001,0,0.002,0c2.973-0.001,5.413-1.85,6.217-4.711l0.445-1.578c3.947,4.079,8.612,6.291,13.383,6.291
		c4.74,0,9.357-1.521,13.118-4.304c3.761,2.783,8.378,4.304,13.118,4.304c12.037,0,21.73-14.21,21.73-25.974
		C142.39,109.291,132.642,99.771,120.66,99.771z M73.582,78.954h1.589c1.209,0,2.401,0.199,3.532,0.581
		c-1.351,0.592-2.813,0.9-4.323,0.9c-1.511,0-2.975-0.309-4.327-0.901C71.182,79.153,72.373,78.954,73.582,78.954z M74.378,144.25
		L74.378,144.25c-1.372,0-3.04-0.718-3.606-2.731l-1.024-3.64h2.353c0.744,0,1.392-0.573,1.415-1.316
		c0.023-0.769-0.594-1.4-1.358-1.4h-3.174l-1.831-6.509c-0.492-1.748-0.926-3.512-1.282-5.292c-0.327-1.634-0.629-3.273-0.908-4.916
		h2.654c0.744,0,1.392-0.573,1.415-1.316c0.023-0.769-0.594-1.4-1.358-1.4h-3.151c-1.165-7.591-1.816-15.266-1.944-22.941h5.038
		c0.744,0,1.392-0.573,1.415-1.316c0.023-0.769-0.594-1.4-1.358-1.4h-5.12l0,0c-0.022-2.979,1.127-5.782,3.23-7.885
		c0.418-0.418,0.869-0.797,1.346-1.141c2.166,1.381,4.653,2.108,7.25,2.108s5.083-0.727,7.247-2.108
		c2.878,2.071,4.575,5.352,4.575,8.941c0,3.842-0.134,7.715-0.396,11.528c-7.707,3.264-13.113,10.766-13.113,19.479
		c0,5.711,2.325,12.142,6.221,17.213l-0.933,3.314C77.416,143.532,75.749,144.249,74.378,144.25z M120.66,144.25
		c-4.482,0-8.834-1.548-12.256-4.358c-0.251-0.206-0.556-0.309-0.862-0.309s-0.612,0.103-0.862,0.309
		c-3.421,2.811-7.774,4.358-12.256,4.358c-10.24,0-19.014-12.789-19.014-23.258c0-10.203,8.53-18.505,19.014-18.505
		c4.482,0,8.834,1.548,12.256,4.358c0.501,0.412,1.223,0.412,1.724,0c3.421-2.811,7.774-4.358,12.256-4.358
		c10.484,0,19.014,8.301,19.014,18.505C139.674,131.462,130.9,144.25,120.66,144.25z"/>
</g>
</svg>
