<?xml version="1.0" encoding="utf-8"?>
<!-- Generator: Adobe Illustrator 17.0.0, SVG Export Plug-In . SVG Version: 6.00 Build 0)  -->
<!DOCTYPE svg PUBLIC "-//W3C//DTD SVG 1.1//EN" "http://www.w3.org/Graphics/SVG/1.1/DTD/svg11.dtd">
<svg version="1.1" id="Layer_1" xmlns="http://www.w3.org/2000/svg" xmlns:xlink="http://www.w3.org/1999/xlink" x="0px" y="0px"
	 width="200px" height="200px" viewBox="0 0 200 200" enable-background="new 0 0 200 200" xml:space="preserve">
<path fill="#97BF0D" d="M200,188.003c0,6.902-5.373,12.496-12,12.496H12c-6.627,0-12-5.595-12-12.496V12.11
	C0,5.208,5.373-0.387,12-0.387h176c6.627,0,12,5.595,12,12.496V188.003z"/>
<path fill="#41281A" d="M68.687,99.747c3.662,3.663,6.127,8.723,6.091,13.866c0,9.779-8.98,19.33-18.165,19.255H36.048h-5.827
	v-6.444l0.069-51.472v-6.443h5.827l17.754-0.076c8.706,0,19.811,9.249,19.742,19.559C73.613,92.357,71.632,96.466,68.687,99.747z
	 M41.897,94.257l11.973-0.051c4.936,0,8.158-2.426,8.089-6.216c0-3.942-3.222-6.596-8.089-6.671H41.875L41.897,94.257z
	 M41.92,107.093l0.023,12.963l14.67-0.076c4.524,0,6.581-2.047,6.512-6.367c0-4.397-1.988-6.443-6.512-6.52h-2.52
	c-0.074,0-0.148,0.001-0.222,0H41.92z"/>
<text transform="matrix(1 0 0 1 83.0367 122.1779)" fill="#41281A" font-family="'NordicaBlack'" font-size="50.7982">&amp;</text>
<path fill="#41281A" d="M168.75,99.886c3.662,3.663,6.127,8.723,6.091,13.866c0,9.779-8.98,19.33-18.165,19.255h-20.565h-5.827
	v-6.444l0.069-51.472v-6.443h5.827l17.754-0.076c8.706,0,19.811,9.249,19.742,19.559C173.675,92.497,171.695,96.605,168.75,99.886z
	 M141.96,94.396l11.973-0.051c4.936,0,8.158-2.426,8.089-6.216c0-3.942-3.222-6.596-8.089-6.671h-11.996L141.96,94.396z
	 M141.983,107.232l0.023,12.963l14.67-0.076c4.524,0,6.581-2.047,6.512-6.367c0-4.397-1.988-6.443-6.512-6.52h-2.52
	c-0.074,0-0.148,0.001-0.222,0H141.983z"/>
</svg>
