<?xml version="1.0" encoding="utf-8"?>
<!-- Generator: Adobe Illustrator 17.0.0, SVG Export Plug-In . SVG Version: 6.00 Build 0)  -->
<!DOCTYPE svg PUBLIC "-//W3C//DTD SVG 1.1//EN" "http://www.w3.org/Graphics/SVG/1.1/DTD/svg11.dtd">
<svg version="1.1" id="Layer_1" xmlns="http://www.w3.org/2000/svg" xmlns:xlink="http://www.w3.org/1999/xlink" x="0px" y="0px"
	 width="200px" height="200px" viewBox="0 0 200 200" enable-background="new 0 0 200 200" xml:space="preserve">
<path fill="#97BF0D" d="M200,188.003c0,6.902-5.373,12.496-12,12.496H12c-6.627,0-12-5.595-12-12.496V12.11
	C0,5.208,5.373-0.387,12-0.387h176c6.627,0,12,5.595,12,12.496V188.003z"/>
<g id="XMLID_497_">
	<path id="XMLID_498_" fill="none" stroke="#41281A" stroke-width="5" stroke-miterlimit="10" d="M85.011,128.726
		c0-1.596-1.294-2.89-2.89-2.89h-1.103L56.456,76.712l2.243-4.487c0.714-1.427,0.135-3.163-1.292-3.877
		c-1.427-0.713-3.163-0.135-3.877,1.292l-0.305,0.61l-0.305-0.61c-0.714-1.427-2.45-2.006-3.877-1.292
		c-1.427,0.714-2.006,2.449-1.292,3.877l2.244,4.487l-24.563,49.124h-1.103c-1.596,0-2.89,1.294-2.89,2.89
		c0,1.596,1.294,2.89,2.89,2.89h2.889h13.486h25.044h13.485h2.889C83.717,131.616,85.011,130.322,85.011,128.726z M45.378,125.836
		l7.847-15.693l7.847,15.693H45.378z"/>
</g>
<path id="XMLID_26_" fill="#41281A" d="M113.902,125.311c0,0.92-0.746,1.667-1.667,1.667h-0.333c-0.92,0-1.667-0.746-1.667-1.667
	s0.746-1.667,1.667-1.667h0.333C113.156,123.645,113.902,124.391,113.902,125.311z M133.736,99.478c0,5.054-4.112,9.167-9.167,9.167
	h-10c-5.054,0-9.167-4.112-9.167-9.167s4.112-9.167,9.167-9.167h10C129.624,90.311,133.736,94.423,133.736,99.478z M130.402,99.478
	c0-3.216-2.617-5.833-5.833-5.833h-10c-3.216,0-5.833,2.617-5.833,5.833s2.617,5.833,5.833,5.833h10
	C127.786,105.311,130.402,102.694,130.402,99.478z M175.402,112.858c0,6.867-5.587,12.454-12.453,12.454h-2.547
	c0,5.514-4.486,10-10,10c-5.514,0-10-4.486-10-10h-18.333c0,5.514-4.486,10-10,10s-10-4.486-10-10c0-1.045,0.161-2.052,0.459-3
	c-4.428-3.1-7.126-8.213-7.126-13.667V95.311c0-9.19,7.477-16.667,16.667-16.667h50c4.595,0,8.333,3.738,8.333,8.333
	c0,2.657-1.25,5.028-3.193,6.554l6.878,13.756C174.948,109.009,175.402,110.934,175.402,112.858z M164.23,95.027
	c-0.689,0.185-1.414,0.284-2.161,0.284h-1.667v11.667h9.803L164.23,95.027z M118.736,125.311c0-3.676-2.991-6.667-6.667-6.667
	s-6.667,2.991-6.667,6.667s2.991,6.667,6.667,6.667S118.736,128.987,118.736,125.311z M162.069,91.978c2.757,0,5-2.243,5-5
	s-2.243-5-5-5h-50c-7.352,0-13.333,5.981-13.333,13.333v13.333c0,4.211,2.01,8.168,5.336,10.669
	c1.826-2.429,4.731-4.003,7.997-4.003c4.346,0,8.053,2.786,9.429,6.667h18.904V93.645c0-0.92,0.746-1.667,1.667-1.667H162.069z
	 M143.736,95.311v11.667h13.333V95.311H143.736z M157.069,125.311c0-3.676-2.991-6.667-6.667-6.667
	c-3.676,0-6.667,2.991-6.667,6.667s2.991,6.667,6.667,6.667C154.078,131.978,157.069,128.987,157.069,125.311z M172.069,112.858
	c0-0.859-0.124-1.72-0.364-2.546h-27.969v7.552c1.77-1.587,4.108-2.552,6.667-2.552c4.346,0,8.053,2.786,9.429,6.667h3.118
	C167.978,121.978,172.069,117.887,172.069,112.858z M150.569,123.645h-0.333c-0.92,0-1.667,0.746-1.667,1.667
	s0.746,1.667,1.667,1.667h0.333c0.92,0,1.667-0.746,1.667-1.667S151.489,123.645,150.569,123.645z"/>
</svg>
