<?xml version="1.0" encoding="utf-8"?>
<!-- Generator: Adobe Illustrator 17.0.0, SVG Export Plug-In . SVG Version: 6.00 Build 0)  -->
<!DOCTYPE svg PUBLIC "-//W3C//DTD SVG 1.1//EN" "http://www.w3.org/Graphics/SVG/1.1/DTD/svg11.dtd">
<svg version="1.1" id="Layer_1" xmlns="http://www.w3.org/2000/svg" xmlns:xlink="http://www.w3.org/1999/xlink" x="0px" y="0px"
	 width="200px" height="200px" viewBox="0 0 200 200" enable-background="new 0 0 200 200" xml:space="preserve">
<path fill="#97BF0D" d="M200,188.003c0,6.902-5.373,12.496-12,12.496H12c-6.627,0-12-5.595-12-12.496V12.11
	C0,5.208,5.373-0.387,12-0.387h176c6.627,0,12,5.595,12,12.496V188.003z"/>
<g>
	<g>
		<path fill="#41281B" d="M165.208,84.996c6.155,23.738-0.565,49.581-0.66,49.979c0.017-0.126,0.167-1.983,0.167-1.983
			c1.973-15.947-2.836-24.941-2.836-24.941c3.246,13.796-2.744,21.663-6.257,24.941c-1.316,1.227-2.296,2.274-2.296,2.274
			c-0.102,0-0.191-1.656-0.267-2.274c-2.361-19.472,8.817-44.274,8.817-44.274c-7.152,6.356-11.484,27.043-13.389,38.424
			c2.272-19.181-1.484-28.015-1.484-28.015c1.484,16.041-2.243,29.208-3.806,33.865c-0.393,1.173-0.655,2.274-0.655,2.274
			c-0.182,0-0.344-1.607-0.499-2.274c-2.686-11.595-1.36-40.187-1.36-40.187c-2.667,6.669-4.272,20.373-5.13,30.321
			c0.005-16.863-5.283-26.975-5.283-26.975c5.578,21.566-1.859,35.695-1.859,35.695c1.486-19.334-3.719-24.167-3.719-24.167
			c3.845,8.002-4.834,23.799-4.834,23.799c-3.345-20.822,4.834-50.199,4.834-50.199c-4.953,6.979-7.86,24.449-9.382,37.15
			c-0.162-16.134-6.899-22.277-6.899-22.277c6.771,16.361-0.078,36.439-0.078,36.439c0.745-19.334-4.092-28.633-4.092-28.633
			c0.608,8.536-6.272,23.802-8.774,29.033c-0.55,1.147-0.895,2.274-0.895,2.274c-0.143,0-0.264-1.632-0.376-2.274
			c-2.499-14.361,2.606-45.021,2.606-45.021c-5.852,4.553-9.43,36.931-10.238,45.024c-0.116,1.166-0.174,2.274-0.174,2.274
			c-0.034,0-0.073-1.658-0.109-2.274c-0.771-12.57-0.686-26.517-0.686-26.517c-2.461,2.701-4.4,28.788-4.412,28.788l0.065-2.274
			c1.6-32.483-4.155-43.159-4.155-43.159c2.817,15.959-2.269,36.922-3.947,43.159c-0.315,1.176-0.514,2.274-0.514,2.274
			c-0.369,0-0.684-1.598-0.96-2.274c-3.905-9.576,0.96-31.634,0.96-31.634c-4.49,5.77-6.024,15.956-6.524,23.581
			c0.412-39.072-2.773-51.84-2.773-51.84c2.291,14.09-2.63,51.249-3.833,59.894c-0.07,0.509-0.063,0.456,0,0h-0.097
			C60.297,119.835,55.9,96.15,55.9,96.15c0,10.325-2.371,30.655-3.12,36.839c-0.141,1.164-0.225,2.274-0.225,2.274
			c-0.381-0.759-0.565-1.648-0.817-2.274c-5.666-16.832,0.817-45.021,0.817-45.021c-8.635,11.515-9.568,37.876-9.658,45.021
			c-0.007,0.55-0.01,0.701,0,0c0,0,0.441,2.735-0.768,0c-4.148-8.963,0.996-36.839,0.996-36.839
			c-5.096,5.416-7.168,29.932-7.627,36.839c-0.075,1.151-0.17,2.274-0.17,2.274c-0.126,0-0.264-1.661-0.369-2.274
			c-4.046-23.726,7.944-50.005,7.944-50.005c-11.896,7.438-14.975,52.277-14.975,52.277v20.454h145.456v-22.725l0,0
			C173.407,91.369,165.208,84.996,165.208,84.996z"/>
	</g>
</g>
<path fill="#41281B" d="M50.341,90.82c0.756-0.571,1.357-1.223,1.776-1.86c0.225,0.733,0.623,1.524,1.193,2.273
	c1.485,1.979,3.532,2.941,4.568,2.17c1.034-0.786,0.666-3.021-0.817-4.993c-0.572-0.758-1.223-1.356-1.867-1.77
	c0.733-0.23,1.524-0.635,2.28-1.207c1.973-1.483,2.94-3.524,2.164-4.562c-0.786-1.034-3.016-0.665-4.989,0.819
	c-0.758,0.572-1.363,1.222-1.781,1.866c-0.219-0.739-0.619-1.524-1.19-2.285c-1.487-1.973-3.528-2.935-4.566-2.158
	c-1.037,0.78-0.67,3.015,0.819,4.987c0.572,0.755,1.223,1.363,1.865,1.776c-0.738,0.224-1.529,0.629-2.284,1.193
	c-1.973,1.491-2.937,3.532-2.159,4.567C46.134,92.673,48.368,92.309,50.341,90.82z M51.052,84.346
	c1.059-0.801,2.562-0.582,3.362,0.466c0.796,1.053,0.583,2.561-0.469,3.362c-1.054,0.796-2.561,0.583-3.364-0.476
	C49.785,86.64,50,85.144,51.052,84.346z"/>
<path fill="#41281B" d="M123.292,83.053c0.756-0.571,1.357-1.223,1.776-1.86c0.225,0.733,0.623,1.524,1.193,2.273
	c1.485,1.979,3.532,2.941,4.568,2.17c1.034-0.786,0.666-3.021-0.817-4.993c-0.572-0.758-1.223-1.356-1.867-1.77
	c0.733-0.23,1.524-0.635,2.28-1.207c1.973-1.483,2.94-3.524,2.164-4.562c-0.786-1.034-3.016-0.665-4.989,0.819
	c-0.758,0.572-1.363,1.222-1.781,1.866c-0.219-0.739-0.619-1.524-1.19-2.285c-1.487-1.973-3.528-2.935-4.566-2.158
	c-1.037,0.78-0.67,3.015,0.819,4.987c0.572,0.755,1.223,1.363,1.865,1.776c-0.738,0.224-1.529,0.629-2.284,1.193
	c-1.973,1.491-2.937,3.532-2.159,4.567C119.085,84.906,121.319,84.542,123.292,83.053z M124.003,76.579
	c1.059-0.801,2.562-0.582,3.362,0.466c0.796,1.053,0.583,2.561-0.469,3.362c-1.054,0.796-2.561,0.583-3.364-0.476
	C122.736,78.873,122.951,77.377,124.003,76.579z"/>
<path fill="#41281B" d="M94.654,87.474c0.756-0.571,1.357-1.223,1.776-1.86c0.225,0.733,0.623,1.524,1.193,2.273
	c1.485,1.979,3.532,2.941,4.568,2.17c1.034-0.786,0.666-3.021-0.817-4.993c-0.572-0.758-1.223-1.356-1.867-1.77
	c0.733-0.23,1.524-0.635,2.28-1.207c1.973-1.483,2.94-3.524,2.164-4.562c-0.786-1.034-3.016-0.665-4.989,0.819
	c-0.758,0.572-1.363,1.222-1.781,1.866c-0.219-0.739-0.619-1.524-1.19-2.285c-1.487-1.973-3.528-2.935-4.566-2.158
	c-1.037,0.78-0.67,3.015,0.819,4.987c0.572,0.755,1.223,1.363,1.865,1.776c-0.738,0.224-1.529,0.629-2.284,1.193
	c-1.973,1.491-2.937,3.532-2.159,4.567C90.447,89.327,92.681,88.963,94.654,87.474z M95.365,81c1.059-0.801,2.562-0.582,3.362,0.466
	c0.796,1.053,0.583,2.561-0.469,3.362c-1.054,0.796-2.561,0.583-3.364-0.476C94.098,83.294,94.313,81.798,95.365,81z"/>
<path fill="#41281B" d="M164.968,88.118c0.756-0.571,1.357-1.223,1.776-1.86c0.225,0.733,0.623,1.524,1.193,2.273
	c1.485,1.979,3.532,2.941,4.568,2.17c1.034-0.786,0.666-3.021-0.817-4.993c-0.572-0.758-1.223-1.356-1.867-1.77
	c0.733-0.23,1.524-0.635,2.28-1.207c1.973-1.483,2.94-3.524,2.164-4.562c-0.786-1.034-3.016-0.665-4.989,0.819
	c-0.758,0.572-1.363,1.222-1.781,1.866c-0.219-0.739-0.619-1.524-1.19-2.285c-1.487-1.973-3.528-2.935-4.566-2.158
	c-1.037,0.78-0.67,3.015,0.819,4.987c0.572,0.755,1.223,1.363,1.865,1.776c-0.738,0.224-1.529,0.629-2.284,1.193
	c-1.973,1.491-2.937,3.532-2.159,4.567C160.761,89.971,162.995,89.607,164.968,88.118z M165.679,81.644
	c1.059-0.801,2.562-0.582,3.362,0.466c0.796,1.053,0.583,2.561-0.469,3.362c-1.054,0.796-2.561,0.583-3.364-0.476
	C164.412,83.938,164.627,82.442,165.679,81.644z"/>
</svg>
