<?xml version="1.0" encoding="utf-8"?>
<!-- Generator: Adobe Illustrator 17.0.0, SVG Export Plug-In . SVG Version: 6.00 Build 0)  -->
<!DOCTYPE svg PUBLIC "-//W3C//DTD SVG 1.1//EN" "http://www.w3.org/Graphics/SVG/1.1/DTD/svg11.dtd">
<svg version="1.1" id="Layer_1" xmlns="http://www.w3.org/2000/svg" xmlns:xlink="http://www.w3.org/1999/xlink" x="0px" y="0px"
	 width="200px" height="200px" viewBox="0 0 200 200" enable-background="new 0 0 200 200" xml:space="preserve">
<path fill="#97BF0D" d="M200,188.003c0,6.902-5.373,12.496-12,12.496H12c-6.627,0-12-5.595-12-12.496V12.11
	C0,5.208,5.373-0.387,12-0.387h176c6.627,0,12,5.595,12,12.496V188.003z"/>
<path fill="#41281B" d="M45.752,113.783c0,8.148,0.103,19.046,0.103,19.744l0.021,1.253h106.34V63.523l-1.361-0.152
	c-0.273-0.029-6.531-0.736-11.657,0.565c-4.433,0.702-19.023,3.182-21.48,5.546c-1.299,1.224-11.933,5.669-18.282,8.318
	c-4.236,1.772-7.905,3.298-9.351,4.037c-2.11,1.082-3.15,2.548-4.075,3.843c-1.002,1.417-1.854,2.633-4.022,3.37
	c-2.433,0.828-5.858,1.618-9.173,2.388c-3.185,0.749-6.201,1.452-8.399,2.178c-1.109,0.37-2.454,0.695-3.884,1.044
	c-4.164,1.012-8.899,2.154-9.772,5.129c-0.333,1.104-1.103,1.506-2.09,2.032c-1.118,0.595-2.647,1.416-2.807,3.286
	C45.782,105.993,45.752,109.504,45.752,113.783z"/>
</svg>
