<?xml version="1.0" encoding="utf-8"?>
<!-- Generator: Adobe Illustrator 17.0.0, SVG Export Plug-In . SVG Version: 6.00 Build 0)  -->
<!DOCTYPE svg PUBLIC "-//W3C//DTD SVG 1.1//EN" "http://www.w3.org/Graphics/SVG/1.1/DTD/svg11.dtd">
<svg version="1.1" id="Layer_1" xmlns="http://www.w3.org/2000/svg" xmlns:xlink="http://www.w3.org/1999/xlink" x="0px" y="0px"
	 width="200px" height="200px" viewBox="0 0 200 200" enable-background="new 0 0 200 200" xml:space="preserve">
<path fill="#97BF0D" d="M200,188.003c0,6.902-5.373,12.496-12,12.496H12c-6.627,0-12-5.595-12-12.496V12.11
	C0,5.208,5.373-0.387,12-0.387h176c6.627,0,12,5.595,12,12.496V188.003z"/>
<g>
	<g>
		<path fill="#41281B" d="M155.744,65.734c-0.372-0.277-0.825-0.53-1.274-0.603c-1.242-0.202-2.308-0.837-3.447-1.287
			c-1.01-0.399-1.981-0.895-2.997-1.277c-0.985-0.371-2.004-0.654-3.009-0.972c-0.107-0.034-0.232-0.075-0.334-0.05
			c-0.316,0.077-0.502-0.078-0.679-0.304c-0.112-0.143-0.234-0.311-0.39-0.38c-1.056-0.469-1.982-1.212-3.147-1.451
			c-1.021-0.21-2.027-0.533-3.057-0.652c-1.056-0.123-2.133-0.056-3.201-0.079c-0.132-0.003-0.288-0.015-0.39-0.086
			c-0.681-0.467-1.276-1.032-1.797-1.669c-0.227-0.278-0.408-0.591-0.832-0.601c-0.087-0.002-0.169-0.114-0.259-0.164
			c-0.16-0.09-0.319-0.184-0.488-0.256c-0.311-0.133-0.629-0.251-0.944-0.378c-0.03-0.012-0.051-0.046-0.074-0.071
			c-0.537-0.593-1.221-0.854-2.006-0.886c-0.078-0.003-0.156-0.032-0.234-0.052c-0.47-0.117-0.941-0.235-1.412-0.352
			c-0.39-0.097-0.78-0.193-1.169-0.29c-0.186,0-0.372,0-0.558,0c-0.195,0.092-0.39,0.183-0.602,0.283
			c-0.009,0.109,0.023,0.26-0.036,0.357c-0.235,0.389,0.016,0.619,0.241,0.873c0.444,0.5,0.776,1.052,0.852,1.739
			c0.026,0.235-0.061,0.31-0.265,0.353c-0.848,0.181-1.724,0.107-2.567,0.437c-0.593,0.233-1.232,0.366-1.806,0.669
			c-0.067,0.036-0.11,0.114-0.171,0.162c-0.157,0.122-0.312,0.246-0.478,0.354c-0.241,0.157-0.507,0.278-0.729,0.456
			c-0.168,0.134-0.107,0.34,0.09,0.368c0.31,0.043,0.436,0.264,0.615,0.459c0.106,0.115,0.281,0.165,0.419,0.252
			c0.341,0.214,0.68,0.432,1.017,0.653c0.022,0.014,0.028,0.065,0.026,0.098c-0.012,0.272,0.172,0.268,0.369,0.291
			c0.224,0.026,0.444,0.096,0.664,0.147c-0.035,0.029-0.071,0.058-0.105,0.087c-0.022,0.174-0.077,0.353-0.051,0.52
			c0.013,0.082,0.169,0.157,0.273,0.206c0.178,0.085,0.368,0.145,0.553,0.218c0.14,0.056,0.272,0.133,0.416,0.169
			c0.538,0.134,1.098,0.2,1.614,0.39c1.314,0.482,2.672,0.359,4.039,0.389c0.005-0.098,0.01-0.185,0.013-0.258
			c0.306,0,0.6,0,0.894,0c-0.033,0.102-0.087,0.159-0.119,0.148c-0.349-0.113-0.532,0.115-0.664,0.357
			c-0.171,0.314-0.327,0.644-0.427,0.986c-0.226,0.777-0.428,1.562-0.614,2.35c-0.228,0.971-0.495,1.941-0.629,2.926
			c-0.211,1.565-0.32,3.143-0.486,4.714c-0.056,0.542-0.13,1.083-0.234,1.618c-0.1,0.51-0.317,1.004-0.365,1.516
			c-0.13,1.404-0.578,2.693-1.427,3.797c-0.423,0.549-0.762,1.188-1.594,1.422c-0.791,0.223-1.569,0.403-2.379,0.427
			c-0.324,0.009-0.701-0.035-0.961-0.2c-0.258-0.163-0.488-0.243-0.77-0.223c-0.266,0.019-0.532,0.06-0.798,0.073
			c-0.095,0.005-0.195-0.034-0.288-0.062c-0.247-0.075-0.487-0.182-0.739-0.227c-0.386-0.067-0.783-0.076-1.171-0.139
			c-0.503-0.081-0.998-0.24-1.502-0.277c-1.747-0.13-3.483,0.01-5.208,0.302c-0.22,0.037-0.443,0.06-0.664,0.09
			c-0.004-0.019-0.007-0.038-0.011-0.057c0.152-0.056,0.303-0.111,0.456-0.166c-0.007-0.045-0.015-0.09-0.022-0.135
			c-0.15,0.011-0.303,0.006-0.449,0.036c-0.678,0.14-1.353,0.297-2.032,0.432c-0.246,0.049-0.529-0.007-0.745,0.093
			c-0.526,0.244-1.07,0.368-1.639,0.439c-1.117,0.139-2.228,0.33-3.349,0.432c-0.749,0.069-1.509,0.033-2.264,0.024
			c-0.917-0.01-1.837,0.002-2.75-0.076c-1.04-0.089-2.07-0.271-3.107-0.402c-0.495-0.062-1-0.06-1.49-0.15
			c-2.249-0.411-4.514-0.573-6.796-0.51c-0.285,0.008-0.58,0.067-0.807-0.198c-0.049-0.057-0.173-0.067-0.264-0.069
			c-0.986-0.027-1.973-0.049-2.96-0.067c-0.088-0.002-0.213,0.012-0.26,0.069c-0.275,0.335-0.665,0.286-1.025,0.328
			c-1.221,0.143-2.446,0.258-3.666,0.417c-1.456,0.19-2.907,0.418-4.361,0.624c-1.882,0.267-3.775,0.478-5.646,0.808
			c-1.244,0.22-2.47,0.587-3.543,1.3c-0.539,0.359-1.019,0.806-1.552,1.176c-1.277,0.889-2.586,1.735-3.854,2.637
			c-1.615,1.151-3.181,2.358-4.957,3.286c-1.134,0.593-2.243,0.846-3.471,0.644c-0.582-0.095-1.145-0.29-1.723-0.415
			c-0.172-0.037-0.362,0.01-0.544,0.018c0.152,0.154,0.29,0.328,0.463,0.455c0.093,0.069,0.246,0.055,0.371,0.081
			c0.099,0.021,0.198,0.047,0.29,0.069c-0.154,0.517-0.506,0.538-0.94,0.469c-0.208-0.033-0.436,0.057-0.655,0.091
			c0,0.069,0,0.14,0,0.21c0.274,0.03,0.548,0.062,0.824,0.088c0.284,0.027,0.376,0.139,0.192,0.401
			c-0.054-0.012-0.098-0.023-0.143-0.032c-0.185-0.042-0.449-0.285-0.537-0.004c-0.088,0.281,0.245,0.328,0.467,0.387
			c0.023,0.006,0.052,0.001,0.068,0.014c0.127,0.104,0.252,0.211,0.395,0.334c-0.252,0.037-0.528,0.016-0.561,0.094
			c-0.109,0.265,0.151,0.366,0.328,0.49c0.582,0.407,1.232,0.645,1.931,0.751c0.694,0.105,1.38,0.143,2.042-0.183
			c0.205-0.101,0.449-0.123,0.676-0.181c0.015,0.037,0.029,0.075,0.044,0.112c-0.252,0.124-0.511,0.237-0.755,0.376
			c-0.086,0.049-0.135,0.161-0.201,0.244c0.1,0.04,0.218,0.134,0.298,0.109c0.228-0.072,0.444-0.185,0.657-0.294
			c0.408-0.208,0.811-0.425,1.255-0.658c0.094,0.451,0.322,0.376,0.572,0.276c0.191-0.077,0.41-0.212,0.583-0.173
			c0.32,0.07,0.509-0.054,0.703-0.256c0.169-0.176,0.337-0.357,0.528-0.506c0.11-0.086,0.288-0.19,0.394-0.157
			c0.38,0.122,0.623-0.043,0.852-0.302c0.442-0.499,0.997-0.88,1.284-1.536c0.488-1.114,1.062-2.19,1.608-3.277
			c0.035-0.069,0.153-0.098,0.232-0.145c0.002,0.083,0.034,0.179,0.003,0.247c-0.448,0.981-0.933,1.945-1.344,2.942
			c-0.194,0.469-0.26,0.993-0.356,1.497c-0.048,0.247-0.05,0.506-0.041,0.758c0.004,0.119,0.05,0.293,0.133,0.34
			c0.257,0.144,0.295,0.328,0.212,0.583c-0.036,0.108-0.05,0.226-0.059,0.34c-0.033,0.457-0.028,0.919-0.096,1.371
			c-0.086,0.576-0.111,0.572,0.4,0.894c0.05-0.055,0.101-0.111,0.152-0.168c0.035-0.002,0.071-0.002,0.107-0.004
			c0.013,0.181,0.108,0.427,0.025,0.531c-0.478,0.597-0.112,1.174-0.002,1.753c0.012,0.064,0.147,0.133,0.234,0.148
			c0.307,0.057,0.42,0.248,0.299,0.534c-0.049,0.117-0.104,0.235-0.125,0.359c-0.104,0.625-0.211,1.251-0.287,1.88
			c-0.025,0.207,0.042,0.426,0.067,0.64c0.036,0,0.071,0,0.106,0.001c0.06-0.08,0.12-0.159,0.189-0.249
			c0.155,0.229,0.061,0.34-0.128,0.485c-0.119,0.091-0.143,0.307-0.209,0.466c0.152,0.027,0.324,0.111,0.453,0.067
			c0.25-0.085,0.366,0.01,0.432,0.14c-0.096,0.173-0.166,0.299-0.236,0.425c0.182,0.079,0.365,0.158,0.605,0.261
			c0.02,0.373,0.048,0.819,0.067,1.266c0.008,0.199,0.055,0.379,0.296,0.307c0.323-0.096,0.354,0.078,0.363,0.319
			c0.012,0.34,0.076,0.601,0.532,0.578c0.344-0.017,0.48,0.247,0.427,0.603c-0.03,0.2,0.001,0.409,0.001,0.613
			c0,0.178,0.033,0.367-0.013,0.532c-0.223,0.805-0.502,1.597-0.687,2.41c-0.085,0.37-0.235,0.67-0.461,0.952
			c-0.652,0.815-1.271,1.659-1.962,2.438c-0.736,0.828-1.532,1.61-2.325,2.393c-0.371,0.367-0.598,0.77-0.677,1.293
			c-0.119,0.789-0.323,1.564-0.449,2.352c-0.109,0.676-0.252,1.366-0.208,2.039c0.035,0.532-0.052,1.121,0.278,1.617
			c0.026,0.04,0.01,0.113,0.008,0.169c-0.133,2.937-0.255,5.875-0.406,8.812c-0.057,1.102-0.153,2.203-0.285,3.299
			c-0.072,0.591-0.192,1.167,0,1.756c0.036,0.112-0.008,0.252-0.018,0.379c-0.04,0.544-0.093,1.087-0.108,1.632
			c-0.003,0.112,0.135,0.322,0.215,0.326c0.357,0.017,0.729,0.121,1.073-0.099c0.12-0.077,0.277-0.098,0.344-0.12
			c0.183,0.351,0.342,0.659,0.504,0.967c0.124,0.235,0.31,0.457,0.369,0.707c0.145,0.618,0.523,1.042,1.09,1.21
			c0.711,0.21,1.452,0.337,2.188,0.437c0.397,0.054,0.813-0.002,1.217-0.046c0.384-0.041,0.865,0.101,1.032-0.453
			c0.005-0.017,0.035-0.029,0.057-0.039c0.336-0.16,0.262-0.35,0.05-0.562c-1-1.004-1.994-2.014-3-3.013
			c-0.108-0.107-0.273-0.167-0.423-0.218c-0.263-0.09-0.536-0.154-0.801-0.237c-0.072-0.023-0.178-0.063-0.192-0.116
			c-0.078-0.294-0.142-0.593-0.194-0.894c-0.04-0.233-0.009-0.487-0.087-0.702c-0.23-0.63-0.239-1.27-0.2-1.925
			c0.043-0.728,0.045-1.46,0.069-2.19c0.042-1.32,0.009-2.65,0.153-3.959c0.138-1.249,0.467-2.477,0.702-3.716
			c0.185-0.981,0.323-1.973,0.541-2.946c0.181-0.806,0.137-1.701,0.813-2.339c0.032-0.031,0.061-0.077,0.069-0.119
			c0.109-0.613,0.499-0.95,1.061-1.165c0.396-0.151,0.77-0.365,1.142-0.57c0.273-0.15,0.527-0.333,0.836-0.531
			c-0.187-0.059-0.311-0.098-0.499-0.158c0.156-0.047,0.242-0.084,0.331-0.1c0.575-0.108,1.065-0.379,1.504-0.758
			c0.175-0.151,0.383-0.263,0.561-0.412c0.568-0.475,1.128-0.959,1.691-1.437c0.082-0.07,0.172-0.132,0.258-0.197
			c0.058,0.093,0.136,0.178,0.173,0.28c0.385,1.086,0.431,2.2,0.225,3.321c-0.188,1.027-0.428,2.044-0.612,3.071
			c-0.241,1.343-0.738,2.586-1.427,3.754c-0.154,0.261-0.243,0.449-0.026,0.551c0,0.314-0.068,0.578,0.012,0.784
			c0.299,0.772,0.62,1.538,1.115,2.213c0.068,0.093,0.137,0.209,0.233,0.252c0.499,0.22,0.669,0.714,0.878,1.13
			c0.967,1.93,1.899,3.879,2.818,5.832c0.581,1.235,1.153,2.475,1.666,3.739c0.768,1.891,1.478,3.806,2.219,5.708
			c0.053,0.138,0.12,0.301,0.232,0.38c0.289,0.202,0.266,0.463,0.211,0.744c-0.023,0.123-0.06,0.244-0.092,0.372
			c0.054,0.03,0.091,0.06,0.133,0.072c0.31,0.092,0.716-0.002,0.841,0.448c0.01,0.035,0.098,0.059,0.153,0.071
			c0.36,0.077,0.726,0.132,1.078,0.234c0.088,0.026,0.132,0.199,0.197,0.305c-0.361,0.202-0.088,0.418,0.027,0.561
			c0.454,0.565,0.888,1.169,1.664,1.345c0.1,0.023,0.197,0.073,0.288,0.124c0.736,0.407,1.561,0.424,2.362,0.544
			c0.207,0.03,0.416-0.189,0.373-0.353c-0.03-0.118-0.056-0.236-0.083-0.354c0.121,0.05,0.243,0.1,0.364,0.151
			c0.064,0.027,0.128,0.087,0.189,0.082c0.13-0.008,0.291-0.01,0.376-0.085c0.058-0.052,0.03-0.227,0.005-0.341
			c-0.027-0.122-0.108-0.232-0.143-0.354c-0.212-0.752-0.627-1.354-1.283-1.79c-0.142-0.094-0.328-0.21-0.369-0.352
			c-0.133-0.464-0.467-0.768-0.784-1.08c-0.71-0.702-1.444-1.379-2.162-2.074c-0.14-0.136-0.265-0.293-0.367-0.459
			c-0.48-0.78-0.954-1.563-1.422-2.351c-0.244-0.409-0.511-0.81-0.696-1.244c-0.26-0.613-0.447-1.256-0.674-1.882
			c-0.13-0.361-0.273-0.716-0.415-1.073c-0.39-0.98-0.812-1.949-1.166-2.941c-0.205-0.576-0.262-1.203-0.457-1.783
			c-0.271-0.802-0.632-1.573-0.914-2.37c-0.417-1.179-0.89-2.36-0.449-3.649c0.015-0.044,0.017-0.091,0.029-0.136
			c0.114-0.433,0.144-0.916,0.361-1.289c0.909-1.553,1.913-3.049,2.808-4.61c0.831-1.449,1.603-2.931,2.153-4.523
			c0.312-0.903,0.659-1.806,1.33-2.545c0.422-0.464,0.79-0.987,1.119-1.522c0.389-0.632,0.703-1.309,1.064-1.957
			c0.073-0.13,0.218-0.314,0.327-0.312c0.482,0.011,1.002-0.019,1.438,0.149c1.32,0.509,2.606,1.098,3.985,1.451
			c0.499,0.128,1.029,0.318,1.419,0.636c0.321,0.261,0.615,0.316,0.973,0.321c0.232,0.004,0.47-0.026,0.697,0.013
			c0.473,0.082,0.94,0.199,1.409,0.306c0.03,0.007,0.048,0.054,0.079,0.064c0.121,0.041,0.244,0.1,0.367,0.104
			c0.388,0.013,0.776,0.005,1.197,0.005c-0.096,0.111-0.17,0.196-0.244,0.281c0.01,0.026,0.02,0.052,0.031,0.078
			c0.393-0.044,0.785-0.088,1.216-0.136c-0.054,0.361,0.145,0.314,0.356,0.285c0.491-0.068,0.986-0.119,1.487-0.179
			c0.031,0.106,0.06,0.202,0.067,0.224c0.302,0.079,0.545,0.173,0.795,0.201c0.48,0.053,0.934,0.298,1.455,0.088
			c0.326-0.13,0.715-0.104,1.075-0.147c0.002,0.018,0.006,0.036,0.008,0.054c-0.154,0.069-0.308,0.139-0.462,0.208
			c0.013,0.05,0.026,0.1,0.039,0.151c0.611,0,1.23,0.061,1.832-0.013c1.069-0.132,2.128-0.349,3.191-0.526
			c0.1-0.017,0.204-0.015,0.306-0.018c0.163-0.004,0.329,0.018,0.487-0.01c0.156-0.027,0.304-0.102,0.455-0.156
			c0.058,0.097,0.103,0.171,0.111,0.185c0.619-0.225,1.202-0.438,1.786-0.647c0.048-0.017,0.136-0.024,0.157,0.002
			c0.195,0.24,0.392,0.091,0.595,0.022c0.146-0.05,0.297-0.08,0.464-0.123c-0.021,0.168-0.034,0.285-0.052,0.437
			c0.115-0.036,0.196-0.039,0.242-0.08c0.398-0.36,0.935-0.344,1.371-0.31c0.438,0.033,0.827,0.049,1.224-0.127
			c0.047-0.021,0.112-0.003,0.169-0.003c-0.003,0.331,0.037,0.383,0.247,0.327c0.5-0.132,0.518-0.126,0.748,0.327
			c0.074,0.145,0.135,0.296,0.203,0.444c0.482,1.052,0.519,2.207,0.76,3.315c0.293,1.346,0.393,2.74,1.02,4.002
			c0.076,0.152,0.103,0.332,0.136,0.503c0.106,0.547,0.202,1.096,0.303,1.644c0.23,1.239,0.464,2.477,0.69,3.716
			c0.011,0.062-0.021,0.133-0.035,0.199c-0.057,0.266-0.158,0.532-0.166,0.799c-0.019,0.598,0.011,1.198,0.016,1.797
			c0.008,0.89-0.058,1.788,0.032,2.67c0.177,1.737,0.219,3.454-0.022,5.197c-0.213,1.547-0.207,3.126-0.293,4.69
			c-0.027,0.485,0.039,0.989-0.068,1.454c-0.297,1.285-0.661,2.554-1.001,3.829c-0.13,0.489,0.214,0.851,0.706,0.718
			c0.288-0.078,0.617-0.131,0.702-0.55c0.071,0.428,0.174,0.858,0.044,1.2c-0.136,0.358-0.005,0.596,0.114,0.858
			c0.144,0.316,0.314,0.627,0.52,0.904c0.515,0.693,1.052,1.369,1.978,1.544c0.399,0.075,0.793,0.17,1.19,0.256
			c0.232,0,0.465,0,0.698,0c0.194-0.129,0.367-0.26,0.2-0.532c-0.034-0.056-0.036-0.172,0.001-0.218
			c0.03-0.038,0.147-0.036,0.211-0.014c0.208,0.073,0.406,0.172,0.615,0.241c0.09,0.03,0.243,0.052,0.285,0.004
			c0.063-0.071,0.073-0.207,0.07-0.315c-0.002-0.073-0.064-0.147-0.106-0.215c-0.433-0.715-0.836-1.452-1.312-2.136
			c-0.421-0.606-0.9-1.178-1.401-1.721c-0.337-0.366-0.573-0.738-0.603-1.244c-0.041-0.696-0.123-1.39-0.163-2.086
			c-0.049-0.844-0.124-1.692-0.093-2.534c0.041-1.125,0.204-2.245,0.254-3.371c0.098-2.209,0.333-4.396,0.858-6.547
			c0.032-0.134,0.088-0.263,0.143-0.39c0.234-0.54,0.559-1.06,0.685-1.624c0.151-0.67,0.138-1.378,0.185-2.07
			c0.081-1.19-0.176-2.366-0.01-3.575c0.267-1.954,0.356-3.932,0.545-5.897c0.098-1.016,0.257-2.026,0.378-3.04
			c0.045-0.378,0.058-0.759,0.089-1.139c0.008-0.098-0.005-0.233,0.051-0.287c0.29-0.273,0.601-0.525,0.925-0.802
			c0.036,0.079,0.068,0.128,0.079,0.181c0.137,0.718,0.314,1.43,0.397,2.154c0.324,2.813,1.003,5.552,1.688,8.29
			c0.191,0.762,0.559,1.478,0.554,2.292c-0.004,0.615,0.03,1.233,0.09,1.846c0.035,0.353,0.082,0.739,0.25,1.038
			c0.5,0.891,0.702,1.871,0.911,2.842c0.298,1.384,0.488,2.791,0.791,4.173c0.56,2.555,0.704,5.154,0.886,7.749
			c0.037,0.533,0.025,1.069,0.054,1.603c0.005,0.097,0.079,0.242,0.156,0.271c0.073,0.027,0.215-0.049,0.284-0.12
			c0.104-0.105,0.171-0.247,0.254-0.373c0.118-0.178,0.236-0.357,0.394-0.594c0.196,0.227,0.366,0.384,0.49,0.572
			c0.247,0.378,0.462,0.779,0.708,1.158c0.076,0.117,0.204,0.265,0.322,0.278c0.399,0.046,0.599,0.306,0.805,0.598
			c0.431,0.612,0.949,1.12,1.719,1.28c0.227,0.047,0.459,0.075,0.685,0.129c1,0.236,1.974,0.039,2.945-0.176
			c0.098-0.022,0.218-0.105,0.258-0.192c0.064-0.138,0.069-0.303,0.109-0.515c-0.079-0.118-0.178-0.308-0.317-0.46
			c-0.551-0.605-1.188-1.126-1.764-1.709c-0.625-0.632-1.431-1.254-2.492-1.062c-0.066-0.241-0.095-0.504-0.207-0.726
			c-0.241-0.476-0.544-0.92-0.785-1.396c-0.203-0.4-0.429-0.811-0.516-1.242c-0.447-2.206-0.858-4.42-1.268-6.633
			c-0.218-1.176-0.431-2.352-0.6-3.536c-0.097-0.674-0.14-1.361-0.135-2.043c0.004-0.566,0.113-1.133,0.174-1.698
			c0.098-0.912,0.097-1.85-0.217-2.691c-0.572-1.534-0.507-3.105-0.502-4.679c0.003-0.869,0.128-1.737,0.151-2.606
			c0.029-1.127,0.004-2.256,0.013-3.383c0.003-0.335,0.026-0.673,0.072-1.006c0.104-0.757,0.218-1.513,0.354-2.265
			c0.027-0.149,0.161-0.284,0.261-0.414c0.129-0.168,0.263-0.335,0.416-0.48c0.08-0.077,0.246-0.178,0.304-0.144
			c0.252,0.143,0.345,0.01,0.404-0.192c0.06-0.207,0.099-0.42,0.147-0.63c0.485,0.104,0.548,0.056,0.661-0.421
			c0.027-0.115,0.09-0.224,0.152-0.327c0.073-0.124,0.188-0.229,0.237-0.361c0.085-0.227,0.126-0.444,0.468-0.38
			c0.096,0.018,0.291-0.136,0.332-0.251c0.076-0.213,0.067-0.456,0.101-0.685c0.019-0.124,0.053-0.244,0.08-0.366
			c0.081,0.079,0.078,0.142,0.082,0.206c0.007,0.099,0.019,0.198,0.028,0.296c0.1-0.061,0.234-0.099,0.291-0.188
			c0.063-0.098,0.071-0.241,0.077-0.365c0.01-0.239,0.003-0.478,0.003-0.743c0.433,0.045,0.522-0.21,0.556-0.511
			c0.024-0.207,0.019-0.421,0.067-0.622c0.022-0.09,0.165-0.234,0.215-0.219c0.259,0.074,0.396-0.025,0.498-0.248
			c0.024-0.051,0.101-0.111,0.155-0.112c0.349-0.009,0.312-0.246,0.34-0.488c0.028-0.242,0.071-0.531,0.22-0.698
			c0.156-0.175,0.445-0.227,0.428-0.55c-0.002-0.023,0.154-0.082,0.233-0.076c0.234,0.02,0.314-0.108,0.334-0.306
			c0.014-0.139,0.021-0.278,0.03-0.418c0.034-0.531,0.153-0.698,0.664-0.818c0.232-0.054,0.306-0.177,0.303-0.389
			c-0.002-0.236-0.001-0.473-0.001-0.732c0.463,0.241,0.498,0.206,0.58-0.518c0.538-0.006,0.297-0.458,0.399-0.74
			c0.345-0.014,0.444-0.268,0.464-0.545c0.019-0.26,0.021-0.484,0.357-0.522c0.053-0.006,0.115-0.14,0.129-0.223
			c0.079-0.485,0.144-0.972,0.218-1.481c0.052-0.028,0.239-0.067,0.265-0.153c0.119-0.403,0.21-0.816,0.274-1.232
			c0.034-0.218-0.015-0.443,0.283-0.516c0.058-0.014,0.117-0.144,0.124-0.223c0.016-0.219-0.002-0.439,0.007-0.658
			c0.003-0.096,0.017-0.261,0.063-0.275c0.328-0.102,0.259-0.362,0.283-0.599c0.01-0.106,0.082-0.21,0.141-0.306
			c0.072-0.117,0.212-0.218,0.228-0.338c0.03-0.226-0.025-0.461-0.011-0.691c0.007-0.113,0.064-0.282,0.146-0.319
			c0.228-0.102,0.266-0.261,0.251-0.477c-0.017-0.23-0.107-0.519-0.003-0.679c0.207-0.324,0.171-0.635,0.141-0.97
			c-0.032-0.37-0.051-0.742-0.064-1.113c-0.003-0.099,0.002-0.231,0.06-0.296c0.332-0.372,0.429-0.852,0.473-1.298
			c0.121-1.223,0.156-2.454,0.227-3.682c0.006-0.102-0.006-0.279,0.037-0.295c0.441-0.164,0.254-0.543,0.303-0.836
			c0.088-0.529-0.205-1.107,0.205-1.597c0.012-0.015,0.007-0.045,0.009-0.069c0.073-0.691,0.161-1.381,0.215-2.074
			c0.03-0.379,0.006-0.763,0.006-1.169c0.318,0.006,0.415-0.205,0.382-0.453c-0.141-1.055,0.386-1.934,0.752-2.848
			c0.088-0.221,0.365-0.422,0.6-0.52c0.535-0.221,1.088-0.422,1.652-0.542c1.398-0.299,2.777-0.616,4.083-1.244
			c0.852-0.41,1.782-0.662,2.688-0.948c0.439-0.139,0.902-0.248,1.358-0.269c0.601-0.026,1.207,0.077,1.81,0.07
			c0.591-0.006,1.182-0.067,1.769-0.134c0.119-0.014,0.288-0.138,0.323-0.248c0.078-0.238,0.061-0.506,0.129-0.748
			c0.041-0.144,0.146-0.297,0.267-0.383c0.254-0.181,0.513-0.322,0.382-0.715c-0.03-0.093,0.068-0.228,0.107-0.344
			c0-0.093,0-0.186,0-0.279c-0.142-0.352-0.273-0.709-0.43-1.054C156.067,66.272,155.973,65.905,155.744,65.734z"/>
	</g>
</g>
</svg>
