<?xml version="1.0" encoding="utf-8"?>
<!-- Generator: Adobe Illustrator 17.0.0, SVG Export Plug-In . SVG Version: 6.00 Build 0)  -->
<!DOCTYPE svg PUBLIC "-//W3C//DTD SVG 1.1//EN" "http://www.w3.org/Graphics/SVG/1.1/DTD/svg11.dtd">
<svg version="1.1" id="Layer_1" xmlns="http://www.w3.org/2000/svg" xmlns:xlink="http://www.w3.org/1999/xlink" x="0px" y="0px"
	 width="200px" height="200px" viewBox="0 0 200 200" enable-background="new 0 0 200 200" xml:space="preserve">
<path fill="#97BF0D" d="M200,188.003c0,6.902-5.373,12.496-12,12.496H12c-6.627,0-12-5.595-12-12.496V12.11
	C0,5.208,5.373-0.387,12-0.387h176c6.627,0,12,5.595,12,12.496V188.003z"/>
<g>
	<path fill="#41281B" d="M151.54,145.944c-0.078,0-0.156-0.007-0.235-0.021c-0.245-0.044-6.047-1.137-11.39-5.412
		c-1.87-1.496-3.351-3.324-4.491-5.087c-12.724-0.871-22.738-5.213-28.929-8.729c-6.82-3.874-10.536-7.533-10.691-7.687
		c-0.39-0.388-0.495-0.978-0.264-1.477c0.121-0.26,3.042-6.452,9.94-12.697c5.239-4.743,13.683-10.238,25.815-12.023
		c-0.038-1.246,0.083-4.062,1.532-7.519c1.98-4.721,5.421-6.454,5.567-6.526c0.621-0.305,1.372-0.073,1.713,0.53
		c0.03,0.053,3.168,5.474,8.056,6.33c5.413,0.947,10.637,1.095,10.689,1.097c0.516,0.014,0.976,0.33,1.173,0.808
		c0.034,0.083,0.842,2.056,1.234,4.164c0.273,1.466,0.191,3.114,0.102,4.077c5.794,1.989,10.462,4.529,13.97,6.851
		c1.686,1.116,3.187,2.231,4.506,3.294c0.47-2.721,1.619-7.564,4.229-11.424c4.036-5.97,10.29-5.128,10.555-5.089
		c0.396,0.058,0.743,0.294,0.943,0.641c0.2,0.347,0.229,0.765,0.081,1.137c-0.018,0.046-1.857,4.701-1.719,8.295
		c0.147,3.81,0.145,7.743-1.582,10.292c-1.148,1.694-3.158,3.065-4.467,3.838c1.003,0.592,2.472,1.604,3.572,2.974
		c1.791,2.232,2.087,5.853,2.236,9.371c0.14,3.29,2.158,7.386,2.179,7.427c0.178,0.358,0.182,0.778,0.011,1.14
		c-0.171,0.362-0.498,0.625-0.888,0.715c-0.241,0.055-5.97,1.304-10.151-3.915c-2.75-3.434-4.171-7.926-4.783-10.357
		c-6.083,4.689-15.836,10.751-28.096,13.357c0.008,0.019,0.015,0.037,0.023,0.056c1.922,4.805,0.886,10.283,0.841,10.514
		C152.699,145.51,152.153,145.944,151.54,145.944z M135.235,129.327c0.832,2.107,2.834,6.362,6.312,9.144
		c3.355,2.684,6.983,3.995,8.886,4.545c0.16-1.758,0.227-4.908-0.879-7.672c-1.069-2.674-4.425-4.96-9.449-6.437
		C139.08,128.605,136.938,128.93,135.235,129.327z M182.318,119.145c0.3,1.442,1.576,6.818,4.558,10.54
		c1.947,2.431,4.317,3.014,5.873,3.098c-0.68-1.688-1.572-4.324-1.674-6.72c-0.125-2.949-0.367-6.231-1.663-7.846
		c-0.994-1.239-2.452-2.141-3.224-2.565C185.403,116.426,184.096,117.661,182.318,119.145z M118.492,129.275
		c4.456,1.571,9.553,2.829,15.214,3.384c-1.121-2.231-1.631-3.927-1.658-4.019c-0.205-0.691,0.189-1.418,0.88-1.623
		c0.533-0.158,5.276-1.525,7.794-0.785c3.205,0.943,7.408,2.681,9.867,5.698c17.756-3.511,30.504-14.972,33.728-18.115
		c-1.405-1.641-4.913-5.38-10.525-9.078c-6.858-4.52-18.361-9.907-34.223-9.907c-8.997,0-16.271,2.099-21.978,4.911
		c1.244,1.954,4.475,7.659,4.475,14.16C122.067,121.462,118.791,128.637,118.492,129.275z M98.345,117.794
		c1.994,1.758,8.178,6.776,17.704,10.564c0.018-0.056,0.04-0.112,0.066-0.167l0,0c0.033-0.071,3.339-7.139,3.339-14.291
		c0-5.986-3.209-11.422-4.182-12.933c-3.257,1.845-5.924,3.888-8.038,5.803C102.167,111.358,99.355,115.955,98.345,117.794z
		 M182.185,107.918c1.691,1.525,2.94,2.848,3.76,3.779c0.957-0.518,3.178-1.832,4.236-3.394c1.284-1.895,1.264-5.35,1.135-8.727
		c-0.103-2.673,0.68-5.698,1.274-7.57c-1.699,0.195-4.366,1.002-6.359,3.95C183.252,100.363,182.362,106.448,182.185,107.918z
		 M139.57,92.217c7.303,0,13.723,1.099,19.235,2.736c0.048-0.802,0.058-1.861-0.113-2.781c-0.204-1.095-0.547-2.176-0.792-2.873
		c-1.754-0.082-5.86-0.343-10.186-1.1c-4.569-0.8-7.74-4.505-9.116-6.441c-0.937,0.745-2.369,2.18-3.36,4.544
		c-1.175,2.802-1.337,5.103-1.333,6.189C135.717,92.313,137.604,92.217,139.57,92.217z M112.923,115.991
		c-2.305,0-4.18-1.875-4.18-4.18c0-2.305,1.875-4.18,4.18-4.18s4.18,1.875,4.18,4.18
		C117.103,114.115,115.228,115.991,112.923,115.991z M112.923,110.243c-0.864,0-1.567,0.703-1.567,1.567
		c0,0.864,0.703,1.567,1.567,1.567s1.567-0.703,1.567-1.567C114.49,110.946,113.787,110.243,112.923,110.243z"/>
</g>
<g>
	<path fill="#41281B" d="M155.073,49.301c-8.139-3.138-25.385,4.386-43.644,12.353c-17.039,7.435-36.352,15.863-43.337,12.314
		c-22.017-11.184-36.97-4.636-43.924,0.262C13.261,81.913,7.305,95.45,8.994,108.718c2.992,23.512-6.554,38.769-6.651,38.92
		c-0.439,0.684-0.24,1.594,0.443,2.034c0.684,0.44,1.595,0.241,2.035-0.442c0.419-0.652,10.229-16.251,7.094-40.884
		C10.363,96.146,15.838,83.7,25.864,76.638c6.413-4.517,20.253-10.53,40.894-0.044c2.236,1.136,5.221,1.368,8.763,0.942l2.157,8.144
		c0.101,0.38,0.349,0.705,0.69,0.901l10.664,6.12c-0.194,0.431-0.389,0.862-0.569,1.3c-4.081,9.931-4.425,21.012-0.967,31.204
		c3.042,8.966,5.498,18.584,7.297,28.587c0.128,0.712,0.749,1.212,1.448,1.212c0.087,0,0.174-0.008,0.262-0.024
		c0.8-0.144,1.333-0.91,1.189-1.71c-1.826-10.147-4.317-19.908-7.407-29.012c-3.229-9.518-2.909-19.866,0.902-29.138
		c3.815-9.282,10.868-16.843,19.86-21.289l44.149-21.836c0.524-0.259,0.845-0.804,0.818-1.388
		C155.987,50.024,155.618,49.511,155.073,49.301z M112.606,64.354c12.089-5.275,24.467-10.674,33.106-12.339
		c-14.058,4.865-42.996,16.042-65.343,32.319l-0.002-0.001l-1.924-7.264C87.678,75.231,99.911,69.893,112.606,64.354z
		 M109.74,71.191c-8.322,4.116-15.088,10.725-19.413,18.857l-7.155-4.106c15.297-10.928,33.527-19.476,47.79-25.248L109.74,71.191z"
		/>
	<path fill="#41281B" d="M54.957,84.152c-1.972,0-3.976,0.824-5.498,2.263c-3.056,2.887-3.449,7.451-0.876,10.174
		c1.197,1.266,2.869,1.964,4.709,1.964c1.972,0,3.976-0.825,5.498-2.263c3.056-2.887,3.449-7.451,0.876-10.174
		C58.469,84.849,56.797,84.152,54.957,84.152z M50.655,89.543c0.151,0.55,0.331,1.153,0.541,1.778
		c0.591,1.754,1.26,3.182,1.997,4.281c-0.982-0.023-1.856-0.387-2.47-1.037C49.517,93.288,49.546,91.222,50.655,89.543z
		 M56.767,94.149c-0.193,0.183-0.401,0.345-0.614,0.496c-1.343-1.47-2.436-4.73-2.993-7.178c0.583-0.24,1.195-0.37,1.798-0.37
		c1.021,0,1.933,0.37,2.568,1.041C58.982,89.681,58.641,92.377,56.767,94.149z"/>
</g>
</svg>
