<?xml version="1.0" encoding="utf-8"?>
<!-- Generator: Adobe Illustrator 17.0.0, SVG Export Plug-In . SVG Version: 6.00 Build 0)  -->
<!DOCTYPE svg PUBLIC "-//W3C//DTD SVG 1.1//EN" "http://www.w3.org/Graphics/SVG/1.1/DTD/svg11.dtd">
<svg version="1.1" id="Layer_1" xmlns="http://www.w3.org/2000/svg" xmlns:xlink="http://www.w3.org/1999/xlink" x="0px" y="0px"
	 width="200px" height="200px" viewBox="0 0 200 200" enable-background="new 0 0 200 200" xml:space="preserve">
<path fill="#97BF0D" d="M200,188.003c0,6.902-5.373,12.496-12,12.496H12c-6.627,0-12-5.595-12-12.496V12.11
	C0,5.208,5.373-0.387,12-0.387h176c6.627,0,12,5.595,12,12.496V188.003z"/>
<path fill="#41281B" d="M160.006,137.288c-1.076-0.134-2.088,0.329-2.708,1.129l-4.214-0.527l6.07-5.985
	c0.984,0.255,2.072,0,2.842-0.771c1.155-1.161,1.148-3.038-0.008-4.19c-1.157-1.154-3.032-1.15-4.19,0.007
	c-0.762,0.766-1.016,1.843-0.769,2.819l-5.424,5.349l1.808-6.88c0.957-0.284,1.767-1,2.04-2.038c0.415-1.582-0.53-3.2-2.111-3.616
	c-1.582-0.418-3.203,0.53-3.618,2.111c-0.273,1.037,0.081,2.059,0.774,2.779l-1.965,7.471l-2.22-8.032
	c0.687-0.727,1.026-1.753,0.741-2.788c-0.437-1.575-2.066-2.501-3.643-2.068c-2.806,0.776-2.98,4.811,0,5.656l1.741,6.307
	c-1.322,0.573-10.461,4.526-11.402,4.936c0.638-2.801,0.495-2.183,2.804-12.301c0.012,0.059,0.141-0.893,0.147-1.37
	c0.166-5.519-4.948-10.608-11.85-8.245c-0.337,0.121,0.057-0.097-7.057,3.656c1.651-6.518,2.798-13.47,3.325-20.038
	c7.661,4.66,10.741-0.507,11.579-2.741C132.812,97.621,142.06,70,142.06,70l6.336-6.355c0.973,0.236,2.031,0.024,2.788-0.735
	c1.156-1.161,1.149-3.037-0.008-4.191c-1.156-1.153-3.032-1.148-4.189,0.008c-0.757,0.762-0.965,1.82-0.726,2.793l-5.508,5.525
	l1.849-7.027c0.958-0.286,1.767-1.002,2.04-2.04c0.416-1.583-0.529-3.2-2.111-3.616c-1.582-0.418-3.202,0.529-3.618,2.11
	c-0.273,1.037,0.081,2.058,0.775,2.779l-1.965,7.47l-2.22-8.031c0.687-0.728,1.026-1.753,0.741-2.789
	c-0.437-1.575-2.068-2.501-3.643-2.067c-1.577,0.435-2.501,2.067-2.067,3.647c0.286,1.033,1.104,1.737,2.065,2.01l2.043,7.392
	c0,0-4.981,9.742-9.916,19.396c-0.659-0.661-1.322-1.324-1.914-1.918c-0.81-0.812-1.55-1.553-2.207-2.213
	c-0.798-4.744-2.12-8.743-3.867-11.983c0.688-0.967,1.102-2.142,1.102-3.417c0-3.265-2.648-5.911-5.912-5.911
	c-0.315,0-0.618,0.045-0.92,0.092l-3.351-3.351c0.018-0.201,0.06-0.392,0.06-0.596c0-3.991-3.229-7.25-7.215-7.25
	c-3.985,0-7.215,3.259-7.215,7.25c0,0.204,0.042,0.396,0.06,0.596l-3.351,3.351c-0.302-0.047-0.604-0.092-0.92-0.092
	c-3.264,0-5.912,2.645-5.912,5.911c0,1.275,0.414,2.45,1.102,3.417c-1.747,3.24-3.069,7.238-3.867,11.983
	c-0.657,0.659-1.397,1.401-2.207,2.213c-0.592,0.594-1.254,1.257-1.914,1.918c-4.934-9.655-9.916-19.396-9.916-19.396l2.043-7.392
	c0.96-0.273,1.779-0.977,2.065-2.01c0.434-1.579-0.49-3.211-2.067-3.647c-1.576-0.434-3.206,0.492-3.643,2.067
	c-0.285,1.036,0.055,2.061,0.741,2.789l-2.22,8.031l-1.965-7.47c0.694-0.72,1.048-1.741,0.775-2.779
	c-0.416-1.582-2.036-2.528-3.618-2.11c-1.582,0.416-2.527,2.033-2.111,3.616c0.273,1.038,1.082,1.754,2.04,2.04l1.849,7.027
	l-5.508-5.525c0.239-0.973,0.031-2.031-0.726-2.793c-1.157-1.156-3.032-1.161-4.189-0.008c-1.157,1.154-1.164,3.03-0.008,4.191
	c0.757,0.759,1.816,0.971,2.788,0.735l6.336,6.355c0,0,9.248,27.62,9.359,27.917c0.838,2.234,3.919,7.402,11.579,2.741
	c0.528,6.568,1.674,13.52,3.325,20.038c-7.114-3.753-6.72-3.535-7.057-3.656c-6.901-2.363-12.016,2.725-11.849,8.245
	c0.005,0.478,0.135,1.43,0.147,1.37c2.309,10.118,2.166,9.499,2.804,12.301c-0.94-0.41-10.079-4.363-11.402-4.936l1.741-6.307
	c2.98-0.845,2.806-4.881,0-5.656c-1.577-0.433-3.206,0.492-3.643,2.068c-0.285,1.035,0.055,2.061,0.741,2.788l-2.22,8.032
	l-1.965-7.471c0.693-0.72,1.047-1.742,0.774-2.779c-0.415-1.581-2.036-2.529-3.618-2.111c-1.581,0.416-2.526,2.034-2.111,3.616
	c0.273,1.038,1.083,1.754,2.04,2.038l1.808,6.88l-5.424-5.349c0.247-0.976-0.007-2.053-0.769-2.819
	c-1.157-1.157-3.032-1.161-4.19-0.007c-1.156,1.152-1.163,3.029-0.008,4.19c0.77,0.771,1.858,1.026,2.842,0.771l6.07,5.985
	l-4.213,0.527c-0.62-0.8-1.631-1.263-2.708-1.129c-1.624,0.204-2.775,1.685-2.573,3.305c0.202,1.622,1.683,2.774,3.309,2.575
	c1.076-0.135,1.941-0.834,2.345-1.762l6.587-0.825c0.695,0.386,19.64,10.912,19.64,10.912c2.053,1.14,4.572,1.028,6.515-0.29
	c1.943-1.318,2.981-3.618,2.679-5.946c-0.772-5.944-1.502-11.542-1.505-11.568c0.394,0.26,10.724,7.363,15.963,10.936
	c2.057,2.231,4.258,3.568,6.544,3.568s4.486-1.336,6.544-3.568c5.238-3.572,15.569-10.676,15.963-10.936
	c-0.003,0.026-0.733,5.624-1.505,11.568c-0.302,2.328,0.736,4.628,2.679,5.946c1.943,1.318,4.462,1.43,6.515,0.29
	c0,0,18.945-10.526,19.64-10.912l6.587,0.825c0.403,0.928,1.268,1.627,2.345,1.762c1.625,0.2,3.106-0.953,3.309-2.575
	C162.781,138.972,161.63,137.492,160.006,137.288z"/>
<g>
	<path fill="#41281B" d="M368.53,227.286c3.412,2.007,7.807,0.865,9.809-2.546c2.008-3.412,0.87-7.805-2.542-9.811
		c-3.418-2.006-7.807-0.865-9.812,2.546C363.98,220.888,365.115,225.28,368.53,227.286z"/>
	<path fill="#41281B" d="M380.241,251.973c-0.393,0-0.781,0.032-1.166,0.059l-2.348-11.649l0.765-0.286
		c1.735-0.649,2.618-2.582,1.968-4.318c-0.65-1.738-2.594-2.617-4.316-1.967l-8.431,3.153l-0.378-3.069
		c1.025-2.146,0.901-4.845-0.776-6.749c-3.453-3.919-7.666-2.035-8.979-0.972l-17.389,14.081l0.003,0.004
		c-0.54,0.471-0.991,1.055-1.279,1.764c-0.356,0.878-0.422,1.8-0.254,2.665c-1.383,0.109-2.482,1.232-2.482,2.643
		c0,1.478,1.195,2.675,2.673,2.681l-1.106,2.588c-1.402-0.401-2.875-0.629-4.403-0.629c-8.85,0-16.052,7.199-16.052,16.05
		c0,8.851,7.202,16.051,16.052,16.051c8.851,0,16.05-7.201,16.05-16.051c0-5.894-3.202-11.041-7.949-13.832l1.783-4.173h2.891
		l9.807,3.98l-5.239,8.586c-1.35,2.215-0.65,5.105,1.564,6.456c0.763,0.465,1.607,0.688,2.44,0.688c1.583,0,3.129-0.802,4.015-2.251
		l4.773-7.824l3.103,1.873c-0.886,1.989-1.389,4.185-1.389,6.499c0,8.851,7.2,16.051,16.05,16.051c8.851,0,16.05-7.201,16.05-16.051
		C396.291,259.172,389.092,251.973,380.241,251.973z M332.343,280.048c-6.631,0-12.026-5.395-12.026-12.025
		c0-6.631,5.396-12.024,12.026-12.024c0.967,0,1.895,0.146,2.796,0.362l-3.331,7.792c-1.913,0.263-3.391,1.887-3.391,3.871
		c0,2.168,1.758,3.926,3.926,3.926c1.426,0,2.663-0.772,3.35-1.913h8.47C343.199,275.707,338.285,280.048,332.343,280.048z
		 M344.163,266.01h-8.47c-0.058-0.096-0.115-0.191-0.181-0.282l3.331-7.793C341.618,259.729,343.589,262.628,344.163,266.01z
		 M364.574,256.215l1.247-2.044c0.718-1.177,0.884-2.609,0.451-3.918c-0.433-1.309-1.418-2.361-2.694-2.88L355,243.891l5.278-4.276
		l0.293,2.39c0.123,1.02,0.71,1.926,1.588,2.46c0.532,0.322,1.135,0.486,1.74,0.486c0.396,0,0.794-0.071,1.174-0.212l7.833-2.929
		l2.217,11.013c-2.972,1.002-5.55,2.849-7.459,5.257L364.574,256.215z M377.364,263.935l-6.183-3.732
		c1.281-1.483,2.894-2.655,4.751-3.373L377.364,263.935z M380.241,280.048c-6.631,0-12.024-5.395-12.024-12.025
		c0-1.553,0.32-3.026,0.857-4.39l7.246,4.374c0,0.005-0.003,0.01-0.003,0.015c0,2.168,1.758,3.926,3.923,3.926
		c2.167,0,3.924-1.759,3.924-3.926c0-1.705-1.093-3.141-2.613-3.683l-1.672-8.304c0.123-0.004,0.238-0.037,0.361-0.037
		c6.631,0,12.024,5.394,12.024,12.024C392.265,274.653,386.872,280.048,380.241,280.048z"/>
</g>
</svg>
