<?xml version="1.0" encoding="utf-8"?>
<!-- Generator: Adobe Illustrator 17.0.0, SVG Export Plug-In . SVG Version: 6.00 Build 0)  -->
<!DOCTYPE svg PUBLIC "-//W3C//DTD SVG 1.1//EN" "http://www.w3.org/Graphics/SVG/1.1/DTD/svg11.dtd">
<svg version="1.1" id="Layer_1" xmlns="http://www.w3.org/2000/svg" xmlns:xlink="http://www.w3.org/1999/xlink" x="0px" y="0px"
	 width="200px" height="200px" viewBox="0 0 200 200" enable-background="new 0 0 200 200" xml:space="preserve">
<path fill="#97BF0D" d="M200,188.003c0,6.902-5.373,12.496-12,12.496H12c-6.627,0-12-5.595-12-12.496V12.11
	C0,5.208,5.373-0.387,12-0.387h176c6.627,0,12,5.595,12,12.496V188.003z"/>
<path fill="#41281B" d="M155.1,103.538c-1.783-5.251-5.435-9.288-10.281-11.368c-3.182-1.365-7.286-2.055-11.707-2.23
	c3.568-1.986,7.104-4.447,9.555-7.325c7.012-8.231,5.344-21.209-3.72-28.931c-4.364-3.718-9.781-5.683-15.254-5.534
	c-5.543,0.151-10.48,2.445-13.899,6.459c-3.758,4.411-6.731,12.222-8.402,19.899c-1.906-7.845-4.992-15.796-8.488-19.899
	c-7.013-8.232-20.091-8.647-29.155-0.926c-9.063,7.721-10.732,20.699-3.72,28.931c2.283,2.68,5.634,5.122,9.471,7.266
	c-4.415,0.267-8.119,1.031-11.051,2.29c-4.846,2.08-8.497,6.117-10.281,11.368c-1.761,5.184-1.485,10.941,0.776,16.209
	c3.609,8.409,11.475,13.564,19.434,13.563c2.397,0,4.803-0.468,7.102-1.454c1.836-0.788,3.686-1.961,5.459-3.315
	c-0.597,2.408-0.898,4.619-0.898,6.612c0,10.813,9.686,19.611,21.593,19.611s21.593-8.797,21.593-19.611
	c0-1.969-0.349-4.205-0.963-6.582c1.907,1.425,3.754,2.525,5.523,3.284c2.3,0.987,4.705,1.455,7.102,1.454
	c7.959,0,15.826-5.155,19.434-13.563C156.586,114.479,156.861,108.722,155.1,103.538L155.1,103.538z M103.437,86.948
	c0-10.346,4.229-24.385,9.05-30.045c2.761-3.241,6.775-5.094,11.302-5.217c4.6-0.124,9.166,1.541,12.864,4.691
	c7.578,6.456,9.068,17.197,3.321,23.943c-2.878,3.378-8.101,6.726-15.104,9.681c-0.116,0.049-0.224,0.11-0.324,0.179
	c-4.837,0.434-9.604,1.332-13.597,2.508c0-0.026,0.002-0.053,0.002-0.079c0-0.113-0.004-0.224-0.011-0.334l6.845-6.16
	c0.804,0.455,1.732,0.716,2.719,0.716c3.057,0,5.543-2.487,5.543-5.543c0-3.057-2.487-5.543-5.543-5.543
	c-0.768,0-1.501,0.157-2.167,0.441c-0.597-2.417-2.782-4.215-5.381-4.215c-3.057,0-5.543,2.487-5.543,5.543
	c0,1.451,0.561,2.772,1.476,3.761l-3.147,5.77c-0.006,0.01-0.01,0.021-0.015,0.031c-0.106-0.006-0.212-0.01-0.319-0.01
	c-0.718,0-1.403,0.138-2.033,0.388c0-0.015-0.001-0.029-0.001-0.043C103.414,87.263,103.437,87.109,103.437,86.948z
	 M118.807,102.926c0.112,0.697,0.354,1.35,0.701,1.935c-0.314,0.192-0.608,0.416-0.877,0.665l-6.942-3.786L118.807,102.926z
	 M122.392,107.588c1.106,0,2.005,0.899,2.005,2.005c0,1.106-0.899,2.005-2.005,2.005s-2.005-0.899-2.005-2.005
	C120.387,108.487,121.287,107.588,122.392,107.588z M124.279,104.05c-1.106,0-2.005-0.899-2.005-2.005s0.899-2.005,2.005-2.005
	s2.005,0.899,2.005,2.005S125.385,104.05,124.279,104.05z M105.409,118.91c1.106,0,2.005,0.899,2.005,2.005
	s-0.899,2.005-2.005,2.005s-2.005-0.899-2.005-2.005S104.303,118.91,105.409,118.91z M101.635,116.86
	c-0.344-0.321-0.729-0.599-1.146-0.825l1.157-6.941l1.155,6.931C102.376,116.253,101.984,116.535,101.635,116.86z M97.861,118.91
	c1.106,0,2.005,0.899,2.005,2.005s-0.899,2.005-2.005,2.005c-1.106,0-2.005-0.899-2.005-2.005S96.755,118.91,97.861,118.91z
	 M104.373,100.018c-0.571,0.38-0.87,1.055-0.77,1.733l0.005,0.032c0.015,0.1,0.032,0.214,0.032,0.262
	c0,1.106-0.899,2.005-2.005,2.005c-1.106,0-2.005-0.899-2.005-2.005c0-0.048,0.017-0.162,0.032-0.262l0.005-0.032
	c0.101-0.678-0.199-1.353-0.77-1.733c-0.297-0.197-0.638-0.296-0.98-0.296c-0.317,0-0.634,0.085-0.915,0.255
	c-0.328,0.198-0.673,0.299-1.027,0.299c-1.106,0-2.005-0.899-2.005-2.005c0-0.841,0.542-1.596,1.349-1.879
	c0.518-0.181,0.923-0.593,1.095-1.114c0.172-0.521,0.093-1.093-0.215-1.547c-0.224-0.331-0.342-0.719-0.342-1.121
	c0-1.106,0.899-2.005,2.005-2.005s2.005,0.899,2.005,2.005c0,0.977,0.792,1.769,1.769,1.769c0.977,0,1.769-0.792,1.769-1.769
	c0-1.106,0.899-2.005,2.005-2.005c1.106,0,2.005,0.899,2.005,2.005c0,0.402-0.118,0.79-0.342,1.121
	c-0.308,0.455-0.387,1.026-0.215,1.547c0.172,0.521,0.577,0.933,1.095,1.114c0.807,0.282,1.349,1.037,1.349,1.879
	c0,1.106-0.899,2.005-2.005,2.005c-0.354,0-0.7-0.1-1.027-0.299C105.682,99.622,104.943,99.639,104.373,100.018z M76.985,102.045
	c0-1.106,0.899-2.005,2.005-2.005c1.106,0,2.005,0.899,2.005,2.005c0,1.106-0.899,2.005-2.005,2.005
	C77.885,104.05,76.985,103.15,76.985,102.045z M80.877,107.588c1.106,0,2.005,0.899,2.005,2.005c0,1.106-0.899,2.005-2.005,2.005
	c-1.106,0-2.005-0.899-2.005-2.005C78.872,108.487,79.772,107.588,80.877,107.588z M84.639,105.526
	c-0.269-0.249-0.563-0.472-0.877-0.665c0.347-0.585,0.589-1.238,0.701-1.935l7.118-1.186L84.639,105.526z M82.764,83.292
	c-1.106,0-2.005-0.899-2.005-2.005c0-1.106,0.899-2.005,2.005-2.005c1.106,0,2.005,0.899,2.005,2.005
	C84.769,82.393,83.87,83.292,82.764,83.292z M88.146,82.615c0.666,0.284,1.398,0.441,2.167,0.441c0.328,0,0.649-0.03,0.962-0.085
	l2.969,5.443c-0.155,0.134-0.303,0.276-0.442,0.426l-5.949-5.354C87.973,83.207,88.071,82.916,88.146,82.615z M90.312,79.518
	c-1.106,0-2.005-0.899-2.005-2.005c0-1.106,0.899-2.005,2.005-2.005c1.106,0,2.005,0.899,2.005,2.005
	C92.317,78.619,91.418,79.518,90.312,79.518z M118.5,81.287c0-1.106,0.899-2.005,2.005-2.005s2.005,0.899,2.005,2.005
	c0,1.106-0.899,2.005-2.005,2.005S118.5,82.393,118.5,81.287z M112.957,79.518c-1.106,0-2.005-0.899-2.005-2.005
	c0-1.106,0.899-2.005,2.005-2.005s2.005,0.899,2.005,2.005C114.962,78.619,114.063,79.518,112.957,79.518z M111.995,82.971
	c0.313,0.055,0.634,0.085,0.962,0.085c0.769,0,1.501-0.157,2.167-0.441c0.074,0.301,0.173,0.592,0.294,0.871l-5.949,5.354
	c-0.139-0.15-0.287-0.292-0.443-0.426L111.995,82.971L111.995,82.971z M62.723,80.321c-5.747-6.746-4.257-17.487,3.321-23.943
	c7.578-6.455,18.419-6.219,24.166,0.526c4.166,4.891,9.216,19.553,9.627,30.53c-0.615-0.236-1.281-0.368-1.977-0.368
	c-0.106,0-0.212,0.004-0.317,0.01l-3.164-5.801c0.915-0.989,1.476-2.311,1.476-3.761c0-3.057-2.487-5.543-5.543-5.543
	c-2.599,0-4.785,1.798-5.381,4.215c-0.666-0.284-1.398-0.441-2.167-0.441c-3.057,0-5.543,2.487-5.543,5.543s2.487,5.543,5.543,5.543
	c0.988,0,1.915-0.261,2.719-0.716l6.845,6.16c-0.007,0.111-0.011,0.222-0.011,0.334c0,0.466,0.058,0.924,0.17,1.368
	c-0.25,0.202-0.48,0.425-0.689,0.665c-0.119-0.06-0.245-0.109-0.38-0.142c-0.48-0.117-0.97-0.242-1.471-0.375
	c-4.427-1.171-8.333-2.514-11.731-3.931c-0.194-0.133-0.415-0.229-0.656-0.276C70.033,86.694,65.11,83.122,62.723,80.321
	L62.723,80.321z M74.086,128.604c-8.144,3.495-17.964-1.105-21.89-10.253c-1.916-4.464-2.156-9.32-0.677-13.676
	c1.457-4.289,4.414-7.575,8.326-9.254c3.857-1.655,9.626-2.359,16.684-2.034c0.092,0.004,0.184,0.009,0.276,0.014
	c4.122,1.723,8.381,3.124,12.238,4.145c0.476,0.126,0.943,0.245,1.401,0.358c-0.008,0.121-0.013,0.244-0.013,0.367
	c0,0.025,0.002,0.049,0.002,0.074l-6.553,1.092c-0.935-1.745-2.775-2.935-4.89-2.935c-3.057,0-5.543,2.487-5.543,5.543
	c0,2,1.065,3.757,2.659,4.732c-0.489,0.826-0.772,1.789-0.772,2.817c0,3.057,2.487,5.543,5.543,5.543s5.543-2.487,5.543-5.543
	c0-0.328-0.03-0.649-0.085-0.962l8.92-4.865c0.235,0.031,0.475,0.048,0.719,0.048c0.134,0,0.268-0.005,0.402-0.015
	c0.082,0.245,0.183,0.481,0.297,0.709c-0.131,0.119-0.246,0.259-0.34,0.419c-2.608,4.471-6.397,9.626-10.135,13.791
	C81.719,123.708,77.531,127.126,74.086,128.604L74.086,128.604z M101.635,151.226c-9.955,0-18.055-7.21-18.055-16.072
	c0-3.086,0.861-6.862,2.557-11.223c0.978-0.98,1.885-1.948,2.693-2.848c3.368-3.753,6.662-8.116,9.273-12.258l-1.103,6.615
	c-2.65,0.414-4.683,2.712-4.683,5.476c0,3.057,2.487,5.543,5.543,5.543c1.457,0,2.784-0.566,3.774-1.488
	c0.99,0.923,2.317,1.488,3.774,1.488c3.057,0,5.543-2.487,5.543-5.543c0-2.757-2.023-5.049-4.662-5.472l-1.477-8.863
	c0.505-0.355,0.95-0.791,1.312-1.291c8.002,9.44,13.564,23.269,13.564,29.864C119.689,144.016,111.59,151.226,101.635,151.226
	L101.635,151.226z M151.073,118.352c-3.926,9.148-13.746,13.747-21.89,10.253c-2.717-1.166-5.711-3.313-8.898-6.38
	c-0.065-0.063-0.135-0.117-0.206-0.168c-2.423-5.997-5.955-12.181-9.544-16.916l6.399,3.49c-0.055,0.313-0.085,0.634-0.085,0.962
	c0,3.057,2.487,5.543,5.543,5.543s5.543-2.487,5.543-5.543c0-1.028-0.282-1.991-0.772-2.817c1.593-0.975,2.659-2.731,2.659-4.732
	c0-3.057-2.487-5.543-5.543-5.543c-2.114,0-3.955,1.19-4.889,2.935l-6.553-1.092c0-0.025,0.002-0.049,0.002-0.074
	c0-0.811-0.181-1.592-0.507-2.3c9.677-2.769,23.693-3.724,31.093-0.549c3.912,1.679,6.869,4.966,8.326,9.254
	C153.229,109.031,152.989,113.888,151.073,118.352L151.073,118.352z"/>
</svg>
