<?xml version="1.0" encoding="utf-8"?>
<!-- Generator: Adobe Illustrator 17.0.0, SVG Export Plug-In . SVG Version: 6.00 Build 0)  -->
<!DOCTYPE svg PUBLIC "-//W3C//DTD SVG 1.1//EN" "http://www.w3.org/Graphics/SVG/1.1/DTD/svg11.dtd">
<svg version="1.1" id="Layer_1" xmlns="http://www.w3.org/2000/svg" xmlns:xlink="http://www.w3.org/1999/xlink" x="0px" y="0px"
	 width="200px" height="200px" viewBox="0 0 200 200" enable-background="new 0 0 200 200" xml:space="preserve">
<path fill="#97BF0D" d="M200,188.003c0,6.902-5.373,12.496-12,12.496H12c-6.627,0-12-5.595-12-12.496V12.11
	C0,5.208,5.373-0.387,12-0.387h176c6.627,0,12,5.595,12,12.496V188.003z"/>
<path fill="#41281B" d="M166.894,124.489c-0.908-3.135-3.807-5.414-8.283-6.578c4.069-9.921,3.757-18.083-0.975-21.226
	c-0.985-0.654-2.427-1.259-4.394-1.267c2.19-7.766,1.266-13.734-2.669-16.347c-2.865-1.902-6.814-1.631-11.235,0.67
	c0.579-6.947-1.196-11.962-5.067-13.839c-3.791-1.838-8.741-0.206-13.753,4.374c-1.094-5.67-3.656-9.324-7.342-10.277
	c-3.761-0.974-7.931,1.135-11.731,5.834c-3.8-4.699-7.969-6.807-11.731-5.834c-3.686,0.954-6.248,4.607-7.342,10.277
	c-5.012-4.58-9.962-6.211-13.753-4.373c-3.871,1.876-5.646,6.891-5.067,13.838c-4.422-2.301-8.37-2.573-11.235-0.67
	c-3.936,2.613-4.859,8.583-2.669,16.347c-1.967,0.009-3.409,0.614-4.393,1.267c-4.733,3.142-5.045,11.305-0.976,21.226
	c-4.476,1.164-7.375,3.443-8.283,6.578c-1.379,4.76,2.131,10.198,9.629,14.919c6.574,4.14,14.304,6.328,22.354,6.328h66.933
	c8.051,0,15.78-2.188,22.354-6.328C164.763,134.687,168.273,129.249,166.894,124.489z"/>
<path fill="#97BF0D" stroke="#97BF0D" stroke-miterlimit="10" d="M152.06,135.439c-0.752-2.595-3.151-4.482-6.857-5.446
	c3.368-8.213,3.11-14.97-0.807-17.571c-0.815-0.541-2.009-1.042-3.637-1.049c1.813-6.428,1.048-11.37-2.21-13.532
	c-2.372-1.575-5.64-1.35-9.301,0.555c0.48-5.751-0.99-9.903-4.194-11.456c-3.138-1.521-7.236-0.171-11.385,3.621
	c-0.906-4.693-3.027-7.718-6.078-8.508c-3.113-0.806-6.565,0.939-9.711,4.829c-3.145-3.89-6.597-5.635-9.711-4.829
	c-3.051,0.79-5.173,3.814-6.078,8.508c-4.149-3.791-8.246-5.142-11.385-3.62c-3.204,1.553-4.674,5.704-4.195,11.455
	c-3.66-1.905-6.929-2.13-9.3-0.555c-3.258,2.163-4.022,7.105-2.21,13.532c-1.628,0.007-2.822,0.508-3.637,1.049
	c-3.918,2.601-4.176,9.358-0.808,17.571c-3.705,0.964-6.105,2.85-6.857,5.445c-1.142,3.94,1.764,8.442,7.971,12.35
	c5.442,3.427,11.841,5.238,18.505,5.238h55.408c6.664,0,13.063-1.811,18.505-5.238C150.297,143.88,153.202,139.379,152.06,135.439z"
	/>
<path fill="#41281B" d="M142.16,151.924c-4.773,3.005-10.399,4.594-16.271,4.594H70.811c-5.872,0-11.498-1.588-16.271-4.594
	c-4.288-2.7-6.787-5.833-6.219-7.794c0.429-1.479,2.703-2.624,6.084-3.062c0.634-0.082,1.19-0.464,1.495-1.025
	c0.305-0.562,0.322-1.236,0.046-1.812c-3.741-7.812-3.632-13.44-1.631-14.769c0.414-0.275,0.917-0.38,1.444-0.38
	c0.766,0,1.582,0.222,2.248,0.467c0.735,0.269,1.56,0.084,2.109-0.474s0.719-1.387,0.436-2.117
	c-2.601-6.705-2.044-10.915-0.425-11.99c1.572-1.044,4.898,0.104,8.473,2.926c0.663,0.523,1.583,0.572,2.298,0.122
	c0.714-0.45,1.067-1.302,0.881-2.126c-1.304-5.764-0.771-10.49,1.296-11.492c2.005-0.971,5.937,1.411,9.566,5.79
	c0.529,0.638,1.398,0.882,2.18,0.614c0.784-0.268,1.32-0.994,1.346-1.822c0.159-4.979,1.576-8.664,3.526-9.168
	c1.807-0.467,4.546,1.663,6.982,5.427c0.367,0.568,0.997,0.911,1.674,0.911s1.306-0.343,1.674-0.911
	c2.435-3.764,5.175-5.895,6.981-5.427c1.95,0.504,3.367,4.189,3.526,9.168c0.026,0.828,0.563,1.553,1.346,1.822
	c0.783,0.268,1.652,0.024,2.18-0.614c3.629-4.38,7.564-6.761,9.566-5.79c2.067,1.002,2.6,5.728,1.296,11.492
	c-0.186,0.824,0.167,1.675,0.881,2.126c0.714,0.45,1.635,0.402,2.298-0.122c3.575-2.822,6.901-3.971,8.474-2.926
	c1.618,1.074,2.175,5.285-0.425,11.99c-0.283,0.73-0.112,1.559,0.436,2.117c0.549,0.559,1.374,0.744,2.109,0.474
	c1.122-0.412,2.675-0.762,3.691-0.087c2.001,1.329,2.11,6.956-1.631,14.769c-0.276,0.576-0.259,1.251,0.046,1.812
	c0.305,0.562,0.861,0.943,1.495,1.025c3.381,0.438,5.656,1.583,6.084,3.062C148.947,146.091,146.448,149.223,142.16,151.924z"/>
</svg>
