<?xml version="1.0" encoding="utf-8"?>
<!-- Generator: Adobe Illustrator 17.0.0, SVG Export Plug-In . SVG Version: 6.00 Build 0)  -->
<!DOCTYPE svg PUBLIC "-//W3C//DTD SVG 1.1//EN" "http://www.w3.org/Graphics/SVG/1.1/DTD/svg11.dtd">
<svg version="1.1" id="Layer_1" xmlns="http://www.w3.org/2000/svg" xmlns:xlink="http://www.w3.org/1999/xlink" x="0px" y="0px"
	 width="200px" height="200px" viewBox="0 0 200 200" enable-background="new 0 0 200 200" xml:space="preserve">
<path fill="#97BF0D" d="M200,188.003c0,6.902-5.373,12.496-12,12.496H12c-6.627,0-12-5.595-12-12.496V12.11
	C0,5.208,5.373-0.387,12-0.387h176c6.627,0,12,5.595,12,12.496V188.003z"/>
<path fill="#41281B" d="M144.912,89.365c-2.135-5.153-6.491-13.798-11.684-13.798c-1.371,0-3.164,1.143-3.681,1.493
	c-0.612,0.415-0.932,1.21-0.779,1.932c0.019,0.091,1.941,9.192,2.345,13.481c1.198,12.712-1.062,22.022-6.716,27.677
	c-1.13,1.13-3.267,2.99-3.288,3.009c-0.432,0.376-0.638,0.917-0.552,1.464c0.086,0.548,0.451,0.989,0.979,1.216
	c0.205,0.088,3.998,1.665,8.83,2.396c-0.045,0.177-0.072,0.363-0.072,0.556v19.098h-25.333v-24.21
	c6.098-0.976,11.145-4.184,14.186-9.089c6.611-10.661,1.133-42.583-7.781-58.597c-3.381-6.073-6.891-9.148-10.433-9.148
	c0,0-0.001,0-0.002,0c-3.509,0-6.998,3.087-10.367,9.139c-8.932,16.044-14.446,47.962-7.848,58.603
	c3.828,6.174,9.794,8.347,14.186,9.07v24.232H71.569v-19.183c0-0.208-0.029-0.407-0.082-0.595c4.327-0.745,7.601-2.086,7.789-2.166
	c0.528-0.224,0.896-0.623,0.982-1.171c0.087-0.549-0.12-1.102-0.554-1.479c-0.022-0.019-2.261-1.964-3.439-3.142
	c-5.227-5.227-6.986-14.545-5.377-28.483c0.451-3.908,2.06-11.959,2.077-12.041c0.138-0.689-0.141-1.447-0.694-1.88
	c-0.657-0.514-2.924-2.2-4.54-2.2c-4.48,0-8.089,6.426-10.327,11.829c-4.913,11.864-8.479,31.668-3.123,37.024
	c2.613,2.613,6.202,3.978,10.678,4.17c-0.007,0.071-0.01,0.143-0.01,0.216v19.098h-7.1c-1.301,0-2.399,1.04-2.399,2.272v3.415
	c0,1.264,1.121,2.373,2.399,2.373h1.73h17.261h48.235h17.262h1.795c1.239,0,2.285-1.087,2.285-2.373v-3.415
	c0-1.274-1.004-2.272-2.285-2.272h-7.215v-19.183c0-0.061-0.004-0.12-0.008-0.18c4.064-0.318,7.345-1.674,9.77-4.099
	C152.545,118.56,150.147,102.003,144.912,89.365z"/>
</svg>
