<?xml version="1.0" encoding="utf-8"?>
<!-- Generator: Adobe Illustrator 17.0.0, SVG Export Plug-In . SVG Version: 6.00 Build 0)  -->
<!DOCTYPE svg PUBLIC "-//W3C//DTD SVG 1.1//EN" "http://www.w3.org/Graphics/SVG/1.1/DTD/svg11.dtd">
<svg version="1.1" id="Layer_1" xmlns="http://www.w3.org/2000/svg" xmlns:xlink="http://www.w3.org/1999/xlink" x="0px" y="0px"
	 width="200px" height="200px" viewBox="0 0 200 200" enable-background="new 0 0 200 200" xml:space="preserve">
<path fill="#97BF0D" d="M200,188.003c0,6.902-5.373,12.496-12,12.496H12c-6.627,0-12-5.595-12-12.496V12.11
	C0,5.208,5.373-0.387,12-0.387h176c6.627,0,12,5.595,12,12.496V188.003z"/>
<g>
	<g id="Layer_1_16_">
		<g>
			<path fill="#41281B" d="M135.977,131.735c-3.296,0-6.827,0.942-9.887,2.119l-0.706,10.358c-0.235,2.825,0.706,5.885,2.825,8.004
				c1.883,2.119,4.708,3.296,7.768,3.296c3.06,0,5.65-1.177,7.769-3.296c2.118-2.119,3.06-4.944,2.825-8.004l-0.942-10.358
				C142.568,132.677,139.273,131.735,135.977,131.735z"/>
			<path fill="#41281B" d="M104.432,122.79c0-6.121,1.648-11.77,4.708-16.479c-3.766-0.942-7.533-1.648-11.535-1.648
				c-6.356,0-12.241,1.648-17.891,3.531l-1.883,25.895c-0.471,5.415,1.648,10.829,5.179,14.831
				c3.767,4.002,8.945,6.356,14.595,6.356c5.414,0,10.829-2.354,14.595-6.356c3.296-3.531,5.179-8.004,5.414-12.947
				c-0.706,0-1.177,0.235-1.883,0.235C112.907,136.444,104.432,135.502,104.432,122.79z"/>
			<path fill="#41281B" d="M113.849,100.426c5.65-5.65,13.418-8.945,21.893-8.945c2.589,0,4.943,0.235,7.297,0.942
				c-0.942-24.482-20.951-43.786-45.433-43.786c-25.424,0-45.904,20.48-45.904,45.669c0,9.181,2.825,12.241,7.533,12.241
				c8.239,0,22.364-8.71,38.371-8.71C103.255,97.837,108.905,98.778,113.849,100.426z"/>
			<path fill="#41281B" d="M135.977,98.543c-13.418,0-24.482,10.829-24.482,24.483c0,4.944,1.412,6.591,4.002,6.591
				c4.473,0,11.77-4.708,20.48-4.708c8.475,0,16.008,4.708,20.481,4.708c2.589,0,4.002-1.648,4.002-6.591
				C160.224,109.372,149.395,98.543,135.977,98.543z"/>
		</g>
	</g>
</g>
</svg>
