<?xml version="1.0" encoding="utf-8"?>
<!-- Generator: Adobe Illustrator 17.0.0, SVG Export Plug-In . SVG Version: 6.00 Build 0)  -->
<!DOCTYPE svg PUBLIC "-//W3C//DTD SVG 1.1//EN" "http://www.w3.org/Graphics/SVG/1.1/DTD/svg11.dtd">
<svg version="1.1" id="Layer_1" xmlns="http://www.w3.org/2000/svg" xmlns:xlink="http://www.w3.org/1999/xlink" x="0px" y="0px"
	 width="200px" height="200px" viewBox="0 0 200 200" enable-background="new 0 0 200 200" xml:space="preserve">
<path fill="#97BF0D" d="M200,188.003c0,6.902-5.373,12.496-12,12.496H12c-6.627,0-12-5.595-12-12.496V12.11
	C0,5.208,5.373-0.387,12-0.387h176c6.627,0,12,5.595,12,12.496V188.003z"/>
<g>
	<path fill="#41281B" d="M173.613,143.075h-0.462l-7.566-47.55c-0.143-0.902-0.777-1.649-1.643-1.938l-14.576-4.859l-4.708-19.506
		c-0.145-0.599-0.51-1.121-1.022-1.462l-7.834-5.222c-0.863-0.576-1.996-0.544-2.827,0.078l-8.086,6.065l-3.821-10.188
		c-0.18-0.481-0.507-0.893-0.934-1.177l-7.834-5.222c-0.629-0.419-1.415-0.525-2.132-0.286l-23.501,7.834
		c-0.595,0.198-1.091,0.617-1.386,1.17L75.007,80.076l-9.132-11.779c-0.787-1.015-2.224-1.249-3.292-0.537L46.916,78.205
		c-0.487,0.325-0.841,0.813-0.999,1.376l-17.788,63.493h-0.745c-1.352,0-2.448,1.096-2.448,2.448c0,1.352,1.096,2.448,2.448,2.448
		h83.559c0.342,0,0.681-0.072,0.994-0.211l22.271-9.898l14.547,9.697c0.402,0.268,0.875,0.411,1.358,0.411h23.501
		c1.352,0,2.448-1.096,2.448-2.448C176.061,144.171,174.964,143.075,173.613,143.075L173.613,143.075z M41.718,143.075l8.765-4.957
		l5.037,4.957H41.718z M110.422,143.075H76.507l4.57-3.427c0.304-0.228,0.551-0.524,0.721-0.864l7.38-14.76l14.129-4.71
		l14.025,2.338l9.481,14.139L110.422,143.075L110.422,143.075z M135.802,133.041c-0.698-0.465-1.586-0.541-2.352-0.2l-2.095,0.931
		l-10.13-15.107v-12.311c0-0.263-0.042-0.525-0.126-0.774l-5.225-15.677c-0.428-1.283-1.814-1.976-3.097-1.548
		c-1.283,0.428-1.976,1.814-1.548,3.097l5.1,15.3v9.769l-12.817-2.136c-0.394-0.066-0.798-0.034-1.176,0.092l-11.566,3.855
		l4.284-19.28c0.293-1.32-0.539-2.628-1.859-2.921c-1.32-0.294-2.628,0.539-2.921,1.859l-5.157,23.207l-7.44,14.881l-9.33,6.997
		H62.5l-9.899-9.742c-0.778-0.766-1.971-0.924-2.922-0.386l-16.196,9.161l16.902-60.331l13.016-8.678l9.08,11.712l-8.091,15.17
		c-0.104,0.196-0.181,0.404-0.23,0.621l-1.741,7.834c-0.293,1.32,0.539,2.628,1.859,2.921c0.179,0.04,0.357,0.059,0.533,0.059
		c1.122,0,2.134-0.777,2.387-1.918l1.669-7.508l20.273-38.012l21.439-7.146l6.181,4.121l7.556,20.151
		c0.475,1.266,1.886,1.908,3.152,1.433c1.266-0.475,1.908-1.886,1.433-3.152l-2.222-5.925l7.847-5.885l5.596,3.73l8.6,35.629
		c0.271,1.121,1.273,1.874,2.378,1.874c0.19,0,0.384-0.023,0.576-0.069c1.314-0.317,2.123-1.64,1.805-2.954l-2.762-11.441
		l10.263,3.421l7.21,45.312h-5.694l-1.454-5.962c-0.32-1.313-1.643-2.119-2.958-1.798c-1.313,0.32-2.119,1.645-1.798,2.958
		l1.171,4.802h-6.607L135.802,133.041L135.802,133.041z"/>
	<path fill="#41281B" d="M63.021,117.02c-1.32-0.294-2.628,0.539-2.921,1.859l-1.161,5.223c-0.293,1.32,0.539,2.628,1.859,2.921
		c0.179,0.04,0.357,0.059,0.533,0.059c1.122,0,2.134-0.777,2.387-1.918l1.161-5.223C65.173,118.621,64.341,117.314,63.021,117.02z"
		/>
	<path fill="#41281B" d="M158.524,126.672l-1.258-5.213c-0.318-1.314-1.641-2.124-2.954-1.805c-1.314,0.317-2.123,1.64-1.805,2.954
		l1.258,5.213c0.271,1.121,1.273,1.874,2.378,1.874c0.19,0,0.384-0.022,0.576-0.069
		C158.034,129.309,158.842,127.986,158.524,126.672z"/>
	<path fill="#41281B" d="M110.654,74.245c-0.428-1.283-1.814-1.976-3.097-1.548c-1.283,0.428-1.976,1.814-1.548,3.097l1.742,5.227
		c0.342,1.026,1.297,1.674,2.322,1.674c0.257,0,0.518-0.041,0.775-0.126c1.283-0.428,1.976-1.814,1.548-3.097L110.654,74.245
		L110.654,74.245z"/>
</g>
</svg>
