<?xml version="1.0" encoding="utf-8"?>
<!-- Generator: Adobe Illustrator 17.0.0, SVG Export Plug-In . SVG Version: 6.00 Build 0)  -->
<!DOCTYPE svg PUBLIC "-//W3C//DTD SVG 1.1//EN" "http://www.w3.org/Graphics/SVG/1.1/DTD/svg11.dtd">
<svg version="1.1" id="Layer_1" xmlns="http://www.w3.org/2000/svg" xmlns:xlink="http://www.w3.org/1999/xlink" x="0px" y="0px"
	 width="200px" height="200px" viewBox="0 0 200 200" enable-background="new 0 0 200 200" xml:space="preserve">
<path fill="#97BF0D" d="M200,188.003c0,6.902-5.373,12.496-12,12.496H12c-6.627,0-12-5.595-12-12.496V12.11
	C0,5.208,5.373-0.387,12-0.387h176c6.627,0,12,5.595,12,12.496V188.003z"/>
<g>
	<polygon fill="#41281B" points="87.416,124.304 88.914,131.389 74.743,131.389 76.238,124.304 81.96,124.304 	"/>
	<polygon fill="#41281B" points="125.349,126.992 126.28,131.389 117.484,131.389 118.413,126.992 121.789,126.992 	"/>
	<polygon fill="#97BF0D" points="119.967,117.458 121.789,126.992 118.413,126.992 117.484,131.389 88.914,131.389 87.416,124.304 
		81.96,124.304 83.27,117.458 90.262,114.28 94.333,104.954 108.374,104.954 113.336,113.913 	"/>
	<polygon fill="#41281B" points="88.669,75.196 92.356,69.237 112.266,66.073 114.811,75.196 118.503,75.196 122.84,92.298 
		131.017,92.298 136.8,111.355 144.88,111.355 151.022,131.389 126.28,131.389 125.349,126.992 121.789,126.992 119.967,117.458 
		113.336,113.913 108.374,104.954 94.333,104.954 90.262,114.28 83.27,117.458 81.96,124.304 76.238,124.304 74.743,131.389 
		48.408,131.389 54.55,111.355 65.75,111.355 71.533,92.298 76.59,92.298 80.927,75.196 	"/>
	<polygon fill="#41281B" points="65.75,111.355 63.614,118.4 62.527,111.355 	"/>
	<polygon fill="#41281B" points="122.839,92.299 124.657,99.472 125.399,92.298 	"/>
	<polygon fill="#41281B" points="136.799,111.356 120.431,111.356 135.912,108.429 	"/>
	<polygon fill="#41281B" points="79.792,124.304 80.77,131.389 74.743,131.389 76.238,124.304 	"/>
	<path fill="#41281B" d="M156.153,134.565H43.278l0,0c0-1.754,1.49-3.176,3.327-3.176h106.22
		C154.663,131.389,156.153,132.812,156.153,134.565L156.153,134.565z"/>
</g>
</svg>
