<?xml version="1.0" encoding="utf-8"?>
<!-- Generator: Adobe Illustrator 17.0.0, SVG Export Plug-In . SVG Version: 6.00 Build 0)  -->
<!DOCTYPE svg PUBLIC "-//W3C//DTD SVG 1.1//EN" "http://www.w3.org/Graphics/SVG/1.1/DTD/svg11.dtd">
<svg version="1.1" id="Layer_1" xmlns="http://www.w3.org/2000/svg" xmlns:xlink="http://www.w3.org/1999/xlink" x="0px" y="0px"
	 width="200px" height="200px" viewBox="0 0 200 200" enable-background="new 0 0 200 200" xml:space="preserve">
<path fill="#97BF0D" d="M200,188.003c0,6.902-5.373,12.496-12,12.496H12c-6.627,0-12-5.595-12-12.496V12.11
	C0,5.208,5.373-0.387,12-0.387h176c6.627,0,12,5.595,12,12.496V188.003z"/>
<g>
	<g>
		<g>
			<path fill="#41281B" d="M146.549,53.422c-0.292-0.256-0.681-0.372-1.066-0.32c-14.832,2.008-29.893,3.027-44.764,3.027
				s-29.931-1.019-44.764-3.027c-0.384-0.052-0.773,0.065-1.066,0.32c-0.293,0.255-0.46,0.625-0.46,1.013v53.359
				c0,0.388,0.168,0.758,0.46,1.013c0.293,0.256,0.681,0.372,1.066,0.32c14.832-2.008,29.893-3.027,44.764-3.027
				c14.871,0,29.932,1.019,44.764,3.027c0.06,0.008,0.121,0.012,0.181,0.012c0.323,0,0.639-0.117,0.885-0.332
				c0.293-0.255,0.46-0.625,0.46-1.013V54.435C147.009,54.047,146.842,53.677,146.549,53.422z"/>
			<circle fill="#41281B" cx="60.351" cy="122.786" r="9.958"/>
			<path fill="#41281B" d="M60.351,135.435c-3.347,0-6.391-1.308-8.656-3.438c-0.987,1.339-1.571,2.993-1.571,4.783v11.239h20.453
				V136.78c0-1.79-0.584-3.445-1.571-4.783C66.742,134.126,63.698,135.435,60.351,135.435z"/>
			<circle fill="#41281B" cx="87.263" cy="122.786" r="9.958"/>
			<path fill="#41281B" d="M87.263,135.435c-3.347,0-6.391-1.308-8.656-3.438c-0.987,1.339-1.571,2.993-1.571,4.783v11.239H97.49
				V136.78c0-1.79-0.584-3.445-1.571-4.783C93.655,134.126,90.61,135.435,87.263,135.435z"/>
			<circle fill="#41281B" cx="114.175" cy="122.786" r="9.958"/>
			<path fill="#41281B" d="M114.175,135.435c-3.347,0-6.391-1.308-8.656-3.438c-0.987,1.339-1.571,2.993-1.571,4.783v11.239h20.453
				V136.78c0-1.79-0.584-3.445-1.571-4.783C120.567,134.126,117.522,135.435,114.175,135.435z"/>
			<circle fill="#41281B" cx="141.088" cy="122.786" r="9.958"/>
			<path fill="#41281B" d="M149.744,131.997c-2.265,2.129-5.31,3.438-8.656,3.438s-6.391-1.308-8.656-3.438
				c-0.987,1.339-1.571,2.993-1.571,4.783v11.239h20.453V136.78C151.314,134.99,150.73,133.336,149.744,131.997z"/>
		</g>
	</g>
</g>
</svg>
