<?xml version="1.0" encoding="utf-8"?>
<!-- Generator: Adobe Illustrator 17.0.0, SVG Export Plug-In . SVG Version: 6.00 Build 0)  -->
<!DOCTYPE svg PUBLIC "-//W3C//DTD SVG 1.1//EN" "http://www.w3.org/Graphics/SVG/1.1/DTD/svg11.dtd">
<svg version="1.1" id="Layer_1" xmlns="http://www.w3.org/2000/svg" xmlns:xlink="http://www.w3.org/1999/xlink" x="0px" y="0px"
	 width="200px" height="200px" viewBox="0 0 200 200" enable-background="new 0 0 200 200" xml:space="preserve">
<path fill="#97BF0D" d="M200,188.003c0,6.902-5.373,12.496-12,12.496H12c-6.627,0-12-5.595-12-12.496V12.11
	C0,5.208,5.373-0.387,12-0.387h176c6.627,0,12,5.595,12,12.496V188.003z"/>
<g id="XMLID_12_">
	<g>
		<path id="XMLID_155_" fill="#41281B" d="M81.3,90.388c4.307,0,7.8-3.491,7.8-7.798c0-4.311-3.493-7.8-7.8-7.8
			c-4.309,0-7.801,3.489-7.801,7.8C73.499,86.897,76.992,90.388,81.3,90.388z"/>
		<path id="XMLID_154_" fill="#41281B" d="M112.637,75.536c-4.309,0-7.802,3.489-7.802,7.8c0,4.307,3.493,7.798,7.802,7.798
			c4.307,0,7.8-3.491,7.8-7.798C120.437,79.025,116.944,75.536,112.637,75.536z"/>
		<path id="XMLID_153_" fill="#41281B" d="M81.3,72.071c4.599,0,8.476,2.987,9.903,7.108c0.876-1.05,2.1-1.738,3.459-2.009
			c-1.59-1.843-2.586-4.211-2.586-6.83c0-2.004,0.593-3.861,1.57-5.456c-0.528-0.354-1.329-0.561-1.664-0.561H81.548
			c-1.475,0-2.728,0.414-3.335,1.746l-4.028,8.823C76.221,73.009,78.974,72.071,81.3,72.071z"/>
		<path id="XMLID_152_" fill="#41281B" d="M86.765,63.009c3.765,0,6.821-3.054,6.821-6.819c0-3.771-3.056-6.823-6.821-6.823
			c-3.767,0-6.823,3.052-6.823,6.823C79.943,59.955,82.998,63.009,86.765,63.009z"/>
		<path id="XMLID_151_" fill="#41281B" d="M125.999,77.915c-1.59-1.843-2.586-4.212-2.586-6.83c0-0.078,0.021-0.15,0.023-0.228
			h-9.435c-0.034,0-0.808,0.145-0.958,0.193c-0.04,0.609-0.116,1.206-0.259,1.781c4.534,0.065,8.345,3.018,9.756,7.093
			C123.416,78.874,124.639,78.186,125.999,77.915z"/>
		<path id="XMLID_150_" fill="#41281B" d="M119.398,69.496c1.772,0,3.371-0.674,4.61-1.751c0.492-1.455,1.267-2.773,2.301-3.865
			c0.095-0.466,0.149-0.947,0.149-1.441c0-3.9-3.16-7.056-7.06-7.056c-3.898,0-7.058,3.156-7.058,7.056
			C112.34,66.337,115.5,69.496,119.398,69.496z"/>
		<path id="XMLID_149_" fill="#41281B" d="M96.631,79.641c-1.722,0-3.131,0.491-3.813,1.995l-1.158,2.538
			c-0.299,1.955-1.134,3.712-2.356,5.159l-0.041,0.09c1.618,0.331,3.006,1.298,3.877,2.696c0.135,0.216,0.304,0.404,0.412,0.639
			l3.587,7.856l3.246-7.113c0.802-1.767,2.436-2.963,4.318-3.337c-1.59-1.843-2.586-4.212-2.586-6.83
			c0-1.305,0.269-2.54,0.705-3.695C95.643,79.641,98.104,79.641,96.631,79.641z"/>
		<path id="XMLID_148_" fill="#41281B" d="M97.934,125.494c-1.317,0.795-2.922,1.101-4.448,0.788v13.857
			c0.623,1.401,2.014,2.383,3.646,2.383c1.421,0,2.611-0.782,3.321-1.9v-15.088C99.617,125.704,98.76,125.676,97.934,125.494z"/>
		<path id="XMLID_147_" fill="#41281B" d="M102.595,78.138c0.345,0,0.674-0.058,1.007-0.101c1.365-2.319,3.576-4.049,6.22-4.79
			c0.363-0.9,0.574-1.877,0.574-2.907c0-4.311-3.493-7.8-7.801-7.8c-4.307,0-7.8,3.489-7.8,7.8
			C94.795,74.647,98.288,78.138,102.595,78.138z"/>
		<path id="XMLID_146_" fill="#41281B" d="M57.762,121.755c-0.567-1.515-0.508-3.16,0.165-4.631l4.231-9.271l6.891-15.097
			c0.758-1.669,2.255-2.848,4.004-3.293v-0.423c-1.262-1.609-2.054-3.58-2.2-5.741c-0.145-0.046-0.922-0.193-0.958-0.193H59.098
			c-1.533,0-2.824,0.432-3.451,1.804l-10.064,22.051c-0.693,1.517-0.025,3.307,1.492,3.999c1.531,0.699,3.312,0.012,3.999-1.492
			l4.867-10.662c0,0.869-0.011,14.059-0.011,37.579c0,2,1.622,3.622,3.622,3.622c2,0,3.622-1.622,3.622-3.622v-10.73
			c-0.768-0.019-1.536-0.18-2.259-0.512C59.449,124.474,58.326,123.27,57.762,121.755z"/>
		<path id="XMLID_145_" fill="#41281B" d="M65.818,125.123v11.261c0,1.885,1.457,3.385,3.298,3.557v-18.172l-0.175,0.382
			C68.316,123.525,67.161,124.545,65.818,125.123z"/>
		<path id="XMLID_144_" fill="#41281B" d="M64.497,81.746c3.898,0,7.058-3.158,7.058-7.056c0-3.9-3.16-7.056-7.058-7.056
			c-3.9,0-7.06,3.156-7.06,7.056C57.438,78.588,60.597,81.746,64.497,81.746z"/>
		<path id="XMLID_143_" fill="#41281B" d="M89.263,117.869l1.492-3.27v-5.357l1.223,2.678l3.665-8.031l-4.566-10.004
			c-0.688-1.514-2.122-1.995-3.813-1.995c-26.12,0,6.295,0-11.931,0c-1.696,0-3.123,0.477-3.811,1.995l-11.122,24.367
			c-0.765,1.674-0.027,3.654,1.65,4.419c1.664,0.763,3.65,0.037,4.418-1.65l5.378-11.783c0,8.899-0.011,8.543-0.011,41.53
			c0,2.211,1.791,4.002,4.003,4.002c2.211,0,4.003-1.792,4.003-4.002v-23.858h2.921v23.858c0,2.211,1.791,4.002,4.002,4.002
			c2.211,0,4.002-1.792,4.002-4.002V124.89c-0.731-0.648-1.317-1.448-1.668-2.39C88.511,120.925,88.654,119.204,89.263,117.869z"/>
		<path id="XMLID_142_" fill="#41281B" d="M154.833,106.749L143.71,82.381c-0.696-1.524-2.135-1.995-3.811-1.995
			c-26.019,0,6.268,0-11.931,0c-1.707,0-3.124,0.48-3.813,1.995l-1.157,2.539c-0.299,1.954-1.135,3.714-2.356,5.158l-0.041,0.09
			c1.984,0.406,3.599,1.829,4.289,3.335l11.121,24.365c0.672,1.471,0.731,3.115,0.165,4.631c-0.191,0.515-0.469,0.977-0.783,1.413
			v15.351c0,2.211,1.792,4.003,4.003,4.003c2.211,0,4.002-1.792,4.002-4.003c0-22.059-0.011-34.398-0.011-41.53l5.378,11.783
			c0.768,1.687,2.755,2.413,4.419,1.65C154.86,110.402,155.598,108.423,154.833,106.749z"/>
		<path id="XMLID_141_" fill="#41281B" d="M124.994,122.895l-0.175-0.384l0.004,0.232v18.142c0.623,1.4,2.015,2.383,3.647,2.383
			c2.211,0,4.002-1.792,4.002-4.003v-13.192C129.628,127.036,126.257,125.664,124.994,122.895z"/>
		<path id="XMLID_140_" fill="#41281B" d="M133.931,78.883c4.309,0,7.802-3.491,7.802-7.798c0-4.311-3.493-7.8-7.802-7.8
			c-4.307,0-7.8,3.489-7.8,7.8C126.132,75.392,129.625,78.883,133.931,78.883z"/>
		<path id="XMLID_139_" fill="#41281B" d="M122.414,94.631c-0.69-1.512-2.121-1.995-3.813-1.995c-26.12,0,6.295,0-11.931,0
			c-1.705,0-3.123,0.483-3.812,1.995l-11.122,24.368c-0.765,1.675-0.026,3.654,1.65,4.418c1.664,0.763,3.65,0.037,4.419-1.65
			l5.378-11.783v12.705c0,0.019-0.011,0.035-0.011,0.053v28.772c0,2.211,1.792,4.003,4.003,4.003c2.211,0,4.003-1.792,4.003-4.003
			v-23.858h2.921v23.858c0,2.211,1.792,4.003,4.002,4.003c2.211,0,4.003-1.792,4.003-4.003v-28.772c0-0.018-0.01-0.034-0.01-0.053
			v-12.7l5.376,11.778c0.559,1.228,1.77,1.952,3.036,1.952c0.464,0,0.935-0.097,1.383-0.302c1.676-0.765,2.415-2.744,1.649-4.418
			L122.414,94.631z"/>
	</g>
</g>
</svg>
