<?xml version="1.0" encoding="utf-8"?>
<!-- Generator: Adobe Illustrator 17.0.0, SVG Export Plug-In . SVG Version: 6.00 Build 0)  -->
<!DOCTYPE svg PUBLIC "-//W3C//DTD SVG 1.1//EN" "http://www.w3.org/Graphics/SVG/1.1/DTD/svg11.dtd">
<svg version="1.1" id="Layer_1" xmlns="http://www.w3.org/2000/svg" xmlns:xlink="http://www.w3.org/1999/xlink" x="0px" y="0px"
	 width="200px" height="200px" viewBox="0 0 200 200" enable-background="new 0 0 200 200" xml:space="preserve">
<path fill="#97BF0D" d="M200,188.003c0,6.902-5.373,12.496-12,12.496H12c-6.627,0-12-5.595-12-12.496V12.11
	C0,5.208,5.373-0.387,12-0.387h176c6.627,0,12,5.595,12,12.496V188.003z"/>
<g>
	<g>
		<path fill="#41281B" d="M96.715,57.175c-1.755,0-3.804,0.693-5.62,1.901c-1.121,0.746-2.064,1.629-2.785,2.547
			c0.961,0.658,1.776,1.662,2.38,2.965c0.466,1.005,0.778,2.142,0.937,3.349c1.384-0.257,2.852-0.862,4.195-1.756
			c3.416-2.273,5.22-5.82,3.939-7.745C99.031,57.339,97.539,57.175,96.715,57.175z"/>
		<path fill="#41281B" d="M87.447,50.105c-0.094-0.012-0.19-0.018-0.285-0.018c-1.716,0-3.422,1.885-4.331,4.527
			c0.516,0.563,1.002,1.179,1.443,1.843c0.803,1.206,1.413,2.488,1.809,3.77c0.906-1.211,2.107-2.353,3.566-3.324
			c0.382-0.254,0.772-0.488,1.166-0.703c-0.037-1.388-0.307-2.685-0.808-3.766C89.639,51.64,88.816,50.28,87.447,50.105z"/>
		<path fill="#41281B" d="M81.876,74.149c-0.322-1.008-0.815-2.026-1.46-2.996c-1.727-2.597-4.261-4.342-6.304-4.342
			c-0.555,0-1.04,0.135-1.441,0.402c-1.925,1.281-1.633,5.249,0.64,8.666c0.427,0.642,0.905,1.226,1.411,1.748
			c0.907,0.308,1.816,0.788,2.687,1.412C78.439,76.67,80.042,74.897,81.876,74.149z"/>
		<path fill="#41281B" d="M78.757,84.181c-1.727-2.597-4.261-4.342-6.304-4.342c-0.555,0-1.04,0.135-1.441,0.402
			c-1.926,1.281-1.633,5.25,0.64,8.666c1.727,2.597,4.261,4.342,6.304,4.342h0c0.555,0,1.04-0.135,1.441-0.402
			c1.149-0.764,1.282-2.349,1.259-3.225C80.611,87.885,79.936,85.953,78.757,84.181z"/>
		<path fill="#41281B" d="M100.887,71.639c0.388,1.367,0.217,2.945-0.52,4.581c-0.047,0.105-0.097,0.209-0.149,0.313
			c0.142,0.886,0.396,1.795,0.762,2.692c1.491,3.656,4.104,5.569,5.915,5.569c0.317,0,0.618-0.057,0.895-0.17
			c2.142-0.873,2.642-4.821,1.092-8.621c-1.491-3.656-4.104-5.569-5.914-5.569c-0.317,0-0.618,0.057-0.895,0.17
			C101.55,70.818,101.168,71.202,100.887,71.639z"/>
		<path fill="#41281B" d="M86.856,94.361L86.856,94.361c1.755,0,3.804-0.693,5.621-1.901c1.772-1.179,3.141-2.7,3.854-4.284
			c0.36-0.799,0.85-2.312,0.086-3.461c-0.73-1.098-2.222-1.262-3.046-1.262c-1.755,0-3.804,0.693-5.62,1.901
			c-3.417,2.272-5.221,5.819-3.94,7.745C84.54,94.197,86.032,94.361,86.856,94.361z"/>
		<path fill="#41281B" d="M86.305,83.182c0.384-0.255,0.775-0.489,1.17-0.705c-0.038-1.387-0.311-2.683-0.812-3.763
			c-0.369-0.795-1.191-2.156-2.56-2.33c-0.094-0.012-0.19-0.018-0.285-0.018c-1.716,0-3.422,1.885-4.331,4.527
			c0.517,0.563,1.002,1.179,1.444,1.843c0.802,1.205,1.413,2.486,1.809,3.766C83.646,85.293,84.848,84.151,86.305,83.182z"/>
		<path fill="#41281B" d="M89.031,77.617c0.494,1.065,0.814,2.278,0.962,3.565c1.368-0.264,2.816-0.868,4.141-1.75
			c1.772-1.179,3.141-2.7,3.854-4.283c0.36-0.799,0.85-2.312,0.086-3.461c-0.73-1.098-2.222-1.261-3.046-1.261
			c-1.755,0-3.804,0.693-5.62,1.901c-1.057,0.703-1.957,1.529-2.661,2.39C87.667,75.375,88.447,76.357,89.031,77.617z"/>
		<path fill="#41281B" d="M84.398,73.487c0.906-1.214,2.103-2.36,3.565-3.333c0.382-0.254,0.771-0.487,1.165-0.702
			c-0.037-1.388-0.306-2.685-0.807-3.766c-0.369-0.795-1.192-2.156-2.561-2.33c-0.094-0.012-0.19-0.018-0.286-0.018
			c-1.716,0-3.42,1.887-4.329,4.529c0.516,0.563,1.001,1.178,1.442,1.842C83.392,70.917,84.002,72.202,84.398,73.487z"/>
		<path fill="#41281B" d="M75.798,53.561c-0.555,0-1.04,0.135-1.441,0.402c-1.925,1.281-1.632,5.249,0.64,8.666
			c0.53,0.798,1.138,1.51,1.784,2.118c0.773,0.305,1.542,0.731,2.284,1.263c1.047-2.406,2.685-4.197,4.554-4.925
			c-0.32-1.069-0.832-2.153-1.518-3.183C80.374,55.306,77.841,53.561,75.798,53.561z"/>
	</g>
	<g>
		<path fill="#41281B" d="M110.73,73.778c0.204,0.399,0.395,0.812,0.57,1.24c0.661,1.621,1.014,3.24,1.084,4.75
			c1.047-0.836,2.273-1.552,3.613-2.099c0.735-0.299,1.484-0.536,2.234-0.714c0.784-2.866,0.332-5.5-1.289-6.324
			c-0.331-0.168-0.704-0.253-1.109-0.253C114.161,70.379,112.218,71.716,110.73,73.778z"/>
		<path fill="#41281B" d="M116.68,62.071c0.204,0.398,0.394,0.811,0.569,1.238c0.645,1.581,1.005,3.212,1.073,4.763
			c1.05-0.841,2.278-1.563,3.624-2.112c0.735-0.3,1.486-0.536,2.237-0.715c0.309-1.132,0.427-2.246,0.335-3.266
			c-0.079-0.873-0.396-2.431-1.626-3.057c-0.331-0.168-0.704-0.253-1.109-0.253C120.11,58.67,118.168,60.009,116.68,62.071z"/>
		<path fill="#41281B" d="M121.758,56.062c-0.078-1.187-0.372-2.441-0.875-3.675c-1.491-3.656-4.104-5.569-5.914-5.569
			c-0.317,0-0.618,0.057-0.895,0.17c-2.142,0.873-2.642,4.821-1.093,8.621c0.662,1.624,1.546,2.895,2.483,3.815
			C117.323,57.342,119.615,56.071,121.758,56.062z"/>
		<path fill="#41281B" d="M130.23,53.339c0.31-1.132,0.431-2.246,0.338-3.267c-0.079-0.873-0.396-2.431-1.626-3.057
			c-0.331-0.168-0.704-0.254-1.11-0.254c-1.671,0-3.614,1.338-5.102,3.401c0.204,0.398,0.395,0.811,0.569,1.239
			c0.645,1.58,1.007,3.21,1.076,4.76c1.049-0.84,2.276-1.561,3.622-2.109C128.731,53.753,129.48,53.517,130.23,53.339z"/>
		<path fill="#41281B" d="M120.204,87.987c3.8-1.55,6.272-4.667,5.399-6.809c-0.5-1.227-2.15-1.989-4.305-1.989
			c-1.384,0-2.877,0.31-4.316,0.897c-1.971,0.803-3.615,2.023-4.628,3.433c-0.512,0.712-1.292,2.097-0.771,3.375
			c0.501,1.227,2.15,1.99,4.305,1.99C117.273,88.884,118.765,88.574,120.204,87.987z"/>
		<path fill="#41281B" d="M131.552,69.47c-0.5-1.227-2.15-1.989-4.305-1.989c-1.384,0-2.877,0.31-4.316,0.897
			c-1.077,0.439-2.054,1.004-2.886,1.655c1.099,1.643,1.437,4.003,0.95,6.555c0.101-0.003,0.202-0.008,0.302-0.008
			c0.986,0,1.901,0.124,2.726,0.356c0.71-0.15,1.426-0.37,2.129-0.656C129.952,74.729,132.425,71.611,131.552,69.47z"/>
		<path fill="#41281B" d="M115.692,67.776c-0.096-1.129-0.384-2.314-0.859-3.481c-1.491-3.656-4.103-5.569-5.914-5.569
			c-0.317,0-0.618,0.057-0.895,0.17c-1.278,0.521-1.723,2.048-1.874,2.911c-0.3,1.711-0.022,3.738,0.781,5.709
			c0.653,1.601,1.521,2.862,2.443,3.779C111.224,69.156,113.528,67.831,115.692,67.776z"/>
		<path fill="#41281B" d="M137.602,57.562c-0.5-1.227-2.15-1.99-4.305-1.99c-1.385,0-2.877,0.31-4.316,0.897
			c-1.144,0.466-2.174,1.074-3.038,1.777c0.644,0.93,1.047,2.116,1.173,3.498c0.091,1,0.027,2.059-0.177,3.135
			c0.102-0.003,0.206-0.008,0.307-0.008c0.827,0,1.604,0.086,2.32,0.25c0.875-0.144,1.765-0.394,2.637-0.75
			C136.003,62.821,138.475,59.703,137.602,57.562z"/>
	</g>
	<g>
		<path fill="#41281B" d="M94.323,104.835c-1.544-3.787-4.256-5.768-6.136-5.768c-0.332,0-0.648,0.06-0.938,0.179
			c-1.336,0.545-1.8,2.134-1.957,3.033c-0.311,1.772-0.023,3.871,0.808,5.91c0.863,2.116,2.09,3.665,3.333,4.622
			c1.459,0.003,2.734,0.338,3.748,0.965C95.404,112.86,95.928,108.769,94.323,104.835z"/>
		<path fill="#41281B" d="M105.974,117.245c3.938-1.606,6.498-4.846,5.589-7.074c-0.522-1.281-2.238-2.077-4.477-2.077
			c-1.433,0-2.977,0.321-4.465,0.928c-2.039,0.832-3.741,2.094-4.79,3.554c-0.532,0.741-1.344,2.184-0.8,3.52
			c0.522,1.281,2.238,2.077,4.477,2.077C102.941,118.173,104.485,117.852,105.974,117.245z"/>
		<path fill="#41281B" d="M78.435,118.689c0.937-1.266,2.191-2.463,3.715-3.476c0.402-0.267,0.811-0.512,1.226-0.737
			c-0.09-3.363-1.512-6.092-3.514-6.347c-0.099-0.013-0.2-0.019-0.299-0.019c-1.79,0-3.57,1.966-4.512,4.719
			c0.537,0.584,1.042,1.224,1.501,1.914C77.39,116.005,78.028,117.348,78.435,118.689z"/>
		<path fill="#41281B" d="M76.343,121.818c-0.047-1.798-0.745-3.798-1.965-5.632c-1.789-2.689-4.414-4.495-6.534-4.495
			c-0.581,0-1.088,0.142-1.509,0.421c-1.201,0.799-1.34,2.449-1.316,3.361c0.047,1.798,0.745,3.798,1.965,5.631
			c1.789,2.689,4.415,4.495,6.534,4.496h0c0.58,0,1.088-0.142,1.508-0.422C76.228,124.38,76.367,122.731,76.343,121.818z"/>
		<path fill="#41281B" d="M92.502,120.346c0.375-0.832,0.884-2.407,0.085-3.608c-0.763-1.148-2.316-1.319-3.175-1.319
			c-1.818,0-3.939,0.717-5.818,1.967c-3.542,2.356-5.407,6.039-4.074,8.043c0.763,1.147,2.317,1.319,3.175,1.319c0,0,0,0,0.001,0
			c1.817,0,3.938-0.717,5.818-1.967C90.347,123.56,91.763,121.985,92.502,120.346z"/>
		<path fill="#41281B" d="M80.19,105.54c1.017,0.129,1.936,0.56,2.729,1.225c-0.393-1.712-0.466-3.408-0.198-4.937
			c0.363-2.073,1.311-3.655,2.701-4.556c0.012-0.14,0.022-0.277,0.033-0.416c-1.667-0.281-2.996-1.075-3.818-2.31
			c-0.025-0.038-0.047-0.077-0.071-0.116c-0.101,0.099-0.207,0.194-0.317,0.284c-0.052,0.801-0.113,1.63-0.186,2.492
			c-0.206,2.427-0.513,5.208-0.962,8.326C80.131,105.534,80.161,105.536,80.19,105.54z"/>
		<path fill="#41281B" d="M89.958,126.953c-0.82,0.546-1.672,1.003-2.532,1.369c-1.965,7.339-3.614,15.38-4.684,24.052
			c-0.147,1.192,0.7,2.277,1.892,2.424c0.09,0.011,0.18,0.017,0.269,0.017c1.082,0,2.019-0.807,2.155-1.908
			c1.309-10.606,3.503-20.242,6.079-28.767C92.259,125.181,91.182,126.139,89.958,126.953z"/>
		<path fill="#41281B" d="M77.347,126.874c-0.035-0.053-0.066-0.108-0.099-0.162c-0.237,0.237-0.494,0.452-0.777,0.64
			c-0.324,0.215-0.668,0.391-1.03,0.525c-1.825,6.829-4.19,14.41-7.258,22.704c-0.417,1.126,0.159,2.377,1.285,2.794
			c0.249,0.092,0.503,0.136,0.754,0.136c0.884,0,1.715-0.543,2.04-1.421c3.147-8.508,5.569-16.289,7.435-23.301
			C78.715,128.369,77.913,127.724,77.347,126.874z"/>
		<path fill="#41281B" d="M101.451,96.4c0.839,0,1.628,0.185,2.344,0.549c0.049,0.025,0.095,0.053,0.143,0.079
			c0.323-0.641,0.643-1.265,0.958-1.867c1.444-2.764,2.858-5.262,4.195-7.497c-0.078-0.223-0.145-0.449-0.191-0.68
			c-0.041,0.018-0.082,0.039-0.124,0.056c-0.592,0.241-1.224,0.364-1.88,0.364c-0.802,0-1.612-0.179-2.402-0.513
			c-1.09,1.873-2.222,3.91-3.377,6.114c-0.63,1.203-1.279,2.482-1.938,3.83C99.938,96.552,100.704,96.4,101.451,96.4z"/>
		<path fill="#41281B" d="M102.614,99.275c-0.347-0.176-0.738-0.266-1.162-0.266c-1.741,0-3.766,1.393-5.31,3.541
			c0.215,0.417,0.415,0.85,0.598,1.299c0.691,1.696,1.054,3.39,1.117,4.965c1.091-0.882,2.373-1.635,3.779-2.208
			c0.763-0.311,1.543-0.556,2.322-0.74c0.325-1.18,0.452-2.342,0.355-3.406C104.23,101.551,103.9,99.928,102.614,99.275z"/>
	</g>
</g>
</svg>
