<?xml version="1.0" encoding="utf-8"?>
<!-- Generator: Adobe Illustrator 17.0.0, SVG Export Plug-In . SVG Version: 6.00 Build 0)  -->
<!DOCTYPE svg PUBLIC "-//W3C//DTD SVG 1.1//EN" "http://www.w3.org/Graphics/SVG/1.1/DTD/svg11.dtd">
<svg version="1.1" id="Layer_1" xmlns="http://www.w3.org/2000/svg" xmlns:xlink="http://www.w3.org/1999/xlink" x="0px" y="0px"
	 width="200px" height="200px" viewBox="0 0 200 200" enable-background="new 0 0 200 200" xml:space="preserve">
<path fill="#97BF0D" d="M200,188.003c0,6.902-5.373,12.496-12,12.496H12c-6.627,0-12-5.595-12-12.496V12.11
	C0,5.208,5.373-0.387,12-0.387h176c6.627,0,12,5.595,12,12.496V188.003z"/>
<g id="XMLID_28_">
	<g>
		<path id="XMLID_74_" fill="#41281B" d="M74.977,102.432c-1.667,5.596,0.077,9.612,2.628,10.807c2.618,1.25,4.813-0.65,5.972-6.021
			c1.136-5.288-1.101-11.516-1.059-11.591C82.569,95.67,76.716,96.896,74.977,102.432z"/>
		<path id="XMLID_73_" fill="#41281B" d="M70.624,86.758c-2.546,4.678-1.814,8.569,0.191,10.155c2.05,1.648,4.388,0.455,6.484-4.116
			c2.059-4.502,1.24-10.64,1.292-10.696C78.619,82.143,73.223,82.137,70.624,86.758z"/>
		<path id="XMLID_72_" fill="#41281B" d="M67.844,81.08c1.422,1.758,3.589,1.201,6.123-2.358c2.497-3.514,2.803-9.057,2.85-9.097
			c0.016,0.037-4.496-0.79-7.419,2.763C66.51,75.98,66.452,79.371,67.844,81.08z"/>
		<path id="XMLID_71_" fill="#41281B" d="M63.322,117.158c5.662,3.486,8.345,2.038,8.607-0.881c0.287-3.02-1.732-6.516-6.792-10.269
			c-5.018-3.849-10.463-2.122-10.482-2.05C54.534,103.932,57.524,113.634,63.322,117.158z"/>
		<path id="XMLID_70_" fill="#41281B" d="M65.157,98.438c0.868-2.595-0.21-6.111-3.961-10.419c-3.696-4.383-8.849-3.871-8.874-3.819
			c-0.098-0.037,0.685,9.045,5.064,13.275C61.667,101.66,64.323,100.954,65.157,98.438z"/>
		<path id="XMLID_69_" fill="#41281B" d="M62.8,81.36c1.18-2.018,0.888-5.193-1.546-9.441c-2.392-4.293-6.797-4.64-6.829-4.603
			c-0.063-0.035-0.846,7.637,2.064,11.894C59.333,83.414,61.656,83.326,62.8,81.36z"/>
		<path id="XMLID_68_" fill="#41281B" d="M137.714,94.385c-3.066-2.856-5.396-6.442-6.744-10.411l-0.007-0.019
			c-2.791-8.215-3.236-17.046-1.285-25.503c0.275-1.189-0.009-2.437-0.769-3.391c-0.047-0.06-0.11-0.103-0.159-0.161
			c1.331-0.524,2.279-1.805,2.279-3.322c0-1.981-1.606-3.586-3.586-3.586h-8.359c-1.98,0-3.586,1.605-3.586,3.586
			c0,1.516,0.947,2.798,2.278,3.322c-0.05,0.058-0.114,0.101-0.161,0.161c-0.76,0.956-1.042,2.204-0.767,3.393
			c1.952,8.457,1.507,17.284-1.283,25.498l-0.007,0.021c-1.357,3.995-3.659,7.536-6.746,10.411
			c-7.326,6.825-12.177,18.68-12.177,32.174c0,9.789,2.551,18.72,6.751,25.491c1.546,2.493,4.274,4.008,7.209,4.008h25.335
			c2.929,0,5.664-1.518,7.208-4.008c4.201-6.771,6.751-15.702,6.751-25.491C149.89,113.063,145.04,101.21,137.714,94.385z
			 M123.264,142.029c-6.469,0-11.715-8.353-11.715-18.659s5.246-18.659,11.715-18.659c6.468,0,11.713,8.353,11.713,18.659
			C134.977,133.676,129.732,142.029,123.264,142.029z"/>
		<path id="XMLID_67_" fill="#41281B" d="M90.554,138.057c-0.394-2.066-0.667-4.18-0.847-6.317
			c-16.783-16.67-25.534-41.011-22.829-65.323c1.414-0.614,2.659-2.866,3.624-7.132c1.198-5.232-0.203-10.678-0.191-10.729
			c0.028-0.054-4.871,3.374-6.235,9.238c-1.037,4.609-0.424,7.292,0.757,8.316c-2.606,18.856,1.578,38.353,11.247,54.251
			c-3.836,0.537-6.193,4.377-6.937,5.801c-3.216-0.69-7.14,2.036-9.159,6.594c-2.208,4.983-1.287,10.225,2.057,11.706
			c2.465,1.093,5.552-0.177,7.891-2.908c0.005,0.084-0.004,0.163,0.003,0.247c0.434,5.435,3.743,9.606,7.39,9.311
			c3.647-0.292,6.249-4.934,5.813-10.37c-0.403-5.032-3.276-8.933-6.592-9.257c-0.378-2.078-0.786-6.232,1.194-8.404
			C81.352,128.53,85.666,133.547,90.554,138.057z M74.66,131.682c-0.487,0.164-0.954,0.389-1.383,0.706
			c-0.07-2.36-0.909-4.347-2.404-5.45c0.602-1.129,2.33-3.842,4.958-4.544C73.89,125.179,74.263,129.418,74.66,131.682z"/>
	</g>
</g>
</svg>
