<?xml version="1.0" encoding="utf-8"?>
<!-- Generator: Adobe Illustrator 17.0.0, SVG Export Plug-In . SVG Version: 6.00 Build 0)  -->
<!DOCTYPE svg PUBLIC "-//W3C//DTD SVG 1.1//EN" "http://www.w3.org/Graphics/SVG/1.1/DTD/svg11.dtd">
<svg version="1.1" id="Layer_1" xmlns="http://www.w3.org/2000/svg" xmlns:xlink="http://www.w3.org/1999/xlink" x="0px" y="0px"
	 width="200px" height="200px" viewBox="0 0 200 200" enable-background="new 0 0 200 200" xml:space="preserve">
<path fill="#97BF0D" d="M200,188.003c0,6.902-5.373,12.496-12,12.496H12c-6.627,0-12-5.595-12-12.496V12.11
	C0,5.208,5.373-0.387,12-0.387h176c6.627,0,12,5.595,12,12.496V188.003z"/>
<g>
	<path fill="#41281B" d="M139.649,91.516c0-21.193-17.242-38.435-38.435-38.435S62.778,70.322,62.778,91.516
		c0,7.013,1.892,13.829,5.483,19.795c-1.103,1.669-1.68,3.486-1.68,5.321c0,7.771,9.938,13.859,22.625,13.859
		c1.87,0,3.705-0.138,5.485-0.405v16.425c0,2.52-2.05,4.57-4.57,4.57H76.357c-1.033,0-1.871,0.838-1.871,1.871
		c0,1.033,0.838,1.871,1.871,1.871h47.259c1.033,0,1.871-0.838,1.871-1.871c0-1.033-0.838-1.871-1.871-1.871h-11.311
		c-2.52,0-4.57-2.05-4.57-4.57v-7.688l4.982-2.03c0.957-0.39,1.416-1.481,1.027-2.438c-0.39-0.957-1.482-1.416-2.438-1.026
		l-3.571,1.455v-4.696c1.779,0.267,3.614,0.404,5.484,0.404c12.687,0,22.625-6.088,22.625-13.859c0-1.837-0.577-3.655-1.68-5.322
		C137.756,105.342,139.649,98.527,139.649,91.516z M130.468,112.607c1.084,1.289,1.634,2.643,1.634,4.025
		c0,5.484-8.647,10.117-18.883,10.117c-1.88,0-3.717-0.153-5.484-0.45v-11.098l9.137-5.188c0.898-0.51,1.213-1.652,0.703-2.55
		c-0.51-0.899-1.652-1.214-2.551-0.703l-10.083,5.725c-0.585,0.332-0.947,0.954-0.947,1.627v32.398c0,1.687,0.507,3.258,1.374,4.57
		h-8.311c0.867-1.312,1.374-2.883,1.374-4.57v-36.857c0-0.767-0.468-1.456-1.181-1.739l-13.533-5.367
		c-0.961-0.381-2.048,0.089-2.429,1.049c-0.381,0.96,0.089,2.048,1.049,2.429l12.352,4.899v7.352l-4.132-1.756
		c-0.95-0.404-2.049,0.039-2.453,0.99c-0.404,0.951,0.039,2.049,0.99,2.453l5.596,2.378v3.957c-1.767,0.298-3.605,0.45-5.485,0.45
		c-10.236,0-18.883-4.633-18.883-10.117c0-1.38,0.55-2.734,1.635-4.026c0.529-0.63,0.584-1.532,0.136-2.222
		c-3.647-5.616-5.574-12.14-5.574-18.868c0-19.131,15.563-34.695,34.694-34.695s34.694,15.564,34.694,34.694
		c0,6.726-1.928,13.25-5.577,18.868C129.882,111.074,129.938,111.977,130.468,112.607z"/>
	<path fill="#41281B" d="M81.03,77.388c-3.398,0-6.162,2.764-6.162,6.162c0,3.398,2.764,6.162,6.162,6.162s6.162-2.764,6.162-6.162
		C87.193,80.153,84.428,77.388,81.03,77.388z M81.03,85.972c-1.335,0-2.421-1.086-2.421-2.421s1.086-2.421,2.421-2.421
		s2.421,1.086,2.421,2.421S82.365,85.972,81.03,85.972z"/>
	<path fill="#41281B" d="M122.296,89.273c-3.337,0-6.052,2.715-6.052,6.052s2.715,6.052,6.052,6.052s6.052-2.715,6.052-6.052
		S125.633,89.273,122.296,89.273z M122.296,97.636c-1.274,0-2.311-1.037-2.311-2.311s1.037-2.311,2.311-2.311
		s2.311,1.037,2.311,2.311S123.57,97.636,122.296,97.636z"/>
	<path fill="#41281B" d="M109.75,70.784c-3.337,0-6.052,2.715-6.052,6.052s2.715,6.052,6.052,6.052s6.052-2.715,6.052-6.052
		S113.087,70.784,109.75,70.784z M109.75,79.147c-1.274,0-2.311-1.037-2.311-2.311s1.037-2.311,2.311-2.311
		c1.274,0,2.311,1.037,2.311,2.311S111.024,79.147,109.75,79.147z"/>
</g>
</svg>
