<?xml version="1.0" encoding="utf-8"?>
<!-- Generator: Adobe Illustrator 17.0.0, SVG Export Plug-In . SVG Version: 6.00 Build 0)  -->
<!DOCTYPE svg PUBLIC "-//W3C//DTD SVG 1.1//EN" "http://www.w3.org/Graphics/SVG/1.1/DTD/svg11.dtd">
<svg version="1.1" id="Layer_1" xmlns="http://www.w3.org/2000/svg" xmlns:xlink="http://www.w3.org/1999/xlink" x="0px" y="0px"
	 width="200px" height="200px" viewBox="0 0 200 200" enable-background="new 0 0 200 200" xml:space="preserve">
<path fill="#97BF0D" d="M200,188.003c0,6.902-5.373,12.496-12,12.496H12c-6.627,0-12-5.595-12-12.496V12.11
	C0,5.208,5.373-0.387,12-0.387h176c6.627,0,12,5.595,12,12.496V188.003z"/>
<g>
	<g id="b24_strawberry">
		<g>
			<path fill="#41281B" d="M101.919,75.586c-34.631,0-35.218,16.81-35.218,37.55c0,20.738,25.824,42.558,35.218,42.558
				s35.22-21.82,35.22-42.558C137.137,92.395,136.55,75.586,101.919,75.586z M93.846,103.035c0.82,0,1.489,2.372,1.489,5.303
				c0,2.926-0.668,5.298-1.489,5.298c-0.829,0-1.493-2.372-1.493-5.298C92.353,105.41,93.015,103.035,93.846,103.035z
				 M73.456,113.638c-0.82,0-1.489-2.372-1.489-5.298c0-2.93,0.668-5.303,1.489-5.303c0.827,0,1.493,2.372,1.493,5.303
				C74.949,111.263,74.285,113.638,73.456,113.638z M77.491,127.718c-0.745,0-1.346-2.145-1.346-4.788s0.6-4.783,1.346-4.783
				c0.748,0,1.35,2.143,1.35,4.783C78.837,125.572,78.239,127.718,77.491,127.718z M79.612,100.411
				c-0.974,0-1.756-2.802-1.756-6.259s0.784-6.259,1.756-6.259c0.972,0,1.763,2.802,1.763,6.259S80.584,100.411,79.612,100.411z
				 M83.387,113.638c-0.822,0-1.493-2.372-1.493-5.298c0-2.93,0.671-5.303,1.493-5.303s1.489,2.372,1.489,5.303
				C84.878,111.263,84.214,113.638,83.387,113.638z M85.107,122.929c0-2.643,0.607-4.783,1.346-4.783
				c0.752,0,1.355,2.143,1.355,4.783c0,2.645-0.603,4.788-1.355,4.788C85.716,127.718,85.107,125.572,85.107,122.929z
				 M87.631,141.626c-0.6,0-1.083-1.725-1.083-3.853c0-2.124,0.483-3.851,1.083-3.851s1.085,1.727,1.085,3.851
				C88.719,139.901,88.231,141.626,87.631,141.626z M91.338,100.411c-0.972,0-1.763-2.802-1.763-6.259s0.793-6.259,1.763-6.259
				s1.758,2.802,1.758,6.259S92.308,100.411,91.338,100.411z M93.556,127.718c-0.745,0-1.35-2.145-1.35-4.788
				s0.605-4.783,1.35-4.783c0.741,0,1.344,2.143,1.344,4.783C94.897,125.572,94.295,127.718,93.556,127.718z M95.231,141.626
				c-0.598,0-1.081-1.725-1.081-3.853c0-2.124,0.483-3.851,1.081-3.851c0.598,0,1.081,1.727,1.081,3.851
				C96.309,139.901,95.826,141.626,95.231,141.626z M101.654,141.626c-0.598,0-1.081-1.725-1.081-3.853
				c0-2.124,0.483-3.851,1.081-3.851c0.603,0,1.085,1.727,1.085,3.851C102.737,139.901,102.257,141.626,101.654,141.626z
				 M101.539,127.718c-0.741,0-1.346-2.145-1.346-4.788s0.605-4.783,1.346-4.783c0.745,0,1.353,2.143,1.353,4.783
				C102.891,125.572,102.282,127.718,101.539,127.718z M102.694,113.638c-0.822,0-1.491-2.372-1.491-5.298
				c0-2.93,0.668-5.303,1.491-5.303s1.491,2.372,1.491,5.303C104.185,111.263,103.519,113.638,102.694,113.638z M103.682,100.411
				c-0.974,0-1.763-2.802-1.763-6.259s0.791-6.259,1.763-6.259s1.761,2.802,1.761,6.259S104.654,100.411,103.682,100.411z
				 M108.952,141.626c-0.596,0-1.085-1.725-1.085-3.853c0-2.124,0.489-3.851,1.085-3.851c0.598,0,1.085,1.727,1.085,3.851
				C110.038,139.901,109.551,141.626,108.952,141.626z M110.609,127.718c-0.741,0-1.348-2.145-1.348-4.788s0.607-4.783,1.348-4.783
				c0.745,0,1.35,2.143,1.35,4.783C111.959,125.572,111.356,127.718,110.609,127.718z M112.741,113.638
				c-0.822,0-1.491-2.372-1.491-5.298c0-2.93,0.668-5.303,1.491-5.303c0.818,0,1.493,2.372,1.493,5.303
				C114.236,111.263,113.561,113.638,112.741,113.638z M114.127,100.411c-0.974,0-1.761-2.802-1.761-6.259s0.789-6.259,1.761-6.259
				c0.972,0,1.761,2.802,1.761,6.259S115.095,100.411,114.127,100.411z M116.203,141.626c-0.598,0-1.081-1.725-1.081-3.853
				c0-2.124,0.483-3.851,1.081-3.851c0.6,0,1.088,1.727,1.088,3.851C117.291,139.901,116.801,141.626,116.203,141.626z
				 M119.62,127.718c-0.741,0-1.346-2.145-1.346-4.788s0.605-4.783,1.346-4.783c0.745,0,1.35,2.143,1.35,4.783
				C120.973,125.572,120.37,127.718,119.62,127.718z M122.724,113.638c-0.827,0-1.495-2.372-1.495-5.298
				c0-2.93,0.668-5.303,1.495-5.303c0.822,0,1.489,2.372,1.489,5.303C124.215,111.263,123.549,113.638,122.724,113.638z
				 M126.349,127.718c-0.745,0-1.35-2.145-1.35-4.788s0.605-4.783,1.35-4.783c0.741,0,1.346,2.143,1.346,4.783
				C127.693,125.572,127.09,127.718,126.349,127.718z M125.987,100.411c-0.974,0-1.761-2.802-1.761-6.259s0.789-6.259,1.761-6.259
				s1.761,2.802,1.761,6.259S126.957,100.411,125.987,100.411z M132.768,113.638c-0.818,0-1.489-2.372-1.489-5.298
				c0-2.93,0.671-5.303,1.489-5.303c0.825,0,1.491,2.372,1.491,5.303C134.257,111.263,133.593,113.638,132.768,113.638z"/>
		</g>
		<g>
			<path fill="#41281B" d="M90.466,74.334h29.449l-5.18-5.523l5.18-10.763c0,0-6.544,0-9.818,8.141l0.544-8.141l-5.449,8.141
				l-8.73-8.141l1.094,8.141l-10.91-8.141l4.364,11.05l-7.09,5.235H90.466z"/>
		</g>
		<g>
			<path fill="#41281B" d="M103.949,66.608l-2.216-0.833c0.045-0.121,3.952-12.246-2.78-16.66l1.235-2.136
				C108.529,52.454,104.14,66.036,103.949,66.608z"/>
		</g>
	</g>
	<g id="Capa_1_108_">
	</g>
</g>
</svg>
