<?xml version="1.0" encoding="utf-8"?>
<!-- Generator: Adobe Illustrator 17.0.0, SVG Export Plug-In . SVG Version: 6.00 Build 0)  -->
<!DOCTYPE svg PUBLIC "-//W3C//DTD SVG 1.1//EN" "http://www.w3.org/Graphics/SVG/1.1/DTD/svg11.dtd">
<svg version="1.1" id="Layer_1" xmlns="http://www.w3.org/2000/svg" xmlns:xlink="http://www.w3.org/1999/xlink" x="0px" y="0px"
	 width="200px" height="200px" viewBox="0 0 200 200" enable-background="new 0 0 200 200" xml:space="preserve">
<path fill="#97BF0D" d="M200,188.003c0,6.902-5.373,12.496-12,12.496H12c-6.627,0-12-5.595-12-12.496V12.11
	C0,5.208,5.373-0.387,12-0.387h176c6.627,0,12,5.595,12,12.496V188.003z"/>
<g>
	<g id="Layer_2_18_">
		<path fill="#41281B" d="M71.289,52.038c-0.37,0.398-0.351,1.021,0.045,1.393l5.242,4.897c0.034,0.032,0.075,0.043,0.11,0.069
			l0.615,13.359l7.673,2.256c-2.539,4.275-4.431,9.267-4.431,14.726c0,7.809,6.537,14.419,13.265,20.806l-8.903,3.089l1.007,13.519
			l-7.334-1.283c-0.53-0.092-1.046,0.262-1.139,0.802c-0.095,0.536,0.264,1.046,0.8,1.141l5.91,1.032l-6.602,2.665
			c-0.504,0.205-0.749,0.778-0.544,1.283c0.156,0.384,0.526,0.617,0.914,0.617c0.122,0,0.248-0.024,0.37-0.071l6.661-2.689
			l-3.745,5.337c-0.313,0.445-0.205,1.06,0.24,1.371c0.171,0.122,0.37,0.179,0.566,0.179c0.309,0,0.615-0.146,0.806-0.42
			l5.079-7.236c0-0.002,0.002-0.004,0.002-0.004l0.15-0.191l0.002-0.156l0.006-0.394l0.207-12.882l12.453,1.005
			c4.301,4.496,7.577,9.052,7.577,14.017c0,14.446-16.253,27.252-16.253,27.252s26.923-6.732,26.923-32.014
			c0-7.677-4.123-12.74-8.859-17.301l1.3-9.212c2.482,0.264,7.065,0.504,9.458,0.502c0.879,0,3.158-0.343,3.477-0.39l5.888-0.599
			c0.54-0.055,0.936-0.538,0.879-1.08c-0.053-0.542-0.554-0.93-1.08-0.881l-5.893,0.599l3.836-5.29
			c0.317-0.442,0.219-1.056-0.219-1.375c-0.439-0.319-1.054-0.225-1.377,0.219l-3.757,5.181l-0.124-6.074
			c-0.01-0.542-0.457-1.048-1.005-1.022c-0.544,0.01-0.975,0.347-0.965,0.89l0.146,7.329c-2.748-0.276-7.13-0.711-10.228-1.042
			l-0.733-0.071l-5.585,6.724c-4.348-4.218-7.961-8.761-7.961-15.361c0-1.663,0.098-3.172,0.244-4.598
			c0.063-0.624,0.14-1.225,0.227-1.807l3.331,3.158l13.999-4.452l5.197,2.203c0.126,0.053,0.252,0.079,0.382,0.079
			c0.382,0,0.747-0.225,0.904-0.601c0.213-0.5-0.022-1.077-0.522-1.291l-3.715-1.572l5.556-2.545
			c0.494-0.227,0.711-0.812,0.485-1.306c-0.227-0.497-0.816-0.711-1.304-0.487l-5.14,2.354l1.738-3.686
			c0.232-0.493,0.021-1.08-0.471-1.312c-0.488-0.234-0.869-0.02-1.099,0.471l-2.59,5.942v0.004l-12.275,3.832l-2.963-6.878
			c1.086-2.961,2.437-5.008,3.593-6.339c3.278,0.806,7.397,0.107,11.121-2.22c6.088-3.804,8.783-10.473,6.019-14.894
			c-2.762-4.421-9.937-4.921-16.024-1.117c-4.61,2.88-7.268,7.404-7.09,11.348c-1.992,1.659-4.75,4.251-7.394,7.569l-9.173,0.816
			l-0.567-12.273l5.1-5.429c0.372-0.396,0.355-1.02-0.041-1.393c-0.396-0.37-1.018-0.355-1.393,0.043l-4.125,4.39l-0.252-6.405
			c-0.026-0.544-0.497-0.94-1.026-0.883c-0.544,0.022-0.965,0.603-0.944,1.146l0.248,6.141l-3.513-3.276
			C72.284,51.621,71.662,51.64,71.289,52.038z M112.822,56.7c1.145-0.715,2.492-0.621,3.012,0.211s0.012,2.084-1.131,2.799
			c-1.145,0.715-2.492,0.621-3.012-0.211C111.171,58.668,111.677,57.413,112.822,56.7z M108.882,50.789
			c1.145-0.715,2.492-0.621,3.012,0.211c0.52,0.831,0.012,2.084-1.131,2.799c-1.145,0.715-2.492,0.621-3.012-0.211
			C107.231,52.757,107.737,51.503,108.882,50.789z"/>
	</g>
</g>
</svg>
