<?xml version="1.0" encoding="utf-8"?>
<!-- Generator: Adobe Illustrator 17.0.0, SVG Export Plug-In . SVG Version: 6.00 Build 0)  -->
<!DOCTYPE svg PUBLIC "-//W3C//DTD SVG 1.1//EN" "http://www.w3.org/Graphics/SVG/1.1/DTD/svg11.dtd">
<svg version="1.1" id="Layer_1" xmlns="http://www.w3.org/2000/svg" xmlns:xlink="http://www.w3.org/1999/xlink" x="0px" y="0px"
	 width="200px" height="200px" viewBox="0 0 200 200" enable-background="new 0 0 200 200" xml:space="preserve">
<path fill="#97BF0D" d="M200,188.003c0,6.902-5.373,12.496-12,12.496H12c-6.627,0-12-5.595-12-12.496V12.11
	C0,5.208,5.373-0.387,12-0.387h176c6.627,0,12,5.595,12,12.496V188.003z"/>
<g>
	<g>
		<path fill="#41281B" d="M89.153,87.638c0-15.724,3.494-27.953,3.494-27.953s-10.482,1.747-20.965,19.218s-10.482,29.7-10.482,29.7
			h31.447C92.647,108.603,89.153,103.362,89.153,87.638z"/>
		<polygon fill="#41281B" points="103.13,77.156 103.13,108.603 134.577,108.603 		"/>
		<path fill="#41281B" d="M103.829,121.182c5.241,3.145,10.482,4.542,15.374,4.892h1.398c7.687,0,13.977-6.289,13.977-13.977h-0.349
			H99.636V59.685h-3.494v52.412H61.549H61.2c0,3.145,1.048,5.94,2.795,8.036C76.574,114.194,90.201,113.495,103.829,121.182z"/>
		<path fill="#41281B" d="M142.614,126.423c-11.531,7.687-24.808,9.434-38.785,1.747c-15.374-8.735-30.749-6.639-44.725,1.747
			c-1.747,1.049-3.494,2.097-4.892,3.145v4.542l0,0c2.096-1.747,4.193-3.145,6.639-4.542c13.278-7.687,27.254-9.784,41.231-1.747
			c15.374,8.735,29.7,6.639,42.629-1.747c1.397-1.048,2.795-1.747,3.843-2.795v-4.543
			C146.807,123.628,145.06,125.026,142.614,126.423z"/>
		<path fill="#41281B" d="M103.829,138.653c-13.278-7.338-26.905-6.988-39.135-1.048v3.844c11.88-5.94,24.809-6.988,37.737,0.349
			c12.579,6.988,24.809,6.988,35.64,2.096v-3.843C127.589,144.942,116.058,145.292,103.829,138.653z"/>
	</g>
</g>
</svg>
