<?xml version="1.0" encoding="utf-8"?>
<!-- Generator: Adobe Illustrator 17.0.0, SVG Export Plug-In . SVG Version: 6.00 Build 0)  -->
<!DOCTYPE svg PUBLIC "-//W3C//DTD SVG 1.1//EN" "http://www.w3.org/Graphics/SVG/1.1/DTD/svg11.dtd">
<svg version="1.1" id="Layer_1" xmlns="http://www.w3.org/2000/svg" xmlns:xlink="http://www.w3.org/1999/xlink" x="0px" y="0px"
	 width="200px" height="200px" viewBox="0 0 200 200" enable-background="new 0 0 200 200" xml:space="preserve">
<path fill="#97BF0D" d="M200,188.003c0,6.902-5.373,12.496-12,12.496H12c-6.627,0-12-5.595-12-12.496V12.11
	C0,5.208,5.373-0.387,12-0.387h176c6.627,0,12,5.595,12,12.496V188.003z"/>
<g>
	<g>
		<g>
			<path fill="#41281B" d="M432.724,59.474c-0.292-0.256-0.681-0.372-1.066-0.32c-14.832,2.008-29.893,3.027-44.764,3.027
				c-14.871,0-29.931-1.019-44.764-3.027c-0.384-0.052-0.773,0.065-1.066,0.32c-0.293,0.255-0.46,0.625-0.46,1.013v53.359
				c0,0.388,0.168,0.758,0.46,1.013c0.293,0.256,0.681,0.372,1.066,0.32c14.832-2.008,29.893-3.027,44.764-3.027
				c14.871,0,29.932,1.019,44.764,3.027c0.06,0.008,0.121,0.012,0.181,0.012c0.323,0,0.639-0.117,0.885-0.332
				c0.293-0.255,0.46-0.625,0.46-1.013V60.487C433.184,60.099,433.016,59.73,432.724,59.474z"/>
			<circle fill="#41281B" cx="346.525" cy="128.838" r="9.958"/>
			<path fill="#41281B" d="M346.525,141.487c-3.347,0-6.391-1.308-8.656-3.438c-0.987,1.339-1.571,2.993-1.571,4.783v11.239h20.453
				v-11.239c0-1.79-0.584-3.445-1.571-4.783C352.917,140.178,349.872,141.487,346.525,141.487z"/>
			<circle fill="#41281B" cx="373.438" cy="128.838" r="9.958"/>
			<path fill="#41281B" d="M373.438,141.487c-3.347,0-6.391-1.308-8.656-3.438c-0.987,1.339-1.571,2.993-1.571,4.783v11.239h20.453
				v-11.239c0-1.79-0.584-3.445-1.571-4.783C379.829,140.178,376.785,141.487,373.438,141.487z"/>
			<circle fill="#41281B" cx="400.35" cy="128.838" r="9.958"/>
			<path fill="#41281B" d="M400.35,141.487c-3.347,0-6.391-1.308-8.656-3.438c-0.987,1.339-1.571,2.993-1.571,4.783v11.239h20.453
				v-11.239c0-1.79-0.584-3.445-1.571-4.783C406.741,140.178,403.697,141.487,400.35,141.487z"/>
			<circle fill="#41281B" cx="427.262" cy="128.838" r="9.958"/>
			<path fill="#41281B" d="M435.918,138.049c-2.265,2.129-5.31,3.438-8.656,3.438c-3.347,0-6.391-1.308-8.656-3.438
				c-0.987,1.339-1.571,2.993-1.571,4.783v11.239h20.453v-11.239C437.489,141.042,436.905,139.388,435.918,138.049z"/>
		</g>
	</g>
</g>
<path fill="#41281B" d="M124.741,48.833c10.032,0,18.164,8.131,18.164,18.162c0,10.033-8.132,18.165-18.164,18.165
	c-10.031,0-18.164-8.132-18.164-18.165C106.577,56.964,114.709,48.833,124.741,48.833z"/>
<g>
	<path fill="#41281B" d="M66.239,91.079H53.265c-2.325,0-4.21,1.885-4.21,4.21v45.444c0,2.325,1.885,4.21,4.21,4.21h12.974
		c2.325,0,4.21-1.885,4.21-4.21V95.289C70.449,92.964,68.564,91.079,66.239,91.079z"/>
	<path fill="#41281B" d="M114.441,88.787"/>
	<path fill="#41281B" d="M115.912,88.837c-2.982-2.663-8.544-9.603-11.339-6.746c0,0-14.548,5.659-19.471,10.433
		c-3.969,3.849-7.125,8.735-7.125,14.681v17.933c0,10.939,8.868,19.807,19.807,19.807h35.083c4.124,0,7.688-3.372,7.679-7.495
		c-0.006-2.681-1.428-5.024-3.553-6.34h2.23c4.124,0,7.688-3.372,7.679-7.495c-0.006-2.681-1.428-5.024-3.553-6.34h1.683
		c4.083,0,7.401-3.271,7.477-7.336c0.078-4.191-3.482-7.621-7.673-7.621h-1.989c2.13-1.318,3.553-3.668,3.553-6.357
		c0-4.13-3.348-7.478-7.478-7.478l-24.582-0.075"/>
</g>
</svg>
