<?xml version="1.0" encoding="utf-8"?>
<!-- Generator: Adobe Illustrator 17.0.0, SVG Export Plug-In . SVG Version: 6.00 Build 0)  -->
<!DOCTYPE svg PUBLIC "-//W3C//DTD SVG 1.1//EN" "http://www.w3.org/Graphics/SVG/1.1/DTD/svg11.dtd">
<svg version="1.1" id="Layer_1" xmlns="http://www.w3.org/2000/svg" xmlns:xlink="http://www.w3.org/1999/xlink" x="0px" y="0px"
	 width="200px" height="200px" viewBox="0 0 200 200" enable-background="new 0 0 200 200" xml:space="preserve">
<path fill="#97BF0D" d="M200,188.003c0,6.902-5.373,12.496-12,12.496H12c-6.627,0-12-5.595-12-12.496V12.11
	C0,5.208,5.373-0.387,12-0.387h176c6.627,0,12,5.595,12,12.496V188.003z"/>
<g>
	<g>
		<g>
			<path fill="#41281B" d="M90.238,66.512c2.098,0,3.87-0.723,5.317-2.17c1.447-1.447,2.17-3.147,2.17-5.1
				c0-1.953-0.723-3.653-2.17-5.1c-1.447-1.447-3.219-2.17-5.317-2.17s-3.87,0.723-5.317,2.17c-1.447,1.447-2.17,3.147-2.17,5.1
				c0,1.953,0.723,3.653,2.17,5.1C86.367,65.789,88.14,66.512,90.238,66.512z"/>
			<path fill="#41281B" d="M155.236,81.704c-0.434-1.302-1.23-2.315-2.387-3.038l-14.975-9.549l0.868-7.596l-30.166,30.6H97.725
				v-6.945l9.332,2.17c0.868,0.145,1.736-0.036,2.604-0.543s1.411-1.23,1.628-2.17c0.217-0.94,0.072-1.808-0.434-2.604
				c-0.506-0.795-1.266-1.265-2.279-1.411l-10.851-2.821V75.41c0-2.025-0.796-3.726-2.387-5.1c-1.591-1.374-3.436-2.062-5.534-2.062
				s-3.906,0.687-5.426,2.062c-1.519,1.374-2.279,3.074-2.279,5.1v16.711H59.746c-3.183,0-5.823,0.904-7.921,2.713
				s-3.147,4.16-3.147,7.053v16.928h6.728v-16.711l4.34-6.077v20.834l-4.34,6.294v26.477c0,1.157,0.579,2.242,1.736,3.255
				c1.157,1.013,2.423,1.519,3.798,1.519c1.374,0,2.641-0.47,3.798-1.411c1.157-0.94,1.736-2.062,1.736-3.364v-23.004l4.557-7.379
				v7.813l10.851,24.74c0.723,1.157,1.736,1.917,3.038,2.279c1.302,0.362,2.568,0.217,3.798-0.434
				c1.23-0.651,2.025-1.591,2.387-2.821s0.181-2.423-0.543-3.581l-9.332-21.268l4.557-7.162h25.175v30.817
				c0,1.302,0.398,2.423,1.194,3.364c0.796,0.94,1.881,1.411,3.255,1.411c1.374,0,2.46-0.47,3.255-1.411
				c0.796-0.94,1.194-2.062,1.194-3.364v-30.6l11.502-22.136c1.302,0.289,2.604,0.434,3.906,0.434c3.038,0,5.751-0.904,8.138-2.713
				c2.387-1.808,3.943-4.16,4.666-7.053l1.302,0.217c2.46,0.434,4.268-0.362,5.426-2.387
				C155.525,84.236,155.67,83.006,155.236,81.704z M141.78,92.555c-1.881,1.447-4.051,2.17-6.511,2.17
				c-0.868,0-1.664-0.072-2.387-0.217l4.774-8.898l7.813,1.519C144.891,89.3,143.661,91.108,141.78,92.555z"/>
		</g>
	</g>
</g>
</svg>
