<?xml version="1.0" encoding="utf-8"?>
<!-- Generator: Adobe Illustrator 17.0.0, SVG Export Plug-In . SVG Version: 6.00 Build 0)  -->
<!DOCTYPE svg PUBLIC "-//W3C//DTD SVG 1.1//EN" "http://www.w3.org/Graphics/SVG/1.1/DTD/svg11.dtd">
<svg version="1.1" id="Layer_1" xmlns="http://www.w3.org/2000/svg" xmlns:xlink="http://www.w3.org/1999/xlink" x="0px" y="0px"
	 width="200px" height="200px" viewBox="0 0 200 200" enable-background="new 0 0 200 200" xml:space="preserve">
<path fill="#97BF0D" d="M200,188.003c0,6.902-5.373,12.496-12,12.496H12c-6.627,0-12-5.595-12-12.496V12.11
	C0,5.208,5.373-0.387,12-0.387h176c6.627,0,12,5.595,12,12.496V188.003z"/>
<g>
	<path fill="#41281B" d="M101.99,67.106c2.282,0,4.232-0.81,5.851-2.429c1.619-1.619,2.429-3.569,2.429-5.851
		c0-2.282-0.809-4.232-2.429-5.851c-1.619-1.619-3.569-2.429-5.851-2.429c-2.281,0-4.268,0.81-5.961,2.429
		c-1.693,1.619-2.539,3.569-2.539,5.851s0.846,4.232,2.539,5.851S99.709,67.106,101.99,67.106z"/>
	<path fill="#41281B" d="M87.75,68.43c0.442-1.62-0.147-2.576-1.766-2.87l-6.844-1.766c-1.619-0.294-2.649,0.295-3.091,1.766
		l-5.74,23.844c-0.442,1.472,0.147,2.355,1.766,2.649l6.844,1.766c1.619,0.294,2.649-0.294,3.091-1.766L87.75,68.43z"/>
	<path fill="#41281B" d="M119.984,152.548v0.221c0,1.177,0.662,1.766,1.987,1.766c1.178,0,1.84-0.515,1.987-1.545l14.13-74.403
		v-0.221c0-1.177-0.662-1.766-1.987-1.766c-1.03,0-1.693,0.515-1.987,1.545L119.984,152.548z"/>
	<path fill="#41281B" d="M73.179,147.69v1.104c0,1.619,0.552,3.017,1.656,4.195c1.104,1.177,2.465,1.766,4.084,1.766
		c2.944,0,4.857-1.398,5.74-4.195l10.156-40.844l9.714,40.624c0.295,1.177,0.957,2.208,1.987,3.091
		c1.031,0.883,2.282,1.325,3.753,1.325c1.619,0,2.981-0.589,4.084-1.766c1.104-1.177,1.656-2.576,1.656-4.195v-1.104l-13.247-54.091
		l1.104-4.636l0.883,3.753c0.147,0.736,0.479,1.325,0.994,1.766c0.515,0.442,0.994,0.662,1.435,0.662l0.662,0.221l13.688,3.312
		h0.662c1.178,0,2.171-0.368,2.981-1.104c0.81-0.736,1.214-1.619,1.214-2.649c0-2.061-1.03-3.385-3.091-3.974l-11.922-2.87
		l-3.312-12.805c-0.442-2.061-1.361-3.68-2.76-4.857c-1.398-1.177-2.686-1.84-3.864-1.987l-1.987-0.221
		c-1.913,0-3.606,0.552-5.078,1.656c-1.472,1.104-2.429,2.245-2.87,3.422l-0.442,1.766L73.179,147.69z"/>
</g>
</svg>
