<?xml version="1.0" encoding="utf-8"?>
<!-- Generator: Adobe Illustrator 17.0.0, SVG Export Plug-In . SVG Version: 6.00 Build 0)  -->
<!DOCTYPE svg PUBLIC "-//W3C//DTD SVG 1.1//EN" "http://www.w3.org/Graphics/SVG/1.1/DTD/svg11.dtd">
<svg version="1.1" id="Layer_1" xmlns="http://www.w3.org/2000/svg" xmlns:xlink="http://www.w3.org/1999/xlink" x="0px" y="0px"
	 width="200px" height="200px" viewBox="0 0 200 200" enable-background="new 0 0 200 200" xml:space="preserve">
<path fill="#97BF0D" d="M200,188.003c0,6.902-5.373,12.496-12,12.496H12c-6.627,0-12-5.595-12-12.496V12.11
	C0,5.208,5.373-0.387,12-0.387h176c6.627,0,12,5.595,12,12.496V188.003z"/>
<g id="XMLID_27_">
	<polygon id="XMLID_459_" fill="#41281B" points="46.386,105.766 46.386,122.282 84.656,108.887 83.143,82.551 	"/>
	<polygon id="XMLID_460_" fill="#41281B" points="154.917,122.282 154.917,105.766 118.161,82.551 116.647,108.887 	"/>
	<path id="XMLID_461_" fill="#41281B" d="M112.449,58.579c0-6.515-5.282-11.797-11.797-11.797c-6.515,0-11.797,5.282-11.797,11.797
		l4.11,71.514l-11.188,13.473v11.747l18.875-11.797l18.875,11.797v-11.747l-11.188-13.473L112.449,58.579z"/>
</g>
</svg>
