<?xml version="1.0" encoding="utf-8"?>
<!-- Generator: Adobe Illustrator 17.0.0, SVG Export Plug-In . SVG Version: 6.00 Build 0)  -->
<!DOCTYPE svg PUBLIC "-//W3C//DTD SVG 1.1//EN" "http://www.w3.org/Graphics/SVG/1.1/DTD/svg11.dtd">
<svg version="1.1" id="Layer_1" xmlns="http://www.w3.org/2000/svg" xmlns:xlink="http://www.w3.org/1999/xlink" x="0px" y="0px"
	 width="200px" height="200px" viewBox="0 0 200 200" enable-background="new 0 0 200 200" xml:space="preserve">
<path fill="#97BF0D" d="M200,188.003c0,6.902-5.373,12.496-12,12.496H12c-6.627,0-12-5.595-12-12.496V12.11
	C0,5.208,5.373-0.387,12-0.387h176c6.627,0,12,5.595,12,12.496V188.003z"/>
<path fill="#41281B" d="M48.7,129.648c0.064-0.056,6.557-5.614,19.758-5.614c5.8,0,10.413,2.345,15.754,5.06
	c7.004,3.56,14.944,7.595,27.553,7.595c22.477,0,37.363-12.823,37.985-13.369c1.193-1.046,1.312-2.859,0.268-4.053
	c-1.045-1.195-2.86-1.317-4.057-0.276c-0.071,0.062-3.801,3.248-10.176,6.314c-0.387-0.947-1.025-1.804-1.909-2.455l-10.457-7.689
	c-0.325-0.239-0.659-0.465-0.997-0.685l14.973-19.533c0.039-0.051,0.07-0.104,0.107-0.155c1.639-0.718,2.921-2.186,3.322-4.07
	c0.662-3.107-1.321-6.162-4.428-6.824l-41.417-8.82c-0.026-0.006-0.053-0.008-0.08-0.013c-2.372-0.577-4.975-0.069-6.992,1.616
	c-1.355,1.132-13.237,11.433-13.237,24.423c0,7.202,2.585,14.579,4.675,19.368c-3.32-1.299-6.824-2.185-10.889-2.185
	c-15.342,0-23.222,6.753-23.55,7.041c-1.194,1.047-1.314,2.864-0.267,4.059C45.689,130.576,47.505,130.696,48.7,129.648z
	 M102.519,130.042c-2.69-0.547-5.11-1.31-7.368-2.192c0.215-0.086,0.428-0.182,0.635-0.296l7.029-3.864
	c1.738-0.955,3.738-1.458,5.752-1.539L102.519,130.042z M116.605,124.431l7.006,5.151c-3.621,0.827-7.589,1.354-11.846,1.354
	c-0.659,0-1.302-0.013-1.932-0.037l5.547-7.237C115.807,123.896,116.219,124.147,116.605,124.431z M97.274,113.608l-2.845,1.564
	c-1.647-3.594-3.833-9.411-3.833-14.073c0.375-7.745,7.853-13.018,8.649-13.356l30.689,6.535l-13.394,17.473
	C110.254,109.843,103.081,110.416,97.274,113.608z M150.019,131.923c1.044,1.195,0.925,3.007-0.268,4.053
	c-0.623,0.546-15.508,13.369-37.985,13.369c-12.61,0-20.549-4.035-27.553-7.595c-5.342-2.715-9.955-5.06-15.754-5.06
	c-13.201,0-19.694,5.558-19.758,5.614c-1.195,1.047-3.012,0.928-4.059-0.267c-1.047-1.195-0.928-3.012,0.267-4.059
	c0.328-0.288,8.208-7.041,23.55-7.041c7.178,0,12.61,2.761,18.361,5.684c6.743,3.427,13.715,6.971,24.947,6.971
	c20.24,0,34.06-11.826,34.197-11.945C147.159,130.606,148.975,130.728,150.019,131.923z M94.549,62.548
	c0-6.071,4.922-10.994,10.994-10.994s10.994,4.922,10.994,10.994s-4.922,10.994-10.994,10.994
	C99.471,73.541,94.549,68.619,94.549,62.548z"/>
</svg>
