<?xml version="1.0" encoding="utf-8"?>
<!-- Generator: Adobe Illustrator 17.0.0, SVG Export Plug-In . SVG Version: 6.00 Build 0)  -->
<!DOCTYPE svg PUBLIC "-//W3C//DTD SVG 1.1//EN" "http://www.w3.org/Graphics/SVG/1.1/DTD/svg11.dtd">
<svg version="1.1" id="Layer_1" xmlns="http://www.w3.org/2000/svg" xmlns:xlink="http://www.w3.org/1999/xlink" x="0px" y="0px"
	 width="200px" height="200px" viewBox="0 0 200 200" enable-background="new 0 0 200 200" xml:space="preserve">
<path fill="#97BF0D" d="M200,188.003c0,6.902-5.373,12.496-12,12.496H12c-6.627,0-12-5.595-12-12.496V12.11
	C0,5.208,5.373-0.387,12-0.387h176c6.627,0,12,5.595,12,12.496V188.003z"/>
<g>
	<g>
		<path fill="#41281B" d="M170.363,64.509c-0.181-0.808-0.899-1.302-2.155-1.481c-15.441-1.796-39.231-2.693-71.37-2.693
			c-23.521,0-44.977,0.898-64.368,2.693l1.347,0.673c0.539,0.269,1.436,0.988,2.693,2.155c1.257,1.167,2.379,2.469,3.367,3.905
			c0.988,1.436,1.751,3.456,2.289,6.06c0.539,2.604,0.628,5.342,0.269,8.214h1.751c0.808,0,2.334,0.135,4.578,0.404
			c2.244,0.269,4.354,0.763,6.329,1.481c1.975,0.718,4.085,1.975,6.329,3.771c2.244,1.796,4.085,4.04,5.521,6.733l32.319-9.426
			l-2.155,21.007l-13.735,3.232c-1.077,0.359-2.065,0.898-2.963,1.616l-30.164,28.279c-0.898,0.718-1.347,1.706-1.347,2.963
			s0.449,2.289,1.347,3.097s1.93,1.257,3.097,1.347c1.167,0.09,2.2-0.314,3.097-1.212l22.623-21.276l27.74-6.464h-0.269l4.578-1.077
			l4.309,4.578c0.718,0.719,1.616,1.077,2.693,1.077l14.813,0.269c0.898,0,1.706-0.359,2.424-1.077
			c0.718-0.718,1.077-1.526,1.077-2.424c0-1.616-0.898-2.693-2.693-3.232l-11.042-37.705l46.054-13.466
			C170.004,65.99,170.542,65.317,170.363,64.509z M130.234,117.7h-5.925h-4.848l-7.81-8.888c-0.18-0.179-0.314-0.269-0.404-0.269
			h-0.135c-1.796-2.155-4.04-2.873-6.733-2.155l-4.04,0.808l2.155-21.276l16.967-4.848L130.234,117.7z"/>
		<path fill="#41281B" d="M116.498,93.865c-1.796-0.628-3.546-0.539-5.252,0.269s-2.873,2.065-3.501,3.771
			c-0.628,1.706-0.494,3.412,0.404,5.117c0.898,1.706,2.2,2.873,3.905,3.501c1.706,0.629,3.412,0.539,5.117-0.269
			c1.706-0.808,2.873-2.11,3.501-3.905c0.628-1.796,0.539-3.501-0.269-5.117C119.595,95.615,118.294,94.493,116.498,93.865z"/>
	</g>
</g>
</svg>
