<?xml version="1.0" encoding="utf-8"?>
<!-- Generator: Adobe Illustrator 17.0.0, SVG Export Plug-In . SVG Version: 6.00 Build 0)  -->
<!DOCTYPE svg PUBLIC "-//W3C//DTD SVG 1.1//EN" "http://www.w3.org/Graphics/SVG/1.1/DTD/svg11.dtd">
<svg version="1.1" id="Layer_1" xmlns="http://www.w3.org/2000/svg" xmlns:xlink="http://www.w3.org/1999/xlink" x="0px" y="0px"
	 width="200px" height="200px" viewBox="0 0 200 200" enable-background="new 0 0 200 200" xml:space="preserve">
<path fill="#97BF0D" d="M200,188.003c0,6.902-5.373,12.496-12,12.496H12c-6.627,0-12-5.595-12-12.496V12.11
	C0,5.208,5.373-0.387,12-0.387h176c6.627,0,12,5.595,12,12.496V188.003z"/>
<g>
	<g id="Layer_1_50_">
		<g>
			<path fill="#41281B" d="M106.509,119.784c0.006,0,0.011-0.001,0.017-0.001C106.523,119.783,106.517,119.783,106.509,119.784z"/>
			<g>
				<path fill="#41281B" d="M106.494,119.785c0.005,0,0.01-0.001,0.015-0.001C106.504,119.784,106.498,119.785,106.494,119.785z"/>
				<path fill="#41281B" d="M109.095,48.856c0,0-3.147,0.235-4.857,7.401c-0.924,3.872-1.218,9.232-1.619,14.886
					c-0.156,2.202-0.318,4.479-0.513,6.78c-2.15,1.121-4.301,2.242-6.451,3.363c-1.984,1.034-3.968,2.068-5.952,3.103
					c0.564-0.602,1.075-1.264,1.514-1.988c1.399-2.308,1.939-5.08,1.569-7.747c2.45-1.891,1.28-3.947,0.362-5.756
					c-3.212-6.329-11.5-5.907-11.5-5.907c-11.121,0.513-12.894,6.196-12.482,10.723l0.041,0.622c0.009,0.138,0.24,3.413,1.811,6.727
					c1.777,3.748,4.541,6.045,8.075,6.749c-2.023,1.53-3.413,3.84-3.769,6.372c-0.201,1.426,0.014,2.789,0.256,4.184
					c0.284,1.635,0.568,3.269,0.852,4.904c0.709,4.081,1.418,8.162,2.127,12.242c0.146,0.84,0.292,1.679,0.438,2.519
					c0.251,1.444,0.844,2.913,1.7,4.107c0.248,0.346,0.496,0.693,0.745,1.039c2.3,3.209,4.601,6.417,6.901,9.626
					c0.308,0.429,0.615,0.858,0.923,1.287c0.117,0.163,0.121,0.276,0.153,0.481c0.249,1.62,0.498,3.239,0.748,4.858
					c0.32,2.081,0.64,4.162,0.961,6.243c0.211,1.37,0.289,2.876,1.041,4.077c1.699,2.717,5.606,3.159,7.849,0.859
					c1-1.025,1.519-2.452,1.414-3.88c-0.025-0.331-0.049-0.661-0.073-0.992c-0.291-3.931-0.581-7.862-0.872-11.794
					c-0.093-1.252-0.039-2.709-0.495-3.896c-0.257-0.672-0.701-1.275-1.089-1.879c-0.551-0.859-3.438-5.818-3.438-5.818
					s7.843-1.922,11.04-2.567c-0.023,0.002-0.019,0.001-0.008,0c-0.07,0.005-0.14,0.012-0.21,0.017
					c0.096-0.009,0.191-0.019,0.287-0.029c-0.089,0.008-0.174,0.001-0.263-0.004c0.764-0.064,1.638,0.273,2.355,0.5
					c0.291,0.092,0.58,0.191,0.868,0.293l-2.85,15.01l1.932,14.054v6.117h27.452V48.856H109.095z M75.305,66.258
					c0.017-0.069,0.082-0.141,0.177-0.19c1.153-0.594,2.362-0.976,3.642-1.184c0.201-0.033,0.432,0.034,0.529,0.144
					c0.46,0.523,0.666,0.795,1.031,1.35c0.042,0.064,0.042,0.132,0.002,0.186c-0.031,0.042-0.083,0.074-0.149,0.092
					c-0.021,0.006-0.043,0.01-0.065,0.014c-1.05,0.184-2.02,0.492-2.969,0.979c-0.078,0.04-0.178,0.065-0.275,0.06
					c-0.097-0.005-0.184-0.035-0.24-0.086c-0.578-0.519-0.9-0.762-1.604-1.193C75.317,66.39,75.287,66.327,75.305,66.258z
					 M71.379,71.251c0.239-1.348,0.949-2.448,1.804-3.427c0.062-0.071,0.163-0.129,0.265-0.158c0.102-0.03,0.2-0.029,0.271,0.002
					c0.686,0.295,1.34,0.662,1.947,1.097c0.104,0.075,0.097,0.205,0.01,0.308c-0.607,0.725-1.135,1.528-1.298,2.518
					c-0.003,0.021-0.009,0.041-0.018,0.061c-0.023,0.054-0.064,0.102-0.117,0.135c-0.072,0.045-0.159,0.058-0.236,0.035
					c-0.79-0.239-1.615-0.351-2.44-0.338C71.436,71.486,71.354,71.39,71.379,71.251z M73.248,80.079
					c-0.273-0.57-0.501-1.142-0.69-1.695l2.564-0.27c0.762,2.017,2.046,4.835,3.941,7.187C76.548,84.636,74.597,82.89,73.248,80.079
					z M89.134,81.138c-1.437,2.369-3.894,4.005-6.474,4.385c-2.407-2.003-4.058-5.281-5.019-7.675c0,0,7.902-0.719,9.696-1.003
					c2.797-0.442,3.124-0.911,3.124-0.911C90.53,77.751,90.079,79.579,89.134,81.138z M105.268,71.332
					c0.519-9.779,2.056-16.037,2.056-16.037l3.542,4.668l-2.491,14.722c-0.758,0.293-1.477,0.741-2.194,1.115
					c-0.43,0.224-0.86,0.448-1.291,0.673C105.027,74.731,105.179,73.013,105.268,71.332z M103.799,86.938
					c0.679-0.406,1.357-0.811,2.036-1.217c0.904-0.54,1.808-1.081,2.712-1.621l1.252,3.288c-2.177,0.974-4.353,1.949-6.53,2.924
					C103.465,89.199,103.64,88.073,103.799,86.938z M100.849,88.702c-0.116,0.715-0.239,1.425-0.371,2.128
					c-0.011-0.001-0.022-0.003-0.033-0.004c-0.884-0.099-1.769-0.198-2.653-0.296C98.811,89.92,99.83,89.311,100.849,88.702z
					 M95.538,100.389c-0.045-0.263-0.091-0.525-0.137-0.788c0.9,0.049,1.799,0.099,2.698,0.148
					c-0.564,1.511-1.205,2.931-1.937,4.237C95.954,102.787,95.746,101.588,95.538,100.389z M112.176,110.352
					c-0.902-0.367-1.822-0.69-2.77-0.945c-1.229-0.33-2.445-0.493-3.714-0.465c-1.21,0.027-2.441,0.291-3.631,0.475
					c-1.608,0.248-3.211,0.537-4.812,0.821c-0.138-0.794-0.276-1.587-0.414-2.381c1.676-2.282,2.989-4.985,4.031-7.958
					c0.422,0.023,0.844,0.046,1.266,0.069c0.938,0.052,1.76-0.146,2.585-0.573c2.142-1.108,4.284-2.216,6.426-3.324L112.176,110.352
					z"/>
			</g>
		</g>
	</g>
</g>
</svg>
