<?xml version="1.0" encoding="utf-8"?>
<!-- Generator: Adobe Illustrator 17.0.0, SVG Export Plug-In . SVG Version: 6.00 Build 0)  -->
<!DOCTYPE svg PUBLIC "-//W3C//DTD SVG 1.1//EN" "http://www.w3.org/Graphics/SVG/1.1/DTD/svg11.dtd">
<svg version="1.1" id="Layer_1" xmlns="http://www.w3.org/2000/svg" xmlns:xlink="http://www.w3.org/1999/xlink" x="0px" y="0px"
	 width="200px" height="200px" viewBox="0 0 200 200" enable-background="new 0 0 200 200" xml:space="preserve">
<path fill="#97BF0D" d="M200,188.003c0,6.902-5.373,12.496-12,12.496H12c-6.627,0-12-5.595-12-12.496V12.11
	C0,5.208,5.373-0.387,12-0.387h176c6.627,0,12,5.595,12,12.496V188.003z"/>
<g>
	<g>
		<circle fill="#41281B" cx="73.899" cy="64.045" r="8.741"/>
		<path fill="#41281B" d="M93.621,94.482l-13.676-0.807L73.48,82.578l5.809,5.798l0.752-3.718c0.647-3.197-1.42-6.312-4.617-6.959
			l-10.31-2.086c-3.199-0.647-6.32,1.426-6.961,4.628l-4.093,20.427c-0.673,3.361,0.196,6.846,2.368,9.497
			c1.71,2.087,4.087,3.479,6.693,3.979h-9.284c-2.625,0-4.753,2.128-4.753,4.753s2.128,4.753,4.753,4.753h11.719v23.076
			c0,2.625,2.128,4.753,4.753,4.753s4.753-2.128,4.753-4.753V123.65h1.921c2.625,0,4.753-2.128,4.753-4.753
			c0-2.21-1.511-4.062-3.554-4.594c2.708,0,4.784,0,7.548,0c0,1.975,0,19.679,0,21.545c0,2.625,2.128,4.753,4.753,4.753
			c2.625,0,4.753-2.128,4.753-4.753c0-2.69,0-22.957,0-26.297c0-1.243-0.481-2.371-1.263-3.218c-0.345,0.025-0.695,0.03-1.049,0.009
			l-15.795-0.932c-1.713-0.101-2.492-0.062-3.621-0.611c-1.343-0.653-2.356-1.862-2.756-3.308l-4.112-14.923l7.534,12.929
			c0.668,1.146,1.865,1.882,3.189,1.96l15.795,0.932c2.189,0.128,4.058-1.541,4.187-3.72C97.47,96.485,95.804,94.61,93.621,94.482z"
			/>
		<path fill="#41281B" d="M139.895,115.729c5.91,0,5.707-0.021,6.337,0.062V77.554l0.121-0.054c1.598-0.712,2.318-2.584,1.606-4.183
			c-0.712-1.598-2.584-2.317-4.183-1.606c-1.664,0.741-43.057,19.17-45.695,20.344c1.749,1.289,2.938,3.274,3.18,5.521
			l38.634-17.201V115.729z"/>
		<path fill="#41281B" d="M145.313,119.531h-27.362h0c-1.75,0-3.168,1.418-3.168,3.168c0,1.75,1.418,3.168,3.168,3.168h0h27.361
			c1.75,0,3.168-1.419,3.168-3.168C148.481,120.95,147.063,119.531,145.313,119.531z"/>
		<path fill="#41281B" d="M132.057,132.812c0-1.618-1.213-2.95-2.779-3.142c-0.128-0.016-0.257-0.026-0.389-0.026
			c-3.249,0-19.359,0-22.601,0c-1.75,0-3.168,1.419-3.168,3.168c0,1.75,1.418,3.168,3.168,3.168h22.601
			C130.639,135.98,132.057,134.562,132.057,132.812z"/>
		<path fill="#41281B" d="M148.165,139.545h-22.601c-1.75,0-3.168,1.419-3.168,3.168s1.419,3.168,3.168,3.168h22.601
			c1.75,0,3.168-1.419,3.168-3.168S149.914,139.545,148.165,139.545z"/>
	</g>
</g>
</svg>
