<?xml version="1.0" encoding="utf-8"?>
<!-- Generator: Adobe Illustrator 17.0.0, SVG Export Plug-In . SVG Version: 6.00 Build 0)  -->
<!DOCTYPE svg PUBLIC "-//W3C//DTD SVG 1.1//EN" "http://www.w3.org/Graphics/SVG/1.1/DTD/svg11.dtd">
<svg version="1.1" id="Layer_1" xmlns="http://www.w3.org/2000/svg" xmlns:xlink="http://www.w3.org/1999/xlink" x="0px" y="0px"
	 width="200px" height="200px" viewBox="0 0 200 200" enable-background="new 0 0 200 200" xml:space="preserve">
<path fill="#97BF0D" d="M200,188.003c0,6.902-5.373,12.496-12,12.496H12c-6.627,0-12-5.595-12-12.496V12.11
	C0,5.208,5.373-0.387,12-0.387h176c6.627,0,12,5.595,12,12.496V188.003z"/>
<g>
	<path fill="#41281B" d="M118.442,70.552c4.961,2.918,11.35,1.257,14.261-3.702c2.919-4.961,1.265-11.347-3.695-14.264
		c-4.969-2.917-11.351-1.258-14.266,3.702C111.826,61.251,113.476,67.636,118.442,70.552z"/>
	<path fill="#41281B" d="M135.468,106.445c-0.571,0-1.135,0.046-1.696,0.086l-3.413-16.937l1.112-0.416
		c2.523-0.943,3.807-3.753,2.862-6.278c-0.945-2.526-3.772-3.804-6.275-2.86l-12.258,4.584l-0.549-4.462
		c1.49-3.121,1.311-7.044-1.128-9.812c-5.02-5.699-11.145-2.959-13.055-1.414L75.787,89.41l0.004,0.006
		c-0.785,0.684-1.44,1.534-1.859,2.564c-0.518,1.276-0.614,2.618-0.37,3.875c-2.011,0.158-3.608,1.791-3.608,3.843
		c0,2.149,1.738,3.889,3.887,3.898l-1.608,3.762c-2.039-0.583-4.18-0.914-6.402-0.914c-12.867,0-23.339,10.467-23.339,23.335
		c0,12.868,10.471,23.337,23.338,23.337c12.868,0,23.334-10.469,23.334-23.337c0-8.569-4.656-16.053-11.557-20.111l2.592-6.068
		h4.202l14.258,5.786l-7.617,12.483c-1.963,3.22-0.945,7.423,2.274,9.387c1.11,0.676,2.336,1,3.548,1
		c2.301,0,4.549-1.166,5.837-3.273l6.94-11.376l4.511,2.723c-1.288,2.892-2.02,6.085-2.02,9.45
		c0,12.868,10.468,23.337,23.334,23.337c12.868,0,23.335-10.469,23.335-23.337C158.804,116.912,148.336,106.445,135.468,106.445z
		 M65.83,147.263c-9.64,0-17.485-7.844-17.485-17.484s7.845-17.482,17.485-17.482c1.406,0,2.755,0.212,4.066,0.526l-4.843,11.328
		c-2.781,0.383-4.93,2.743-4.93,5.628c0,3.151,2.556,5.708,5.708,5.708c2.074,0,3.871-1.122,4.87-2.782h12.315
		C81.613,140.952,74.468,147.263,65.83,147.263z M83.015,126.853H70.7c-0.084-0.139-0.167-0.278-0.263-0.41l4.843-11.33
		C79.315,117.721,82.18,121.936,83.015,126.853z M112.69,112.612l1.813-2.972c1.045-1.711,1.285-3.794,0.656-5.697
		c-0.629-1.903-2.062-3.433-3.917-4.188l-12.471-5.061l7.674-6.216l0.427,3.475c0.179,1.482,1.033,2.801,2.309,3.576
		c0.774,0.469,1.651,0.707,2.53,0.707c0.576,0,1.154-0.103,1.707-0.309l11.389-4.258l3.223,16.011
		c-4.321,1.458-8.07,4.142-10.845,7.643L112.69,112.612z M131.285,123.837l-8.989-5.426c1.863-2.157,4.207-3.86,6.908-4.904
		L131.285,123.837z M135.468,147.263c-9.64,0-17.481-7.844-17.481-17.484c0-2.257,0.465-4.399,1.246-6.382l10.535,6.36
		c0,0.008-0.004,0.015-0.004,0.022c0,3.151,2.556,5.708,5.704,5.708c3.151,0,5.705-2.557,5.705-5.708
		c0-2.478-1.59-4.567-3.799-5.355l-2.431-12.073c0.179-0.006,0.346-0.053,0.525-0.053c9.64,0,17.482,7.842,17.482,17.482
		C152.951,139.419,145.109,147.263,135.468,147.263z"/>
</g>
</svg>
