<?xml version="1.0" encoding="utf-8"?>
<!-- Generator: Adobe Illustrator 17.0.0, SVG Export Plug-In . SVG Version: 6.00 Build 0)  -->
<!DOCTYPE svg PUBLIC "-//W3C//DTD SVG 1.1//EN" "http://www.w3.org/Graphics/SVG/1.1/DTD/svg11.dtd">
<svg version="1.1" id="Layer_1" xmlns="http://www.w3.org/2000/svg" xmlns:xlink="http://www.w3.org/1999/xlink" x="0px" y="0px"
	 width="200px" height="200px" viewBox="0 0 200 200" enable-background="new 0 0 200 200" xml:space="preserve">
<path fill="#97BF0D" d="M200,188.003c0,6.902-5.373,12.496-12,12.496H12c-6.627,0-12-5.595-12-12.496V12.11
	C0,5.208,5.373-0.387,12-0.387h176c6.627,0,12,5.595,12,12.496V188.003z"/>
<g>
	<g>
		<path fill="#41281B" d="M97.716,140.948l-9.867-6.887l-4.05-0.529l5.988,21.379c0.85,3.034,3.998,4.8,7.027,3.952
			c3.032-0.849,4.801-3.995,3.952-7.027L97.716,140.948L97.716,140.948z"/>
		<circle fill="#41281B" cx="65.016" cy="66.546" r="9.846"/>
		<path fill="#41281B" d="M112.538,131.829l-17.61-12.291c-0.751-0.524-1.616-0.859-2.524-0.978l-22.523-2.943
			c0.944,1.925,3.81,6.494,0.277,11.535l19.388,2.533l16.467,11.494c2.587,1.806,6.139,1.164,7.938-1.412
			C115.752,137.184,115.12,133.631,112.538,131.829L112.538,131.829z"/>
		<path fill="#41281B" d="M146.946,43.348H78.708c-0.499,0-0.938,0.329-1.077,0.809c-0.139,0.479,0.055,0.992,0.477,1.259
			l3.262,2.068L81,68.856l-8.861,9.821l-11.77,1.205c-3.654,0.374-6.313,3.64-5.939,7.294l0.347,3.383l5.302-5.402l-10.153,16.855
			c-0.803,1.377-0.862,3.06-0.163,4.486l8.514,17.387c1.171,2.389,4.044,3.309,6.357,2.175c2.367-1.16,3.325-4.01,2.175-6.357
			l-7.233-14.755l9.111-15.602l-3.958,14.116l-0.292,1.042l4.876,9.946l13.09-1.146L79.474,84.73l9.778-10.838
			c0.773-0.857,1.208-1.965,1.223-3.118l0.233-17.141c1.489,1.381,2.598,3.139,3.198,5.105l3.992,13.081
			c0.54,1.769,1.495,3.382,2.787,4.706l13.698,14.035c2.253,2.308,3.44,5.452,3.276,8.673l-1.092,21.431
			c-0.111,2.186,0.399,4.358,1.472,6.265l9.523,16.924c1.143,2.031,2.873,3.67,4.963,4.702l13.364,6.597
			c0.74,0.365,1.616,0.323,2.316-0.113c0.701-0.436,1.127-1.202,1.127-2.027V45.735C149.333,44.417,148.264,43.348,146.946,43.348
			L146.946,43.348z"/>
	</g>
</g>
</svg>
