<?xml version="1.0" encoding="utf-8"?>
<!-- Generator: Adobe Illustrator 17.0.0, SVG Export Plug-In . SVG Version: 6.00 Build 0)  -->
<!DOCTYPE svg PUBLIC "-//W3C//DTD SVG 1.1//EN" "http://www.w3.org/Graphics/SVG/1.1/DTD/svg11.dtd">
<svg version="1.1" id="Layer_1" xmlns="http://www.w3.org/2000/svg" xmlns:xlink="http://www.w3.org/1999/xlink" x="0px" y="0px"
	 width="200px" height="200px" viewBox="0 0 200 200" enable-background="new 0 0 200 200" xml:space="preserve">
<path fill="#97BF0D" d="M200,188.003c0,6.902-5.373,12.496-12,12.496H12c-6.627,0-12-5.595-12-12.496V12.11
	C0,5.208,5.373-0.387,12-0.387h176c6.627,0,12,5.595,12,12.496V188.003z"/>
<g>
	<path fill="#41281B" d="M125.716,76.05c-3.451-3.102-6.971-4.179-8.699-4.541V57.526l2.54-2.43c1.5-0.224,2.654-1.517,2.654-3.078
		v-1.311c0-1.718-1.398-3.116-3.116-3.116H79.834c-1.718,0-3.116,1.398-3.116,3.116v1.311c0,1.556,1.147,2.845,2.639,3.075
		l2.543,2.432v13.982c-1.729,0.362-5.248,1.439-8.699,4.541c-4.28,3.847-9.273,11.693-8.753,27.225
		c0.512,15.288,5.295,27.868,9.217,35.729c3.124,6.261,6.155,10.539,7.615,12.454c-0.556,0.534-0.905,1.283-0.905,2.113
		c0,1.617,1.316,2.933,2.933,2.933h32.3c1.617,0,2.933-1.316,2.933-2.933c0-0.83-0.348-1.579-0.905-2.114
		c1.461-1.915,4.492-6.193,7.615-12.454c3.922-7.861,8.706-20.44,9.218-35.729C134.99,87.743,129.997,79.897,125.716,76.05z
		 M79.834,52.759c-0.409,0-0.741-0.332-0.741-0.741v-1.311c0-0.409,0.332-0.741,0.741-0.741h39.262c0.409,0,0.741,0.332,0.741,0.741
		v1.311c0,0.409-0.332,0.741-0.741,0.741H79.834z M84.275,65.406v-3.27h30.368v3.27H84.275z M114.642,67.781v3.549H84.275v-3.549
		H114.642z M84.275,59.761v-2.743c0-0.324-0.132-0.634-0.367-0.858l-1.073-1.026h33.247l-1.073,1.026
		c-0.234,0.224-0.367,0.534-0.367,0.858v2.743H84.275z M74.678,77.915c3.943-3.601,8.055-4.162,8.47-4.21h32.618
		c0.43,0.05,4.535,0.615,8.472,4.21c2.422,2.213,4.304,5.136,5.623,8.689c-1.781,0.534-2.934,1.643-3.973,2.648
		c-1.33,1.288-2.381,2.304-4.626,2.304c-2.246,0-3.296-1.017-4.626-2.304c-1.44-1.393-3.071-2.973-6.277-2.973
		c-3.206,0-4.838,1.58-6.277,2.973c-1.33,1.287-2.38,2.304-4.625,2.304c-2.245,0-3.295-1.017-4.625-2.304
		c-1.439-1.393-3.071-2.973-6.277-2.973c-3.206,0-4.838,1.579-6.277,2.973c-1.33,1.288-2.38,2.304-4.625,2.304
		c-2.245,0-3.295-1.017-4.625-2.304c-1.038-1.005-2.191-2.113-3.972-2.647C70.374,83.051,72.256,80.128,74.678,77.915z
		 M68.319,88.861c1.267,0.367,2.11,1.18,3.056,2.096c1.439,1.393,3.071,2.973,6.277,2.973s4.838-1.579,6.277-2.973
		c1.33-1.288,2.38-2.304,4.625-2.304c2.245,0,3.296,1.017,4.626,2.304c1.439,1.393,3.071,2.973,6.277,2.973
		c3.206,0,4.838-1.579,6.277-2.973c1.33-1.287,2.38-2.304,4.626-2.304s3.296,1.017,4.626,2.304c1.44,1.393,3.071,2.973,6.278,2.973
		c3.206,0,4.838-1.579,6.277-2.973c0.946-0.916,1.793-1.724,3.059-2.091c0.731,2.562,1.202,5.404,1.41,8.498
		c-2.482,0.343-3.906,1.673-5.175,2.872c-1.316,1.242-2.452,2.315-4.802,2.315c-2.353,0-3.502-1.074-4.833-2.319
		c-1.483-1.387-3.164-2.959-6.455-2.959c-3.29,0-4.971,1.572-6.454,2.959c-1.33,1.244-2.479,2.319-4.832,2.319
		s-3.502-1.074-4.833-2.319c-1.483-1.387-3.164-2.959-6.454-2.959c-3.29,0-4.971,1.572-6.454,2.959
		c-1.33,1.244-2.479,2.319-4.832,2.319c-2.349,0-3.485-1.073-4.801-2.314c-1.269-1.199-2.692-2.529-5.174-2.871
		C67.115,94.269,67.587,91.425,68.319,88.861z M115.608,154.129h-32.3c-0.308,0-0.558-0.25-0.558-0.558s0.25-0.558,0.558-0.558h32.3
		c0.308,0,0.558,0.25,0.558,0.558C116.167,153.879,115.916,154.129,115.608,154.129z M115.263,150.638H83.655
		c-0.803-1.018-2.946-3.863-5.448-8.227h42.524C118.228,146.763,116.07,149.618,115.263,150.638z M122.047,140.037H76.894
		c-0.329-0.617-0.661-1.259-0.993-1.923h47.14C122.708,138.777,122.376,139.419,122.047,140.037z M124.187,135.739H74.754
		c-3.067-6.598-6.027-15.077-7.31-24.94c1.464,0.335,2.438,1.2,3.519,2.176c1.527,1.381,3.257,2.945,6.468,2.945
		c3.23,0,4.876-1.577,6.328-2.969c1.346-1.29,2.409-2.309,4.685-2.309c2.276,0,3.339,1.019,4.685,2.309
		c1.452,1.391,3.098,2.969,6.328,2.969c3.231,0,4.876-1.577,6.328-2.969c1.346-1.29,2.409-2.308,4.684-2.308
		c2.276,0,3.34,1.019,4.686,2.309c1.452,1.391,3.098,2.969,6.329,2.969c3.21,0,4.943-1.565,6.471-2.945
		c1.082-0.977,2.05-1.848,3.516-2.183C130.146,120.968,127.06,129.543,124.187,135.739z M132.096,103.196
		c-0.059,1.751-0.177,3.464-0.343,5.138c-2.536,0.305-4.043,1.664-5.39,2.88c-1.386,1.252-2.582,2.333-4.879,2.333
		c-2.277,0-3.34-1.019-4.686-2.309c-1.452-1.392-3.098-2.969-6.329-2.969c-3.23,0-4.876,1.577-6.328,2.969
		c-1.346,1.29-2.409,2.309-4.685,2.309c-2.276,0-3.339-1.019-4.685-2.309c-1.452-1.391-3.098-2.969-6.328-2.969
		c-3.231,0-4.876,1.577-6.328,2.969c-1.346,1.29-2.409,2.308-4.684,2.308c-2.296,0-3.491-1.081-4.875-2.332
		c-1.346-1.217-2.855-2.574-5.394-2.878c-0.166-1.677-0.282-3.391-0.341-5.141c-0.039-1.177-0.045-2.324-0.019-3.443
		c1.608,0.292,2.571,1.192,3.65,2.211c1.471,1.389,3.138,2.963,6.431,2.963c3.29,0,4.971-1.572,6.454-2.959
		c1.33-1.244,2.479-2.319,4.832-2.319s3.502,1.074,4.832,2.318c1.483,1.387,3.164,2.959,6.455,2.959c3.29,0,4.971-1.572,6.454-2.959
		c1.33-1.244,2.479-2.319,4.832-2.319c2.354,0,3.503,1.074,4.833,2.319c1.483,1.387,3.164,2.959,6.455,2.959
		c3.294,0,4.962-1.574,6.432-2.963c1.081-1.02,2.041-1.924,3.651-2.215C132.141,100.868,132.136,102.017,132.096,103.196z"/>
</g>
</svg>
