<?xml version="1.0" encoding="utf-8"?>
<!-- Generator: Adobe Illustrator 17.0.0, SVG Export Plug-In . SVG Version: 6.00 Build 0)  -->
<!DOCTYPE svg PUBLIC "-//W3C//DTD SVG 1.1//EN" "http://www.w3.org/Graphics/SVG/1.1/DTD/svg11.dtd">
<svg version="1.1" id="Layer_1" xmlns="http://www.w3.org/2000/svg" xmlns:xlink="http://www.w3.org/1999/xlink" x="0px" y="0px"
	 width="200px" height="200px" viewBox="0 0 200 200" enable-background="new 0 0 200 200" xml:space="preserve">
<path fill="#97BF0D" d="M200,188.003c0,6.902-5.373,12.496-12,12.496H12c-6.627,0-12-5.595-12-12.496V12.11
	C0,5.208,5.373-0.387,12-0.387h176c6.627,0,12,5.595,12,12.496V188.003z"/>
<g>
	<path fill="#41281B" d="M122.183,104.665V84.67l-16.811-12.814V60.25h6.238v-6.674h-6.238v-6.569h-6.674v6.569h-6.238v6.674h6.238
		v11.606L81.886,84.67v19.994l-25.237,9.913v41.438h90.771v-41.438L122.183,104.665z M107.371,149.342H96.698v-20.915
		c0-2.943,2.394-5.337,5.337-5.337c2.943,0,5.336,2.394,5.336,5.336V149.342z M140.746,149.342h-10.014v-20.915h-6.674v20.915
		h-10.013v-20.915c0-6.623-5.388-12.011-12.01-12.011s-12.01,5.388-12.01,12.01v20.915H80.01v-20.915h-6.674v20.915H63.323v-30.215
		l25.237-9.913V87.975l13.475-10.271l13.474,10.271v21.239l25.237,9.913L140.746,149.342L140.746,149.342z"/>
	<rect x="98.697" y="90.004" fill="#41281B" width="6.674" height="13.253"/>
</g>
</svg>
