<?xml version="1.0" encoding="utf-8"?>
<!-- Generator: Adobe Illustrator 17.0.0, SVG Export Plug-In . SVG Version: 6.00 Build 0)  -->
<!DOCTYPE svg PUBLIC "-//W3C//DTD SVG 1.1//EN" "http://www.w3.org/Graphics/SVG/1.1/DTD/svg11.dtd">
<svg version="1.1" id="Layer_1" xmlns="http://www.w3.org/2000/svg" xmlns:xlink="http://www.w3.org/1999/xlink" x="0px" y="0px"
	 width="200px" height="200px" viewBox="0 0 200 200" enable-background="new 0 0 200 200" xml:space="preserve">
<path fill="#97BF0D" d="M200,188.003c0,6.902-5.373,12.496-12,12.496H12c-6.627,0-12-5.595-12-12.496V12.11
	C0,5.208,5.373-0.387,12-0.387h176c6.627,0,12,5.595,12,12.496V188.003z"/>
<path fill="#41281B" d="M161.39,106.109c-2.576,0-5.033,0.519-7.273,1.457l-5.356-10.392h7.486c0.812,0,1.473,0.661,1.473,1.473
	s-0.661,1.473-1.473,1.473h-1.597c-0.841,0-1.522,0.681-1.522,1.522c0,0.841,0.681,1.522,1.522,1.522h1.597
	c2.49,0,4.517-2.026,4.517-4.517s-2.026-4.517-4.517-4.517h-9.982c-0.531,0-1.023,0.277-1.3,0.73
	c-0.276,0.453-0.296,1.018-0.053,1.489l2.663,5.168H125.61l-2.216-4.343h3.504c0.841,0,1.522-0.681,1.522-1.522
	c0-0.841-0.681-1.522-1.522-1.522h-9.982c-0.841,0-1.522,0.681-1.522,1.522c0,0.841,0.681,1.522,1.522,1.522h3.061l2.958,5.797
	l-3.476,5.386c-2.661-1.434-5.702-2.248-8.931-2.248c-10.417,0-18.891,8.475-18.891,18.891s8.475,18.891,18.891,18.891
	c9.904,0,18.052-7.662,18.83-17.369h4.466l-1.735,5.645h-0.999c-0.841,0-1.522,0.681-1.522,1.522s0.681,1.522,1.522,1.522h5.479
	c0.841,0,1.522-0.681,1.522-1.522s-0.681-1.522-1.522-1.522h-1.296l2.003-6.517l12.664-19.547l1.475,2.862
	c-5.348,3.34-8.915,9.278-8.915,16.035c0,10.417,8.475,18.891,18.892,18.891c10.417,0,18.891-8.475,18.891-18.891
	C180.282,114.584,171.807,106.109,161.39,106.109z M124.534,106.106l8.863,17.372h-4.04c-0.439-5.476-3.223-10.3-7.344-13.466
	L124.534,106.106z M126.3,123.478h-12.979l7.034-10.897C123.644,115.19,125.878,119.072,126.3,123.478z M110.527,140.848
	c-8.739,0-15.848-7.109-15.848-15.848c0-8.738,7.109-15.848,15.848-15.848c2.621,0,5.092,0.643,7.272,1.774l-8.551,13.248
	c-0.302,0.468-0.324,1.064-0.058,1.553c0.266,0.489,0.779,0.794,1.336,0.794H126.3C125.531,134.549,118.752,140.848,110.527,140.848
	z M136.039,121.959l-8.877-17.398h20.148L136.039,121.959z M161.39,140.848c-8.739,0-15.848-7.109-15.848-15.848
	c0-5.58,2.901-10.492,7.272-13.316l7.222,14.014c0.27,0.524,0.802,0.825,1.354,0.825c0.235,0,0.473-0.055,0.696-0.169
	c0.747-0.385,1.041-1.303,0.656-2.05l-7.225-14.018c1.817-0.728,3.798-1.133,5.872-1.133c8.739,0,15.848,7.109,15.848,15.848
	C177.238,133.739,170.129,140.848,161.39,140.848z"/>
<g>
	<g>
		<path fill="#41281B" d="M24.389,119.942c-2.563,0.491-4.242,2.965-3.751,5.528c0.432,2.258,2.416,3.83,4.635,3.83
			c0.295,0,0.599-0.03,0.894-0.088l19.442-3.731c1.11-0.216,2.101-0.815,2.808-1.699l8.346-10.526l-2.789-1.424
			c-2.062-1.041-3.496-2.926-3.987-5.214l-7.875,9.927L24.389,119.942z"/>
		<circle fill="#41281B" cx="93.634" cy="68.548" r="10.35"/>
		<path fill="#41281B" d="M71.05,65.956c-1.09-1.119-2.101-1.561-3.211-1.561c-0.403,0-0.805,0.059-1.237,0.157l-17.763,4.212
			c-2.455,0.579-3.967,3.044-3.388,5.489c0.501,2.101,2.366,3.515,4.438,3.515c0.354,0,0.707-0.039,1.061-0.128l15.132-3.584
			c0.982,1.09,5.901,6.422,6.795,7.364l0,0c-6.255,6.697-12.51,13.384-18.765,20.08c-0.098,0.108-0.186,0.216-0.275,0.324
			c-1.826,2.327-1.267,5.98,1.483,7.364l3.329,1.699l15.848,8.091l-9.957,16.133c-1.365,2.219-0.677,5.126,1.542,6.5
			c0.776,0.481,1.63,0.707,2.474,0.707l0,0c1.581,0,3.132-0.795,4.026-2.239l12.647-20.493c0.697-1.129,0.884-2.494,0.52-3.761
			c-0.363-1.277-1.237-2.337-2.425-2.936l-12.991-6.608l13.659-14.611l10.31,8.739c0.854,0.727,1.905,1.08,2.946,1.08
			c1.119,0,2.239-0.412,3.113-1.218l11.832-11.027c1.846-1.718,1.954-4.605,0.236-6.451c-0.903-0.962-2.121-1.453-3.339-1.453
			c-1.11,0-2.229,0.403-3.103,1.218l-8.857,8.238C97.12,90.808,74.929,69.933,71.05,65.956z"/>
	</g>
</g>
</svg>
