<?xml version="1.0" encoding="utf-8"?>
<!-- Generator: Adobe Illustrator 17.0.0, SVG Export Plug-In . SVG Version: 6.00 Build 0)  -->
<!DOCTYPE svg PUBLIC "-//W3C//DTD SVG 1.1//EN" "http://www.w3.org/Graphics/SVG/1.1/DTD/svg11.dtd">
<svg version="1.1" id="Layer_1" xmlns="http://www.w3.org/2000/svg" xmlns:xlink="http://www.w3.org/1999/xlink" x="0px" y="0px"
	 width="200px" height="200px" viewBox="0 0 200 200" enable-background="new 0 0 200 200" xml:space="preserve">
<path fill="#97BF0D" d="M200,188.003c0,6.902-5.373,12.496-12,12.496H12c-6.627,0-12-5.595-12-12.496V12.11
	C0,5.208,5.373-0.387,12-0.387h176c6.627,0,12,5.595,12,12.496V188.003z"/>
<g>
	<g>
		<g>
			<path fill="#41281B" stroke="#41281B" stroke-miterlimit="10" d="M49.839,102.802c-0.055,0-0.11-0.019-0.155-0.057L31.621,87.354
				c-1.883-1.881-3.507-1.995-5.126-0.376c-0.744,0.743-1.113,1.474-1.128,2.234c-0.018,0.902,0.483,1.869,1.49,2.876l8.787,10.319
				c0.086,0.1,0.074,0.251-0.027,0.337c-0.1,0.086-0.251,0.074-0.337-0.027l-8.774-10.305c-1.089-1.088-1.638-2.173-1.617-3.209
				c0.018-0.889,0.433-1.727,1.269-2.562c1.799-1.8,3.746-1.678,5.788,0.362l18.049,15.379c0.1,0.086,0.112,0.237,0.027,0.337
				C49.974,102.774,49.907,102.802,49.839,102.802z"/>
			<g>
				<path fill="#41281B" stroke="#41281B" stroke-miterlimit="10" d="M51.13,139.962c-8.722,0-15.491-2.353-20.119-6.993
					c-8.06-8.081-8.026-21.347-8.006-29.273l0.002-1.137c0-0.132,0.107-0.239,0.239-0.239h55.766c0.132,0,0.239,0.107,0.239,0.239
					c0,0.463,0.002,0.951,0.005,1.455c0.32,3.531,0.189,14.655-4.187,23.776C70.687,135.871,62.635,139.962,51.13,139.962z
					 M23.485,102.798l-0.001,0.899c-0.02,7.852-0.054,20.993,7.866,28.933c4.535,4.547,11.19,6.852,19.78,6.852
					c11.316,0,19.228-4.007,23.514-11.911c4.328-9.022,4.453-20.041,4.135-23.525c-0.001-0.007-0.001-0.013-0.001-0.02
					c-0.002-0.423-0.004-0.834-0.005-1.229L23.485,102.798L23.485,102.798z"/>
				<path fill="#41281B" stroke="#41281B" stroke-miterlimit="10" d="M75.338,143.571H26.92c-0.132,0-0.239-0.107-0.239-0.239
					c0-3.208,2.931-5.968,8.254-7.77c0.125-0.042,0.261,0.025,0.303,0.15c0.042,0.125-0.025,0.261-0.15,0.303
					c-4.976,1.685-7.777,4.191-7.923,7.078H75.09c-0.184-2.457-3.196-4.905-8.328-6.752c-0.124-0.045-0.189-0.182-0.144-0.306
					c0.045-0.124,0.181-0.189,0.306-0.144c5.499,1.979,8.653,4.691,8.653,7.441C75.577,143.464,75.47,143.571,75.338,143.571z"/>
			</g>
			<g>
				<g>
					<path fill="#41281B" stroke="#41281B" stroke-miterlimit="10" d="M55.857,127.491c-0.439,0-0.846-0.041-1.21-0.118
						c-0.028-0.006-0.055-0.017-0.08-0.033l-1.492-0.96c-0.111-0.071-0.143-0.219-0.072-0.33c0.071-0.111,0.219-0.143,0.331-0.072
						l1.455,0.936c2.135,0.431,5.697-0.55,8.424-3.278c3.121-3.121,2.777-8.85,2.678-9.959c-1.111-0.102-6.861-0.462-9.978,2.657
						c-0.934,0.933-1.653,1.984-2.199,3.212c-0.054,0.12-0.194,0.175-0.316,0.121c-0.12-0.054-0.175-0.195-0.121-0.316
						c0.57-1.282,1.321-2.38,2.297-3.356c1.893-1.894,4.669-2.547,6.664-2.761c2.149-0.231,3.83-0.022,3.9-0.013
						c0.108,0.014,0.193,0.099,0.207,0.208c0.009,0.07,0.212,1.746-0.024,3.889c-0.219,1.991-0.877,4.761-2.771,6.655
						C61.052,126.474,58.052,127.491,55.857,127.491z"/>
				</g>
				<g>
					<path fill="#41281B" stroke="#41281B" stroke-miterlimit="10" d="M51.254,127.657c-0.007,0-0.015,0-0.022-0.001
						c-0.311-0.029-7.653-0.746-11.23-4.324c-2.402-2.402-3.236-5.921-3.513-8.449c-0.299-2.725-0.031-4.923-0.028-4.945
						c0.013-0.108,0.099-0.193,0.207-0.207c0.022-0.003,2.226-0.277,4.958,0.016c2.534,0.271,6.06,1.099,8.461,3.501
						c4.146,4.148,4.951,10.35,3.683,12.797c-0.019,0.037-0.048,0.068-0.083,0.091l-2.302,1.483
						C51.345,127.644,51.3,127.657,51.254,127.657z M36.915,110.186c-0.12,1.278-0.626,8.757,3.425,12.809
						c3.26,3.261,10.036,4.088,10.855,4.178l2.177-1.402c0.995-2.039,0.633-7.923-3.624-12.183
						C45.695,109.532,38.195,110.062,36.915,110.186z"/>
				</g>
			</g>
		</g>
	</g>
</g>
<g>
	<g>
		<g>
			<g>
				<path fill="#41281B" d="M119.346,69.665h-36.66c-0.924,0-1.667,0.743-1.667,1.66v5.007h0.056
					c0.583,14.069,8.417,25.264,18.271,26.438v33.945l-10.403,2.84c-0.917,0.25-1.458,1.208-1.215,2.146
					c0.243,0.931,1.188,1.486,2.097,1.236l11.188-3.056l11.181,3.056c0.917,0.25,1.854-0.306,2.104-1.236
					c0.243-0.938-0.299-1.889-1.215-2.146l-10.396-2.84v-33.945c9.861-1.174,17.694-12.368,18.271-26.438h0.062v-5.007
					C121.019,70.408,120.269,69.665,119.346,69.665L119.346,69.665z M117.686,74.665c0,13.806-7.465,25-16.667,25
					c-9.208,0-16.667-11.188-16.667-25v-1.667h33.333V74.665z"/>
			</g>
		</g>
	</g>
	<g>
		<g>
			<path fill="#41281B" d="M86.456,89.622c3.306,6.538,8.537,10.783,14.443,10.783c5.899,0,11.137-4.238,14.436-10.783
				L86.456,89.622z"/>
		</g>
	</g>
</g>
<g>
	<path fill="#41281B" d="M174.46,99.346c-7.496-12.22-22.712-16.645-35.682-11.041c-0.057-0.084-0.149-0.14-0.289-0.125
		c-12.998,1.414-20.466,13.471-20.2,25.865c0.281,13.108,7.241,24.746,20.472,27.745c11.106,2.518,25.912,0.505,34.021-8.185
		C180.927,124.88,180.437,109.09,174.46,99.346z M160.244,139.983c-12.877,3.947-30.125,2.443-37.205-10.591
		c-7.88-14.505-3.775-37.761,14.994-40.402c0.061,0.091,0.154,0.155,0.273,0.106c13.971-5.784,30.262-0.698,36.864,13.348
		c3.168,6.741,3.646,15.494,1.481,22.625C174.284,132.869,167.783,137.673,160.244,139.983z"/>
	<path fill="#41281B" d="M138.797,101.978c-0.437-0.336-1.063,0.133-0.886,0.647c0.03,0.089,0.151,0.051,0.138-0.037
		c-0.048-0.324,0.337-0.606,0.647-0.436C138.813,102.214,138.897,102.054,138.797,101.978z"/>
	<path fill="#41281B" d="M139.517,102.434c-0.146-0.033-0.199,0.171-0.061,0.222c-0.058,0.036-0.117,0.073-0.175,0.109
		c-0.007-0.134-0.197-0.133-0.207,0c-0.025,0.334,0.356,0.66,0.666,0.42C140.041,102.953,139.836,102.508,139.517,102.434z"/>
	<path fill="#41281B" d="M141.037,102.961c-0.374,0.016-0.525-0.172-0.454-0.566c0.04-0.071-0.058-0.153-0.116-0.089
		c-0.385,0.431,0.133,1.159,0.653,0.854C141.231,103.096,141.156,102.938,141.037,102.961z"/>
	<path fill="#41281B" d="M136.832,104.172c-0.077,0.099,0.055,0.24,0.141,0.141c0.301-0.345,0.685-0.051,0.822,0.27
		c0.03,0.072,0.15,0.05,0.165-0.021C138.087,103.955,137.161,103.753,136.832,104.172z"/>
	<path fill="#41281B" d="M138.439,105.117c-0.282,0.265-0.793,0.195-0.857-0.249c-0.016-0.11-0.194-0.082-0.193,0.026
		c0.011,0.634,0.934,0.983,1.289,0.407C138.771,105.151,138.564,105,138.439,105.117z"/>
	<path fill="#41281B" d="M157.899,105.751c-0.014,0.047,0,0.104,0.036,0.137c0.156,0.146,0.255,0.175,0.475,0.154
		c0.095-0.009,0.093-0.136,0-0.147c-0.202-0.16-0.182-0.237,0.059-0.235c0.149,0,0.252,0.07,0.309,0.207
		c0.078,0.145,0.272,0.039,0.247-0.104C158.929,105.179,158.05,105.224,157.899,105.751z"/>
	<path fill="#41281B" d="M159.741,105.739c-0.088-0.135-0.277-0.046-0.252,0.106c0.067,0.386-0.103,0.754-0.544,0.731
		c-0.119-0.006-0.149,0.189-0.029,0.211C159.469,106.892,160.089,106.277,159.741,105.739z"/>
	<path fill="#41281B" d="M159.642,105.358c-0.059,0.013-0.057,0.102,0,0.117c0.51,0.126,0.618,0.44,0.766,0.88
		c0.042,0.122,0.195,0.114,0.24,0C160.876,105.774,160.178,105.24,159.642,105.358z"/>
	<path fill="#41281B" d="M158.188,108.326c-0.196,0.235-0.109,0.668,0.232,0.666c0.08-0.001,0.104-0.13,0.019-0.145
		c-0.035-0.035-0.072-0.071-0.108-0.107c-0.011-0.215,0.084-0.257,0.284-0.125c0.271,0.065,0.269,0.104,0.449,0.284
		c0.087,0.086,0.273-0.001,0.221-0.129C159.132,108.401,158.556,107.886,158.188,108.326z"/>
	<path fill="#41281B" d="M160.045,109.143c-0.093,0.322-0.397,0.495-0.705,0.311c-0.129-0.077-0.275,0.105-0.162,0.21
		c0.412,0.381,1.171,0.109,1.148-0.483C160.319,109.021,160.09,108.984,160.045,109.143z"/>
	<path fill="#41281B" d="M150.911,94.31c-0.065,0-0.065,0.102,0,0.102S150.977,94.31,150.911,94.31z"/>
	<path fill="#41281B" d="M151.343,95.926c-0.171-0.291-0.619-0.691-0.934-0.327c-0.18,0.209-0.131,0.525,0.132,0.614
		c0.106,0.036,0.179-0.133,0.077-0.182c0.249-0.189,0.441-0.185,0.577,0.009C151.271,96.115,151.398,96.02,151.343,95.926z"/>
	<path fill="#41281B" d="M151.809,96.149c-0.032,0.299-0.185,0.389-0.459,0.272c-0.12-0.095-0.291,0.063-0.174,0.174
		c0.371,0.344,0.977,0.059,0.96-0.445C152.129,95.935,151.785,95.943,151.809,96.149z"/>
	<path fill="#41281B" d="M151.352,98.04c-0.295,0.108-0.352,0.474-0.163,0.69c0.064,0.074,0.19-0.022,0.136-0.105
		c0.182-0.348,0.328-0.358,0.434-0.03c0.037,0.097,0.084,0.191,0.138,0.279c0.048,0.086,0.182,0.046,0.182-0.049
		C152.082,98.489,151.776,97.884,151.352,98.04z"/>
	<path fill="#41281B" d="M151.145,97.737c-0.033-0.131-0.225-0.099-0.229,0.031c-0.012,0.318-0.318,0.653-0.686,0.459
		c-0.11-0.058-0.198,0.096-0.096,0.166C150.594,98.706,151.288,98.31,151.145,97.737z"/>
	<path fill="#41281B" d="M164.343,107.568c-0.47-0.766-1.627-0.026-1.521,0.733c0.007,0.052,0.087,0.036,0.089-0.012
		c0.025-0.691,0.8-0.801,1.289-0.576C164.288,107.753,164.402,107.665,164.343,107.568z"/>
	<path fill="#41281B" d="M164.7,107.695c-0.087-0.107-0.221,0.014-0.205,0.119c0.02,0.335-0.14,0.456-0.483,0.365
		c-0.105-0.078-0.234,0.093-0.139,0.18C164.302,108.756,165.098,108.188,164.7,107.695z"/>
	<path fill="#41281B" d="M164.652,107.162c-0.108,0.042-0.066,0.214,0.049,0.178c0.464-0.148,0.708,0.134,0.936,0.474
		c0.089,0.133,0.271,0.046,0.247-0.105C165.797,107.156,165.111,106.985,164.652,107.162z"/>
	<path fill="#41281B" d="M164.212,110.512c0.052,0.056,0.147,0.012,0.148-0.061l0.303-0.16c0.075,0.114,0.287,0.045,0.234-0.099
		C164.643,109.508,163.782,110.058,164.212,110.512z"/>
	<path fill="#41281B" d="M165.218,110.391c-0.126,0.453-0.614,0.721-1.046,0.487c-0.142-0.077-0.254,0.123-0.125,0.214
		c0.569,0.407,1.401,0.035,1.456-0.663C165.516,110.263,165.261,110.237,165.218,110.391z"/>
	<path fill="#41281B" d="M153.693,112.854c-0.416,0.375-1.026-0.163-0.745-0.601c0.077-0.12-0.107-0.222-0.189-0.11
		c-0.559,0.763,0.498,1.634,1.093,0.871C153.941,112.902,153.805,112.754,153.693,112.854z"/>
	<path fill="#41281B" d="M153.973,112.394c-0.101-0.079-0.245,0.06-0.144,0.144c0.283,0.232,0.319,0.61,0.084,0.899
		c-0.072,0.089,0.042,0.21,0.127,0.127C154.395,113.228,154.353,112.694,153.973,112.394z"/>
	<path fill="#41281B" d="M152.78,114.211c-0.363,0.231-0.542,0.056-0.539-0.527c0.067-0.105-0.091-0.23-0.175-0.135
		c-0.557,0.635,0.271,1.475,0.888,0.889C153.075,114.326,152.921,114.128,152.78,114.211z"/>
	<path fill="#41281B" d="M154.367,115.005c-0.066,0.154,0.152,0.291,0.23,0.135c0.23-0.153,0.4-0.147,0.507,0.018
		c0.086,0.1,0.214-0.012,0.198-0.116C155.229,114.561,154.535,114.614,154.367,115.005z"/>
	<path fill="#41281B" d="M157.401,122.645c-0.262,0.241-0.333,0.116-0.212-0.379c0.108-0.02,0.084-0.198-0.026-0.193
		c-0.401,0.02-0.737,0.439-0.477,0.817c0.236,0.345,0.748,0.267,0.925-0.085C157.676,122.677,157.509,122.529,157.401,122.645z"/>
	<path fill="#41281B" d="M157.883,122.376c-0.086-0.019-0.119,0.104-0.036,0.131c0.575,0.19,0.665,0.76,0.422,1.234
		c-0.104,0.201,0.175,0.362,0.302,0.177C158.973,123.335,158.524,122.522,157.883,122.376z"/>
	<path fill="#41281B" d="M158.384,124.424c-0.172,0.107-0.32,0.255-0.527,0.292c-0.183,0.097-0.337,0.037-0.465-0.18
		c-0.05-0.162,0.011-0.288,0.185-0.378c0.124-0.016,0.133-0.195,0-0.199c-0.445-0.015-0.649,0.54-0.445,0.896
		c0.334,0.58,1.221,0.275,1.468-0.213C158.666,124.506,158.525,124.335,158.384,124.424z"/>
	<path fill="#41281B" d="M161.152,124.388c0.023,0.131,0.232,0.099,0.229-0.031c0.333-0.405,0.558-0.442,0.675-0.112
		c0.069,0.151,0.27,0.034,0.247-0.104C162.172,123.319,161.011,123.575,161.152,124.388z"/>
	<path fill="#41281B" d="M161.888,125.589c-0.096-0.004-0.194-0.01-0.29-0.014c-0.026-0.153-0.266-0.112-0.267,0.036
		c-0.003,0.685,0.971,0.664,0.892-0.021C162.198,125.372,161.916,125.375,161.888,125.589z"/>
	<path fill="#41281B" d="M160.503,125.881c-0.1,0.067-0.014,0.209,0.093,0.16c0.051,0.072,0.103,0.144,0.153,0.215
		c-0.033,0.131,0.132,0.234,0.23,0.134C161.273,126.09,160.824,125.661,160.503,125.881z"/>
	<path fill="#41281B" d="M140.68,118.15c-0.234,0.132-0.362-0.026-0.387-0.471c0.099-0.085-0.03-0.253-0.139-0.18
		c-0.749,0.494,0.137,1.487,0.642,0.851C140.859,118.268,140.804,118.102,140.68,118.15z"/>
	<path fill="#41281B" d="M140.913,117.693c-0.088,0-0.087,0.132,0,0.135c0.619,0.027,0.544,0.602,0.414,0.976
		c-0.055,0.155,0.151,0.244,0.258,0.15C142.109,118.491,141.481,117.694,140.913,117.693z"/>
	<path fill="#41281B" d="M141.856,119.813c-0.086,0.284-0.31,0.252-0.67-0.099c0.001-0.107-0.171-0.137-0.193-0.026
		c-0.15,0.811,1.03,1.072,1.161,0.251C142.181,119.772,141.94,119.629,141.856,119.813z"/>
	<path fill="#41281B" d="M139.126,119.092c-0.075-0.005-0.093,0.12-0.018,0.133c0.301,0.146,0.372,0.331,0.211,0.557
		c-0.074,0.134,0.116,0.3,0.222,0.171C139.83,119.603,139.555,119.122,139.126,119.092z"/>
	<path fill="#41281B" d="M125.766,110.635c0.095-0.052,0.03-0.219-0.075-0.179c-0.298,0.111-0.76,0.378-0.792,0.743
		c-0.027,0.302,0.255,0.474,0.515,0.406c0.145-0.037,0.119-0.221,0-0.269C125.005,111.171,125.66,110.693,125.766,110.635z"/>
	<path fill="#41281B" d="M126.724,111.162c-0.004-0.062-0.048-0.111-0.114-0.114c-0.172-0.004-0.344-0.009-0.516-0.013
		c-0.127-0.003-0.123,0.185,0,0.196c0.136,0.012,0.272,0.024,0.408,0.035c0.002,0.208,0.003,0.412,0.033,0.619
		c0.018,0.124,0.199,0.084,0.207-0.028C126.759,111.624,126.74,111.396,126.724,111.162z"/>
	<path fill="#41281B" d="M127.164,112.48c-0.111,0.015-0.12,0.186,0,0.181c0.359,0.115,0.483,0.305,0.373,0.57
		c-0.05,0.145,0.178,0.241,0.247,0.104C128.008,112.901,127.648,112.416,127.164,112.48z"/>
	<path fill="#41281B" d="M173.03,111.56c0.808-1.88,0.457-4.387-0.525-6.221c-0.597-1.113-1.416-2.027-2.356-2.749
		c0.182,0.033,0.397-0.164,0.282-0.381c-5.639-10.585-18.608-14.518-29.594-10.131c-0.062,0.025-0.069,0.089-0.043,0.133
		c-1.635-0.157-3.285,0.099-4.812,0.824c-1.241,0.589-2.658,1.565-3.205,2.866c-0.243-1.028-2.455,0.731-2.711,1.102
		c-1.073,1.562-0.707,3.715,0.746,4.896c0.041,0.829,0.251,1.69,0.582,2.501c-3.733-1.835-3.153-9.656,1.69-9.242
		c0.179,0.015,0.219-0.276,0.043-0.314c-3.162-0.678-4.808,2.466-4.679,5.452c-0.032-0.117-0.14-0.214-0.294-0.175
		c-4.563,1.175-7.103,5.977-5.273,10.273c-1.62,1.31-1.794,3.602-1.307,5.529c0.394,1.556,1.215,3.726,3.06,3.776
		c0.01,0.093,0.007,0.184,0.02,0.277c0.092,0.648,0.327,1.501,0.709,2.254c-0.334,0.126-0.481,0.713-0.537,1.056
		c-0.154,0.958,0.094,1.967,0.647,2.762c0.932,1.34,3.167,2.136,4.637,1.192c0.504,0.031,1.034-0.041,1.557-0.243
		c0.692-0.268,1.265-0.727,1.648-1.298c-1.145,3.218-5.142,3.746-7.703,1.504c-2.189-1.918-2.4-4.838-1.068-7.304
		c0.067-0.125-0.111-0.283-0.207-0.16c-2.189,2.802-1.141,6.774,1.855,8.541c0.455,0.269,0.978,0.445,1.518,0.574l0,0
		c0.77,2.81,3.924,4.871,6.337,6.245c3.023,1.723,6.431,2.678,9.903,2.793c0.339,0.011,0.329-0.492,0-0.52
		c-1.513-0.129-3.182-0.416-4.865-0.869c0.689,0.101,1.321,0.153,1.822,0.148c0.099-0.001,0.168-0.043,0.215-0.103
		c1.167,0.589,2.459,0.843,3.736,0.761c0.029,0.055,0.062,0.107,0.094,0.16c0.238,0.605,0.713,1.013,1.309,1.267
		c1.671,1.001,4.13,1.057,5.746,0.371c0.87-0.37,1.565-0.974,2.077-1.698c1.615,0.423,3.451,0.019,4.772-0.991
		c0.018,0.034,0.048,0.064,0.095,0.08c3.777,1.294,7.544-1.934,7.061-5.842c1.47,0.967,3.727,0.971,4.76-0.613
		c0.019-0.011,0.041-0.012,0.058-0.034c0.384-0.497-0.078-1.103-0.637-1.141c-0.088-0.006-0.124,0.094-0.094,0.161
		c-0.561,0.31-0.994,0.692-1.669,0.825c-0.733,0.145-1.468,0.017-2.12-0.328c1.386,0.061,2.735-0.549,3.982-2.093
		c1.872-2.32,2.316-5.528,1.116-8.25c-0.032-0.074-0.095-0.1-0.162-0.106c0.023-0.086,0.057-0.169,0.076-0.256
		c1.368-0.194,2.375-1.795,2.686-3.032C174.39,114.268,173.964,112.77,173.03,111.56z M171.506,104.703
		c1.957,2.856,2.212,7.053-1.186,8.747c0.142-0.511,0.212-1.031,0.199-1.544c2.168-1.252,1.806-4.767,0.858-6.682
		c-1.401-2.832-4.54-4.133-7.513-3.084c-0.037,0.013-0.054,0.041-0.074,0.065c-0.161-0.073-0.318-0.151-0.485-0.207
		c-0.049-0.176-0.116-0.337-0.18-0.499C166.35,100.739,169.594,101.914,171.506,104.703z M162.596,132.6
		c0.38-0.151,0.746-0.337,1.094-0.55c-0.229,1.031-0.232,1.936-1.055,2.752c-0.805,0.799-1.918,1.071-3.007,0.892
		c0.237-0.282,0.452-0.582,0.613-0.918c0.693,0.135,1.371-0.117,1.846-0.646C162.409,133.766,162.725,133.116,162.596,132.6z
		 M158.389,132.333c-2.954-0.824-4.233-4.033-2.902-6.73c0.172,0.222,0.366,0.427,0.597,0.595c-0.221,2.038,0.978,4,2.982,4.624
		c1.823,0.567,4.232-0.096,5.011-1.92c0.456,0.239,0.911,0.402,1.364,0.511C164.066,131.808,161.087,133.086,158.389,132.333z
		 M149.731,136.305c-0.031-0.115-0.181-0.154-0.265-0.07c-0.403,0.407-0.529,0.901-1.101,1.171c-0.142,0.067-0.295,0.115-0.45,0.147
		c-0.001-0.045-0.061-0.065-0.076-0.016c-0.003,0.01,0.001,0.015-0.001,0.025c-0.11,0.018-0.221,0.036-0.331,0.034
		c-0.126-0.002-1.246-0.23-0.965-0.504c0.03-0.029,0.033-0.06,0.027-0.09c0.27-0.087,0.536-0.187,0.796-0.309
		c0.027-0.013,0.03-0.04,0.048-0.058c0.736,0.079,1.499-0.087,2.101-0.526c0.7-0.511,1.08-1.326,1.145-2.168
		c0.186,0.037,0.375,0.037,0.562,0.046c-0.011,0.858-0.169,1.655-0.692,2.373c-0.267,0.366-0.586,0.682-0.973,0.925
		c-0.019,0.013-0.126,0.063-0.269,0.126C149.628,137.112,149.849,136.735,149.731,136.305z M129.909,120.925
		c-0.061,0.045-0.092,0.125-0.018,0.186c0.06,0.049,0.127,0.086,0.191,0.127c0.012,0.017,0.02,0.035,0.032,0.052
		c-0.087,0.029-0.177,0.046-0.26,0.086c-0.043,0.02-0.063,0.05-0.076,0.081c-0.184-0.03-0.358-0.012-0.523,0.042
		c0-0.012,0.009-0.021,0.005-0.033c-0.354-1.503,0.038-2.653,0.997-3.739c0.207,0.791,0.811,1.528,1.47,2.123
		c-0.371,0.29-0.874,0.36-1.221-0.071c-0.017-0.021-0.04-0.027-0.063-0.031c0.126-0.18,0.286-0.326,0.426-0.521
		c0.104-0.144-0.068-0.286-0.204-0.266c-0.49,0.074-0.79,0.694-0.856,1.137C129.764,120.396,129.804,120.671,129.909,120.925z
		 M128.957,121.594c0.007,0.017,0.024,0.019,0.034,0.031c-0.251,0.152-0.47,0.395-0.659,0.682c-0.142-0.31-0.236-0.885-0.336-1.209
		c-0.151-0.484-0.272-0.989-0.282-1.499c-0.022-1.137,0.402-2.221,1.336-2.909c0.033-0.025,0.04-0.059,0.056-0.09
		c0.35,0.14,0.71,0.253,1.078,0.33c-0.009,0.073,0.005,0.145,0.004,0.216C128.771,118.024,128.28,120.128,128.957,121.594z
		 M127.649,125.029c-0.637-0.132-1.182-0.588-1.028-1.316c0.312,0.183,0.66,0.287,1.051,0.266c0.004,0,0.01,0.005,0.014,0.005
		c-0.063,0.328-0.099,0.637-0.074,0.873C127.618,124.92,127.64,124.969,127.649,125.029z M127.996,116.004
		c0.226,0.145,0.459,0.279,0.697,0.395c-0.82,0.589-1.337,1.426-1.478,2.444c-0.084,0.604-0.027,1.222,0.117,1.813
		c0.081,0.335,0.191,0.666,0.333,0.981c0.241,0.529,0.268,0.265,0.545,0.764c0.014,0.024,0.035,0.013,0.056,0.015
		c-0.229,0.377-0.402,0.818-0.515,1.243C125.745,121.236,125.921,118.286,127.996,116.004z M126.191,113.154
		c-0.328,0.177-0.274,0.629,0.012,0.831c0.086,0.06,0.176,0.078,0.265,0.089c-0.127,0.022-0.255,0.044-0.386,0.048
		c-1.348,0.042-2.41-0.613-2.388-2.046c0.001-0.089,0.015-0.181,0.026-0.271c0.073-0.106,0.129-0.219,0.211-0.321
		c0.107-0.133,0.048-0.288-0.057-0.369c0.295-0.846,0.941-1.592,1.827-1.745c0.018,0.103,0.094,0.199,0.216,0.199
		c1.226,0.006,2.396,0.647,2.581,1.952c0.165,1.166-0.577,2.075-1.575,2.432c0.161-0.102,0.304-0.242,0.392-0.393
		c0.077-0.133-0.075-0.271-0.204-0.204c-0.087,0.043-0.171,0.089-0.252,0.141c-0.16,0.159-0.328,0.115-0.504-0.131
		C126.477,113.265,126.322,113.084,126.191,113.154z M126.111,114.72c-0.357,0.433-0.645,0.903-0.878,1.397
		c-0.003-0.002-0.002-0.006-0.005-0.009c-0.568-0.423-0.435-0.992-0.159-1.497C125.397,114.689,125.746,114.731,126.111,114.72z
		 M126.665,106.818c0.027,0.329,0.094,0.652,0.18,0.972c-0.339-0.109-0.69,0.06-0.926,0.312c-0.27,0.287-0.287,0.55-0.234,0.898
		c-0.358,0.022-0.686,0.132-0.981,0.298c-0.166-1.244,0.631-2.259,1.792-2.646c0.191-0.063,0.175-0.396-0.05-0.374
		c-1.496,0.154-2.494,1.817-2.15,3.232c0.005,0.024,0.026,0.029,0.036,0.047c-0.166,0.135-0.313,0.296-0.449,0.466
		c-0.213-2.294,0.934-4.314,3.015-5.344c0.224-0.111,0.064-0.506-0.172-0.409c-1.633,0.66-2.763,2.159-3.1,3.834
		c0.194-2.468,1.427-4.573,4.049-5.481C127.007,103.989,126.626,106.333,126.665,106.818z M126.909,108.019
		c0.154,0.492,0.369,0.966,0.644,1.401c-0.451-0.229-0.959-0.349-1.475-0.306c-0.016-0.067-0.061-0.127-0.152-0.133
		c0.102-0.501,0.528-0.739,0.952-0.932C126.894,108.042,126.898,108.029,126.909,108.019z M128.908,110.899
		c0.311,0.228,0.652,0.407,1.009,0.552c-0.131,0.408-0.386,0.724-0.85,0.801c0.029-0.202,0.037-0.412,0.02-0.63
		C129.068,111.368,128.998,111.129,128.908,110.899z M129.009,112.491c0.542-0.009,1.111-0.392,1.23-0.916
		c0.182,0.058,0.372,0.1,0.562,0.134c-0.122,0.333-0.285,0.621-0.612,0.867c-0.396,0.297-0.857,0.427-1.339,0.388
		C128.916,112.811,128.97,112.654,129.009,112.491z M131.242,111.756c0.112,0.009,0.222,0.026,0.337,0.025
		c0.099,0.26,0.217,0.513,0.351,0.76c-0.853,1.301-2.197,1.524-3.618,1.211c0.148-0.16,0.285-0.33,0.394-0.52
		C129.702,113.49,131.046,112.806,131.242,111.756z M132.718,106.459c0.133,0.141,0.255,0.297,0.4,0.424
		c-1.68,2.675-0.381,7.425,3.229,7.601c0.003,0.231,0.034,0.461,0.059,0.69c-2.724-0.452-4.304-2.414-4.577-4.68
		c0.041-0.029,0.082-0.049,0.122-0.085c0.138-0.123,0.01-0.33-0.153-0.321C131.738,108.886,132.031,107.619,132.718,106.459z
		 M131.697,105.844c-0.084-0.267-0.082-0.531-0.017-0.785c0.006,0.001,0.012,0.003,0.018,0.005c0.216,0.412,0.482,0.784,0.772,1.131
		c-0.094,0.114-0.166,0.232-0.25,0.349C132.008,106.348,131.804,106.184,131.697,105.844z M135.437,105.247
		c-2.207-1.705-2.926-6.253,0.832-6.583c0.018-0.001,0.025-0.016,0.041-0.02c-0.079,0.257-0.142,0.517-0.169,0.781
		c-2.689-0.025-3.402,3.889-0.859,4.848c0.045,0.017,0.078-0.003,0.102-0.033c0.071,0.335,0.194,0.658,0.37,0.955
		c-0.016,0.011-0.034,0.016-0.045,0.036c-0.229,0.449-0.348,0.903-0.417,1.355c-0.005-0.004-0.005-0.011-0.012-0.014
		c-1.863-0.919-3.023-2.858-2.611-4.969c0.179-0.912,0.612-1.644,1.188-2.242c-1.363,1.748-0.816,4.941,1.413,6.101
		C135.4,105.527,135.564,105.346,135.437,105.247z M139.615,95.054c-0.267,0.127-0.529,0.27-0.781,0.435
		c-0.702-0.918-2.181-0.663-2.545,0.425c-0.25,0.001-0.495,0.035-0.739,0.074C136.365,94.507,138.189,94.029,139.615,95.054z
		 M135.14,96.07c-0.461,0.111-0.901,0.295-1.319,0.522c-0.336-1.339,2.866-2.45,3.692-2.571c1.302-0.192,2.336,0.142,3.484,0.595
		c-0.28,0.054-0.559,0.125-0.836,0.225C138.451,93.367,135.903,93.994,135.14,96.07z M142.281,95.006
		c-0.096,0.372-0.16,0.752-0.172,1.134c-1.349-0.176-2.763,0.307-3.687,1.321c-0.767,0.841-1.486,2.423-0.921,3.533
		c-0.252,0.059-0.493,0.153-0.72,0.273c-0.009-0.021-0.01-0.043-0.017-0.064c0.178,0.007,0.305-0.254,0.114-0.335
		c-0.076-0.032-0.151-0.051-0.225-0.071c-0.315-1.474,0.44-3.122,1.491-4.139C139.348,95.49,140.674,95.157,142.281,95.006z
		 M152.186,94.583c4.143-1.881,8.425,0.395,9.104,4.715c-0.327-0.208-0.67-0.392-1.038-0.526c-0.001-0.007,0.005-0.012,0.004-0.019
		c-0.576-3.443-4.086-4.172-7.053-3.519c-0.379-0.342-0.846-0.582-1.376-0.643c-0.009-0.031-0.022-0.059-0.042-0.081
		c0.061-0.085,0.085-0.199-0.005-0.299c-1.577-1.744-4.325-2.195-6.246-0.719c-1.202,0.923-2.87,4.019-1.189,5.212
		c0.005,0.003,0.013-0.003,0.018,0c-0.092,0.162-0.164,0.335-0.239,0.507c-3.843-5.056,5.497-10.077,8.794-5.336
		c-0.302,0.121-0.603,0.258-0.899,0.43C151.839,94.409,152,94.666,152.186,94.583z M166.792,100.8
		c-1.217-1.977-3.216-3.281-5.519-3.502c-0.157-0.352-0.35-0.681-0.562-0.994c3.602-0.357,6.174,1.792,7.323,5.093
		c-0.41-0.153-0.829-0.285-1.261-0.37C166.816,100.956,166.834,100.867,166.792,100.8z M166.138,100.919
		c-0.326-0.035-0.653-0.06-0.985-0.054c0.023-0.032,0.035-0.071,0.015-0.119c-0.53-1.306-2.209-2.143-3.498-2.45
		c-0.013-0.003-0.02,0.005-0.032,0.005c-0.069-0.259-0.152-0.51-0.25-0.754c0.903,0.179,1.773,0.483,2.564,0.97
		c0.456,0.281,0.883,0.613,1.267,0.987c0.232,0.226,0.442,0.467,0.642,0.723c0.102,0.119,0.195,0.245,0.279,0.377
		c0.009,0.033,0.03,0.039,0.044,0.06c-0.058,0.036-0.1,0.099-0.078,0.181C166.112,100.877,166.127,100.893,166.138,100.919z
		 M158.742,127.65c0.465,0.122,0.955-0.111,1.204-0.491c0.455,0.403,1.091,0.589,1.704,0.566c-0.514,0.688-1.122,1.234-2.09,1.212
		c-1.235-0.03-2.147-1.058-2.259-2.24c0.216,0.032,0.44,0.048,0.679,0.03C158.031,127.147,158.276,127.529,158.742,127.65z
		 M158.271,126.682c0.438-0.078,0.817-0.23,1.138-0.441c0.007,0.097,0.022,0.193,0.058,0.273c0.047,0.107,0.108,0.205,0.172,0.299
		c-0.185,0.283-0.463,0.489-0.839,0.393C158.54,127.138,158.36,126.927,158.271,126.682z M158.183,126.016
		c-0.039-0.018-0.082-0.012-0.11,0.026c-0.006,0.001-0.012,0.003-0.018,0.004c-1.147,0.153-2.327-0.605-2.63-1.738
		c-0.329-1.226,0.386-2.377,1.431-2.958c0.013-0.007,0.015-0.02,0.024-0.029c0.501,0.003,1.002-0.043,1.5-0.134
		c1.027,0.423,1.85,1.32,1.804,2.501C160.139,124.809,159.271,125.803,158.183,126.016z M149.734,130.464
		c0.01-0.022,0.01-0.046,0.008-0.069c0.578,0.071,1.159,0.1,1.726,0.101c-0.054,0.085-0.1,0.174-0.159,0.267
		c-0.136,0.213-0.325,0.397-0.54,0.531c-0.299,0.186-0.629,0.268-0.965,0.253c-0.228-0.212-0.487-0.404-0.793-0.545
		C149.323,130.926,149.6,130.76,149.734,130.464z M148.303,130.756c-0.456-0.107-0.933-0.133-1.376-0.048
		c0.133-0.202,0.253-0.417,0.356-0.648c0.035-0.079,0.031-0.154,0.01-0.222c0.676,0.247,1.413,0.415,2.163,0.523
		C149.074,130.613,148.751,130.806,148.303,130.756z M150.97,131.637c0.37-0.206,0.893-0.675,0.846-1.142
		c0.438-0.011,0.857-0.046,1.261-0.095c-0.163,0.593-0.349,1.101-0.862,1.566c-0.478,0.433-1.07,0.701-1.696,0.757
		c-0.092-0.294-0.215-0.577-0.395-0.829C150.416,131.871,150.705,131.784,150.97,131.637z M144.406,125.911
		c0.315,0.013,0.631,0.013,0.948-0.013c0.598,3.471,7.235,4.241,9.081,1.513c0.016-0.025,0.008-0.048,0.014-0.073
		c0.02-0.001,0.039,0.001,0.059-0.001c-0.14,0.731-0.067,1.485,0.164,2.197C151.489,130.104,144.932,130.488,144.406,125.911z
		 M146.921,125.826c0.973,1.236,3.421,2.095,4.755,0.901c0.61,0.369,1.319,0.589,2.123,0.623c-1.231,1.095-2.658,1.312-4.317,0.96
		c-1.426-0.303-3.334-0.862-3.786-2.437c0.405-0.051,0.81-0.129,1.208-0.25C146.877,125.686,146.867,125.758,146.921,125.826z
		 M138.148,122.333c-0.334,0.101-0.676,0.044-0.949-0.163c0.024-0.145,0.048-0.291,0.037-0.435c0.378-0.052,0.754-0.134,1.124-0.269
		c0.067,0.199,0.152,0.382,0.234,0.569C138.474,122.161,138.346,122.273,138.148,122.333z M138.829,122.521
		c0.124,0.23,0.26,0.449,0.407,0.658c-0.036-0.013-0.074-0.021-0.116-0.01c-0.407,0.119-0.742,0.286-1.182,0.274
		c-0.405-0.011-0.769-0.141-1.104-0.348c0.119-0.194,0.222-0.401,0.29-0.616C137.594,122.787,138.377,122.838,138.829,122.521z
		 M141.758,116.729c0.026,0.051,0.072,0.097,0.144,0.126c1.673,0.66,1.834,2.732,0.362,3.727c-0.936,0.633-2.334,0.655-3.312,0.092
		C136.716,119.39,139.409,115.647,141.758,116.729z M137.492,119.764c-0.751,0.424-2.575-0.206-3.152-0.438
		c-0.883-0.356-2.559-1.158-2.719-2.264c0.182-0.005,0.365-0.007,0.547-0.029c0.964,1.538,3.623,2.964,5.321,1.726
		c0.024-0.017,0.036-0.044,0.05-0.069C137.448,119.051,137.428,119.415,137.492,119.764z M137.394,118.4
		c-0.884,0.058-1.62,0.296-2.525,0.082c-0.934-0.22-1.729-0.752-2.327-1.491c0.332-0.061,0.66-0.148,0.98-0.269
		c0.005,0.01,0.001,0.019,0.009,0.029c0.717,0.907,2.541,1.519,3.517,0.634c0.167,0.333,0.366,0.649,0.607,0.937
		c-0.035,0.092-0.061,0.186-0.088,0.28C137.578,118.498,137.527,118.391,137.394,118.4z M136.597,116.184
		c0.071,0.271,0.165,0.534,0.269,0.792c-0.483,0.167-0.883,0.38-1.436,0.354c-0.62-0.029-1.187-0.301-1.621-0.737
		c0.276-0.122,0.553-0.251,0.813-0.421c0.075,0.074,0.154,0.14,0.223,0.189C135.322,116.698,136.452,117.004,136.597,116.184z
		 M134.996,115.912c0.157-0.121,0.312-0.249,0.46-0.39c0.014-0.013,0.011-0.03,0.019-0.044c0.324,0.106,0.658,0.195,1.01,0.25
		c0.02,0.104,0.051,0.206,0.076,0.309c-0.054-0.05-0.138-0.074-0.198-0.031C135.83,116.383,135.432,116.204,134.996,115.912z
		 M135.21,101.799c0.24-0.474,0.719-0.646,1.205-0.623c0.036,0.084,0.061,0.168,0.105,0.251c-0.583,0.391-1.01,0.992-1.154,1.739
		C135.101,102.769,134.995,102.223,135.21,101.799z M135.353,104.063c-1.98-1.208-1.427-3.826,0.773-4.217
		c0.004,0.298,0.034,0.597,0.119,0.891c-1.307,0.015-2.108,1.831-0.921,2.714C135.307,103.659,135.323,103.862,135.353,104.063z
		 M136.803,101.796c0.058-0.002,0.111-0.036,0.125-0.093c0.478-0.333,1.056-0.531,1.647-0.521c0.021,0.02,0.04,0.043,0.065,0.06
		c0.073,0.047,0.187,0.048,0.26,0c0.041-0.027,0.066-0.051,0.097-0.077c0.889,0.182,1.865,0.471,2.365,1.174
		c-0.013,0.037-0.014,0.079,0.021,0.12c0.037,0.043,0.085,0.086,0.127,0.129c0.12,0.25,0.197,0.537,0.192,0.886
		c-0.011,0.755-0.375,1.449-0.914,1.97c-0.082-0.007-0.154,0.05-0.153,0.127c-0.185,0.159-0.39,0.29-0.601,0.408
		c-0.009-0.009-0.018-0.016-0.027-0.025c-0.096-0.097-0.275,0.03-0.199,0.148c-0.3,0.137-0.616,0.227-0.936,0.259
		c-1.504,0.147-3.002-1.045-3.047-2.609C135.804,102.951,136.209,102.261,136.803,101.796z M143.645,101.702
		c0.002,0.087,0.002,0.172,0.005,0.26c-0.853-0.108-1.601-0.382-2.259-0.897c0.182-0.471,0.595-0.782,1.058-0.848
		C142.015,100.907,142.949,101.712,143.645,101.702z M142.573,100.205c0.374-0.017,0.771,0.121,1.105,0.472
		c0.009,0.009,0.02,0.005,0.03,0.013c-0.03,0.2-0.05,0.403-0.063,0.606c-0.324-0.052-0.604-0.155-0.802-0.452
		c-0.13-0.195-0.156-0.423-0.254-0.631C142.585,100.207,142.578,100.209,142.573,100.205z M143.714,102.444
		c0.028,0.175,0.069,0.342,0.11,0.51c-0.327,0.009-0.646,0.054-0.987-0.021c-0.29-0.063-0.556-0.185-0.809-0.332
		c-0.151-0.401-0.407-0.739-0.737-1.01c0.001-0.044,0.019-0.078,0.022-0.121C141.965,102.07,142.819,102.456,143.714,102.444z
		 M162.549,101.633c0.015-0.004,0.03-0.005,0.045-0.011c0.049,0.08,0.11,0.145,0.157,0.228c-0.407-0.087-0.823-0.129-1.238-0.112
		c-1.283-2.698-4.496-2.781-6.931-1.753c-0.055-0.108-0.091-0.23-0.142-0.341c3.052-1.617,6.194-0.941,8.001,1.755
		C162.339,101.488,162.396,101.68,162.549,101.633z M156.694,102.771c0.326-0.101,0.634-0.108,0.96-0.006
		c0.265,0.082,0.453,0.264,0.691,0.384c-0.182,0.196-0.354,0.411-0.511,0.651c-0.751-0.527-1.396-1.125-1.95-1.787
		c1.147-0.312,2.25-0.161,3.285,0.457c-0.217,0.145-0.427,0.306-0.625,0.495c-0.319-0.673-1.354-0.686-1.939-0.406
		C156.484,102.614,156.569,102.809,156.694,102.771z M161.111,116.169c0.009-0.025-0.006-0.043-0.005-0.065
		c0.314,0.328,0.671,0.588,1.052,0.797c-0.04,0.014-0.079,0.029-0.11,0.07c-2.895,3.787-7.92,3.747-10.432-0.334
		c0.228-0.044,0.455-0.084,0.687-0.164c0.205,0.103,0.419,0.184,0.637,0.255c-0.059,0.025-0.102,0.081-0.073,0.154
		C154.481,120.892,159.787,119.742,161.111,116.169z M148.813,120.19c-2.107-1.021-2.795-3.146-1.702-5.079
		c0.219,0.216,0.44,0.43,0.686,0.61c-0.96,1.278-0.41,3.36,1.032,4.036c0.004,0.002,0.008-0.001,0.012,0.001
		C148.826,119.9,148.82,120.045,148.813,120.19z M148.819,121.273c-0.015-0.01-0.027-0.022-0.047-0.025
		c-3.173-0.355-4.421-5.498-2.979-7.953c0.269,0.528,0.599,1.023,0.985,1.464c-1.41,1.99-0.544,4.969,1.944,5.652
		c0.029,0.007,0.055,0.001,0.077-0.01C148.79,120.691,148.801,120.983,148.819,121.273z M147.392,114.654
		c0.02-0.027,0.031-0.056,0.051-0.082c0.138-0.182-0.16-0.403-0.314-0.242c-0.005,0.006-0.01,0.013-0.016,0.018
		c-0.412-0.471-0.753-1.007-1.013-1.577c0.005-0.08-0.027-0.15-0.087-0.196c-0.766-1.835-0.662-3.992,0.867-5.579
		c0.217,0.132,0.439,0.256,0.67,0.367c-1.098,1.31-1.25,3.109-0.541,4.668c0.599,1.317,2.468,3.376,4.083,3.515
		c0.072,0.09,0.141,0.182,0.227,0.264c0.155,0.149,0.337,0.269,0.517,0.39C150.117,116.489,148.541,115.804,147.392,114.654z
		 M139.595,107.974c0.543,0.144,1.329,0.043,1.618-0.504c0.439,0.319,0.929,0.591,1.434,0.791c-1.013,0.47-2.001,0.85-3.18,0.505
		c-1.062-0.311-1.81-1.111-2.122-2.132c0.275,0.12,0.561,0.215,0.862,0.25c0.082,0.01,0.164,0.004,0.245,0.006
		C138.627,107.436,139.018,107.821,139.595,107.974z M138.723,106.895c0.49-0.031,0.965-0.18,1.403-0.409
		c0.228,0.26,0.504,0.511,0.797,0.75c-0.4,0.213-0.727,0.384-1.208,0.299C139.329,107.466,138.938,107.235,138.723,106.895z
		 M143.254,108.461c0.735,0.19,1.481,0.195,2.149-0.086c-0.011,0.028-0.016,0.057-0.027,0.085c-0.1-0.045-0.227-0.029-0.297,0.089
		c-2.067,3.496-8.072,1.248-8.504-2.385c0.093,0.074,0.186,0.148,0.286,0.212C137.27,109.373,141.081,110.286,143.254,108.461z
		 M142.746,107.697c-0.888-0.29-1.647-0.76-2.33-1.366c0.19-0.121,0.373-0.253,0.54-0.405c1.362,1.248,3.714,1.884,5.384,0.956
		c-0.345,0.375-0.599,0.79-0.802,1.221c-0.023-0.041-0.052-0.074-0.101-0.084C144.535,107.854,143.651,107.992,142.746,107.697z
		 M143.482,105.954c0.547,0.082,1.292,0.036,1.784-0.306c0.245,0.276,0.521,0.526,0.809,0.762c-1.814,0.359-3.307,0.376-4.882-0.717
		c0.201-0.217,0.384-0.452,0.529-0.708C142.175,105.505,142.786,105.848,143.482,105.954z M141.871,104.719
		c0.091-0.199,0.164-0.406,0.214-0.62c0.289,0.286,0.648,0.493,1.06,0.582c0.381,0.082,0.96,0.091,1.317-0.151
		c0.138,0.245,0.295,0.477,0.462,0.7c-0.423,0.13-0.805,0.299-1.311,0.266C142.943,105.452,142.358,105.162,141.871,104.719z
		 M146.037,96.683c0.062-0.629,0.546-1.222,1.216-1.222c0.48,0,0.736,0.285,1.07,0.544c-1.12,0.126-2.1,0.598-2.871,1.293
		c-0.43-2.41,2.364-4.192,4.255-2.439c-0.415,0.243-0.777,0.576-1.036,0.988c-0.163-0.655-1.095-0.946-1.689-0.817
		c-0.769,0.166-1.262,0.885-1.207,1.654C145.786,96.853,146.021,96.851,146.037,96.683z M148.857,99.116
		c-0.003,0.004-0.007,0.003-0.011,0.007c-0.442,0.718-0.249,2.285,0.809,2.351c0.011,0.513,0.096,1.02,0.255,1.501
		c-2.042-0.486-2.8-2.831-1.429-4.514C148.582,98.691,148.702,98.914,148.857,99.116z M149.038,99.32
		c0.262,0.29,0.571,0.539,0.92,0.713c-0.082,0.007-0.161,0.043-0.186,0.152c-0.07,0.305-0.096,0.615-0.111,0.923
		c-0.229-0.198-0.461-0.347-0.603-0.653C148.883,100.081,148.869,99.692,149.038,99.32z M148.329,98.207
		c-2.014,1.866-0.777,5.05,1.824,5.345c0.136,0.28,0.291,0.551,0.486,0.799c-0.094,0.171-0.168,0.345-0.238,0.521
		c-1.553-0.358-2.95-1.041-3.493-2.7c-0.543-1.655,0.124-3.306,1.321-4.458c0.02-0.02,0.026-0.044,0.029-0.069
		c0.027,0.183,0.059,0.366,0.118,0.542C148.359,98.195,148.344,98.193,148.329,98.207z M150.191,100.15
		c0.176,0.069,0.359,0.121,0.547,0.152c0.002,0,0.003,0,0.005,0c-0.145,3.124,2.601,5.676,5.713,4.776
		c-0.078,0.081-0.138,0.178-0.209,0.266c-1.526,0.258-2.943,0.445-4.317-0.479c-0.578-0.389-1.016-0.918-1.318-1.517
		c0-0.071-0.031-0.137-0.084-0.19c-0.393-0.883-0.507-1.895-0.31-2.849C150.234,100.247,150.216,100.195,150.191,100.15z
		 M156.937,104.657c-0.029,0.02-0.055,0.046-0.082,0.067c-0.028-0.018-0.064-0.027-0.107-0.016
		c-2.939,0.671-5.709-1.386-5.601-4.389c0.271,0,0.541-0.026,0.801-0.101C151.649,102.881,154.457,104.889,156.937,104.657z
		 M156.419,98.317c-0.608-0.603-1.421-0.839-2.241-0.725c0.011-0.14,0.001-0.28-0.01-0.419c0.686-0.245,1.406-0.223,2.072,0.079
		c0.317,0.145,0.611,0.34,0.854,0.591c0.186,0.194,0.298,0.404,0.526,0.546c-0.395,0.022-0.791,0.065-1.18,0.15
		C156.479,98.473,156.492,98.389,156.419,98.317z M156.139,98.597c0.011,0.01,0.023,0.005,0.033,0.013
		c-0.306,0.079-0.611,0.167-0.903,0.286c-0.282-0.369-0.769-0.549-1.23-0.644c0.046-0.12,0.079-0.245,0.106-0.373
		C154.885,97.819,155.597,98.068,156.139,98.597z M154.969,99.023c-0.223,0.103-0.44,0.213-0.649,0.339
		c-0.127-0.292-0.268-0.575-0.371-0.887c0.001-0.002,0.001-0.004,0.002-0.006C154.321,98.62,154.623,98.839,154.969,99.023z
		 M154.169,100.248c0,0.047,0.019,0.093,0.058,0.121c0.778,1.513,2,2.792,3.473,3.648c-0.06,0.103-0.131,0.191-0.186,0.301
		c-0.099,0.01-0.197,0-0.297,0.005c-1.918-1.078-3.311-2.762-3.958-4.892c0.148-0.139,0.276-0.295,0.396-0.457
		C153.788,99.414,153.966,99.838,154.169,100.248z M156.642,104.333c-1.06-0.046-2.084-0.375-2.898-1.11
		c-0.966-0.872-1.216-1.941-1.462-3.129c0.232-0.097,0.452-0.224,0.657-0.372C153.504,101.706,154.842,103.376,156.642,104.333z
		 M159.867,110.665c0.003-0.021-0.01-0.041-0.014-0.061c0.388-0.126,0.74-0.336,1.058-0.592c-0.407,0.66-0.651,1.272-1.376,1.682
		c-0.818,0.464-1.742,0.427-2.581,0.073c0.239-0.099,0.476-0.217,0.707-0.369C158.387,111.943,159.728,111.671,159.867,110.665z
		 M157.942,111.174c0.159-0.122,0.32-0.231,0.472-0.381c0.028-0.027,0.024-0.057,0.035-0.086c0.266,0.044,0.536,0.062,0.81,0.032
		c0.037-0.004,0.072-0.016,0.109-0.021C159.055,111.187,158.468,111.462,157.942,111.174z M156.176,111.967
		c0.137-0.026,0.274-0.043,0.41-0.084c0.007,0.006,0.006,0.016,0.016,0.022c0.91,0.595,2.035,0.741,3.037,0.271
		c0.665-0.313,1.347-0.958,1.565-1.698c0.111,0.3,0.286,0.569,0.499,0.808C160.329,113.079,157.935,113.266,156.176,111.967z
		 M162.071,111.631c0.141,0.114,0.296,0.212,0.455,0.302c-0.641,0.876-1.493,1.541-2.588,1.819
		c-0.731,0.186-1.472,0.176-2.204,0.002c-0.331-0.079-2.213-0.649-2.049-1.34c0.044-0.183-0.209-0.243-0.276-0.076
		c-0.005,0.014-0.005,0.027-0.011,0.042c-0.028-0.11-0.056-0.221-0.072-0.339c0.189,0.005,0.378,0.004,0.568-0.017
		C157.685,113.896,160.471,113.618,162.071,111.631z M150.688,105.267c0.066-0.065,0.086-0.169,0.049-0.246
		c0.027-0.146,0.046-0.292,0.086-0.435c0.166,0.184,0.345,0.36,0.545,0.52c0.033,0.026,0.076,0.042,0.11,0.066
		c-0.817,3.619,2.973,6.657,6.348,5.378c0.019,0.007,0.04,0.009,0.059,0.015C154.228,113.717,150.156,109.194,150.688,105.267z
		 M151.368,110.209c-0.245,0.354-0.312,0.967-0.051,1.347c-0.25,0.194-0.435,0.449-0.582,0.727
		c-0.664-1.062-0.598-2.301,0.012-3.384c0.454,0.87,1.122,1.636,1.915,2.194c-0.39,0.01-0.723,0.105-1.011,0.252
		c-0.139-0.32-0.242-0.586-0.052-1.001C151.67,110.187,151.466,110.065,151.368,110.209z M151.75,105.333
		c0.172,0.107,0.332,0.227,0.522,0.314c-0.015,1.075,0.441,2.053,1.258,2.768c0.664,0.583,1.762,1.149,2.694,0.975
		c0.261,0.33,0.581,0.613,0.936,0.836C154.106,110.732,151.662,108.549,151.75,105.333z M155.578,108.108
		c0.066,0.277,0.182,0.537,0.317,0.785c-0.713-0.102-1.34-0.225-1.979-0.75c-0.725-0.595-1.186-1.443-1.316-2.364
		c0.287,0.107,0.583,0.196,0.886,0.25c-0.055,0.015-0.103,0.055-0.096,0.123C153.476,107.175,154.489,108.246,155.578,108.108z
		 M153.612,106.051c0.253,0.037,0.508,0.06,0.76,0.055c0.208,0.429,0.65,0.878,1.14,0.943c-0.027,0.211-0.033,0.424-0.015,0.64
		c-0.897-0.157-1.61-0.586-1.836-1.572C153.653,106.085,153.633,106.067,153.612,106.051z M155.593,106.613
		c-0.336-0.114-0.622-0.24-0.86-0.529c0.437-0.048,0.861-0.164,1.243-0.373C155.805,105.992,155.679,106.297,155.593,106.613z
		 M148.256,96.835c-0.043,0.243-0.044,0.485-0.017,0.724c-0.034-0.054-0.1-0.087-0.163-0.042c-3.157,2.234-1.852,7.825,2.179,7.808
		c-0.102,0.371-0.15,0.745-0.155,1.117c-5.469-0.492-6.233-6.933-1.838-9.623C148.259,96.825,148.257,96.829,148.256,96.835z
		 M150.427,108.196c0.028,0.077,0.072,0.149,0.103,0.225c-1.054,1.17-0.945,3.041,0.056,4.203c-0.106,0.301-0.146,0.626-0.15,0.956
		c-1.308-1.659-2.253-3.615-0.721-5.493C149.949,108.132,150.187,108.17,150.427,108.196z M150.473,114.071
		c0.049,0.35,0.155,0.692,0.316,1.009c-2.51-1.588-5.239-4.638-2.77-7.495c0.363,0.148,0.737,0.277,1.121,0.376
		C147.405,109.777,148.787,112.659,150.473,114.071z M151.546,115.01c-0.953-1.25-0.366-3.212,1.19-3.651
		c0.071-0.02,0.1-0.084,0.094-0.144c0.685,0.445,1.447,0.739,2.235,0.809c-0.056,1.08,0.47,1.94,1.251,2.555
		c-0.037,0.032-0.066,0.075-0.07,0.132C156.106,117.183,152.52,116.288,151.546,115.01z M156.632,114.797
		c0.393,0.257,0.832,0.454,1.286,0.599c-0.259,0.748-1.094,1.132-1.815,0.876C156.493,115.909,156.718,115.411,156.632,114.797z
		 M155.844,116.477c0.902,0.515,2.177,0.06,2.482-0.961c0.204,0.048,0.409,0.085,0.613,0.107c0.071,0.007,0.138,0.004,0.208,0.01
		c-0.823,1.65-2.737,2.242-4.409,1.274c-0.015-0.009-0.027-0.002-0.041-0.005C155.115,116.84,155.516,116.698,155.844,116.477z
		 M155.979,113.55c0.8,0.526,2.136,0.801,2.633,0.826c1.801,0.09,3.379-0.803,4.389-2.224c0.299,0.111,0.613,0.185,0.932,0.208
		c0.03,0.002,0.058-0.003,0.088-0.002c-0.87,1.489-2.19,2.53-3.977,2.703c-0.124,0.012-0.252,0.013-0.379,0.015
		c-0.067-0.027-0.139-0.029-0.206,0.005C158.154,115.056,156.781,114.543,155.979,113.55z M165.502,112.055
		c0.454-0.213,0.856-0.53,1.177-0.918c0.453,0.813,0.272,1.827-0.479,2.455c-0.799,0.67-1.902,0.704-2.886,0.513
		c0.16-0.154,0.313-0.317,0.455-0.49c0.542,0.194,1.099,0.152,1.498-0.324C165.559,112.943,165.622,112.475,165.502,112.055z
		 M163.873,113.485c0.27-0.343,0.516-0.708,0.713-1.112c0.008-0.015-0.001-0.027,0.003-0.042c0.193-0.028,0.38-0.077,0.562-0.138
		C165.301,112.931,164.691,113.668,163.873,113.485z M163.021,114.357c1.28,0.392,2.897,0.352,3.817-0.762
		c0.643-0.778,0.825-2.094,0.121-2.882c0.151-0.249,0.273-0.514,0.362-0.796c1.16,1.338,1.066,3.229-0.257,4.538
		c-1.406,1.389-3.477,1.384-5.183,0.642C162.287,114.898,162.672,114.651,163.021,114.357z M166.585,105.587
		c0.845,0.257,1.449,1.085,1.396,1.984c0,0.003,0.003,0.004,0.003,0.009c-0.348-0.205-0.725-0.379-1.134-0.509
		c-0.025-0.007-0.04,0.007-0.062,0.006c-0.032-0.044-0.055-0.092-0.089-0.134c0.012-0.028,0.035-0.045,0.035-0.08
		C166.741,106.409,166.677,105.989,166.585,105.587z M166.766,109.897c-0.505,1.453-2.113,2.074-3.463,1.795
		c0.006-0.011,0.014-0.02,0.02-0.031c0.161-0.281-0.271-0.532-0.433-0.253c-0.029,0.05-0.067,0.092-0.099,0.141
		c-0.2-0.081-0.39-0.186-0.564-0.315c-0.028-0.048-0.065-0.085-0.12-0.108c-0.403-0.345-0.704-0.825-0.811-1.461
		c0.578-0.622,0.94-1.441,0.956-2.289c0.09,0.035,0.204,0.011,0.243-0.11c0.507-1.561,2.546-1.171,3.467-0.343
		C166.803,107.677,167.139,108.822,166.766,109.897z M162.599,106.214c0.018,0.033,0.044,0.048,0.07,0.06
		c-0.184,0.181-0.341,0.395-0.441,0.666c-0.084-0.7-0.385-1.289-0.82-1.745C161.919,105.308,162.327,105.704,162.599,106.214z
		 M161.099,104.922c-0.216-0.175-0.462-0.312-0.718-0.43c1.422-0.606,2.903-0.151,3.665,1.216c-0.421,0.029-0.826,0.146-1.156,0.379
		C162.744,105.267,161.878,104.861,161.099,104.922z M164.533,105.729c-0.765-1.776-2.9-2.476-4.505-1.382
		c-0.387-0.131-0.802-0.184-1.227-0.178c0.907-0.718,2.329-0.615,3.411-0.448c1.452,0.225,2.296,0.86,2.853,2.107
		C164.889,105.781,164.712,105.748,164.533,105.729z M159.748,104.578c-0.003,0.088,0.103,0.177,0.195,0.122
		c0.011-0.006,0.021-0.009,0.031-0.015c0.201,0.105,0.397,0.223,0.575,0.364c-0.005,0.002-0.012,0.003-0.017,0.005
		c-0.108,0.049-0.031,0.231,0.081,0.193c0.043-0.015,0.081-0.018,0.123-0.029c0.453,0.415,0.799,0.937,0.932,1.523
		c0.351,1.552-0.874,3.256-2.448,3.428c-0.358,0.04-0.713,0.002-1.052-0.093c-0.032-0.028-0.071-0.036-0.116-0.039
		c-1.012-0.33-1.84-1.202-1.998-2.291c-0.19-1.311,0.573-2.336,1.62-2.954l0.002,0.001c0.059,0.02,0.104-0.024,0.118-0.074
		c0.175-0.095,0.355-0.182,0.541-0.255c0.05,0.033,0.117,0.041,0.163-0.013c0.045-0.054,0.099-0.091,0.148-0.138
		C159.02,104.332,159.394,104.424,159.748,104.578z M155.681,101.754c-0.088-0.112-0.165-0.232-0.247-0.348
		c1.441-0.796,3.204-0.476,4.318,0.734c0.008,0.009,0.016,0.004,0.025,0.011c-0.08,0.037-0.164,0.066-0.242,0.108
		c-0.013-0.042-0.03-0.085-0.074-0.116C158.357,101.356,156.916,101.232,155.681,101.754z M155.286,101.199
		c-0.202-0.298-0.373-0.619-0.545-0.938c2.289-0.673,4.859-0.713,6.233,1.531c-0.285,0.044-0.568,0.106-0.842,0.205
		c0.008-0.06-0.005-0.123-0.055-0.181C158.882,100.411,156.793,100.189,155.286,101.199z M159.072,98.473
		c0.012-0.036,0.02-0.075,0.003-0.116c-0.396-0.944-1.288-1.678-2.21-2.09c-0.771-0.345-1.98-0.688-2.764-0.236
		c-0.07,0.041-0.056,0.151,0.023,0.172c0.885,0.235,1.744,0.115,2.614,0.545c0.801,0.397,1.31,0.986,1.84,1.657
		c-0.27-0.021-0.543-0.028-0.816-0.018c0.031-0.022,0.058-0.055,0.057-0.097c-0.005-0.68-0.882-1.207-1.444-1.426
		c-0.739-0.286-1.517-0.267-2.245,0.027c-0.097-0.541-0.351-1.046-0.711-1.447c1.239,0.102,2.522-0.155,3.726,0.246
		c1.366,0.456,2.248,1.575,2.595,2.921C159.52,98.555,159.298,98.507,159.072,98.473z M153.611,97.346
		c0.018,1.332-1.246,2.443-2.55,2.395c-0.042-0.019-0.082-0.026-0.127-0.019c-1.214-0.123-2.179-1.335-2.137-2.53
		c0.05-1.456,1.496-2.376,2.839-2.306c0.047,0.002,0.08-0.02,0.114-0.044C152.739,95.316,153.595,96.179,153.611,97.346z
		 M150.203,94.624c-0.995-1.097-2.715-1.411-3.972-0.554c-1.138,0.776-1.494,2.248-1.021,3.49c-0.235,0.242-0.44,0.509-0.628,0.79
		c-0.357-0.174-0.435-1.577-0.376-1.868c0.09-0.446,0.255-0.899,0.472-1.297c0.459-0.84,1.218-1.567,2.132-1.89
		c1.629-0.575,3.356-0.041,4.537,1.158C150.954,94.443,150.565,94.49,150.203,94.624z M148.444,96.279
		c-0.026,0.063-0.06,0.121-0.081,0.186c-0.041-0.02-0.088-0.028-0.14-0.002c-2.293,1.126-3.924,3.55-3.458,6.179
		c0.435,2.45,2.829,4.538,5.356,4.274c0.021,0.241,0.077,0.478,0.134,0.715c-2.767-0.421-5.315-2.057-5.934-4.96
		C143.67,99.627,145.588,97.132,148.444,96.279z M144.254,104.108c-0.332,0.051-0.652,0.19-1.021,0.137
		c-0.417-0.06-0.782-0.241-1.083-0.519c0.02-0.228,0.017-0.446-0.013-0.65c0.561,0.342,1.244,0.54,1.828,0.361
		C144.044,103.673,144.151,103.889,144.254,104.108z M135.931,105.47c0.114,0.155,0.23,0.309,0.366,0.444
		c-0.249,2.585,1.894,4.294,4.286,4.72c1.456,0.259,3.58,0.15,4.528-1.118c-0.081,0.552-0.069,1.116,0.01,1.677
		C141.433,113.911,134.252,110.387,135.931,105.47z M142.72,121.024c0.204-0.151,0.396-0.317,0.56-0.516
		c0.014,0.021,0.02,0.045,0.049,0.061c0.539,0.294,1.236,0.387,1.778,0.05c0.122,0.145,0.25,0.284,0.382,0.417
		C144.63,121.588,143.546,121.639,142.72,121.024z M145.869,121.382c0.239,0.202,0.496,0.381,0.763,0.543
		c-1.647,0.968-3.625,0.96-5.153-0.336c0.349-0.089,0.688-0.215,0.994-0.401C143.375,122.039,144.907,122.218,145.869,121.382z
		 M143.494,120.29c-0.014-0.006-0.026,0.001-0.04-0.001c0.329-0.493,0.478-1.072,0.457-1.637c0.245,0.591,0.565,1.143,0.94,1.644
		C144.382,120.433,143.99,120.504,143.494,120.29z M142.406,116.498c-0.178-0.636,0.29-1.205,0.887-1.422
		c-0.033,0.754,0.029,1.521,0.205,2.266C143.246,116.963,142.88,116.663,142.406,116.498z M142.14,116.42
		c-0.02-0.004-0.037-0.013-0.058-0.017c-0.302-0.275-0.631-0.438-0.971-0.509c0.35-1.04,1.23-1.634,2.299-1.776l0,0
		c-0.039,0.227-0.089,0.451-0.108,0.683C142.486,114.747,141.968,115.669,142.14,116.42z M143.462,113.804
		c-0.018-0.006-0.028-0.02-0.05-0.021c-1.22-0.049-2.294,0.95-2.574,2.09c-0.26-0.017-0.524,0.022-0.783,0.097
		c0.076-0.221,0.131-0.453,0.234-0.664c0.189-0.39,0.438-0.751,0.737-1.065c0.642-0.676,1.384-0.943,2.255-1.187
		c0.213-0.06,0.175-0.389-0.048-0.391c0.215-0.035,0.43-0.077,0.633-0.139C143.682,112.932,143.557,113.364,143.462,113.804z
		 M139.687,116.107c-0.235,0.104-0.463,0.241-0.678,0.402c-0.266-1.486,0.123-2.793,1.314-3.825c0.059-0.05,0.068-0.115,0.058-0.179
		c0.86,0.205,1.763,0.295,2.609,0.194c-0.862,0.096-1.705,0.606-2.282,1.227C140.25,114.421,139.604,115.355,139.687,116.107z
		 M137.118,110.961c-0.094,0.186-0.169,0.388-0.247,0.586c-0.24-0.464-0.453-0.858-0.478-1.324
		C136.612,110.486,136.851,110.736,137.118,110.961z M137.499,111.255c0.114,0.08,0.227,0.163,0.347,0.236
		c0.086,0.052,0.193,0.094,0.284,0.145c-0.007,0.009-0.018,0.013-0.026,0.022c-1.022,1.353-1.012,3.025-0.645,4.619
		c0.047,0.206,0.232,1.004,0.512,1.387c-0.063,0.103-0.115,0.209-0.168,0.315C136.817,115.718,136.492,113.654,137.499,111.255z
		 M137.726,114.761c-0.025-1.043,0.2-1.99,0.831-2.838c0.014-0.019,0.018-0.037,0.026-0.056c0.432,0.201,0.889,0.387,1.383,0.528
		c-1.294,0.959-1.891,2.85-1.237,4.348c-0.182,0.165-0.347,0.349-0.499,0.544C137.921,116.644,137.729,114.88,137.726,114.761z
		 M141.17,121.638c-0.001,0.034,0.009,0.071,0.039,0.104c1.494,1.659,4.24,1.944,5.967,0.472c0.31,0.142,0.64,0.251,0.981,0.334
		c-2.566,2.154-5.75,1.652-7.798-0.859C140.63,121.695,140.902,121.684,141.17,121.638z M147.397,121.777
		c-0.045-0.089-0.124-0.141-0.221-0.137c-2.991-1.85-4.405-5.998-2.774-9.301c0.3-0.141,0.582-0.316,0.833-0.539
		c0.084,0.352,0.207,0.693,0.346,1.027c-1.943,2.597-0.533,8.705,3.19,8.644c0.027,0,0.044-0.013,0.06-0.025
		c0.027,0.326,0.076,0.649,0.138,0.968C148.41,122.273,147.886,122.052,147.397,121.777z M148.88,119.429
		c-1.159-0.815-1.368-2.288-0.738-3.48c0.111,0.07,0.22,0.144,0.334,0.205c-0.435,0.62-0.392,1.546,0.186,2.06
		c0.107,0.095,0.301-0.03,0.21-0.162c-0.391-0.572-0.39-1.161-0.042-1.728c0.337,0.148,0.685,0.271,1.051,0.339
		c-0.029,0.018-0.062,0.024-0.084,0.06C149.317,117.504,149.019,118.443,148.88,119.429z M150.066,117.256
		c0.156,0.274,0.322,0.537,0.501,0.783c-1.618,2.612-0.636,7.229,2.222,8.636C149.337,125.34,148.353,120.506,150.066,117.256z
		 M149.521,124.15c0.171,0.388,0.381,0.746,0.613,1.083c-0.566,0.182-1.113,0.167-1.529-0.351c0.282-0.169,0.557-0.357,0.822-0.568
		C149.489,124.265,149.514,124.208,149.521,124.15z M150.41,125.612c0.242,0.298,0.512,0.566,0.808,0.798
		c-0.619,0.174-1.167,0.372-1.87,0.28c-0.853-0.11-1.579-0.502-2.167-1.126c-0.015-0.016-0.031-0.012-0.047-0.021
		c0.397-0.135,0.791-0.297,1.17-0.501C148.68,125.722,149.756,126.102,150.41,125.612z M154.579,127.02
		c-0.048-0.001-0.095-0.006-0.142-0.009c0.055-0.091,0.041-0.232-0.086-0.255c-3.56-0.653-4.823-5.346-3.452-8.28
		c0.016,0.019,0.03,0.043,0.047,0.062c-0.297,3.01,0.838,6.723,4.27,7.169C154.913,126.121,154.706,126.564,154.579,127.02z
		 M151.419,119.034c0.253,0.247,0.515,0.481,0.793,0.689c-0.808,1.995,0.35,4.445,2.57,4.844c0.074,0.013,0.141-0.034,0.175-0.093
		c0.089,0.352,0.231,0.693,0.444,0.997c-0.002,0.002-0.004-0.001-0.006,0c-0.015,0.018-0.026,0.037-0.041,0.055
		c-0.013-0.042-0.036-0.079-0.085-0.093C152.263,124.575,151.444,121.815,151.419,119.034z M153.461,122.188
		c0.183,0.686,0.686,1.289,1.389,1.444c-0.002,0.228,0.028,0.456,0.073,0.681c-0.01-0.007-0.01-0.018-0.022-0.024
		c-1.848-0.813-2.709-2.418-2.308-4.279c0.329,0.216,0.668,0.411,1.021,0.574C153.336,121.044,153.333,121.71,153.461,122.188z
		 M155.054,122.535c0.001,0.001,0.003,0,0.004,0.001c-0.109,0.243-0.175,0.5-0.207,0.764c-0.45-0.292-0.79-0.702-0.926-1.241
		c-0.127-0.501-0.012-0.869,0.142-1.279c0.194,0.075,0.39,0.148,0.588,0.207C154.443,121.494,154.667,122.188,155.054,122.535z
		 M155.104,121.11c0.379,0.089,0.763,0.16,1.152,0.193c-0.451,0.225-0.78,0.537-1.013,0.893
		C155.041,121.822,155.046,121.493,155.104,121.11z M158.307,120.605c-0.132-0.029-0.217,0.039-0.268,0.125
		c-1.305,0.2-2.629,0.03-3.866-0.464c-0.037-0.043-0.091-0.065-0.148-0.058c-0.446-0.19-0.874-0.436-1.29-0.713
		c0.016-0.047,0.021-0.093,0.039-0.14c0.073-0.199-0.229-0.312-0.334-0.14c-0.009,0.015-0.012,0.032-0.021,0.047
		c-0.361-0.268-0.705-0.574-1.034-0.908c-0.024-0.065-0.064-0.106-0.124-0.122c-0.07-0.074-0.133-0.159-0.2-0.235
		c-0.019-0.058-0.061-0.105-0.115-0.135c-0.256-0.302-0.499-0.626-0.722-0.979c0.01-0.065-0.003-0.121-0.043-0.167
		c0.37,0.043,0.751,0.045,1.141-0.006c2.114,4.418,8.606,5.007,11.086,0.476c0.029-0.052,0.028-0.101,0.019-0.144
		c0.751,0.349,1.594,0.477,2.443,0.445c-0.081,0.938-0.941,1.459-1.804,1.094c0.174-0.198,0.348-0.393,0.507-0.613
		c0.163-0.225-0.211-0.516-0.388-0.299c-1.325,1.637-2.993,2.62-4.727,2.988C158.407,120.638,158.361,120.616,158.307,120.605z
		 M162.265,119.381c0.217-0.19,0.432-0.387,0.634-0.603c1.009,0.666,2.355-0.089,2.304-1.304c0.424-0.039,0.846-0.122,1.257-0.245
		C166.139,119.215,163.954,119.384,162.265,119.381z M166.849,117.093c0.2-0.074,0.393-0.167,0.585-0.26
		c0.214,3.473-3.639,3.851-6.211,3.315c0.262-0.164,0.519-0.342,0.765-0.539C163.761,119.824,166.954,119.596,166.849,117.093z
		 M160.955,120.295c0.012,0.034,0.035,0.064,0.079,0.08c1.673,0.6,3.721,0.796,5.263-0.262c1.145-0.784,1.813-2.118,1.553-3.497
		c0-0.003-0.004-0.003-0.004-0.006c0.314-0.183,0.61-0.393,0.883-0.626c0.964,2.197,0.02,4.644-2.266,5.652
		c-2.133,0.941-4.367,0.296-6.18-1.001C160.51,120.532,160.735,120.42,160.955,120.295z M168.467,115.427
		c0.009,0.014,0.012,0.029,0.02,0.044c-1.984,1.957-5.56,2.144-7.54,0.08c-0.093-0.097-0.277,0.034-0.192,0.148
		c0.044,0.059,0.095,0.107,0.14,0.163c-0.101-0.02-0.207-0.002-0.256,0.108c-1.425,3.21-5.591,4.134-7.525,0.807
		c-0.001-0.002-0.004-0.002-0.005-0.004c0.485,0.135,0.99,0.195,1.484,0.14c-0.078,0.052-0.109,0.178-0.006,0.25
		c1.842,1.284,4.255,0.507,5.074-1.508c0.703-0.016,1.372-0.171,1.988-0.44c0.009,0.016,0.013,0.033,0.032,0.046
		c1.929,1.335,4.674,0.958,6.134-0.9c1.216-1.546,1.116-3.743-0.389-5.017c0.057-0.561-0.05-1.112-0.27-1.617
		c2.692,1.169,3.615,4.413,1.995,6.936c-0.112,0.176-0.237,0.341-0.37,0.497C168.605,115.038,168.333,115.206,168.467,115.427z
		 M168.272,107.768c0.086-0.026,0.163-0.082,0.169-0.196c0.06-1.157-0.799-2.152-1.926-2.282c-0.12-0.408-0.288-0.786-0.495-1.131
		c0.976-0.747,2.736,1.11,3.174,1.795c0.651,1.018,0.854,2.173,0.676,3.357c-0.042,0.277,0.369,0.407,0.432,0.119
		c0.352-1.595-0.167-3.278-1.28-4.464c-0.612-0.65-2.31-1.88-3.135-1.004c-0.432-0.647-1.009-1.159-1.658-1.534
		c5.034-1.279,9.517,4.793,6.247,8.905C170.28,109.922,169.515,108.614,168.272,107.768z M166.229,106.468
		c-0.227-0.191-0.471-0.363-0.743-0.491c-0.021-2.888-5.3-3.702-7.026-1.87c-0.02-0.009-0.038-0.021-0.066-0.018
		c-0.166,0.014-0.326,0.056-0.483,0.099C160.421,100.747,165.96,101.974,166.229,106.468z M161.872,99.714
		c-0.002-0.056-0.014-0.107-0.018-0.163c0.71,0.328,1.266,0.84,1.738,1.491c-0.198,0.045-0.396,0.092-0.595,0.153
		C162.713,100.602,162.327,100.112,161.872,99.714z M161.816,99.214c-0.024-0.198-0.066-0.388-0.106-0.58
		c0.622,0.186,1.205,0.453,1.735,0.831c0.571,0.408,0.942,0.962,1.452,1.422c-0.313,0.016-0.626,0.03-0.941,0.085
		c0.002-0.035,0.009-0.07-0.012-0.109C163.518,100.026,162.704,99.472,161.816,99.214z M143.758,100.056
		c0.018,0.016,0.038,0.015,0.056,0.021c-0.002,0.006-0.002,0.014-0.003,0.021c-0.917-0.818-2.387-0.339-2.76,0.682
		c-0.024-0.024-0.05-0.039-0.074-0.062c-0.096-0.097-0.28,0.033-0.195,0.151c0.062,0.087,0.132,0.168,0.2,0.25
		c-0.009,0.08-0.032,0.154-0.027,0.238c-0.258-0.16-0.546-0.282-0.848-0.375c0.403-1.242,1.72-1.997,2.995-1.655
		C143.296,99.583,143.508,99.83,143.758,100.056z M139.814,100.907c-0.195-0.044-0.399-0.057-0.6-0.075
		c0.015-0.054,0.029-0.114,0.045-0.183c0.125-0.57,0.23-1.024,0.623-1.475c0.687-0.787,1.607-1.016,2.609-0.965
		c0.072,0.176,0.129,0.356,0.223,0.525C141.376,98.612,140.071,99.571,139.814,100.907z M139.951,98.366
		c-0.361,0.281-0.667,0.631-0.885,1.034c-0.062,0.115-0.239,0.808-0.352,1.167c-0.084-0.02-0.169,0.027-0.214,0.093
		c-0.058,0.086-0.072,0.175-0.063,0.259c-0.274-0.025-0.545,0.001-0.81,0.051c0.32-1.157,0.275-2.178,1.171-3.134
		c0.886-0.946,2.076-1.246,3.326-1.184c0.025,0.372,0.075,0.743,0.184,1.106C141.487,97.576,140.603,97.859,139.951,98.366z
		 M136.448,98.253c-0.039-0.047-0.096-0.078-0.18-0.075c-0.493,0.021-0.926,0.125-1.301,0.295c0.551-0.339,1.157-0.605,1.786-0.806
		C136.644,97.86,136.53,98.052,136.448,98.253z M135.294,107.828c0.014,0.094,0.039,0.186,0.059,0.28
		c-0.046-0.021-0.099-0.029-0.144-0.001c-0.665,0.412-0.657,1.583-0.532,2.256c0.166,0.897,0.717,1.94,1.584,2.327
		c0.185,0.082,0.381-0.131,0.226-0.292c-0.512-0.536-0.988-0.973-1.232-1.7c-0.107-0.318-0.17-0.651-0.182-0.987
		c-0.009-0.217,0.005-0.435,0.042-0.65c0.014-0.242,0.124-0.441,0.329-0.596l0,0c0.146,0.47,0.365,0.919,0.648,1.337
		c-0.165,0.718-0.041,1.636,0.602,2.047c0.017,0.011,0.032,0.007,0.048,0.011c-0.106,0.311-0.186,0.633-0.252,0.961
		c-0.839-0.467-1.545-0.805-2.056-1.697c-0.376-0.656-0.95-2.883,0.12-3.349c0.195,0.07,0.395,0.126,0.602,0.164
		C135.233,107.953,135.29,107.892,135.294,107.828z M133.604,110.405c0.316,1.242,1.445,2.72,2.826,2.795
		c-0.044,0.29-0.064,0.585-0.076,0.88c-1.156-0.592-2.195-1.032-2.915-2.227c-0.912-1.514-0.805-3.227-0.111-4.787
		c0.289,0.227,0.592,0.432,0.923,0.581C133.455,108.12,133.402,109.616,133.604,110.405z M133.085,114.036
		c-1.562,1.323-3.733,1.429-5.369,0.201c0.148-0.095,0.288-0.201,0.418-0.32c1.239,0.97,3.226,0.281,4.051-0.972
		C132.439,113.341,132.743,113.704,133.085,114.036z M127.46,114.377c1.584,1.586,4.388,1.61,5.93-0.06
		c0.472,0.403,1.018,0.731,1.613,0.982c-0.106,0.066-0.214,0.111-0.32,0.172c-0.078,0.003-0.148,0.04-0.201,0.108
		c-2.117,1.143-4.367,1.243-6.308,0.085c-0.026-0.093-0.118-0.153-0.224-0.136c-0.389-0.255-0.769-0.543-1.127-0.907
		C127.045,114.56,127.259,114.481,127.46,114.377z M130.273,120.096c0.015-0.057,0.041-0.101,0.062-0.149
		c0.375,0.499,1.245,0.598,1.65,0.127c0.286,0.238,0.572,0.451,0.835,0.625c0.026,0.017,0.054,0.03,0.08,0.047
		c-0.463,0.267-0.944,0.425-1.431,0.454c-0.227-0.045-0.457-0.055-0.687-0.042c-0.146-0.03-0.291-0.096-0.437-0.152
		C130.221,120.72,130.189,120.405,130.273,120.096z M133.072,120.849c0.348,0.211,0.712,0.382,1.084,0.527
		c-0.52,0.197-0.962,0.375-1.509,0.347c-0.133-0.094-0.27-0.181-0.416-0.254C132.556,121.338,132.848,121.136,133.072,120.849z
		 M133.532,120.462c-1.007-0.57-2.664-1.806-2.996-3.113c0.004-0.039-0.006-0.072-0.021-0.107c-0.017-0.086-0.047-0.171-0.051-0.258
		c0.29,0.047,0.582,0.081,0.874,0.087c0.091,2.144,4.862,3.875,6.325,3.2c0.116,0.238,0.303,0.453,0.529,0.653
		C136.599,121.402,135.016,121.302,133.532,120.462z M135.627,121.742c0.366,0.048,0.735,0.057,1.103,0.04
		c-0.112,0.576-0.229,1.096-0.696,1.553c-0.6,0.587-1.409,0.707-2.196,0.553c-0.012-0.195-0.043-0.394-0.096-0.595
		C134.633,123.367,135.544,122.681,135.627,121.742z M133.797,124.427c0.009-0.065,0.024-0.13,0.028-0.197
		c0.575,0.166,1.181,0.137,1.73-0.071c1.038,1.205,3.501,1.728,4.645,0.388c0.123-0.145,0.01-0.439-0.207-0.356
		c-0.697,0.27-1.243,0.601-2.026,0.595c-0.782-0.007-1.504-0.298-2.124-0.758c0.14-0.075,0.282-0.149,0.41-0.252
		c0.147-0.118,0.28-0.266,0.403-0.424c0.741,0.57,1.921,0.813,2.666,0.164c0.052-0.046,0.06-0.105,0.052-0.162
		c0.495,0.653,1.101,1.181,1.773,1.592c-0.043,0.035-0.075,0.084-0.076,0.146c-0.012,1.167-3.136,1.294-3.822,1.223
		C136.498,126.237,133.829,125.582,133.797,124.427z M135.527,126.424c-0.223,0.239-0.439,0.456-0.782,0.552
		c-0.201,0.057-0.417,0.065-0.621,0.022c-0.35-0.074-0.362-0.221-0.426-0.534c-0.008-0.035-0.028-0.06-0.054-0.074
		c0.095-0.315,0.164-0.65,0.175-1.024C134.227,125.783,134.908,126.155,135.527,126.424z M139.121,122.119
		c0.026-0.076,0.056-0.15,0.058-0.242c0.005-0.153-0.168-0.211-0.281-0.138c-0.074-0.13-0.152-0.256-0.221-0.391
		c0.03-0.013,0.06-0.02,0.09-0.033c0.358,0.184,0.747,0.297,1.145,0.35c1.694,3.32,6.21,3.763,8.761,1.166
		c0.055-0.056,0.07-0.118,0.072-0.177c0.07,0.009,0.134,0.03,0.206,0.036c0.029,0.002,0.049-0.011,0.07-0.024
		c0.097,0.434,0.239,0.85,0.401,1.252c-0.105-0.09-0.269-0.125-0.406-0.018C145.552,126.602,141.283,125.475,139.121,122.119z
		 M143.931,125.876c-0.141,0.888-0.779,1.611-1.671,1.725c0.261-0.614,0.418-1.275,0.427-1.971
		C143.091,125.754,143.508,125.831,143.931,125.876z M144.134,126.813c0.071,0.324,0.193,0.617,0.343,0.891
		c-0.045-0.077-0.155-0.111-0.235-0.037c-0.493,0.465-0.841,0.951-1.5,1.212c-0.453,0.179-0.926,0.232-1.395,0.177
		c0.298-0.36,0.559-0.749,0.765-1.164C142.918,127.964,143.752,127.514,144.134,126.813z M144.494,127.813
		c0.009-0.033,0.002-0.063-0.007-0.09c0.202,0.364,0.462,0.693,0.778,0.979c-0.716,0.656-1.208,1.327-2.212,1.648
		c-0.996,0.318-1.994,0.228-2.942-0.162c0.351-0.257,0.687-0.535,0.981-0.852C142.346,129.634,144.162,129.178,144.494,127.813z
		 M145.569,128.95c0.385,0.294,0.84,0.526,1.32,0.732c-0.037,0.024-0.079,0.035-0.106,0.087c-0.693,1.272-1.803,2.109-3.221,2.421
		c-1.153,0.253-4.325,0.219-5.11-1.101c0.474-0.183,0.93-0.415,1.356-0.694C141.425,131.445,144.923,131.098,145.569,128.95z
		 M143.943,133.887c0.226,0.212,0.587,0.388,0.903,0.331c0.028,0.249,0.094,0.49,0.186,0.722c-0.153,0.011-0.306,0.021-0.464-0.001
		c-0.374-0.054-0.734-0.189-1.053-0.39c-0.599-0.379-0.988-0.956-1.164-1.627c0.012,0,0.028,0.001,0.04,0.001
		c0.403,0,0.799-0.048,1.188-0.122C143.504,133.208,143.632,133.596,143.943,133.887z M144.831,133.769
		c-0.194-0.015-0.374-0.026-0.561-0.154c-0.294-0.201-0.437-0.517-0.393-0.87c0.541-0.131,1.058-0.329,1.528-0.605
		C145.05,132.602,144.854,133.181,144.831,133.769z M141.967,132.911c0.079,0.83,0.528,1.55,1.216,2.032
		c0.529,0.371,1.441,0.728,2.136,0.538c0.003,0.004,0.004,0.009,0.006,0.013c0.081,0.114,0.18,0.208,0.276,0.305
		c-2.294,0.568-4.481-0.642-4.899-3.023C141.155,132.853,141.599,132.894,141.967,132.911z M146.444,131.673
		c0.032-0.028,0.045-0.06,0.047-0.092c1.039-0.369,2.134-0.476,2.978,0.516c0.154,0.181,0.266,0.393,0.354,0.614
		c-0.127,0.011-0.179,0.19-0.035,0.229c0.042,0.012,0.086,0.017,0.129,0.027c0.245,0.892,0.007,1.942-0.71,2.537
		c-1.002,0.829-2.731,0.602-3.436-0.508C145.075,133.897,145.52,132.471,146.444,131.673z M150.646,133.572
		c-0.006-0.183-0.002-0.369-0.04-0.548c1.468-0.061,3.076-1.189,3.053-2.708c0.442-0.077,0.855-0.175,1.205-0.298
		c0.062,0.139,0.148,0.268,0.222,0.402c-0.041,0.032-0.081,0.065-0.097,0.122c-0.366,1.303-1.288,2.341-2.468,2.801
		c-0.085-0.03-0.181,0-0.213,0.078C151.79,133.587,151.232,133.656,150.646,133.572z M155.445,130.987
		c0.348,0.475,0.776,0.893,1.271,1.228c-0.056,0.036-0.101,0.091-0.106,0.177c-0.051,0.868-0.747,1.569-1.576,1.68
		c-0.026-0.272-0.069-0.544-0.142-0.814c0.717-0.03,1.468-0.683,1.194-1.451c-0.071-0.198-0.352-0.165-0.366,0.049
		c-0.035,0.559-0.344,1.048-0.927,1.071c-0.029-0.081-0.04-0.165-0.073-0.245c-0.023-0.054-0.063-0.084-0.105-0.107
		C155.01,132.127,155.307,131.594,155.445,130.987z M157.071,132.426c0.092,0.051,0.181,0.108,0.277,0.153
		c0.181,0.084,0.366,0.155,0.553,0.221c-0.033,0.013-0.071,0.009-0.095,0.045c-0.172,0.253-0.185,0.56-0.327,0.835
		c-0.172,0.335-0.425,0.63-0.73,0.854c-0.517,0.382-1.116,0.531-1.739,0.505c0.024-0.22,0.037-0.44,0.031-0.663
		C156.076,134.326,157.004,133.504,157.071,132.426z M154.966,135.333c0.689,0.175,1.431,0.019,2.027-0.386
		c0.558-0.379,1.427-1.318,1.134-2.06c-0.006-0.016-0.025-0.015-0.034-0.029c0.34,0.105,0.688,0.17,1.037,0.215
		c-0.399,0.899-0.845,1.669-1.686,2.239c-0.853,0.579-1.703,0.652-2.674,0.778C154.853,135.843,154.922,135.591,154.966,135.333z
		 M158.603,130.095c-1.44-0.726-2.11-2.18-2.208-3.705c0.189,0.102,0.388,0.19,0.605,0.246c-0.004,0.015-0.016,0.022-0.015,0.041
		c0.055,1.289,0.948,2.506,2.27,2.725c1.159,0.193,2.621-0.565,2.922-1.75c0.028-0.01,0.056-0.019,0.084-0.028
		c0.006,0.012,0.004,0.025,0.016,0.034c0.447,0.382,0.896,0.708,1.346,0.982C162.674,130.396,160.419,131.011,158.603,130.095z
		 M161.619,127.102c-0.252,0.016-0.508-0.01-0.747-0.093c-0.255-0.092-0.481-0.232-0.678-0.42c-0.037-0.028-0.063-0.061-0.093-0.092
		c-0.002-0.013,0.001-0.025-0.001-0.036c-0.012-0.06-0.054-0.086-0.1-0.095c-0.089-0.153-0.111-0.329-0.054-0.532
		c0.054,0.058,0.162-0.021,0.112-0.087c-0.015-0.02-0.029-0.026-0.044-0.043c0.823-0.998,0.919-2.513,0.272-3.653
		c0.658,0.465,1.376,0.846,2.124,1.125c0.002,0.052,0.026,0.108,0.082,0.157c0.875,0.764,1.471,2.037,0.57,3.062
		C162.702,126.807,162.165,127.067,161.619,127.102z M163.505,126.82c0.579,0.626,2.429,0.268,2.96,0.009
		c1.415-0.689,2.067-2.269,1.795-3.774c-0.011-0.058-0.044-0.088-0.077-0.115c0.373-0.193,0.737-0.422,1.083-0.708
		c0.366,1.875,0.13,4.217-1.832,5.126c-1.498,0.694-2.83-0.18-4.282-0.206C163.278,127.05,163.398,126.941,163.505,126.82z
		 M165.454,123.675c0.343-0.014,0.685-0.055,1.022-0.121c-0.015,0.027-0.036,0.049-0.036,0.088
		c-0.014,1.189-1.152,2.142-2.323,1.892c0.029-0.259,0.009-0.53-0.042-0.798c0.627,0.154,1.338-0.185,1.493-0.862
		C165.592,123.768,165.531,123.697,165.454,123.675z M166.724,123.485c0.378-0.09,0.748-0.221,1.112-0.38
		c-0.004,0.025-0.021,0.043-0.017,0.072c0.181,1.148-0.238,2.39-1.237,3.048c-0.416,0.274-0.908,0.445-1.402,0.496
		c-0.089,0.01-1.048-0.037-1.485-0.136c0.166-0.24,0.304-0.499,0.373-0.79c1.322,0.391,2.889-0.722,2.768-2.153
		C166.827,123.56,166.78,123.514,166.724,123.485z M165.245,123.784c-0.181,0.515-0.722,0.801-1.238,0.645
		c-0.104-0.337-0.265-0.658-0.487-0.923c0.626,0.139,1.263,0.194,1.895,0.171C165.347,123.672,165.275,123.698,165.245,123.784z
		 M168.442,122.159c-3.004,1.95-6.459,0.806-9.049-1.193c0.196-0.062,0.392-0.129,0.584-0.206c0.003,0.003,0.001,0.007,0.004,0.01
		c2.122,1.839,5.145,2.54,7.6,0.883c1.999-1.35,2.663-3.971,1.499-6.04c0.138-0.145,0.289-0.277,0.407-0.438
		c0.281-0.384,0.482-0.787,0.645-1.198c0.033,0.009,0.064,0.024,0.102,0.014c0.023-0.006,0.042-0.016,0.064-0.022
		C171.498,116.721,171.16,120.395,168.442,122.159z M169.983,102.459c-0.471-0.344-0.962-0.653-1.489-0.888
		c0.01-0.027,0.028-0.046,0.024-0.081c-0.148-1.158-0.606-2.17-1.269-3.008C168.248,99.653,169.168,100.968,169.983,102.459z
		 M166.628,97.803c-1.582-1.498-3.91-2.209-6.143-1.814c-1.173-1.529-2.976-2.48-4.907-2.564c0.042-0.07,0.062-0.151,0.01-0.245
		c-0.461-0.831-1.154-1.444-1.979-1.876C158.564,91.948,163.078,93.986,166.628,97.803z M149.571,91.076
		c0.34-0.004,0.674,0.011,1.01,0.017c1.846,0.132,3.593,0.794,4.544,2.336c-0.566,0.016-1.138,0.091-1.707,0.267
		c-3.173-4.728-11.226-0.904-10.705,3.418c-0.355-2.353,0.973-4.669,3.667-5.513C147.331,91.304,148.446,91.106,149.571,91.076z
		 M137.554,93.016c1.788-0.486,3.568-0.365,5.307,0.238c0.362,0.125,0.521-0.451,0.159-0.574c-0.671-0.227-1.356-0.373-2.045-0.452
		c1.489-0.369,2.979-0.651,4.46-0.847c-0.194,0.088-0.382,0.179-0.559,0.276c-1.216,0.672-2.048,1.734-2.463,2.921
		c-0.242-0.044-0.491-0.05-0.74-0.042c-0.002-0.05-0.019-0.099-0.062-0.135c-1.478-1.263-3.883-1.226-5.602-0.513
		c-0.87,0.361-3.062,1.659-2.464,2.862c-0.225,0.139-0.436,0.299-0.642,0.468C132.892,94.962,135.705,93.519,137.554,93.016z
		 M130.812,101.233c-0.637-0.75-0.987-1.654-0.812-2.681c0.105-0.617,0.371-1.158,0.785-1.629c0.107-0.122,1.623-1.501,1.842-0.749
		c0.007,0.025,0.031,0.021,0.048,0.031c-0.035,0.116-0.077,0.229-0.097,0.349c-0.858,0.112-1.699,1.368-0.929,2.06
		c0.006,0.005,0.013,0.004,0.019,0.009c-0.363,0.572-0.638,1.2-0.771,1.877C130.85,100.736,130.827,100.983,130.812,101.233z
		 M132.593,97.484c-0.246,0.234-0.467,0.493-0.672,0.765c-0.05-0.26-0.092-0.48,0.024-0.772c0.111-0.282,0.337-0.484,0.604-0.616
		c-0.011,0.187-0.02,0.375,0.01,0.573C132.563,97.457,132.582,97.467,132.593,97.484z M131.351,101.22
		c0.209-3.19,3.16-5.049,6.129-4.695c0.261,0.031,0.305-0.386,0.061-0.451c-0.339-0.091-0.677-0.137-1.013-0.153
		c0.452-0.732,1.368-0.814,1.972-0.189c-0.583,0.437-1.107,0.961-1.507,1.548c-0.049-0.072-0.124-0.129-0.237-0.109
		c-4.727,0.806-6.736,7.858-1.582,9.656c0.031,0.011,0.058,0.003,0.084-0.006c-0.031,0.327-0.011,0.647,0.032,0.965
		c-0.009-0.019-0.019-0.037-0.044-0.05c-0.119-0.064-0.228-0.145-0.344-0.215c-0.002-0.003-0.006-0.003-0.01-0.006
		C132.714,106.177,131.178,103.858,131.351,101.22z M130.711,104.698c0.217,0.117,0.447,0.216,0.695,0.288
		c-0.109,0.3-0.136,0.628-0.061,0.955c0.077,0.333,0.298,0.762,0.618,0.964c-0.151,0.247-0.274,0.5-0.381,0.755
		c-0.321-0.474-0.711-0.783-0.887-1.363C130.531,105.755,130.58,105.232,130.711,104.698z M130.494,104.572
		c-0.608,1.012-0.335,2.974,0.893,3.377c0.032,0.011,0.063,0.005,0.093-0.002c-0.094,0.264-0.159,0.53-0.21,0.797
		c-1.452-1.144-2.028-2.936-1.378-4.655C130.076,104.27,130.275,104.433,130.494,104.572z M129.669,103.824
		c-1.008,1.794-0.415,4.421,1.476,5.395c0.018,0.01,0.032,0.001,0.049,0.005c-0.03,0.302-0.016,0.603,0.003,0.903
		c-1.323-0.145-2.455-1.943-2.736-3.024c-0.252-0.97-0.209-3.194,0.748-3.946C129.345,103.394,129.495,103.62,129.669,103.824z
		 M129.093,102.926c-0.495,0.171-0.787,0.875-0.975,1.368c-0.408,1.071-0.425,2.268-0.052,3.352c0.33,0.958,1.888,3.158,3.205,3.054
		c0.033,0.194,0.093,0.381,0.146,0.571c-0.071-0.016-0.137-0.037-0.207-0.055c-0.043-0.044-0.103-0.055-0.159-0.042
		c-1.652-0.446-3.005-1.382-3.573-3.141c-0.316-0.98-0.34-2.121-0.131-3.122c0.133-0.613,0.343-1.199,0.629-1.76
		c0.156-0.421,0.432-0.735,0.815-0.952C128.879,102.452,128.977,102.696,129.093,102.926z M128.284,100.592
		c0.15-0.042,0.193-0.176,0.163-0.292c0.02,0.452,0.078,0.901,0.18,1.332c-0.269,0.028-0.513,0.261-0.734,0.604
		c-0.048-0.071-0.122-0.125-0.234-0.106c-3.786,0.647-5.017,4.863-4.302,8.161c-0.027-0.059-0.071-0.104-0.131-0.115
		C121.907,106.009,123.827,101.824,128.284,100.592z M124.617,119.464c-1.521-0.463-2.175-2.279-2.514-3.688
		c-0.459-1.902-0.181-3.452,0.986-4.943c0.042,0.084,0.074,0.168,0.119,0.252c0.021,0.04,0.057,0.061,0.094,0.07
		c-0.073,0.207-0.122,0.418-0.157,0.63c-1.395,2.235-1.065,5.27,0.99,7.042c0.162,0.139,0.391-0.082,0.237-0.237
		c-1.55-1.549-1.98-3.828-1.196-5.774c0.101,0.448,0.304,0.822,0.597,1.109c-0.842,0.983-0.258,2.709,0.76,3.336
		c0.181,0.111,0.329-0.16,0.164-0.28c-0.509-0.37-0.797-0.943-0.84-1.567c-0.028-0.461,0.105-0.824,0.276-1.206
		c0.153,0.101,0.316,0.192,0.494,0.262c-0.446,0.541-0.162,1.572,0.467,1.87c0.014,0.006,0.025,0.001,0.037,0.003
		C124.713,117.316,124.545,118.378,124.617,119.464z M125.109,119.16c-0.02-1.622,0.511-3.085,1.508-4.358
		c0.306,0.36,0.646,0.678,1.015,0.951c-2.334,2.078-2.386,5.632-0.303,7.896C125.762,123.17,125.126,120.474,125.109,119.16z
		 M126.448,126.371c-0.479-0.399-0.826-0.949-1.017-1.539c-0.073-0.226-0.345-2.146,0.104-2.293
		c0.232,0.392,0.506,0.746,0.831,1.002c-0.022,0.018-0.047,0.033-0.06,0.065c-0.347,0.863,0.448,2.068,1.432,1.824
		c0.237,0.798,0.769,1.327,1.434,1.604C128.217,127.154,127.311,127.09,126.448,126.371z M132.03,126.184
		c-1.269,0.728-2.951,0.825-3.64-0.679c-0.273-0.596-0.254-1.272-0.065-1.892c0.2-0.659,0.838-1.989,1.709-1.89
		c0.039,0.004,0.06-0.014,0.073-0.037c1.114-0.142,2.289,0.104,2.883,1.172c-0.049,0.043-0.064,0.124,0.008,0.175
		c0.028,0.019,0.058,0.026,0.086,0.043C133.559,124.198,133.084,125.579,132.03,126.184z M133.019,122.037
		c0.506,0.006,1.024-0.106,1.376-0.455c0.029-0.029,0.036-0.066,0.034-0.105c0.254,0.086,0.513,0.144,0.773,0.196
		c0,0.002-0.003,0.003-0.003,0.006c-0.043,0.792-0.809,1.333-1.553,1.294C133.505,122.617,133.289,122.301,133.019,122.037z
		 M133.47,126.851c0.02,0.161,0.076,0.283,0.283,0.406c0.279,0.164,0.612,0.212,0.93,0.176c0.495-0.058,1.072-0.357,1.218-0.854
		c0.347,0.134,0.649,0.229,0.824,0.264c0.118,0.022,0.253,0.042,0.395,0.058c-0.511,0.635-1.086,1.119-1.897,1.347
		c-0.42,0.118-2.245,0.328-2.491-0.388C133.03,127.572,133.286,127.241,133.47,126.851z M132.429,128.114
		c0.333,0.706,1.712,0.81,2.349,0.747c1.153-0.115,2.333-0.768,2.853-1.833c0.016-0.033,0.005-0.06,0.01-0.09
		c0.55,0.02,1.183-0.015,1.783-0.133c-0.572,1.365-1.688,2.167-3.119,2.543c-1.164,0.306-3.746,0.43-4.514-0.84
		C132.017,128.395,132.232,128.265,132.429,128.114z M131.5,128.631c1.184,2.996,8.714,1.427,8.416-1.949
		c0.82-0.239,1.509-0.659,1.718-1.358c0.011-0.036-0.002-0.073-0.008-0.109c0.214,0.108,0.44,0.191,0.665,0.275
		c-0.016,0.022-0.041,0.034-0.048,0.066c-0.569,2.326-1.743,4.257-4.143,5.04c-2.23,0.727-5.785,0.416-7.112-1.788
		C131.163,128.755,131.336,128.7,131.5,128.631z M138.113,133.842c0.054-0.01,0.088-0.041,0.114-0.078
		c0.136,0.29,0.315,0.569,0.517,0.836c-0.963-0.138-1.855-0.088-2.8-0.599c-1.148-0.62-2.019-1.638-2.514-2.839
		c0.518,0.162,1.063,0.271,1.61,0.321c-0.001,0.009-0.009,0.013-0.007,0.022C135.207,132.984,136.625,134.098,138.113,133.842z
		 M137.944,132.911c0.028,0.171,0.074,0.342,0.133,0.51c-0.009,0-0.014-0.009-0.022-0.009c-1.267,0.092-2.441-0.66-2.782-1.908
		c0.355,0.024,0.708,0.032,1.05,0.014C136.393,132.274,137.162,133.171,137.944,132.911z M136.603,131.507
		c0.309-0.027,0.608-0.069,0.89-0.127c0.208-0.043,0.411-0.097,0.613-0.163c0.016,0.065,0.045,0.123,0.07,0.183
		c-0.198,0.391-0.274,0.787-0.261,1.179c-0.261-0.026-0.504-0.036-0.751-0.194C136.839,132.179,136.647,131.872,136.603,131.507z
		 M128.008,128.924c0.857,0.163,1.757,0.172,2.594-0.017c0.262,0.59,0.678,1.057,1.179,1.431c-0.461,1.346-0.085,2.451,0.735,3.345
		C130.6,132.442,128.992,130.869,128.008,128.924z M132.032,130.5c0.371,0.24,0.769,0.449,1.203,0.599
		c-0.025,0.024-0.042,0.055-0.031,0.101c0.316,1.356,1.145,2.452,2.341,3.174c0.943,0.57,2.486,1.13,3.565,0.643
		c0.367,0.402,0.781,0.739,1.197,1.032C137.147,135.891,131.419,134.372,132.032,130.5z M142.275,136.441
		c-1.842-0.609-4.333-2.498-3.898-4.7c0.415,0.509,1.193,0.805,1.993,0.973c0.147,2.766,3.032,4.742,5.672,3.475
		c0.01-0.004,0.009-0.014,0.017-0.019c0.148,0.095,0.305,0.172,0.467,0.24C145.138,136.866,143.7,136.913,142.275,136.441z
		 M145.284,137.252c0.318-0.04,0.637-0.078,0.949-0.161c-0.089,0.184,0.014,0.435,0.175,0.596c0.336,0.335,0.935,0.432,1.386,0.391
		c0.088-0.007,0.186-0.027,0.289-0.051c0.071,0.03,0.149,0.05,0.234,0.061c0.671,0.087,1.429-0.31,1.937-0.704
		c0.989-0.769,1.668-2.13,1.347-3.382c0.265-0.014,0.528-0.045,0.786-0.106c0.416,1.803-0.3,3.528-2.147,4.252
		C148.838,138.699,146.125,138.8,145.284,137.252z M151.808,138.533c-0.678,0.305-1.527,0.451-2.4,0.455
		c0.394-0.067,0.76-0.166,1.065-0.285c1.845-0.713,3.377-3.049,2.368-4.934c0.55-0.194,1.055-0.502,1.481-0.893
		c0.131,0.397,0.186,0.798,0.208,1.196c-0.006-0.001-0.012,0-0.018-0.001c-0.164-0.03-0.237,0.211-0.07,0.254
		c0.032,0.009,0.065,0.006,0.099,0.014C154.535,136.106,153.519,137.762,151.808,138.533z M154.299,137.087
		c0.134-0.225,0.262-0.454,0.361-0.696c1.99,0.691,4.611-1.245,4.966-3.196c0.005-0.032-0.011-0.06-0.017-0.09
		c0.844,0.046,1.692-0.082,2.498-0.339c0.001,0.062,0.004,0.123-0.003,0.187c-0.032,0.28-0.146,0.546-0.307,0.776
		c-0.326,0.462-0.857,0.755-1.422,0.739c0.139-0.364,0.232-0.754,0.266-1.172c0.02-0.26-0.334-0.258-0.418-0.057
		C159.144,135.844,157.278,137.532,154.299,137.087z M165.46,130.606c0.283,3.685-2.746,6.26-6.33,5.578
		c0.063-0.056,0.133-0.105,0.193-0.164c1.19,0.313,2.508,0.127,3.476-0.67c0.881-0.725,1.714-2.234,1.269-3.38
		c-0.021-0.056-0.069-0.089-0.12-0.11c0.626-0.424,1.181-0.944,1.626-1.552c0.021,0.019,0.041,0.041,0.062,0.059
		C165.535,130.394,165.45,130.461,165.46,130.606z M170.384,129.181c0.171,0.138,0.16,0.374,0.121,0.603
		c-0.012,0.006-0.026,0.004-0.037,0.013c-1.396,1.14-3.308,1.506-4.754,0.311c0.106-0.157,0.204-0.321,0.295-0.49
		c0.006,0.009,0.006,0.018,0.015,0.026C167.135,130.497,169.675,130.728,170.384,129.181z M170.474,126.207
		c-0.758,1.283-1.765,2.219-3.184,2.704c-1.132,0.387-2.139,0.138-3.09-0.346c0.02-0.071,0.058-0.13,0.074-0.204
		c0.063-0.294-0.339-0.395-0.444-0.122c-0.013,0.033-0.034,0.06-0.048,0.093c-0.421-0.245-0.833-0.522-1.243-0.802
		c0.116-0.05,0.228-0.107,0.334-0.174c1.519,1.008,4.059,1.216,5.498,0.045c1.629-1.325,1.802-3.503,1.381-5.422
		c-0.015-0.065-0.055-0.1-0.095-0.131c0.641-0.637,1.11-1.38,1.412-2.185C171.816,121.85,171.672,124.179,170.474,126.207z
		 M170.759,113.803c0.274-0.11,0.517-0.249,0.747-0.399c0.523,0.83,0.56,1.855,0.072,2.721c-0.081,0.145,0.124,0.256,0.217,0.127
		c0.674-0.928,0.67-2.138,0.047-3.081c0.141-0.115,0.245-0.256,0.366-0.386c0.625,1.508,0.372,3.157-0.695,4.415
		C171.513,116.04,171.252,114.866,170.759,113.803z M173.461,115.862c-0.375,1.266-1.31,1.866-2.108,2.791
		c0.073-0.37,0.123-0.745,0.139-1.123c0.021-0.002,0.043-0.004,0.063-0.02c1.535-1.19,1.94-3.401,0.987-5.073
		c0.101-0.137,0.174-0.291,0.258-0.439C173.557,113.14,173.859,114.515,173.461,115.862z"/>
	<path fill="#41281B" d="M130.821,123.554c-0.127,0.149-0.294,0.223-0.478,0.241c-0.027-0.163,0.058-0.305,0.261-0.425
		c0.099-0.046,0.029-0.209-0.074-0.176c-0.374,0.123-0.553,0.447-0.459,0.829c0.013,0.051,0.061,0.106,0.115,0.115
		c0.394,0.067,0.706-0.082,0.836-0.466C131.06,123.559,130.9,123.463,130.821,123.554z"/>
	<path fill="#41281B" d="M130.9,122.869c-0.102,0.034-0.061,0.179,0.044,0.16c0.502-0.092,0.636,0.284,0.74,0.651
		c0.037,0.132,0.227,0.13,0.265,0C132.122,123.095,131.393,122.7,130.9,122.869z"/>
	<path fill="#41281B" d="M129.326,123.083c-0.017,0.194-0.145,0.291-0.381,0.291c0.009-0.163-0.261-0.204-0.288-0.039
		c-0.04,0.239,0.075,0.445,0.341,0.466c0.374,0.03,0.493-0.364,0.54-0.661C129.558,123.005,129.368,122.945,129.326,123.083z"/>
	<path fill="#41281B" d="M129.591,125.129c-0.106,0.054-0.031,0.242,0.082,0.196c0.34-0.139,0.517,0.175,0.546,0.451
		c0.012,0.118,0.177,0.191,0.242,0.065C130.731,125.33,130.03,124.906,129.591,125.129z"/>
	<path fill="#41281B" d="M147.356,132.439c-0.181,0.171-0.58,0.29-0.65-0.088c-0.03-0.162-0.281-0.12-0.282,0.038
		c-0.002,0.674,1.141,0.882,1.211,0.166C147.65,132.406,147.451,132.349,147.356,132.439z"/>
	<path fill="#41281B" d="M147.889,131.779c-0.258-0.097-0.505-0.022-0.648,0.208c-0.09,0.145,0.127,0.262,0.224,0.131
		c0.349-0.015,0.535,0.108,0.557,0.372c0.024,0.1,0.042,0.201,0.055,0.303c0.02,0.134,0.217,0.091,0.226-0.03
		C148.326,132.391,148.292,131.932,147.889,131.779z"/>
	<path fill="#41281B" d="M147.835,134.743c-0.105,0.035-0.21,0.07-0.315,0.105c-0.327-0.057-0.394-0.134-0.202-0.231
		c0.095,0.025,0.157-0.112,0.069-0.162c-0.296-0.163-0.59,0.11-0.545,0.435c0.084,0.598,0.851,0.395,1.145,0.11
		C148.093,134.897,147.983,134.694,147.835,134.743z"/>
	<path fill="#41281B" d="M148.623,134.124c-0.084-0.044-0.144,0.069-0.072,0.123c0.096,0.277,0.037,0.453-0.177,0.527
		c-0.114,0.045-0.147,0.236,0,0.265C148.928,135.153,149.078,134.361,148.623,134.124z"/>
	<path fill="#41281B" d="M140.713,91.671c-0.06,0.119-0.12,0.238-0.179,0.357c-0.003,0.006,0.006,0.012,0.01,0.005
		c0.06-0.119,0.119-0.238,0.179-0.357C140.725,91.67,140.716,91.665,140.713,91.671z"/>
	<path fill="#41281B" d="M140.555,92.049c0.012,0,0.012-0.019,0-0.019"/>
</g>
</svg>
