<?xml version="1.0" encoding="utf-8"?>
<!-- Generator: Adobe Illustrator 17.0.0, SVG Export Plug-In . SVG Version: 6.00 Build 0)  -->
<!DOCTYPE svg PUBLIC "-//W3C//DTD SVG 1.1//EN" "http://www.w3.org/Graphics/SVG/1.1/DTD/svg11.dtd">
<svg version="1.1" id="Layer_1" xmlns="http://www.w3.org/2000/svg" xmlns:xlink="http://www.w3.org/1999/xlink" x="0px" y="0px"
	 width="200px" height="200px" viewBox="0 0 200 200" enable-background="new 0 0 200 200" xml:space="preserve">
<path fill="#97BF0D" d="M200,188.003c0,6.902-5.373,12.496-12,12.496H12c-6.627,0-12-5.595-12-12.496V12.11
	C0,5.208,5.373-0.387,12-0.387h176c6.627,0,12,5.595,12,12.496V188.003z"/>
<path fill="#41281B" d="M142.622,61.995c-0.495-0.431-1.155-0.637-1.801-0.548l-50.218,6.519c-1.137,0.148-1.988,1.116-1.988,2.264
	v9.783v6.848v38.205c-3.13-3.031-7.592-4.942-12.555-4.942c-9.441,0-17.12,6.878-17.12,15.328s7.679,15.323,17.12,15.323
	s17.12-6.875,17.12-15.326V88.866l45.653-5.93v27.412c-3.098-3.006-7.499-4.899-12.393-4.899c-9.35,0-16.956,6.878-16.956,15.328
	s7.608,15.326,16.956,15.326c9.35,0,16.958-6.875,16.958-15.326V80.341v-6.848v-9.783C143.398,63.052,143.115,62.429,142.622,61.995
	z"/>
</svg>
