<!-- Generated by IcoMoon.io -->
<svg version="1.1" xmlns="http://www.w3.org/2000/svg" width="256" height="256" viewBox="0 0 256 256">
<title>altre_procedure</title>
<path fill="#fff" d="M172.362 114.024c-0.003-4.678-3.795-8.47-8.473-8.473h-87.254c-4.68 0-8.473 3.793-8.473 8.473s3.793 8.473 8.473 8.473h87.254c4.679-0.003 8.47-3.795 8.473-8.473v-0z"></path>
<path fill="#fff" d="M76.635 139.439c-0.062-0.002-0.135-0.002-0.209-0.002-4.68 0-8.473 3.793-8.473 8.473s3.793 8.473 8.473 8.473c0.073 0 0.147-0.001 0.22-0.003l-0.011 0h52.995c4.589-0.117 8.264-3.864 8.264-8.47s-3.675-8.354-8.253-8.47l-0.011-0z"></path>
<path fill="#fff" d="M96.541 220.761h-28.333c-9.352-0.012-16.93-7.589-16.941-16.94v-149.094c0.009-9.354 7.588-16.934 16.94-16.946h104.175c9.353 0.012 16.933 7.593 16.941 16.946v52.088c0.117 4.589 3.864 8.264 8.47 8.264s8.354-3.675 8.47-8.253l0-0.011v-52.087c-0.020-18.706-15.177-33.864-33.88-33.888h-104.176c-18.705 0.023-33.862 15.182-33.882 33.886v149.095c0.020 18.706 15.177 33.864 33.88 33.888h28.335c4.68 0 8.473-3.793 8.473-8.473s-3.793-8.473-8.473-8.473v0z"></path>
<path fill="#fff" d="M221.241 143.492c-4.602-4.59-10.953-7.428-17.968-7.428s-13.365 2.838-17.968 7.428l0-0-46.507 46.414c-0.961 0.958-1.693 2.145-2.108 3.472l-0.016 0.060-10.118 33.331c-0.231 0.734-0.363 1.579-0.363 2.455 0 4.683 3.796 8.478 8.478 8.478 0.801 0 1.576-0.111 2.31-0.319l-0.060 0.014 34.197-9.453c1.463-0.413 2.719-1.165 3.724-2.166l-0 0 46.414-46.327c4.591-4.602 7.43-10.955 7.43-17.97s-2.839-13.368-7.431-17.97l0 0zM164.446 212.19l-17.199 4.77 5.033-16.575 31.381-31.314 11.98 11.985zM209.276 167.447l-1.64 1.64-11.98-11.98 1.635-1.63c1.533-1.535 3.652-2.484 5.993-2.484 4.678 0 8.469 3.792 8.469 8.469 0 2.337-0.946 4.452-2.477 5.985v0z"></path>
<path fill="#fff" d="M163.888 71.684h-87.254c-0.062-0.002-0.135-0.002-0.209-0.002-4.68 0-8.473 3.793-8.473 8.473s3.793 8.473 8.473 8.473c0.073 0 0.147-0.001 0.22-0.003l-0.011 0h87.254c0.062 0.002 0.136 0.002 0.209 0.002 4.679 0 8.473-3.793 8.473-8.473s-3.793-8.473-8.473-8.473c-0.073 0-0.147 0.001-0.22 0.003l0.011-0z"></path>
</svg>
