<!-- Generated by IcoMoon.io -->
<svg version="1.1" xmlns="http://www.w3.org/2000/svg" width="256" height="256" viewBox="0 0 256 256">
<title>announcement</title>
<path fill="#fff" d="M4.267 200.533h12.8v51.2c0 2.354 1.906 4.267 4.267 4.267h42.667c2.361 0 4.267-1.912 4.267-4.267v-85.333h38.4c2.361 0 4.267-1.912 4.267-4.267v-10.667l45.292 18.871c0.527 0.223 1.088 0.329 1.642 0.329 0.827 0 1.656-0.244 2.369-0.717 1.185-0.794 1.898-2.125 1.898-3.55v-68.267c0-1.425-0.713-2.756-1.898-3.55-1.188-0.794-2.69-0.938-4.006-0.388l-50.417 21.004h-16.213c-2.361 0-4.267 1.912-4.267 4.267v21.333h-23.638c4.071-4.536 6.571-10.504 6.571-17.067 0-14.119-11.481-25.6-25.6-25.6s-25.6 11.481-25.6 25.6c0 6.563 2.5 12.531 6.571 17.067h-2.304c-11.762 0-21.333 9.571-21.333 21.333v34.133c0 2.354 1.906 4.267 4.267 4.267zM153.6 160l-42.667-17.779v-19.912l42.667-17.775zM93.867 123.733h8.533v17.067h-8.533zM25.6 123.733c0-9.412 7.654-17.067 17.067-17.067s17.067 7.654 17.067 17.067-7.654 17.067-17.067 17.067-17.067-7.654-17.067-17.067zM8.533 162.133c0-7.056 5.744-12.8 12.8-12.8h81.067v8.533h-38.4c-2.361 0-4.267 1.912-4.267 4.267v85.333h-12.8v-51.2h-8.533v51.2h-12.8v-85.333h-8.533v29.867h-8.533z"></path>
<path fill="#fff" d="M256 64.017c0-11.152-8.627-20.231-19.537-21.167 4.169-4.556 6.738-10.602 6.738-17.25 0-14.119-11.481-25.6-25.6-25.6s-25.6 11.481-25.6 25.6c0 6.648 2.569 12.694 6.738 17.25-10.911 0.935-19.537 10.014-19.537 21.167v8.517c0 2.354 1.906 4.267 4.267 4.267h68.267c2.361 0 4.267-1.912 4.267-4.267zM217.6 8.533c9.412 0 17.067 7.654 17.067 17.067s-7.654 17.067-17.067 17.067-17.067-7.654-17.067-17.067 7.654-17.067 17.067-17.067zM247.467 68.267h-59.733v-4.25c0-7.065 5.752-12.817 12.817-12.817h34.1c7.065 0 12.817 5.752 12.817 12.817z"></path>
<path fill="#fff" d="M256 153.617c0-11.152-8.627-20.231-19.537-21.167 4.169-4.556 6.738-10.602 6.738-17.25 0-14.119-11.481-25.6-25.6-25.6s-25.6 11.481-25.6 25.6c0 6.648 2.569 12.694 6.738 17.25-10.911 0.935-19.537 10.014-19.537 21.167v8.517c0 2.354 1.906 4.267 4.267 4.267h68.267c2.361 0 4.267-1.912 4.267-4.267zM217.6 98.133c9.412 0 17.067 7.654 17.067 17.067s-7.654 17.067-17.067 17.067-17.067-7.654-17.067-17.067 7.654-17.067 17.067-17.067zM247.467 157.867h-59.733v-4.25c0-7.065 5.752-12.817 12.817-12.817h34.1c7.065 0 12.817 5.752 12.817 12.817z"></path>
<path fill="#fff" d="M256 243.217c0-11.152-8.627-20.231-19.537-21.167 4.169-4.556 6.738-10.602 6.738-17.25 0-14.119-11.481-25.6-25.6-25.6s-25.6 11.481-25.6 25.6c0 6.648 2.569 12.694 6.738 17.25-10.911 0.935-19.537 10.014-19.537 21.167v8.517c0 2.354 1.906 4.267 4.267 4.267h68.267c2.361 0 4.267-1.912 4.267-4.267zM217.6 187.733c9.412 0 17.067 7.654 17.067 17.067s-7.654 17.067-17.067 17.067-17.067-7.654-17.067-17.067 7.654-17.067 17.067-17.067zM247.467 247.467h-59.733v-4.25c0-7.065 5.752-12.817 12.817-12.817h34.1c7.065 0 12.817 5.752 12.817 12.817z"></path>
<path fill="#fff" d="M58.1 89.275c0.529 0.219 1.083 0.325 1.633 0.325 1.108 0 2.202-0.436 3.017-1.25l28.617-28.617h45.167c7.056 0 12.8-5.744 12.8-12.8v-34.133c0-7.056-5.744-12.8-12.8-12.8h-85.333c-7.056 0-12.8 5.744-12.8 12.8v34.133c0 7.056 5.744 12.8 12.8 12.8h4.267v25.6c0 1.723 1.038 3.281 2.633 3.942zM51.2 51.2c-2.354 0-4.267-1.917-4.267-4.267v-34.133c0-2.35 1.913-4.267 4.267-4.267h85.333c2.354 0 4.267 1.917 4.267 4.267v34.133c0 2.35-1.912 4.267-4.267 4.267h-46.933c-1.135 0-2.219 0.448-3.017 1.25l-22.583 22.583v-19.567c0-2.354-1.906-4.267-4.267-4.267z"></path>
<path fill="#fff" d="M55.467 17.067h17.067v8.533h-17.067z"></path>
<path fill="#fff" d="M55.467 34.133h25.6v8.533h-25.6z"></path>
<path fill="#fff" d="M81.067 17.067h51.2v8.533h-51.2z"></path>
<path fill="#fff" d="M89.6 34.133h8.533v8.533h-8.533z"></path>
<path fill="#fff" d="M106.667 34.133h8.533v8.533h-8.533z"></path>
<path fill="#fff" d="M123.733 34.133h8.533v8.533h-8.533z"></path>
</svg>
