<!-- Generated by IcoMoon.io -->
<svg version="1.1" xmlns="http://www.w3.org/2000/svg" width="256" height="256" viewBox="0 0 256 256">
<title>collaboration</title>
<path fill="#fff" d="M14.277 236.963h7.516v19.037h-7.516z"></path>
<path fill="#fff" d="M49.849 201.043c1.897-2.934 3.004-6.424 3.004-10.17v-7.516c0-10.359-8.428-18.785-18.787-18.785s-18.787 8.426-18.787 18.785v7.516c0 3.705 1.084 7.162 2.943 10.076-10.916 5.809-17.973 17.32-17.973 30.002v25.049h7.516v-25.049c0-10.66 6.387-20.254 16.043-24.35 2.953 1.932 6.474 3.059 10.258 3.059 3.728 0 7.203-1.098 10.127-2.976 9.742 4.060 16.174 13.598 16.174 24.267v25.049h7.516v-25.049c0-12.684-7.068-24.127-18.033-29.908zM45.338 190.873c0 6.215-5.057 11.272-11.271 11.272-6.217 0-11.271-5.057-11.271-11.272v-7.516c0-6.215 5.055-11.272 11.271-11.272 6.215 0 11.272 5.057 11.272 11.272z"></path>
<path fill="#fff" d="M46.34 236.963h7.516v19.037h-7.516z"></path>
<path fill="#fff" d="M201.643 236.963h7.516v19.037h-7.516z"></path>
<path fill="#fff" d="M237.215 201.043c1.897-2.934 3.004-6.424 3.004-10.17v-7.516c0-10.359-8.428-18.785-18.787-18.785s-18.787 8.426-18.787 18.785v7.516c0 3.705 1.084 7.162 2.943 10.076-10.916 5.809-17.973 17.32-17.973 30.002v25.049h7.516v-25.049c0-10.66 6.389-20.254 16.045-24.35 2.951 1.932 6.475 3.059 10.256 3.059 3.728 0 7.203-1.098 10.129-2.976 9.742 4.060 16.172 13.598 16.172 24.267v25.049h7.516v-25.049c0-12.684-7.066-24.127-18.033-29.908zM232.703 190.873c0 6.215-5.057 11.272-11.272 11.272s-11.272-5.057-11.272-11.272v-7.516c0-6.215 5.057-11.272 11.272-11.272s11.272 5.057 11.272 11.272z"></path>
<path fill="#fff" d="M233.705 236.963h7.516v19.037h-7.516z"></path>
<path fill="#fff" d="M107.459 72.391h7.516v19.037h-7.516z"></path>
<path fill="#fff" d="M100.947 66.379c0-10.658 6.389-20.252 16.045-24.349 2.951 1.932 6.473 3.059 10.256 3.059 3.729 0 7.203-1.096 10.129-2.977 9.74 4.060 16.172 13.599 16.172 24.267v25.049h7.516v-25.049c0-12.684-7.066-24.127-18.033-29.906 1.897-2.934 3.004-6.426 3.004-10.172v-7.514c0-10.36-8.428-18.787-18.787-18.787s-18.787 8.428-18.787 18.787v7.514c0 3.707 1.084 7.162 2.943 10.076-10.918 5.81-17.973 17.322-17.973 30.002v25.049h7.516zM115.977 18.787c0-6.217 5.057-11.271 11.272-11.271s11.271 5.055 11.271 11.271v7.514c0 6.217-5.057 11.273-11.272 11.273s-11.272-5.057-11.272-11.273z"></path>
<path fill="#fff" d="M139.522 72.391h7.516v19.037h-7.516z"></path>
<path fill="#fff" d="M152.184 232.17l1.772 7.303c2.506-0.607 5.022-1.309 7.482-2.086l-2.262-7.166c-2.297 0.725-4.65 1.381-6.992 1.949z"></path>
<path fill="#fff" d="M126.727 235.207c-7.938 0-15.822-0.873-23.535-2.6l13.541-5.94-3.017-6.881-27.527 12.070 19.297 23.049 5.762-4.826-8.225-9.822c7.781 1.635 15.719 2.463 23.705 2.463 6.564 0 13.166-0.563 19.623-1.674l-1.274-7.406c-6.037 1.039-12.211 1.566-18.35 1.566z"></path>
<path fill="#fff" d="M220.141 74.537l6.527-3.723c-1.277-2.238-2.649-4.465-4.080-6.617l-6.258 4.16c1.336 2.010 2.617 4.090 3.81 6.18z"></path>
<path fill="#fff" d="M212.107 62.447l5.963-4.572c-3.065-3.996-6.435-7.84-10.024-11.428-9.953-9.947-21.449-17.887-34.172-23.599l-3.078 6.855c11.887 5.338 22.633 12.76 31.938 22.058 3.356 3.355 6.508 6.951 9.373 10.685z"></path>
<path fill="#fff" d="M234.205 127.752c0 1.545-0.045 3.094-0.111 4.645l-8.594-12.086-6.123 4.353 17.416 24.5 18.642-23.58-5.897-4.662-7.865 9.951c0.027-1.041 0.047-2.082 0.047-3.119 0-12.144-1.897-24.139-5.639-35.65l-7.149 2.322c3.5 10.76 5.274 21.973 5.272 33.326z"></path>
<path fill="#fff" d="M226.455 87.603l6.973-2.805c-0.963-2.394-2.019-4.787-3.141-7.108l-6.768 3.272c1.049 2.166 2.037 4.4 2.935 6.641z"></path>
<path fill="#fff" d="M37.756 67.478l-6.217-4.221c-1.451 2.137-2.844 4.348-4.145 6.574l6.49 3.789c1.215-2.080 2.517-4.147 3.871-6.142z"></path>
<path fill="#fff" d="M20.154 141.389c-0.574-4.506-0.863-9.096-0.863-13.642 0-11.713 1.885-23.262 5.604-34.324l-7.123-2.394c-3.979 11.836-5.996 24.189-5.996 36.719 0 4.861 0.31 9.769 0.924 14.59z"></path>
<path fill="#fff" d="M30.442 80.012l-6.735-3.338c-1.145 2.311-2.227 4.692-3.213 7.076l6.945 2.871c0.92-2.227 1.93-4.449 3.002-6.609z"></path>
<path fill="#fff" d="M62.619 16.358l-1.496 7.363 11.801 2.401c-10.078 5.336-19.297 12.148-27.478 20.328-3.315 3.316-6.453 6.859-9.326 10.529l5.918 4.633c2.688-3.434 5.621-6.746 8.723-9.848 8.262-8.262 17.648-15.029 27.961-20.174l-7.291 13.859 6.648 3.498 13.998-26.602z"></path>
<path fill="#fff" d="M169.080 150.545h7.514v7.514h-7.514z"></path>
<path fill="#fff" d="M78.904 150.545h7.514v7.514h-7.514z"></path>
<path fill="#fff" d="M154.051 136.768h7.514v35.068h-7.514z"></path>
<path fill="#fff" d="M93.933 136.768h7.514v35.068h-7.514z"></path>
<path fill="#fff" d="M139.022 129.252h7.514v50.098h-7.514z"></path>
<path fill="#fff" d="M108.963 129.252h7.514v50.098h-7.514z"></path>
<path fill="#fff" d="M123.992 119.233h7.514v70.137h-7.514z"></path>
<path fill="#fff" d="M123.49 57.863h7.516v7.514h-7.516z"></path>
<path fill="#fff" d="M217.674 223.185h7.516v7.516h-7.516z"></path>
<path fill="#fff" d="M30.308 223.185h7.516v7.516h-7.516z"></path>
</svg>
