<!-- Generated by IcoMoon.io -->
<svg version="1.1" xmlns="http://www.w3.org/2000/svg" width="256" height="256" viewBox="0 0 256 256">
<title>location</title>
<path fill="#fff" d="M128.001 21.333c-16.495 0-29.867 13.372-29.867 29.867s13.372 29.867 29.867 29.867c16.487-0.019 29.847-13.38 29.867-29.867 0-16.495-13.372-29.867-29.867-29.867zM128.001 72.533c-11.782 0-21.333-9.552-21.333-21.333s9.552-21.333 21.333-21.333c11.782 0 21.333 9.552 21.333 21.333-0.014 11.776-9.557 21.319-21.333 21.333z"></path>
<path fill="#fff" d="M255.935 250.992l-25.6-145.067c-0.358-2.039-2.13-3.526-4.2-3.525h-64.461l11.949-26.381c7.96-16.029 7.369-34.979-1.575-50.481-8.179-14.732-23.279-24.301-40.092-25.409-1.246-0.085-2.692-0.129-3.954-0.129-4.899-0.004-9.775 0.663-14.492 1.984-14.337 4.029-26.112 14.273-32.088 27.913-6.487 14.433-6.175 31.012 0.85 45.192l12.278 27.313h-60.416c-2.025 0-3.771 1.423-4.179 3.406l-29.867 145.067c-0.476 2.307 1.008 4.563 3.315 5.039 0.284 0.059 0.574 0.088 0.864 0.088h247.467c2.357-0.001 4.267-1.913 4.264-4.271 0-0.247-0.021-0.494-0.065-0.738zM89.985 71.437c-5.945-11.932-6.227-25.901-0.766-38.063 4.939-11.312 14.688-19.813 26.567-23.167 3.977-1.114 8.087-1.677 12.217-1.675 1.079 0 2.308 0.035 3.375 0.108 13.962 0.938 26.492 8.9 33.271 21.142 7.536 13.081 8.012 29.069 1.267 42.575l-37.9 83.669-38.029-84.589zM89.602 153.602c0-0 0-0.001 0-0.002v-42.667h8.786l25.722 57.216c0.689 1.53 2.21 2.515 3.888 2.517h0.004c1.676 0 3.196-0.98 3.887-2.506l25.919-57.227h64.747l15.81 89.6h-37.831v-17.067c0-2.356-1.909-4.266-4.264-4.267-0 0-0.001 0-0.002 0h-128v-21.333h17.067c2.356 0 4.266-1.909 4.267-4.264zM37.614 110.933h43.455v38.4h-51.361l7.906-38.4zM157.868 204.798c0 0 0 0.001 0 0.002v42.667h-148.367l18.449-89.6h31.785v25.6c-0.001 2.356 1.909 4.266 4.264 4.267 0.001 0 0.001 0 0.002 0h128v12.8h-29.867c-2.356-0-4.267 1.909-4.267 4.264zM166.401 247.467v-38.4h73.47l6.776 38.4h-80.246z"></path>
</svg>
