<!-- Generated by IcoMoon.io -->
<svg version="1.1" xmlns="http://www.w3.org/2000/svg" width="256" height="256" viewBox="0 0 256 256">
<title>management</title>
<path fill="#fff" d="M186.667 48h-13.451c-0.564-1.584-1.208-3.138-1.93-4.656l9.514-9.514c2.082-2.082 2.082-5.459 0-7.541l-15.088-15.088c-2.083-2.082-5.458-2.082-7.542 0l-9.514 9.514c-1.518-0.723-3.072-1.366-4.656-1.93v-13.45c0-2.946-2.388-5.333-5.333-5.333h-21.334c-2.945 0-5.333 2.388-5.333 5.333v13.45c-1.584 0.562-3.138 1.205-4.656 1.925l-9.514-9.509c-2.082-2.082-5.459-2.082-7.541 0l-15.088 15.088c-2.082 2.082-2.082 5.459 0 7.541l9.514 9.514c-0.722 1.518-1.367 3.072-1.93 4.656h-13.451c-2.945 0-5.334 2.388-5.334 5.334v21.334c0 2.945 2.388 5.334 5.334 5.334h13.451c0.562 1.584 1.205 3.138 1.925 4.656l-9.51 9.514c-2.082 2.082-2.082 5.459 0 7.541l15.088 15.088c2.082 2.082 5.459 2.082 7.541 0l9.514-9.514c1.518 0.722 3.072 1.367 4.656 1.93v13.451c0 2.945 2.388 5.334 5.334 5.334h21.334c2.946 0 5.333-2.388 5.333-5.334v-13.445c1.584-0.564 3.138-1.209 4.656-1.93l9.514 9.51c2.083 2.082 5.458 2.082 7.542 0l15.088-15.088c2.082-2.082 2.082-5.459 0-7.541l-9.514-9.514c0.722-1.518 1.367-3.072 1.93-4.656h13.451c2.946 0 5.333-2.388 5.333-5.334v-21.334c-0-2.945-2.388-5.333-5.334-5.333zM181.333 69.328h-12.059c-2.431 0.001-4.555 1.645-5.162 4-0.87 3.37-2.208 6.601-3.974 9.6-1.238 2.096-0.9 4.764 0.821 6.486l8.534 8.534-7.542 7.541-8.534-8.534c-1.721-1.722-4.389-2.060-6.486-0.822-2.999 1.766-6.231 3.103-9.6 3.974-2.355 0.608-4 2.731-4 5.162v12.064h-10.666l0.005-12.048c-0.001-2.431-1.645-4.555-4-5.162-3.37-0.871-6.601-2.208-9.6-3.974-2.096-1.239-4.764-0.9-6.486 0.822l-8.534 8.534-7.541-7.541 8.534-8.534c1.722-1.721 2.060-4.389 0.822-6.486-1.766-2.999-3.103-6.231-3.974-9.6-0.608-2.355-2.731-3.999-5.162-4h-12.064v-10.666h12.070c2.431-0.001 4.555-1.645 5.162-4 0.871-3.37 2.208-6.601 3.974-9.6 1.239-2.096 0.9-4.764-0.822-6.486l-8.534-8.534 7.531-7.546 8.534 8.534c1.721 1.722 4.389 2.060 6.486 0.822 2.999-1.765 6.231-3.103 9.6-3.974 2.355-0.608 3.999-2.731 4-5.162v-12.065h10.666v12.064c-0.003 2.43 1.637 4.556 3.989 5.168 3.369 0.87 6.601 2.208 9.6 3.974 2.096 1.239 4.764 0.901 6.486-0.822l8.534-8.534 7.547 7.53-8.534 8.533c-1.722 1.721-2.060 4.389-0.821 6.486 1.766 2.999 3.103 6.23 3.974 9.6 0.608 2.355 2.731 3.999 5.162 4h12.064v10.661z"></path>
<path fill="#fff" d="M128 42.666c-11.782 0-21.334 9.552-21.334 21.334s9.552 21.334 21.334 21.334c11.782 0 21.334-9.552 21.334-21.334s-9.552-21.334-21.334-21.334zM128 74.666c-5.891 0-10.666-4.775-10.666-10.666s4.775-10.666 10.666-10.666c5.891 0 10.666 4.776 10.666 10.666s-4.775 10.666-10.666 10.666z"></path>
<path fill="#fff" d="M90.666 133.333v10.512c0 17.755-9.568 32.155-21.334 32.155s-21.333-14.4-21.333-32.154v-9.76c2.64-9.677 11.306-16.483 21.334-16.752v-10.666c-15.142 0.25-28.215 10.667-31.84 25.37-0.106 0.424-0.16 0.859-0.16 1.296v10.512c0 24.011 14.059 42.822 32 42.822s32-18.81 32-42.822v-10.512h-10.667z"></path>
<path fill="#fff" d="M96 186.667c-0.43 0.028-0.86 0.028-1.29 0-5.535-0.356-9.733-5.131-9.377-10.667h-10.666c-0.012 0.407-0.012 0.815 0 1.224 0.338 11.444 9.889 20.448 21.334 20.11 8.837 0 16 7.163 16 16v42.666h10.666v-42.666c-0.018-14.72-11.947-26.649-26.667-26.667z"></path>
<path fill="#fff" d="M64 176h-10.666c0.027 0.425 0.027 0.852 0 1.278-0.353 5.538-5.129 9.742-10.666 9.388-14.721 0.018-26.649 11.947-26.667 26.667v42.667h10.666v-42.666c0-8.837 7.163-16 16-16 0.407 0.012 0.816 0.012 1.224 0 11.444-0.338 20.448-9.889 20.11-21.334z"></path>
<path fill="#fff" d="M37.335 218.665h10.666v37.335h-10.666v-37.335z"></path>
<path fill="#fff" d="M90.665 218.665h10.666v37.335h-10.666v-37.335z"></path>
<path fill="#fff" d="M218.506 132.037c-3.625-14.704-16.698-25.121-31.84-25.37v10.666c10.024 0.27 18.69 7.073 21.334 16.747v9.766c0 17.755-9.568 32.154-21.334 32.154s-21.334-14.4-21.334-32.154v-10.512h-10.666v10.512c0 24.011 14.059 42.822 32 42.822s32-18.81 32-42.822v-10.512c0-0.437-0.054-0.873-0.16-1.296z"></path>
<path fill="#fff" d="M213.333 186.667c-0.429 0.028-0.86 0.028-1.29 0-5.535-0.356-9.733-5.131-9.377-10.667h-10.667c-0.012 0.407-0.012 0.815 0 1.224 0.338 11.444 9.889 20.448 21.333 20.11 8.837 0 16 7.163 16 16v42.666h10.666v-42.666c-0.018-14.72-11.947-26.649-26.666-26.667z"></path>
<path fill="#fff" d="M181.333 176h-10.667c0.027 0.425 0.027 0.852 0 1.278-0.353 5.538-5.129 9.742-10.666 9.388-14.72 0.018-26.649 11.947-26.666 26.666v42.667h10.666v-42.667c0-8.837 7.163-16 16-16 0.407 0.012 0.815 0.012 1.224 0 11.444-0.338 20.447-9.889 20.11-21.334z"></path>
<path fill="#fff" d="M154.665 218.665h10.667v37.335h-10.666v-37.335z"></path>
<path fill="#fff" d="M208 218.665h10.666v37.335h-10.666v-37.335z"></path>
<path fill="#fff" d="M122.665 138.665h10.666v10.667h-10.666v-10.666z"></path>
<path fill="#fff" d="M122.665 160h10.666v10.666h-10.666v-10.666z"></path>
<path fill="#fff" d="M122.665 181.335h10.666v10.667h-10.666v-10.666z"></path>
</svg>
