<!-- Generated by IcoMoon.io -->
<svg version="1.1" xmlns="http://www.w3.org/2000/svg" width="256" height="256" viewBox="0 0 256 256">
<title>meeting</title>
<path fill="#fff" d="M236.28 88.471c5.666-5.359 9.228-12.926 9.228-21.323 0-16.199-13.178-29.377-29.377-29.377s-29.377 13.178-29.377 29.377c0 10.307 5.346 19.376 13.4 24.618-5.548 3.781-9.203 10.144-9.203 17.349v29.377h-16.787v-20.983c0-15.016-11.331-27.422-25.894-29.15 5.599-5.351 9.107-12.871 9.107-21.21 0-16.199-13.178-29.377-29.377-29.377s-29.377 13.178-29.377 29.377c0 8.339 3.508 15.859 9.107 21.21-14.563 1.729-25.894 14.135-25.894 29.15v20.983h-16.787v-29.377c0-7.206-3.655-13.568-9.203-17.349 8.053-5.242 13.4-14.311 13.4-24.618 0-16.199-13.178-29.377-29.377-29.377s-29.377 13.178-29.377 29.377c0 8.398 3.563 15.964 9.229 21.323-9.967 1.62-17.622 10.223-17.622 20.644v62.951c0 10.131 7.223 18.608 16.787 20.56v63.375h8.393v-62.951h37.77v58.754c0 2.316 1.88 4.197 4.197 4.197h25.18c2.317 0 4.197-1.88 4.197-4.197v-67.147h25.18v62.951h-16.787v8.393h41.967v-8.393h-16.787v-62.951h25.18v67.147c0 2.316 1.88 4.197 4.197 4.197h25.18c2.316 0 4.197-1.88 4.197-4.197v-58.754h37.77v62.951h8.393v-63.375c9.564-1.952 16.787-10.425 16.787-20.56v-62.951c0-10.421-7.655-19.024-17.622-20.644zM195.148 67.147c0-11.57 9.413-20.983 20.983-20.983s20.983 9.413 20.983 20.983c0 11.57-9.413 20.984-20.983 20.984s-20.983-9.413-20.983-20.983zM107.016 67.147c0-11.57 9.413-20.983 20.984-20.983s20.983 9.413 20.983 20.983c0 11.57-9.413 20.984-20.983 20.984s-20.983-9.413-20.983-20.983zM134.534 96.525l-6.534 17.425-6.534-17.425h13.069zM90.23 117.508c0-11.57 9.413-20.983 20.983-20.983h1.288l11.57 30.85c0.613 1.637 2.178 2.724 3.928 2.724s3.315-1.087 3.932-2.724l11.566-30.85h1.288c11.57 0 20.983 9.413 20.983 20.983v20.983h-16.787c-2.316 0-4.197 1.88-4.197 4.197v16.787h-33.574v-16.787c0-2.316-1.88-4.197-4.197-4.197h-16.787v-20.983zM18.885 67.147c0-11.57 9.413-20.983 20.983-20.983s20.983 9.413 20.983 20.983c0 11.57-9.413 20.984-20.983 20.984s-20.983-9.413-20.983-20.983zM90.23 247.607h-16.787v-58.754c0-2.316-1.88-4.197-4.197-4.197h-46.164c-6.941 0-12.59-5.649-12.59-12.59v-62.951c0-6.942 5.649-12.59 12.59-12.59h20.983c6.941 0 12.59 5.649 12.59 12.59v33.574c0 2.316 1.88 4.197 4.197 4.197h41.967v12.59h-58.754v-37.77h-8.393v41.967c0 2.316 1.88 4.197 4.197 4.197h37.77c6.942 0 12.59 5.649 12.59 12.59v67.148zM157.847 176.262h-59.694c-0.634-3.093-1.905-5.955-3.735-8.393h67.164c-1.83 2.438-3.101 5.3-3.735 8.393zM245.508 172.065c0 6.941-5.649 12.59-12.59 12.59h-46.164c-2.316 0-4.197 1.88-4.197 4.197v58.754h-16.787v-67.147c0-6.941 5.649-12.59 12.59-12.59h37.77c2.316 0 4.197-1.88 4.197-4.197v-41.967h-8.393v37.77h-58.754v-12.59h41.967c2.316 0 4.197-1.88 4.197-4.197v-33.574c0-6.942 5.649-12.59 12.59-12.59h20.983c6.941 0 12.59 5.649 12.59 12.59v62.951z"></path>
<path fill="#fff" d="M123.803 138.492h8.394v8.393h-8.394v-8.393z"></path>
<path fill="#fff" d="M107.016 0h-58.754c-2.316 0-4.197 1.88-4.197 4.197v20.983c0 2.317 1.88 4.197 4.197 4.197h16.787v8.393c0 1.59 0.898 3.042 2.321 3.756 0.592 0.294 1.238 0.441 1.876 0.441 0.89 0 1.775-0.285 2.518-0.839l15.666-11.751h19.586c2.317 0 4.197-1.88 4.197-4.197v-20.983c0-2.317-1.88-4.197-4.197-4.197zM102.82 20.983h-16.787c-0.906 0-1.792 0.294-2.518 0.839l-10.072 7.554v-4.197c0-2.317-1.88-4.197-4.197-4.197h-16.787v-12.59h50.361v12.59z"></path>
<path fill="#fff" d="M148.983 12.59h8.393v8.394h-8.393v-8.393z"></path>
<path fill="#fff" d="M165.77 12.59h8.393v8.394h-8.393v-8.393z"></path>
<path fill="#fff" d="M182.558 12.59h8.393v8.394h-8.393v-8.393z"></path>
</svg>
