<!-- Generated by IcoMoon.io -->
<svg version="1.1" xmlns="http://www.w3.org/2000/svg" width="256" height="256" viewBox="0 0 256 256">
<title>piani_comunali</title>
<path fill="#fff" d="M140.084 55.151c-19.263 0-34.878 15.616-34.878 34.878s15.615 34.878 34.878 34.878c19.263 0 34.878-15.615 34.878-34.878v0c-0.024-19.253-15.625-34.855-34.876-34.878h-0.002zM140.084 112.078c-12.177 0-22.049-9.871-22.049-22.049s9.871-22.049 22.049-22.049c12.177 0 22.049 9.871 22.049 22.049v0c-0.015 12.171-9.877 22.034-22.048 22.049h-0.001z"></path>
<path fill="#fff" d="M53.114 106.255c0 18.387 5.672 37.917 16.849 58.038 1.286 2.284 3.695 3.801 6.459 3.801 4.080 0 7.388-3.308 7.388-7.388 0-1.317-0.344-2.553-0.948-3.624l0.019 0.037c-9.952-17.919-14.995-35.013-14.995-50.865 0-38.873 31.627-70.494 70.494-70.494s70.494 31.621 70.494 70.494c0 52.206-54.278 102.375-70.499 116.197-7.838-6.664-24.552-21.779-39.672-41.464-1.365-1.692-3.439-2.766-5.763-2.766-4.079 0-7.386 3.307-7.386 7.386 0 1.647 0.539 3.168 1.45 4.396l-0.014-0.020c21.732 28.292 45.853 47.094 46.871 47.879 1.235 0.966 2.81 1.548 4.522 1.548s3.286-0.583 4.538-1.561l-0.016 0.012c0.815-0.634 20.325-15.826 40.077-39.423 26.983-32.203 40.664-63.238 40.664-92.184 0-47.011-38.249-85.266-85.266-85.266s-85.266 38.254-85.266 85.266z"></path>
</svg>
