<!-- Generated by IcoMoon.io -->
<svg version="1.1" xmlns="http://www.w3.org/2000/svg" width="256" height="256" viewBox="0 0 256 256">
<title>piani_emergenza</title>
<path fill="#fff" d="M127.638 112.036c4.001 0 7.245 3.243 7.245 7.245s-3.244 7.245-7.245 7.245c-4.001 0-7.245-3.243-7.245-7.245v0c0-4.001 3.243-7.245 7.245-7.245v0zM152.993 119.281c0 4.001 3.244 7.245 7.244 7.245s7.244-3.243 7.244-7.245c0-4.001-3.244-7.245-7.244-7.245-0.002 0-0.004 0-0.006 0h0c-3.998 0-7.239 3.241-7.239 7.239 0 0.002 0 0.004 0 0.005v-0zM87.794 119.281c0 4.001 3.243 7.245 7.245 7.245s7.245-3.243 7.245-7.245c0-4.001-3.243-7.245-7.245-7.245v0c-4.001 0-7.245 3.243-7.245 7.245v0zM214.35 187.215c3.835 3.916 6.201 9.282 6.201 15.202 0 12.003-9.73 21.733-21.733 21.733-5.918 0-11.284-2.365-15.203-6.202l0.004 0.004-39.781-39.676c-0.822-0.82-1.449-1.836-1.803-2.972l-0.014-0.051-8.662-28.51c-0.201-0.633-0.316-1.362-0.316-2.117 0-4.001 3.244-7.244 7.244-7.244 0.703 0 1.383 0.1 2.026 0.287l-0.051-0.013 29.24 8.095c1.25 0.356 2.323 1 3.181 1.858v0zM155.387 169.304l26.836 26.773 10.237-10.242-26.678-26.626-14.699-4.079zM204.124 197.462l-1.402-1.397-10.252 10.242 1.391 1.391c1.311 1.313 3.124 2.125 5.126 2.125 4.002 0 7.246-3.244 7.246-7.246 0-2-0.81-3.81-2.12-5.121v0zM132.026 188.984c-1.339 0.063-2.693 0.089-4.026 0.089-0.1 0-0.219 0.001-0.338 0.001-11.893 0-23.232-2.369-33.572-6.661l0.581 0.214c-0.811-0.339-1.753-0.536-2.742-0.536-1.017 0-1.986 0.208-2.865 0.585l0.047-0.018-32.983 13.927 11.113-26.327c0.361-0.831 0.571-1.799 0.571-2.817 0-1.853-0.697-3.543-1.842-4.823l0.006 0.007c-10.604-11.916-16.211-26.174-16.211-41.23 0-37.513 35.093-68.034 78.219-68.034s78.218 30.521 78.218 68.034c0 8.898-2.184 17.849-6.494 26.547-0.448 0.915-0.71 1.991-0.71 3.129 0 4.001 3.244 7.244 7.244 7.244 2.8 0 5.228-1.588 6.434-3.913l0.019-0.040c5.302-10.73 7.995-21.822 7.995-32.967 0-45.503-41.597-82.523-92.723-82.523s-92.692 37.020-92.692 82.523c0 17.192 5.822 33.466 16.893 47.314l-16.321 38.647c-0.362 0.833-0.574 1.804-0.574 2.824 0 3.998 3.241 7.239 7.239 7.239 1.019 0 1.988-0.21 2.867-0.59l-0.047 0.018 46.721-19.712c10.59 4.059 22.84 6.41 35.638 6.41 0.115 0 0.23-0 0.344-0h-0.018c1.543 0 3.113-0.037 4.661-0.1 3.983-0.024 7.203-3.258 7.203-7.244 0-4.001-3.244-7.244-7.244-7.244-0.216 0-0.43 0.010-0.642 0.028l0.028-0.002z"></path>
</svg>
