<!-- Generated by IcoMoon.io -->
<svg version="1.1" xmlns="http://www.w3.org/2000/svg" width="256" height="256" viewBox="0 0 256 256">
<title>piani_intercomunali</title>
<path fill="#fff" d="M63.742 134.386c-8.455 0.010-16.223 2.945-22.349 7.846l0.071-0.055c-0.711 0.544-1.165 1.393-1.165 2.349 0 1.629 1.321 2.95 2.95 2.95 0.722 0 1.384-0.26 1.897-0.69l-0.005 0.004c5.015-4.048 11.467-6.498 18.491-6.498 0.038 0 0.077 0 0.114 0h-0.006c16.482 0.021 29.838 13.378 29.856 29.859v0.002c0 22.168-23.139 43.453-29.855 49.157-6.721-5.714-29.855-26.952-29.855-49.157 0-0.016 0-0.036 0-0.055 0-5.598 1.544-10.835 4.23-15.309l-0.075 0.135c0.26-0.43 0.413-0.951 0.413-1.506 0-1.63-1.321-2.951-2.951-2.951-1.074 0-2.014 0.573-2.53 1.431l-0.008 0.013c-3.139 5.211-4.997 11.502-4.997 18.226 0 0.005 0 0.011 0 0.016v-0.001c0 28.708 32.567 54.242 33.959 55.311 0.495 0.392 1.129 0.628 1.818 0.628s1.322-0.237 1.824-0.633l-0.006 0.005c1.387-1.070 33.954-26.604 33.954-55.311-0.024-19.741-16.020-35.737-35.759-35.761h-0.002z"></path>
<path fill="#fff" d="M63.742 154.108c-0.002 0-0.003 0-0.005 0-8.858 0-16.039 7.181-16.039 16.039s7.181 16.039 16.039 16.039c8.858 0 16.039-7.181 16.039-16.039v0c-0.012-8.852-7.183-16.024-16.033-16.039h-0.002zM63.742 180.281c-5.597 0-10.134-4.537-10.134-10.134s4.537-10.134 10.134-10.134c5.597 0 10.134 4.537 10.134 10.134v0c-0.006 5.594-4.539 10.128-10.133 10.134h-0.001z"></path>
<path fill="#fff" d="M195.442 68.151c-18.801 0.021-34.037 15.257-34.058 34.055v0.002c0 11.557 5.464 23.95 16.242 36.821 4.86 5.798 10.105 10.96 15.801 15.587l0.212 0.167c0.493 0.385 1.122 0.618 1.805 0.618s1.312-0.232 1.811-0.623l-0.006 0.005c6.988-5.69 13.129-11.965 18.505-18.866l0.194-0.259c0.421-0.506 0.677-1.163 0.677-1.88 0-1.629-1.321-2.95-2.95-2.95-0.986 0-1.86 0.484-2.395 1.227l-0.006 0.009c-4.812 6.138-10.009 11.56-15.694 16.43l-0.154 0.129c-6.482-5.516-28.162-25.56-28.162-46.409 0-15.551 12.606-28.157 28.157-28.157s28.157 12.606 28.157 28.157v0c0 6.326-2.015 13.162-5.983 20.314-0.268 0.436-0.427 0.963-0.427 1.528 0 1.629 1.321 2.95 2.95 2.95 1.141 0 2.13-0.647 2.621-1.594l0.008-0.016c4.467-8.040 6.752-15.837 6.752-23.186-0.024-18.799-15.258-34.031-34.055-34.052h-0.002z"></path>
<path fill="#fff" d="M195.442 86.85c-8.482 0-15.359 6.876-15.359 15.359s6.876 15.359 15.359 15.359c8.482 0 15.359-6.876 15.359-15.359v0c-0.012-8.478-6.881-15.347-15.358-15.359h-0.001zM195.442 111.662c-5.224 0-9.459-4.235-9.459-9.459s4.235-9.459 9.459-9.459c5.224 0 9.459 4.235 9.459 9.459 0 0.002 0 0.004 0 0.005v-0c0 0.001 0 0.003 0 0.005 0 5.224-4.235 9.459-9.459 9.459v0z"></path>
<path fill="#fff" d="M73.943 41.137c-7.871 0-14.252 6.381-14.252 14.252s6.381 14.252 14.252 14.252c7.87 0 14.249-6.378 14.252-14.247v-0c-0.006-7.87-6.383-14.249-14.252-14.258h-0.001zM73.943 63.742c-4.613 0-8.352-3.739-8.352-8.352s3.739-8.352 8.352-8.352c4.613 0 8.352 3.739 8.352 8.352 0 0.002 0 0.004 0 0.005v-0c-0.006 4.609-3.742 8.344-8.352 8.347h-0z"></path>
<path fill="#fff" d="M73.943 24.106c-17.27 0.021-31.264 14.018-31.279 31.288v0.002c0 5.397 1.335 11.095 3.984 16.928 0.486 1.002 1.495 1.68 2.663 1.68 1.629 0 2.95-1.321 2.95-2.95 0-0.424-0.089-0.826-0.25-1.19l0.008 0.019c-2.296-5.059-3.459-9.931-3.459-14.486-0.002-0.108-0.002-0.236-0.002-0.363 0-14.022 11.367-25.389 25.389-25.389s25.388 11.367 25.388 25.389c0 0.128-0.001 0.255-0.003 0.382l0-0.019c0 18.699-19.311 36.722-25.389 41.926-3.272-2.799-10.388-9.313-16.247-17.66-0.537-0.791-1.433-1.304-2.448-1.304-1.629 0-2.95 1.321-2.95 2.95 0 0.654 0.213 1.259 0.574 1.748l-0.006-0.008c5.6 7.763 11.951 14.478 19.082 20.272l0.192 0.151c0.496 0.391 1.129 0.628 1.818 0.628s1.323-0.237 1.824-0.633l-0.006 0.005c5.388-4.371 10.169-9.078 14.468-14.204l0.132-0.162c9.869-11.775 14.855-23.119 14.855-33.709-0.018-17.273-14.016-31.271-31.287-31.289h-0.002z"></path>
<path fill="#fff" d="M113.651 117.007l-3.605-1.558c-0.317-0.126-0.684-0.2-1.069-0.2-1.632 0-2.956 1.323-2.956 2.956 0 1.161 0.669 2.166 1.644 2.649l0.017 0.008 3.605 1.558c0.348 0.156 0.754 0.247 1.182 0.247 1.629 0 2.951-1.321 2.951-2.951 0-1.202-0.719-2.236-1.75-2.696l-0.019-0.007z"></path>
<path fill="#fff" d="M171.321 142.219l-3.605-1.558c-0.348-0.156-0.754-0.247-1.182-0.247-1.63 0-2.951 1.321-2.951 2.951 0 1.202 0.719 2.236 1.75 2.696l0.019 0.007 3.605 1.558c0.348 0.156 0.754 0.247 1.182 0.247 1.63 0 2.951-1.321 2.951-2.951 0-1.202-0.719-2.236-1.75-2.696l-0.019-0.007z"></path>
<path fill="#fff" d="M99.233 110.706l-3.605-1.558c-0.348-0.156-0.754-0.247-1.182-0.247-1.629 0-2.951 1.321-2.951 2.951 0 1.202 0.719 2.236 1.75 2.696l0.019 0.007 3.605 1.558c0.348 0.156 0.754 0.247 1.182 0.247 1.629 0 2.951-1.321 2.951-2.951 0-1.202-0.719-2.236-1.75-2.696l-0.019-0.007z"></path>
<path fill="#fff" d="M84.814 104.401l-3.605-1.558c-0.348-0.156-0.754-0.247-1.182-0.247-1.629 0-2.951 1.321-2.951 2.951 0 1.202 0.719 2.236 1.75 2.696l0.019 0.007 3.605 1.558c0.349 0.156 0.755 0.248 1.183 0.249h0.001c0.001 0 0.002 0 0.004 0 1.629 0 2.95-1.321 2.95-2.95 0-1.204-0.722-2.24-1.756-2.699l-0.019-0.007z"></path>
<path fill="#fff" d="M185.735 148.519l-3.605-1.558c-0.348-0.156-0.754-0.247-1.182-0.247-1.63 0-2.951 1.321-2.951 2.951 0 1.202 0.719 2.236 1.75 2.696l0.019 0.007 3.605 1.558c0.349 0.156 0.756 0.248 1.184 0.249h0c0.001 0 0.002 0 0.004 0 1.629 0 2.95-1.321 2.95-2.95 0-1.204-0.722-2.24-1.756-2.699l-0.019-0.007z"></path>
<path fill="#fff" d="M156.903 135.913l-3.605-1.558c-0.348-0.156-0.754-0.247-1.182-0.247-1.63 0-2.951 1.321-2.951 2.951 0 1.202 0.719 2.236 1.75 2.696l0.019 0.007 3.605 1.558c0.348 0.156 0.754 0.247 1.182 0.247 1.63 0 2.951-1.321 2.951-2.951 0-1.202-0.719-2.236-1.75-2.696l-0.019-0.007z"></path>
<path fill="#fff" d="M142.484 129.613l-3.605-1.558c-0.348-0.156-0.754-0.247-1.182-0.247-1.63 0-2.951 1.321-2.951 2.95 0 1.202 0.719 2.236 1.75 2.696l0.019 0.007 3.605 1.558c0.348 0.156 0.754 0.247 1.182 0.247 1.63 0 2.951-1.321 2.951-2.951 0-1.202-0.719-2.236-1.75-2.696l-0.019-0.007z"></path>
<path fill="#fff" d="M128.065 123.307l-3.605-1.558c-0.348-0.156-0.754-0.247-1.182-0.247-1.629 0-2.951 1.321-2.951 2.951 0 1.202 0.719 2.236 1.75 2.696l0.019 0.007 3.605 1.558c0.348 0.156 0.754 0.247 1.182 0.247 1.629 0 2.95-1.321 2.95-2.951 0-1.202-0.719-2.236-1.75-2.696l-0.019-0.007z"></path>
<path fill="#fff" d="M81.547 217.819c-0.505-0.937-1.48-1.563-2.601-1.563-0.508 0-0.987 0.129-1.404 0.356l0.016-0.008-3.47 1.849c-0.944 0.503-1.576 1.482-1.576 2.607 0 1.626 1.319 2.945 2.945 2.945 0.008 0 0.016 0 0.024 0h-0.001c0.001 0 0.002 0 0.003 0 0.505 0 0.98-0.129 1.394-0.356l-0.015 0.007 3.47-1.849c0.937-0.506 1.563-1.48 1.563-2.601 0-0.508-0.129-0.987-0.356-1.404l0.008 0.016z"></path>
<path fill="#fff" d="M95.451 210.417c-0.507-0.938-1.482-1.564-2.604-1.564-0.509 0-0.988 0.129-1.406 0.356l0.016-0.008-3.47 1.849c-1.029 0.476-1.731 1.499-1.731 2.686 0 1.629 1.321 2.95 2.95 2.95 0.576 0 1.112-0.165 1.567-0.45l-0.012 0.007 3.47-1.849c0.939-0.508 1.566-1.485 1.566-2.608 0-0.507-0.128-0.984-0.353-1.401l0.008 0.016z"></path>
<path fill="#fff" d="M109.335 203.015c-0.507-0.936-1.482-1.561-2.603-1.561-0.507 0-0.985 0.128-1.402 0.354l0.016-0.008-3.475 1.849c-1.029 0.476-1.731 1.499-1.731 2.686 0 1.629 1.321 2.95 2.95 2.95 0.576 0 1.112-0.165 1.567-0.45l-0.012 0.007 3.475-1.849c0.936-0.508 1.562-1.484 1.562-2.606 0-0.508-0.128-0.986-0.354-1.404l0.008 0.016z"></path>
<path fill="#fff" d="M178.764 166.013c-0.508-0.939-1.485-1.566-2.608-1.566-0.507 0-0.984 0.128-1.401 0.353l0.016-0.008-3.47 1.854c-0.844 0.529-1.396 1.454-1.396 2.508 0 1.629 1.321 2.95 2.95 2.95 0.442 0 0.861-0.097 1.238-0.272l-0.018 0.007 3.47-1.854c0.939-0.506 1.565-1.482 1.565-2.605 0-0.506-0.128-0.983-0.352-1.4l0.008 0.016z"></path>
<path fill="#fff" d="M192.648 158.611c-0.508-0.939-1.485-1.566-2.608-1.566-0.507 0-0.984 0.128-1.401 0.353l0.016-0.008-3.47 1.854c-0.935 0.507-1.56 1.482-1.56 2.602 0 1.629 1.321 2.95 2.95 2.95 0.001 0 0.001 0 0.002 0v0c0.002 0 0.005 0 0.007 0 0.504 0 0.977-0.129 1.389-0.356l-0.015 0.007 3.475-1.849c0.936-0.507 1.561-1.482 1.561-2.603 0-0.507-0.128-0.985-0.354-1.402l0.008 0.016z"></path>
<path fill="#fff" d="M164.875 173.414c-0.506-0.939-1.482-1.565-2.605-1.565-0.506 0-0.983 0.128-1.4 0.352l0.016-0.008-3.47 1.854c-1.029 0.476-1.731 1.499-1.731 2.686 0 1.629 1.321 2.95 2.95 2.95 0.576 0 1.113-0.165 1.566-0.45l-0.012 0.007 3.47-1.849c0.936-0.507 1.561-1.482 1.561-2.603 0-0.507-0.128-0.985-0.354-1.402l0.008 0.016z"></path>
<path fill="#fff" d="M123.219 195.614c-0.507-0.936-1.482-1.561-2.603-1.561-0.507 0-0.985 0.128-1.402 0.354l0.016-0.008-3.475 1.849c-1.018 0.48-1.71 1.498-1.71 2.677 0 1.629 1.321 2.95 2.95 2.95 0.569 0 1.101-0.161 1.552-0.44l-0.013 0.007 3.47-1.854c0.936-0.507 1.561-1.482 1.561-2.603 0-0.507-0.128-0.985-0.354-1.402l0.008 0.016z"></path>
<path fill="#fff" d="M150.992 180.811c-0.507-0.935-1.482-1.56-2.602-1.56-0.51 0-0.989 0.129-1.408 0.357l0.016-0.008-3.47 1.849c-0.92 0.512-1.532 1.478-1.532 2.587 0 1.618 1.303 2.932 2.917 2.95h0.002c0.002 0 0.005 0 0.007 0 0.504 0 0.977-0.129 1.389-0.356l-0.015 0.007 3.475-1.849c0.936-0.508 1.562-1.484 1.562-2.606 0-0.508-0.128-0.986-0.354-1.404l0.008 0.016z"></path>
<path fill="#fff" d="M137.124 188.212c-0.509-0.935-1.484-1.56-2.605-1.56-0.506 0-0.983 0.127-1.4 0.352l0.016-0.008-3.47 1.854c-1.029 0.476-1.731 1.499-1.731 2.686 0 1.629 1.321 2.95 2.95 2.95 0.576 0 1.113-0.165 1.566-0.45l-0.012 0.007 3.475-1.849c0.934-0.509 1.558-1.484 1.558-2.604 0-0.509-0.129-0.988-0.355-1.406l0.008 0.016z"></path>
</svg>
