<?xml version="1.0" encoding="utf-8"?>
<!-- Generator: Adobe Illustrator 25.1.0, SVG Export Plug-In . SVG Version: 6.00 Build 0)  -->
<svg version="1.1" id="Layer_1" xmlns="http://www.w3.org/2000/svg" xmlns:xlink="http://www.w3.org/1999/xlink" x="0px" y="0px"
	 viewBox="0 0 478 511.9" style="enable-background:new 0 0 478 511.9;" xml:space="preserve">
<g id="Page-1">
	<g id="_x30_05---Italy-Location" transform="translate(-1)">
		<g id="Shape">
			<path d="M41.7,175.9c9.1,10.4,24.8,5.9,36.5-1.9c5.2-4,9.9-8.6,13.8-13.9c1.4-1.7,2.8-3.3,4-4.8c3.6,1.9,7,4,10.4,6.4
				c1.5,1,2.7,1.8,3.3,2.1c8.3,4.8,12.4,8.1,14.6,14.4c1.1,3.7,1.8,7.4,2.1,11.2c0.3,3.5,0.9,7,1.6,10.4c4.1,17.3,17,30.2,30.3,41.6
				c9.3,8,18.3,16.5,27.1,24.8l2.1,2c1.7,1.7,3.2,3.5,4.5,5.4c1.5,2.1,3.2,4.2,5,6.1c2.9,2.8,6.1,5.3,9.6,7.3c1.6,1,3.2,2,4.6,3
				c0.6,0.5,1.1,0.9,1.6,1.4c1.2,1.2,2.6,2.2,4,3.2c5.3,3.3,11.5,4.9,17.7,4.8c3.2-0.3,6.4,0.4,9.1,2.1c4.5,3.8,9.2,7.3,14.2,10.5
				c6.4,3.7,12.1,8.5,17,14c1.7,2.3,3.2,4.4,4.6,6.5c4.7,8.4,12,15,20.8,19c2.5,1.1,5.2,1.8,8,1.8c0.6,1.3,1.5,3,2.5,5
				c3.9,6.6,6.7,13.8,8.4,21.4c-1,1.5-1.9,3.1-2.9,4.7c-2.5,5-6.1,9.4-10.5,12.9c-3.1,1.7-6.5,2.8-10,3.2c-2,0.4-4.1,0.8-6.2,1.4
				l-4.8,1.3c-9.8,3-19.8,5.1-30,6.2c-1.9-0.4-3.7-1.2-5.2-2.4c-2.5-1.7-5.2-3-8-4c-7.2-1.8-14.8-1.5-21.8,0.6
				c-1.5,0.3-3,0.7-4.4,0.9c-13.2,3-22.9,14.2-24.1,27.7c-1.7,11.5,4.9,22.7,15.8,26.8c2.1,0.7,4.3,1.3,6.6,1.7
				c1,0.2,2.1,0.4,3.1,0.7c5.3,1.9,10.2,4.7,14.5,8.2c2.9,2.1,6,4.3,9.3,6.3c3.8,2,7.9,3.3,12.2,3.7c1.6,0.2,3.2,0.5,4.8,1
				c3.2,0.9,3.8,1.6,6.9,4.9l0.9,1c8.6,9.3,20.4,15,33.1,15.8c4.2,0.1,8.4-1,12-3.3c4-2.9,6.7-7.3,7.4-12.2c0.2-0.8,0.4-1.6,0.6-2.4
				c0.6-1.7,1.3-3.4,2.1-5c4.6-8,5.3-17.6,2-26.2c-1-3.1-1.6-6.3-1.9-9.5c1.7-0.5,3.6-0.5,5.3,0c3.7,0.6,7.4,0.5,11.1-0.3
				c16.2-4.3,25.5-24.2,28.6-39.9l0.2-0.9c0.2-1.6,0.6-3.1,1.2-4.5c1-0.4,2.1-0.7,3.2-0.8c8.4-0.8,15.2-7,16.8-15.2
				c2.4-11.1-0.1-22.7-6.8-31.8c-2.3-2.9-5.1-5.5-8.1-7.6c-2-1.3-3.8-2.9-5.2-4.8c-1-1.7-1-3.9,0.1-5.6c0.8-1.1,1.2-1.1,1.5-1.2
				c1.9-0.3,6.6,1.4,13.1,6.9c1.8,1.6,3.4,3.4,4.9,5.3c6,6.9,16.1,18.5,30.3,11c11.5-7.3,16.2-21.7,11.2-34.4
				c-5-11.7-13.8-21.5-25-27.6l-1.3-0.9l-1.3-0.8c23.9-19,64.7-60.2,69.6-122.8c4.1-40.8-17.4-80-54-98.4S334.6,57,304.3,84.7
				c-19.9,18.1-31.3,43.8-31.4,70.7c0,24.5,5.7,48.6,16.7,70.4c-1.1-0.8-2.2-1.6-3.3-2.3c-10.8-6.4-13.6-16.3-16.7-27.7
				c-3.6-13.1-8.1-29.3-27.4-38c-3.9-4-8.3-7.6-13.1-10.5c-7.8-5.1-9.3-6.6-8.7-11c0.4-1.6,1.1-3.2,2-4.6c1.5-2.6,2.7-5.4,3.4-8.3
				c0.9-4.5,0.4-9.2-1.6-13.3c-0.6-1.3-1-2.7-1.1-4.1c1.3-2,10.4-3.2,14.3-3.7c4.5-0.4,8.9-1.3,13.1-2.9c14.9-6.8,14.4-21.8,14-31.8
				c-0.2-2.7-0.2-5.4,0-8.1c0.6-6.1,2.2-22.4-13.4-28.6c-5.5-2-11.2-3.3-17-3.9c-5.5-0.4-10.8-1.8-15.8-4.1
				c-1.7-1.1-3.4-2.2-4.9-3.2c-7.4-5.9-16.5-9.5-26-10.3c-13.1-0.2-26.1,2-38.4,6.3c-5.5,2.1-10.3,5.7-13.8,10.4
				c-1.3,1.6-2.7,3-4.2,4.3c-0.8,0.6-2.5,0.6-5.8,0.3c-2.2-0.2-4.4-0.3-6.6-0.2c-5.1,0.5-9.9,2.6-13.8,6.1c-1.2,1-2.4,1.8-3.8,2.5
				c-1.3,0.6-3.3-0.3-7-2.3c-8-6.2-19.5-5.4-26.6,1.9C58.6,47.8,55.4,51.3,44,53C38,54,23.8,56.2,20.8,70.1c-0.7,4.3-0.4,8.8,0.9,13
				c0.6,1.8,0.9,3.7,0.8,5.6c-0.8,1.5-2,2.8-3.3,3.9c-3,2.6-5.3,5.7-7,9.3c-2.4,6.2-2.9,12.9-1.5,19.4
				C14,141.9,27.5,159.7,41.7,175.9L41.7,175.9z M315.4,96.8c15.3-14,35.2-21.7,56-21.6c2.7,0,5.3,0.1,8,0.4
				c45.2,5.2,78,45.5,73.8,90.8c-5,64.7-53.1,104.4-71.6,117.5l-0.3,0.2c-2,1.4-3.8,2.6-4.9,3.3c-2.9,1.8-6.6,1.8-9.6,0
				c-19.7-12.9-36.8-29.4-50.4-48.7l-0.1-0.1c-17.4-24.3-26.8-53.3-26.9-83.1C289.3,133.1,298.7,111.8,315.4,96.8L315.4,96.8z
				 M27.4,108.2c0.9-1.4,2-2.7,3.3-3.8c3.6-3,6.2-6.9,7.7-11.3c1.1-4.7,0.9-9.5-0.6-14c-0.6-1.8-0.9-3.6-0.8-5.5
				c0.4-1.7,2.1-3.1,9.7-4.3c12.9-1.8,24.7-8.7,32.6-19.1c1.5-1.6,1.6-1.6,7.1,1.2c6.3,4.4,14.3,5.4,21.4,2.8
				c2.5-1.2,4.9-2.7,7.1-4.5c1.3-1.3,2.9-2.2,4.7-2.7c1.4,0,2.8,0,4.2,0.2c6,1.1,12.1-0.2,17.2-3.6c2.4-2,4.6-4.2,6.6-6.6
				c1.6-2.3,3.8-4.2,6.3-5.5c10.5-3.8,21.6-5.6,32.8-5.5c6.5,0.7,12.6,3.4,17.6,7.6c1.7,1.2,3.5,2.3,5.4,3.5
				c6.8,3.6,14.4,5.8,22.1,6.4c4.5,0.5,8.9,1.4,13.2,2.9c2.1,0.8,4.1,1.6,3.1,11.7c-0.2,3.4-0.3,6.8-0.1,10.2
				c0.4,10.7-0.2,14.3-4.5,16.2c-2.7,0.8-5.6,1.3-8.4,1.6c-10.6,1.4-30.2,4.1-28.4,22.3c0.3,2.8,1.1,5.5,2.2,8
				c0.9,2.2,1,2.6,0.8,3.5c-0.5,1.5-1.1,2.9-1.9,4.2c-1.8,3.1-3.1,6.5-3.8,10.1c-2,15.3,8.3,22.1,15.9,27.1c4.1,2.4,7.8,5.4,11,8.9
				c0.9,1,2,1.8,3.2,2.3c13.4,5.4,16.1,15.3,19.6,27.9c3.6,13,7.6,27.7,24.2,37.4c2.1,1.3,4,2.8,5.9,4.4c5.6,6,13.4,9.4,21.6,9.4
				c14.4,19.6,32.2,36.4,52.5,49.7c8.3,5.2,18.9,5.2,27.2-0.1l0.7-0.5c2.1,1.4,4.2,2.8,6.3,4.2l1.1,0.8c8,4.2,14.6,10.9,18.7,19
				c1.7,5.5,1.1,12.6-3.2,15c-1.9,1-3.4,0.6-10.1-7.2c-2.1-2.5-4.4-4.9-6.8-7.1c-6.8-7-16.1-10.8-25.8-10.6
				c-5.3,0.7-9.9,3.7-12.8,8.1c-4.8,7-5,16.1-0.7,23.3c2.5,3.8,5.7,7,9.5,9.6c1.8,1.2,3.4,2.6,4.8,4.2c3.9,5.3,5.4,12,4,18.4
				c-0.5,2-0.5,2-4,2.8c-6.1,0.6-11.5,4.1-14.5,9.4c-1.4,2.8-2.4,5.9-2.8,9l-0.2,0.8c-2.3,11.6-8.9,25.1-16.8,27.2
				c-1.6,0.2-3.3,0.2-4.9-0.1c-5.1-1-10.3-0.3-15,1.9c-11.8,6.4-8.3,20-6.2,28.1c0.8,2.6,1.3,5.3,1.5,8c-0.5,2.5-1.4,5-2.6,7.3
				c-1,2.2-2,4.4-2.7,6.8c-0.4,1.3-0.8,2.7-1,4c-0.2,0.8-0.4,1.8-0.5,2c-0.8,0.3-1.6,0.5-2.4,0.4c-8.2-0.6-15.9-4.4-21.4-10.5
				l-0.9-1c-3.7-4.7-8.7-8.1-14.5-9.7c-2.2-0.6-4.5-1.1-6.7-1.4c-2.3-0.2-4.5-0.8-6.5-1.7c-2.7-1.6-5.3-3.5-7.9-5.4
				c-5.9-4.7-12.5-8.4-19.7-10.7c-1.4-0.4-2.8-0.7-4.1-1c-1.3-0.2-2.7-0.6-4-1c-4-1.4-6.3-5.6-5.3-9.7c0.4-6.2,4.6-11.5,10.6-13.2
				c1.6-0.3,3.4-0.7,5.1-1.1c4.3-1.4,8.9-1.8,13.4-1c1.5,0.6,2.9,1.4,4.3,2.3c4.4,3.2,9.7,4.9,15.2,4.8c11.2-1.2,22.2-3.4,32.9-6.7
				l4.7-1.3c1.7-0.5,3.4-0.8,5.1-1.1c5.5-0.8,10.7-2.6,15.5-5.4c6.6-4.8,12-11,15.7-18.3c0.9-1.4,1.7-2.9,2.7-4.3
				c6.1-9.4-0.1-23.2-7.5-37.8c-0.9-1.7-1.6-3.3-2.2-4.5c-1.8-6.1-7.6-10.1-13.9-9.6c-0.8,0.1-1.6,0-2.4-0.4
				c-5.9-2.7-10.8-7.3-13.8-13.1c-1.5-2.3-3.2-4.7-5.1-7.3c-6-7-13-13-20.9-17.7c-4.3-2.7-8.4-5.7-12.3-9
				c-5.4-4.3-12.2-6.6-19.2-6.3c-3.2,0.2-6.5-0.5-9.4-2c-0.8-0.6-1.6-1.2-2.3-1.9c-0.7-0.7-1.5-1.3-2.4-2c-2-1.5-4-2.8-6.1-4.1
				c-2.3-1.3-4.5-2.9-6.4-4.7c-1.3-1.5-2.6-3-3.7-4.6c-1.9-2.7-4-5.2-6.4-7.5l-2.1-2c-8.9-8.4-18.1-17.2-27.7-25.4
				c-11.2-9.6-21.9-20.2-24.9-32.9c-0.6-2.8-1-5.7-1.3-8.6c-0.4-5-1.4-9.9-2.9-14.6c-4-10.3-11.9-18.7-21.9-23.3
				c-0.5-0.3-1.3-0.8-2.3-1.5c-9.9-6.7-21.1-14.2-28.6-7c-2.7,2.7-5.2,5.6-7.6,8.6c-3,4-6.4,7.6-10.3,10.7c-7.3,4.8-13.8,6-15,4.7
				c-12.5-14.3-24.4-29.8-27.1-46.4C26.1,115.2,26.3,111.5,27.4,108.2L27.4,108.2z"/>
		</g>
		<g id="Shape_1_">
			<path d="M51,366.2c-0.5,7.6,1.2,15.2,5,21.8c4.5,7.1,11.9,11.8,20.3,12.7c0.9,0.1,1.7,0.2,2.6,0.1c6.5-0.4,12.7-2.9,17.6-7.2
				l1.9-1.3c2-0.7,4.1-1.1,6.2-1.2c6.2,0.1,12.2-2.4,16.6-6.9c2.9-3.9,4.6-8.5,5.2-13.3c0.8-4.5,1.2-9,1.7-13.5
				c0.4-4.1,0.9-8.1,1.5-12.2c0.5-3.3,1.2-6.5,1.9-9.7c1.7-7.1,2.8-14.3,3.2-21.6c0.1-5-0.3-10.1-1.4-15c-1-4.5-2.4-8.9-4.3-13.1
				c-4.3-11.7-15.1-19.8-27.5-20.8c-7,0.6-13.5,3.6-18.6,8.5c-1.9,1.7-3.9,3.1-6.1,4.3c-2.3,0.7-4.6,1.1-7,1.2
				c-6.8,0.6-19.3,1.6-21.7,16.4c-0.6,6,0.5,12.1,3.2,17.6c0.5,1.3,1,2.6,1.5,3.9c2.4,10,2.4,20.5,0.1,30.5
				C51.9,353.6,51.2,359.9,51,366.2L51,366.2z M64.7,296.5c2.1-0.7,4.2-1.1,6.4-1.1c4.3-0.1,8.6-1,12.6-2.7c3.4-1.7,6.6-3.9,9.4-6.4
				c3.7-3,6.1-4.8,8.6-4.9h0.1c4.8,0,9.5,5.6,12,11.1c3,6.5,4.4,13.7,4.2,20.9c-0.4,6.3-1.3,12.5-2.9,18.6c-0.7,3.5-1.5,7-2.1,10.5
				c-0.7,4.3-1.2,8.7-1.6,13.1c-0.5,4.2-0.9,8.4-1.6,12.5c-0.2,2-0.8,3.9-1.6,5.7c-1.8,0.6-3.7,0.9-5.7,1c-4.9,0.2-9.6,1.6-13.8,4.1
				l-2.1,1.5c-4.3,3.1-6.2,4.3-8.7,4c-3.4-0.4-6.4-2.3-8.2-5.2c-2-3.9-2.9-8.3-2.5-12.7c0.2-5.7,0.8-11.3,1.7-17
				c2.7-12.6,2.5-25.6-0.8-38c-0.5-1.6-1.1-3.1-1.8-4.7c-1.5-2.7-2.2-5.8-2.3-8.9C64.3,297.5,64.5,297,64.7,296.5z"/>
		</g>
		<g id="Shape_2_">
			<path d="M371.4,214.8c31.8,0,57.5-25.7,57.5-57.5s-25.7-57.5-57.5-57.5S314,125.6,314,157.4C314,189.1,339.7,214.8,371.4,214.8z
				 M371.4,116.3c22.7,0,41.1,18.4,41.1,41.1s-18.4,41.1-41.1,41.1c-22.7,0-41.1-18.4-41.1-41.1
				C330.4,134.7,348.8,116.3,371.4,116.3z"/>
		</g>
	</g>
</g>
</svg>
