<svg id="Layer_1" data-name="Layer 1" xmlns="http://www.w3.org/2000/svg" viewBox="0 0 81.35 81.35">
  <defs>
    <style>
      .cls-1, .cls-2 {
        fill: #bcbec0;
      }

      .cls-1 {
        fill-rule: evenodd;
      }
    </style>
  </defs>
  <title>logo_cima</title>
  <g>
    <path class="cls-1" d="M59.72,62.48a2.71,2.71,0,0,1-1.82-.61,4.33,4.33,0,0,1-1.18-1.45,8.84,8.84,0,0,1-.58-1.94,9.6,9.6,0,0,1-.21-1.91,14.68,14.68,0,0,1,.18-2.15,9.5,9.5,0,0,1,.52-2.33,4.94,4.94,0,0,1,1.18-1.88,2.47,2.47,0,0,1,1.88-.77,3,3,0,0,1,1.94.61,4.2,4.2,0,0,1,1.21,1.58,10,10,0,0,1,.81,4.09A12.27,12.27,0,0,1,62.91,60a5,5,0,0,1-1.22,1.76,2.73,2.73,0,0,1-2,.76m5.15-3.13h.07a12,12,0,0,0,.69,2.57,2.73,2.73,0,0,0,.75,1,1.79,1.79,0,0,0,1.16.44,1.49,1.49,0,0,0,1-.38,2.23,2.23,0,0,0,.53-.91,5.31,5.31,0,0,0,.26-1.21c0-.41,0-.79,0-1.15h-.61a1.73,1.73,0,0,1-.28.91,1,1,0,0,1-.9.45,1,1,0,0,1-.73-.4,3.27,3.27,0,0,1-.64-.81,7.71,7.71,0,0,1-.45-.92,1.74,1.74,0,0,1-.18-.64,3.23,3.23,0,0,1,.29-1c.16-.43.26-.78.34-1A61.34,61.34,0,0,0,68,48.84H65.31l-1,5.07h-.07a8.59,8.59,0,0,0-1.32-3.63,3.93,3.93,0,0,0-3.41-1.74,5.76,5.76,0,0,0-4.75,2.37A8.21,8.21,0,0,0,53,56.11a8,8,0,0,0,1.65,5,5.42,5.42,0,0,0,4.57,2.26A5.56,5.56,0,0,0,62.91,62,6.3,6.3,0,0,0,64.87,59.35ZM18.43,49.11a6.24,6.24,0,0,0-4.9,2.22,7.7,7.7,0,0,0-1.94,5.27,6.77,6.77,0,0,0,1.78,4.95,5.55,5.55,0,0,0,4.08,1.82,5.48,5.48,0,0,0,4.15-2,12.39,12.39,0,0,0,1.77-2.82L23,58.31a9.75,9.75,0,0,1-1.53,1.85,4.15,4.15,0,0,1-2.74,1,4,4,0,0,1-3.45-1.78,6.71,6.71,0,0,1-1.28-4,6.12,6.12,0,0,1,1.17-3.92A3.48,3.48,0,0,1,18,50a2.32,2.32,0,0,1,1.29.31,1.79,1.79,0,0,1,.66,1.1l.18.71a2.09,2.09,0,0,0,.57,1,1.33,1.33,0,0,0,.91.35,1.29,1.29,0,0,0,1.05-.41,1.44,1.44,0,0,0,.34-.92,2.62,2.62,0,0,0-1.34-2.08A5.4,5.4,0,0,0,18.43,49.11ZM47,50.78A2.12,2.12,0,0,1,49.18,52a5.4,5.4,0,0,1,.31,2.13v6.39a2.37,2.37,0,0,1-.41,1.64,3,3,0,0,1-1.71.52v.41H54.1v-.41a3.32,3.32,0,0,1-1.69-.49,1.73,1.73,0,0,1-.47-1.42V54.61a9.51,9.51,0,0,0-.46-3.47,3.12,3.12,0,0,0-3.19-2,5.21,5.21,0,0,0-2.87.92,12.85,12.85,0,0,0-1.91,1.65,4.57,4.57,0,0,0-.79-1.53,3,3,0,0,0-2.42-1,5,5,0,0,0-2.18.52,11,11,0,0,0-2.52,1.84v-2c0-.14,0-.23,0-.28l-.09-.08c-.06,0-.52.18-1.4.52s-1.52.58-1.91.71l-1.08.36v.53a2.31,2.31,0,0,1,.37-.1,2.67,2.67,0,0,1,.47,0,1.21,1.21,0,0,1,1,.34,2.49,2.49,0,0,1,.28,1.42V60.6a2,2,0,0,1-.58,1.7,3.39,3.39,0,0,1-1.54.38v.41h6.77v-.41a2.48,2.48,0,0,1-1.72-.43,2.1,2.1,0,0,1-.4-1.48V52.58a5.72,5.72,0,0,1,1.53-1.3,3.55,3.55,0,0,1,1.77-.5,2,2,0,0,1,2.06,1.46,10.54,10.54,0,0,1,.31,3.15v4.15A5,5,0,0,1,41,62a2.75,2.75,0,0,1-1.79.67v.41H46v-.41A2.16,2.16,0,0,1,44.21,62a3.18,3.18,0,0,1-.42-1.79V52.61a8.39,8.39,0,0,1,1.34-1.19A3.36,3.36,0,0,1,47,50.78Zm-22.49.14a.88.88,0,0,1,.93.62,4.68,4.68,0,0,1,.13,1.36V60c0,1.16-.13,1.87-.41,2.14a3.76,3.76,0,0,1-2,.54v.41h7.13v-.41a3,3,0,0,1-1.83-.55A3.39,3.39,0,0,1,28.1,60V49.42l0-.23a1.81,1.81,0,0,0-.52.18c-.68.27-1.87.68-3.59,1.21l-.63.2v.41l.9-.24C24.34,50.94,24.44,50.92,24.55,50.92ZM26.84,40.3a1.48,1.48,0,0,0-1.1.47,1.5,1.5,0,0,0-.45,1.1A1.47,1.47,0,0,0,25.74,43a1.57,1.57,0,0,0,2.2,0,1.47,1.47,0,0,0,.45-1.08,1.55,1.55,0,0,0-1.55-1.57ZM10.29,5.17H62.8V13h7.84v52.5H10.29Z"/>
    <rect class="cls-2" x="65.58" y="5.17" width="5.06" height="5.06"/>
    <path class="cls-2" d="M10.29,73.19V68.91a7.6,7.6,0,0,1,1.3-.09,2.26,2.26,0,0,1,1.41.34,1.1,1.1,0,0,1,.4.91,1.15,1.15,0,0,1-.77,1.06v0a1.12,1.12,0,0,1,.59.81c.13.5.26,1.06.34,1.23h-1a4.73,4.73,0,0,1-.3-1c-.12-.55-.31-.69-.71-.7h-.29v1.71Zm1-2.41h.38c.49,0,.78-.25.78-.63s-.27-.6-.72-.6a1.84,1.84,0,0,0-.44,0Z"/>
    <polygon class="cls-2" points="21.23 73.19 18.46 73.19 18.46 68.85 21.14 68.85 21.14 69.65 19.44 69.65 19.44 70.56 21.04 70.56 21.04 71.35 19.44 71.35 19.44 72.38 21.23 72.38 21.23 73.19"/>
    <path class="cls-2" d="M27.36,73.26A2.77,2.77,0,0,1,26.13,73l.19-.81a2.47,2.47,0,0,0,1.1.28c.45,0,.68-.19.68-.48s-.2-.43-.72-.61c-.72-.26-1.2-.65-1.2-1.29s.62-1.3,1.64-1.3a2.58,2.58,0,0,1,1.11.22l-.22.78a2.14,2.14,0,0,0-.9-.2c-.43,0-.63.19-.63.41s.24.41.8.62c.77.29,1.13.68,1.13,1.31s-.56,1.34-1.75,1.34"/>
    <polygon class="cls-2" points="36.77 73.19 34.01 73.19 34.01 68.85 36.68 68.85 36.68 69.65 34.98 69.65 34.98 70.56 36.59 70.56 36.59 71.35 34.98 71.35 34.98 72.38 36.77 72.38 36.77 73.19"/>
    <path class="cls-2" d="M45.64,73.19h-1l-.34-1.11H43l-.3,1.11h-1L43,68.85h1.29Zm-2.5-1.85h1l-.27-.92c-.08-.26-.15-.59-.21-.84h0c0,.26-.12.59-.18.84Z"/>
    <path class="cls-2" d="M53.82,73.19h-1a5.76,5.76,0,0,1-.29-1c-.12-.55-.31-.69-.71-.7h-.29v1.71h-1V68.92a6.57,6.57,0,0,1,1.31-.1,2.22,2.22,0,0,1,1.4.34,1.12,1.12,0,0,1,.41.91,1.15,1.15,0,0,1-.77,1.06v0a1.07,1.07,0,0,1,.58.81c.14.5.27,1.06.35,1.23m-2.3-2.41h.38c.49,0,.78-.25.78-.63s-.27-.6-.72-.6a1.9,1.9,0,0,0-.44,0Z"/>
    <path class="cls-2" d="M61,73.26a2.07,2.07,0,0,1-2.27-2.19,2.2,2.2,0,0,1,2.37-2.29,2.56,2.56,0,0,1,1.07.19l-.21.77a2.12,2.12,0,0,0-.82-.16,1.43,1.43,0,0,0,0,2.86A2.43,2.43,0,0,0,62,72.3l.14.77a2.75,2.75,0,0,1-1.11.19"/>
    <polygon class="cls-2" points="70.64 73.19 69.66 73.19 69.66 71.38 68.04 71.38 68.04 73.19 67.06 73.19 67.06 68.85 68.04 68.85 68.04 70.52 69.66 70.52 69.66 68.85 70.64 68.85 70.64 73.19"/>
    <polygon class="cls-2" points="12.93 75.76 12.93 76.57 11.27 76.57 11.27 77.56 12.83 77.56 12.83 78.36 11.27 78.36 11.27 80.1 10.29 80.1 10.29 75.76 12.93 75.76"/>
    <path class="cls-2" d="M20.06,77.89a2.06,2.06,0,0,1-2.13,2.28h0a2,2,0,0,1-2-2.2A2.11,2.11,0,0,1,18,75.69a2,2,0,0,1,2.07,2.2M18,79.39c.66,0,1-.61,1-1.47s-.37-1.45-1-1.45-1.06.66-1.06,1.48.39,1.44,1.05,1.44Z"/>
    <path class="cls-2" d="M26.54,75.76v2.43c0,1.34-.67,2-1.8,2s-1.74-.61-1.74-2V75.76h1v2.5c0,.75.29,1.13.78,1.13s.81-.36.81-1.13v-2.5Z"/>
    <path class="cls-2" d="M33.09,75.76V80.1h-1l-.93-1.67a14.44,14.44,0,0,1-.75-1.53h0c0,.57,0,1.19,0,1.89V80.1h-.91V75.76h1.15l.9,1.59a12.66,12.66,0,0,1,.71,1.49h0c0-.57-.07-1.16-.07-1.82V75.76Z"/>
    <path class="cls-2" d="M39.87,77.83a2.24,2.24,0,0,1-.71,1.76,3.14,3.14,0,0,1-2,.56A9.28,9.28,0,0,1,36,80.09V75.82a8.56,8.56,0,0,1,1.32-.1,2.76,2.76,0,0,1,1.79.46,2,2,0,0,1,.73,1.65m-2.52,1.55a1.36,1.36,0,0,0,1.49-1.52,1.23,1.23,0,0,0-1.38-1.37,2.34,2.34,0,0,0-.45,0v2.84A1.83,1.83,0,0,0,37.35,79.38Z"/>
    <path class="cls-2" d="M46.78,80.1H45.72L45.39,79H44.14l-.31,1.11h-1l1.33-4.34h1.28Zm-1.54-1.84L45,77.33c-.07-.26-.15-.59-.22-.84h0c-.06.26-.13.59-.2.84l-.26.93Z"/>
    <polygon class="cls-2" points="53.07 75.76 53.07 76.58 51.88 76.58 51.88 80.1 50.9 80.1 50.9 76.58 49.73 76.58 49.73 75.76 53.07 75.76"/>
    <rect class="cls-2" x="56.01" y="75.76" width="0.98" height="4.34"/>
    <path class="cls-2" d="M64.11,77.89A2.06,2.06,0,0,1,62,80.17h0a2,2,0,0,1-2-2.2,2.1,2.1,0,0,1,2.11-2.28,2,2,0,0,1,2.06,2.2M62,79.39c.66,0,1-.61,1-1.47s-.38-1.45-1-1.45S61,77.13,61,78s.4,1.44,1,1.44Z"/>
    <path class="cls-2" d="M70.64,75.76V80.1h-1l-.92-1.67a14.51,14.51,0,0,1-.76-1.53h0c0,.57,0,1.19,0,1.89V80.1h-.9V75.76h1.14l.91,1.59a14.48,14.48,0,0,1,.71,1.49h0A17.43,17.43,0,0,1,69.75,77V75.76Z"/>
  </g>
</svg>
