<svg id="Layer_1" data-name="Layer 1" xmlns="http://www.w3.org/2000/svg" viewBox="0 0 60 60">
  <defs>
    <style>
      .cls-1, .cls-2 {
        fill: #bcbec0;
      }

      .cls-1 {
        fill-rule: evenodd;
      }
    </style>
  </defs>
  <title>neg_logo_cima_1</title>
  <g>
    <path class="cls-1" d="M49,57.31a2.8,2.8,0,0,1-1.82-.61A4.56,4.56,0,0,1,46,55.25a11.2,11.2,0,0,1-.78-3.85,14.92,14.92,0,0,1,.18-2.16A9.59,9.59,0,0,1,46,46.91,5.24,5.24,0,0,1,47.13,45,2.51,2.51,0,0,1,49,44.27a3,3,0,0,1,1.93.6,4.26,4.26,0,0,1,1.22,1.59A10.31,10.31,0,0,1,53,50.54a12.59,12.59,0,0,1-.75,4.25A5.15,5.15,0,0,1,51,56.55a2.82,2.82,0,0,1-2,.76m5.15-3.14h.07a12.1,12.1,0,0,0,.7,2.58,2.6,2.6,0,0,0,.75,1,1.73,1.73,0,0,0,1.15.43,1.36,1.36,0,0,0,1-.38,2.15,2.15,0,0,0,.54-.91,5.77,5.77,0,0,0,.26-1.21c0-.4,0-.78,0-1.14H58a1.61,1.61,0,0,1-.28.9,1,1,0,0,1-.9.45.94.94,0,0,1-.72-.39,3,3,0,0,1-.64-.82,7.79,7.79,0,0,1-.46-.91,1.78,1.78,0,0,1-.17-.64,2.94,2.94,0,0,1,.29-1c.15-.44.25-.79.34-1a64.22,64.22,0,0,0,1.79-7.47H54.64l-1,5.06h-.06a8.52,8.52,0,0,0-1.33-3.63,3.91,3.91,0,0,0-3.41-1.73,5.77,5.77,0,0,0-4.75,2.36,8.28,8.28,0,0,0-1.76,5.21,8.07,8.07,0,0,0,1.64,5,5.44,5.44,0,0,0,4.58,2.25,5.5,5.5,0,0,0,3.67-1.36A6.16,6.16,0,0,0,54.19,54.17ZM7.76,43.93a6.21,6.21,0,0,0-4.9,2.22A7.67,7.67,0,0,0,.92,51.42,6.75,6.75,0,0,0,2.7,56.37a5.49,5.49,0,0,0,4.08,1.82,5.43,5.43,0,0,0,4.14-2,12,12,0,0,0,1.77-2.82l-.41-.25A9.62,9.62,0,0,1,10.74,55,4.07,4.07,0,0,1,8,56a4,4,0,0,1-3.45-1.78,6.71,6.71,0,0,1-1.28-4,6.18,6.18,0,0,1,1.16-3.92,3.5,3.5,0,0,1,2.85-1.48,2.4,2.4,0,0,1,1.28.31,1.81,1.81,0,0,1,.67,1.11l.18.7A2.09,2.09,0,0,0,10,48a1.33,1.33,0,0,0,.91.35,1.28,1.28,0,0,0,1-.42,1.45,1.45,0,0,0,.34-.91,2.62,2.62,0,0,0-1.35-2.08A5.3,5.3,0,0,0,7.76,43.93Zm28.6,1.68a2.1,2.1,0,0,1,2.14,1.21A5.25,5.25,0,0,1,38.81,49v6.4a2.42,2.42,0,0,1-.4,1.63,3,3,0,0,1-1.72.53v.4h6.73v-.4a3.34,3.34,0,0,1-1.69-.5,1.73,1.73,0,0,1-.47-1.42V49.43A9.44,9.44,0,0,0,40.8,46,3.08,3.08,0,0,0,37.62,44a5.16,5.16,0,0,0-2.88.92,11.35,11.35,0,0,0-1.9,1.65,4.38,4.38,0,0,0-.79-1.53,3,3,0,0,0-2.42-1,4.94,4.94,0,0,0-2.18.51,10.91,10.91,0,0,0-2.52,1.85v-2a1.38,1.38,0,0,0,0-.27L24.82,44c-.05,0-.52.17-1.4.51s-1.52.59-1.91.71l-1.07.37v.52l.36-.1a3,3,0,0,1,.47,0,1.23,1.23,0,0,1,1,.33,2.41,2.41,0,0,1,.29,1.43v7.66a2,2,0,0,1-.59,1.69,3.45,3.45,0,0,1-1.53.39v.4h6.77v-.4a2.51,2.51,0,0,1-1.72-.43,2.13,2.13,0,0,1-.4-1.49V47.41a5.44,5.44,0,0,1,1.53-1.31,3.53,3.53,0,0,1,1.77-.49,2,2,0,0,1,2.06,1.45,11,11,0,0,1,.3,3.15v4.16a4.86,4.86,0,0,1-.38,2.46,2.74,2.74,0,0,1-1.78.68v.4h6.76v-.4a2.18,2.18,0,0,1-1.78-.66,3.22,3.22,0,0,1-.42-1.79V47.44a8.84,8.84,0,0,1,1.35-1.19A3.31,3.31,0,0,1,36.36,45.61Zm-22.48.14a.89.89,0,0,1,.93.61,4.76,4.76,0,0,1,.13,1.37v7.09A3.42,3.42,0,0,1,14.53,57a3.78,3.78,0,0,1-2,.55v.4h7.13v-.4A3,3,0,0,1,17.83,57a3.51,3.51,0,0,1-.4-2.12V44.24l0-.22a1.77,1.77,0,0,0-.53.17c-.68.28-1.87.68-3.58,1.22l-.63.2V46l.9-.23A1.66,1.66,0,0,1,13.88,45.75Zm2.29-10.62a1.46,1.46,0,0,0-1.1.46,1.52,1.52,0,0,0-.45,1.1,1.47,1.47,0,0,0,.45,1.08,1.53,1.53,0,0,0,2.19,0,1.44,1.44,0,0,0,.45-1.08,1.54,1.54,0,0,0-1.54-1.56ZM-.38,0h52.5V7.85H60V60.34H-.38Z"/>
    <rect class="cls-2" x="54.91" width="5.06" height="5.06"/>
  </g>
</svg>
