<svg id="Layer_1" data-name="Layer 1" xmlns="http://www.w3.org/2000/svg" xmlns:xlink="http://www.w3.org/1999/xlink" viewBox="0 0 492.87 492.87">
  <defs>
    <style>
      .cls-1 {
        fill: none;
      }

      .cls-2 {
        clip-path: url(#clip-path);
      }

      .cls-3 {
        clip-path: url(#clip-path-2);
      }

      .cls-4 {
        fill: #89202f;
      }
    </style>
    <clipPath id="clip-path">
      <rect class="cls-1" x="53.88" y="46.41" width="387.98" height="388.85"/>
    </clipPath>
    <clipPath id="clip-path-2">
      <rect class="cls-1" x="53.88" y="46.41" width="387.98" height="388.85"/>
    </clipPath>
  </defs>
  <title>piani_intercomunali</title>
  <g id="Artwork_3" data-name="Artwork 3">
    <g class="cls-2">
      <g class="cls-3">
        <path class="cls-4" d="M122.72,258.73a69.05,69.05,0,0,0-42.89,15,5.68,5.68,0,1,0,7.08,8.88,56.91,56.91,0,0,1,35.81-12.51,57.55,57.55,0,0,1,57.48,57.49c0,42.68-44.55,83.66-57.48,94.64-12.94-11-57.48-51.89-57.48-94.64a57.34,57.34,0,0,1,8-29.32,5.68,5.68,0,0,0-9.77-5.8,68.81,68.81,0,0,0-9.62,35.12c0,55.27,62.7,104.43,65.38,106.49a5.67,5.67,0,0,0,7,0c2.67-2.06,65.37-51.22,65.37-106.49a68.93,68.93,0,0,0-68.85-68.85"/>
        <path class="cls-4" d="M122.72,296.7a30.88,30.88,0,1,0,30.87,30.88,30.92,30.92,0,0,0-30.87-30.88m0,50.39a19.51,19.51,0,1,1,19.51-19.51,19.53,19.53,0,0,1-19.51,19.51"/>
        <path class="cls-4" d="M376.28,131.21a65.64,65.64,0,0,0-65.57,65.57c0,22.25,10.52,46.11,31.27,70.89A220.86,220.86,0,0,0,372.81,298a5.67,5.67,0,0,0,6.95,0,222.9,222.9,0,0,0,36-36.82,5.68,5.68,0,1,0-9-6.92,218.28,218.28,0,0,1-30.51,31.88c-12.48-10.62-54.22-49.21-54.22-89.35a54.21,54.21,0,0,1,108.42,0c0,12.18-3.88,25.34-11.52,39.11a5.68,5.68,0,1,0,9.92,5.52c8.6-15.48,13-30.49,13-44.64a65.64,65.64,0,0,0-65.57-65.56"/>
        <path class="cls-4" d="M376.28,167.21a29.57,29.57,0,1,0,29.57,29.57,29.61,29.61,0,0,0-29.57-29.57m0,47.77a18.21,18.21,0,1,1,18.21-18.2A18.21,18.21,0,0,1,376.28,215"/>
        <path class="cls-4" d="M142.36,79.2a27.44,27.44,0,1,0,27.44,27.45A27.47,27.47,0,0,0,142.36,79.2m0,43.52a16.08,16.08,0,1,1,16.08-16.07,16.09,16.09,0,0,1-16.08,16.07"/>
        <path class="cls-4" d="M142.36,46.41a60.29,60.29,0,0,0-60.22,60.24c0,10.39,2.57,21.36,7.67,32.59a5.68,5.68,0,0,0,10.34-4.7c-4.42-9.74-6.66-19.12-6.66-27.89a48.88,48.88,0,1,1,97.75,0c0,36-37.18,70.7-48.88,80.72-6.3-5.39-20-17.93-31.28-34a5.68,5.68,0,1,0-9.3,6.52,200.82,200.82,0,0,0,37.11,39.32,5.67,5.67,0,0,0,7,0A201.17,201.17,0,0,0,174,171.55c19-22.67,28.6-44.51,28.6-64.9a60.3,60.3,0,0,0-60.24-60.24"/>
        <path class="cls-4" d="M218.81,225.27l-6.94-3a5.69,5.69,0,0,0-4.55,10.42l6.94,3a5.68,5.68,0,1,0,4.55-10.41"/>
        <path class="cls-4" d="M329.84,273.81l-6.94-3a5.68,5.68,0,0,0-4.55,10.41l6.94,3a5.68,5.68,0,0,0,4.55-10.41"/>
        <path class="cls-4" d="M191.05,213.14l-6.94-3a5.68,5.68,0,0,0-4.55,10.41l6.94,3a5.68,5.68,0,1,0,4.55-10.41"/>
        <path class="cls-4" d="M163.29,201l-6.94-3a5.68,5.68,0,0,0-4.55,10.41l6.94,3a5.76,5.76,0,0,0,2.28.48A5.68,5.68,0,0,0,163.29,201"/>
        <path class="cls-4" d="M357.59,285.94l-6.94-3a5.68,5.68,0,0,0-4.55,10.41l6.94,3a5.76,5.76,0,0,0,2.28.48,5.68,5.68,0,0,0,2.27-10.89"/>
        <path class="cls-4" d="M302.08,261.67l-6.94-3a5.68,5.68,0,0,0-4.55,10.41l6.94,3a5.68,5.68,0,1,0,4.55-10.41"/>
        <path class="cls-4" d="M274.32,249.54l-6.94-3a5.68,5.68,0,0,0-4.55,10.41l6.94,3a5.68,5.68,0,1,0,4.55-10.41"/>
        <path class="cls-4" d="M246.56,237.4l-6.94-3a5.68,5.68,0,0,0-4.55,10.41l6.94,3a5.68,5.68,0,1,0,4.55-10.41"/>
        <path class="cls-4" d="M157,419.36a5.67,5.67,0,0,0-7.68-2.34l-6.68,3.56a5.67,5.67,0,0,0,2.68,10.69,5.59,5.59,0,0,0,2.66-.67l6.68-3.56a5.67,5.67,0,0,0,2.34-7.68"/>
        <path class="cls-4" d="M183.77,405.11a5.68,5.68,0,0,0-7.69-2.34l-6.68,3.56a5.68,5.68,0,1,0,5.34,10l6.68-3.56a5.69,5.69,0,0,0,2.35-7.69"/>
        <path class="cls-4" d="M210.5,390.86a5.68,5.68,0,0,0-7.68-2.34l-6.69,3.56a5.68,5.68,0,1,0,5.34,10l6.69-3.56a5.69,5.69,0,0,0,2.34-7.69"/>
        <path class="cls-4" d="M344.17,319.62a5.69,5.69,0,0,0-7.69-2.35l-6.68,3.57a5.68,5.68,0,0,0,5.34,10l6.68-3.57a5.68,5.68,0,0,0,2.35-7.68"/>
        <path class="cls-4" d="M370.9,305.37a5.69,5.69,0,0,0-7.69-2.35l-6.68,3.57a5.68,5.68,0,0,0,2.68,10.69,5.56,5.56,0,0,0,2.66-.67l6.69-3.56a5.68,5.68,0,0,0,2.34-7.68"/>
        <path class="cls-4" d="M317.43,333.87a5.68,5.68,0,0,0-7.68-2.35l-6.68,3.57a5.68,5.68,0,1,0,5.34,10l6.68-3.56a5.68,5.68,0,0,0,2.34-7.68"/>
        <path class="cls-4" d="M237.23,376.61a5.68,5.68,0,0,0-7.68-2.34l-6.69,3.56a5.68,5.68,0,1,0,5.35,10l6.68-3.57a5.68,5.68,0,0,0,2.34-7.68"/>
        <path class="cls-4" d="M290.7,348.11a5.68,5.68,0,0,0-7.69-2.33l-6.68,3.56A5.68,5.68,0,0,0,279,360a5.56,5.56,0,0,0,2.66-.67l6.69-3.56a5.69,5.69,0,0,0,2.34-7.69"/>
        <path class="cls-4" d="M264,362.36a5.69,5.69,0,0,0-7.68-2.34l-6.68,3.57a5.68,5.68,0,1,0,5.34,10l6.69-3.56a5.69,5.69,0,0,0,2.33-7.69"/>
      </g>
    </g>
  </g>
</svg>
