<svg id="Layer_1" data-name="Layer 1" xmlns="http://www.w3.org/2000/svg" xmlns:xlink="http://www.w3.org/1999/xlink" viewBox="0 0 496.4 496.4">
  <defs>
    <style>
      .cls-1 {
        fill: none;
      }

      .cls-2 {
        clip-path: url(#clip-path);
      }

      .cls-3 {
        clip-path: url(#clip-path-2);
      }

      .cls-4 {
        fill: #009fe3;
      }
    </style>
    <clipPath id="clip-path">
      <rect class="cls-1" x="66.56" y="40.41" width="376.87" height="420.52"/>
    </clipPath>
    <clipPath id="clip-path-2">
      <rect class="cls-1" x="66.56" y="40.41" width="376.87" height="420.52"/>
    </clipPath>
  </defs>
  <title>altre_procedure</title>
  <g id="Artwork_1" data-name="Artwork 1">
    <g class="cls-2">
      <g class="cls-3">
        <path class="cls-4" d="M334.22,221.1a16.44,16.44,0,0,0-16.43-16.43H148.6a16.43,16.43,0,0,0,0,32.86H317.79a16.44,16.44,0,0,0,16.43-16.43"/>
        <path class="cls-4" d="M148.6,270.38a16.43,16.43,0,1,0,0,32.85H251.36a16.43,16.43,0,0,0,0-32.85Z"/>
        <path class="cls-4" d="M187.2,428.07H132.26a32.89,32.89,0,0,1-32.85-32.85V106.12a32.89,32.89,0,0,1,32.85-32.86h202a32.89,32.89,0,0,1,32.85,32.86v101a16.43,16.43,0,0,0,32.85,0v-101a65.78,65.78,0,0,0-65.7-65.71h-202a65.78,65.78,0,0,0-65.7,65.71v289.1a65.78,65.78,0,0,0,65.7,65.71H187.2a16.43,16.43,0,0,0,0-32.86"/>
        <path class="cls-4" d="M429,278.24a49.34,49.34,0,0,0-69.68,0l-90.18,90a16.46,16.46,0,0,0-4.12,6.85L245.4,439.72a16.44,16.44,0,0,0,20.1,20.61L331.81,442a16.45,16.45,0,0,0,7.22-4.2l90-89.83a49.34,49.34,0,0,0,0-69.69M318.87,411.45l-33.35,9.25,9.76-32.14,60.85-60.72,23.23,23.24Zm86.93-86.76-3.18,3.18-23.23-23.23,3.17-3.16a16.42,16.42,0,0,1,23.24,23.21"/>
        <path class="cls-4" d="M317.79,139H148.6a16.43,16.43,0,1,0,0,32.85H317.79a16.43,16.43,0,1,0,0-32.85"/>
      </g>
    </g>
  </g>
</svg>
