<svg id="Layer_1" data-name="Layer 1" xmlns="http://www.w3.org/2000/svg" viewBox="0 0 499.93 499.93">
  <defs>
    <style>
      .cls-1 {
        fill: #273571;
      }
    </style>
  </defs>
  <title>consultazione</title>
  <g id="Layer_2" data-name="Layer 2">
    <g id="Artwork_2" data-name="Artwork 2">
      <path class="cls-1" d="M355.3,152.61c0,12.93-9.42,20.8-16.29,26.57-2.6,2.19-7.45,6.18-7.44,7.67a10.42,10.42,0,0,1-10.5,10.51H321A10.46,10.46,0,0,1,310.4,187c-.09-11.46,8.28-18.33,15-24,5.27-4.43,8.73-7.55,8.73-10.4a10.47,10.47,0,1,0-20.94,0,10.59,10.59,0,0,1-21.17,0,31.64,31.64,0,0,1,63.28,0Zm-34,54.52a10.38,10.38,0,0,0-10.35,10.58v.09a10.35,10.35,0,0,0,10.35,10.54,10.61,10.61,0,0,0,0-21.21ZM107.93,280.86a10.59,10.59,0,0,0,0,21.17h.88a10.59,10.59,0,1,0,0-21.17Zm36.79,0a10.59,10.59,0,1,0,0,21.17h.88a10.59,10.59,0,0,0,0-21.17ZM455.58,111.8V230.94A50.88,50.88,0,0,1,404.76,282H267.49c-2.68,0-4.89,0-6.74-.06s-4.12-.05-5,0c-.88.59-3.06,2.58-5.15,4.51l-2.78,2.52L209,324.45A10.83,10.83,0,0,1,191,316.63V204.42H80.09A30.33,30.33,0,0,0,49.84,234.5V353.64c0,16.54,13.71,29.54,30.25,29.54H233.42a10.63,10.63,0,0,1,7.06,3l31.64,29.17V314.74a10.59,10.59,0,0,1,21.17,0V439.33a10.44,10.44,0,0,1-6.24,9.63,10.22,10.22,0,0,1-4.19.84,10.67,10.67,0,0,1-7.14-2.88l-46.41-42.57H80.09c-28.21,0-51.42-22.5-51.42-50.71V234.5a51.52,51.52,0,0,1,51.42-51.25H191V111.8c0-28.21,23.39-50.86,51.59-50.86h162.2A50.68,50.68,0,0,1,455.58,111.8Zm-21.17,0a29.49,29.49,0,0,0-29.65-29.69H242.56c-16.53,0-30.42,13.16-30.42,29.69V292.64l21.28-19.23c1-.9,2.09-1.72,2.89-2.47,9.72-8.95,12.21-10.38,24.88-10.12,1.73,0,3.79.05,6.3.05H404.76a29.69,29.69,0,0,0,29.65-29.93V111.8Z"/>
    </g>
  </g>
</svg>
