<svg id="Layer_1" data-name="Layer 1" xmlns="http://www.w3.org/2000/svg" viewBox="0 0 512 512">
  <defs>
    <style>
      .cls-1 {
        fill: #31843f;
      }
    </style>
  </defs>
  <title>informazione</title>
  <path class="cls-1" d="M376.79,455.8a18.24,18.24,0,1,0-18.9-31.2A196.57,196.57,0,0,1,256,453C147.39,453,59,364.61,59,256S147.39,59,256,59s197,88.36,197,197a196.16,196.16,0,0,1-33.4,109.32,18.24,18.24,0,1,0,30.32,20.27,232.11,232.11,0,1,0-73.1,70.21ZM335.88,199.62c0,32.58-23.72,52.39-41,66.93-6.56,5.51-18.76,15.56-18.73,19.31a26.25,26.25,0,0,1-26.45,26.48h-.22a26.32,26.32,0,0,1-26.65-26c-.24-28.87,20.83-46.16,37.77-60.38,13.28-11.15,22-19,22-26.19a26.38,26.38,0,0,0-52.75,0,26.66,26.66,0,0,1-53.32,0,79.7,79.7,0,0,1,159.4-.1ZM250.18,337c-14.73,0-26.07,11.94-26.07,26.66v.21c0,14.72,11.35,26.56,26.07,26.56a26.72,26.72,0,0,0,0-53.43Z"/>
</svg>
