<svg id="Layer_1" data-name="Layer 1" xmlns="http://www.w3.org/2000/svg" xmlns:xlink="http://www.w3.org/1999/xlink" viewBox="0 0 487.66 487.66">
  <defs>
    <style>
      .cls-1 {
        fill: none;
      }

      .cls-2 {
        clip-path: url(#clip-path);
      }

      .cls-3 {
        clip-path: url(#clip-path-2);
      }

      .cls-4 {
        fill: #e94e1b;
      }
    </style>
    <clipPath id="clip-path">
      <rect class="cls-1" x="67.2" y="74.05" width="353.26" height="353.24"/>
    </clipPath>
    <clipPath id="clip-path-2">
      <rect class="cls-1" x="67.2" y="74.05" width="353.26" height="353.24"/>
    </clipPath>
  </defs>
  <title>piani_emergenza</title>
  <g id="Artwork_7" data-name="Artwork 7">
    <g class="cls-2">
      <g class="cls-3">
        <path class="cls-4" d="M243.14,213.42a13.8,13.8,0,1,1-13.8,13.8,13.8,13.8,0,0,1,13.8-13.8m48.3,13.8a13.8,13.8,0,1,0,13.79-13.8,13.79,13.79,0,0,0-13.79,13.8m-124.2,0a13.8,13.8,0,1,0,13.8-13.8,13.8,13.8,0,0,0-13.8,13.8M408.32,356.63a41.4,41.4,0,0,1-58.54,58.55L274,339.6a13.79,13.79,0,0,1-3.46-5.76l-16.5-54.31A13.8,13.8,0,0,1,271,262.22l55.7,15.42a13.84,13.84,0,0,1,6.06,3.54ZM296,322.51l51.12,51L366.62,354,315.8,303.28l-28-7.77Zm92.84,53.64-2.67-2.66L366.64,393l2.65,2.65a13.8,13.8,0,1,0,19.53-19.51M251.5,360c-2.55.12-5.13.17-7.67.17a166.94,166.94,0,0,1-63.49-12.28,13.88,13.88,0,0,0-10.59.06l-62.83,26.53,21.17-50.15a13.78,13.78,0,0,0-2.41-14.54c-20.2-22.7-30.88-49.86-30.88-78.54,0-71.46,66.85-129.6,149-129.6s149,58.14,149,129.6c0,16.95-4.16,34-12.37,50.57a13.8,13.8,0,0,0,24.74,12.23c10.1-20.44,15.23-41.57,15.23-62.8,0-86.68-79.24-157.2-176.63-157.2S67.2,144.57,67.2,231.25C67.2,264,78.29,295,99.38,321.38L68.29,395a13.79,13.79,0,0,0,18.07,18.08l89-37.55a194.82,194.82,0,0,0,68.51,12.21c2.94,0,5.93-.07,8.88-.19A13.8,13.8,0,1,0,251.5,360"/>
      </g>
    </g>
  </g>
</svg>
