<svg xmlns="http://www.w3.org/2000/svg" viewBox="0 0 496 496"><defs><style>.cls-1{fill:#0ba016;}.cls-2{fill:#fff;}</style></defs><g id="Layer_1" data-name="Layer 1"><path class="cls-1" d="M32.08,0h413A50.95,50.95,0,0,1,496,50.95v413A32.08,32.08,0,0,1,463.92,496H32.08A32.08,32.08,0,0,1,0,463.92V32.08A32.08,32.08,0,0,1,32.08,0Z"/></g><g id="Layer_2" data-name="Layer 2"><path class="cls-2" d="M454.61,386.24,361.2,289.53a16.92,16.92,0,0,0-7.5-4.53l-68.83-19.78a16.67,16.67,0,0,0-16.76,4.69,18.17,18.17,0,0,0-4.11,17.5L284.39,357a17.84,17.84,0,0,0,4.27,7.38l93.61,96.88a49.92,49.92,0,0,0,72.35,0C474.57,440.6,474.57,406.94,454.61,386.24ZM379,407.88,315.78,342.5l-10.13-34.6,34.62,10,62.8,65Zm51.55,28.4a16.62,16.62,0,0,1-24.12,0l-3.29-3.39,24.12-25,3.29,3.41A18.18,18.18,0,0,1,430.5,436.28Z"/><path class="cls-2" d="M415.36,210.48c-4.42-19.87-13.24-39.73-24.28-57.39l22.07-46.35-30.9-30.9L335.9,97.91c-17.66-11-35.31-17.65-55.18-22.07L265.27,27.28H221.13L203.47,75.84c-19.86,4.42-37.52,13.24-55.18,24.28L101.94,78.05,71,106.74l22.07,46.35c-11,17.66-17.65,35.32-22.07,55.18L22.48,225.93v44.14L71,287.73c4.42,19.86,13.24,39.73,22.07,55.18L71,389.26l30.9,30.9,46.35-22.07c17.66,11,35.32,19.86,55.18,24.28l17.66,46.35h44.14l17.66-48.56c6.62-2.21,15.45-4.42,22.07-6.62l-35.31-35.32C185.81,393.67,110.77,331.87,110.77,248c0-72.84,59.59-132.43,132.43-132.43,81.66,0,143.47,72.84,130.22,150.09l37.52,37.52c2.21-6.62,4.42-11,4.42-17.66l48.56-15.45V225.93Z"/></g></svg>