<svg id="Layer_1" data-name="Layer 1" xmlns="http://www.w3.org/2000/svg" xmlns:xlink="http://www.w3.org/1999/xlink" viewBox="0 0 492.87 492.87">
  <defs>
    <style>
      .cls-1 {
        fill: none;
      }

      .cls-2 {
        clip-path: url(#clip-path);
      }

      .cls-3 {
        clip-path: url(#clip-path-2);
      }

      .cls-4 {
        fill: #e30613;
      }
    </style>
    <clipPath id="clip-path">
      <rect class="cls-1" x="102.26" y="40.41" width="328.32" height="420.52"/>
    </clipPath>
    <clipPath id="clip-path-2">
      <rect class="cls-1" x="102.26" y="40.41" width="328.32" height="420.51"/>
    </clipPath>
  </defs>
  <title>piani_comunali</title>
  <g id="Artwork_4" data-name="Artwork 4">
    <g class="cls-2">
      <g class="cls-3">
        <path class="cls-4" d="M269.7,106.18a67.15,67.15,0,1,0,67.15,67.15,67.23,67.23,0,0,0-67.15-67.15m0,109.6a42.45,42.45,0,1,1,42.45-42.45,42.5,42.5,0,0,1-42.45,42.45"/>
        <path class="cls-4" d="M102.26,204.57c0,35.4,10.92,73,32.44,111.74a14.22,14.22,0,0,0,24.87-13.81C140.41,268,130.7,235.09,130.7,204.57c0-74.84,60.89-135.72,135.72-135.72s135.72,60.88,135.72,135.72c0,100.51-104.5,197.1-135.73,223.71-15.09-12.83-47.27-41.93-76.38-79.83a14.22,14.22,0,0,0-22.55,17.32c41.84,54.47,88.28,90.67,90.24,92.18a14.2,14.2,0,0,0,17.41,0c1.57-1.22,39.13-30.47,77.16-75.9,51.95-62,78.29-121.75,78.29-177.48,0-90.51-73.64-164.16-164.16-164.16S102.26,114.06,102.26,204.57"/>
      </g>
    </g>
  </g>
</svg>
