<svg viewBox="0 0 511 512" xmlns="http://www.w3.org/2000/svg"><path d="m28.554688 473.925781h15.03125v38.074219h-15.03125zm0 0"/><path d="m99.699219 402.085938c3.792969-5.867188 6.007812-12.847657 6.007812-20.339844v-15.03125c0-20.71875-16.855469-37.570313-37.574219-37.570313s-37.574218 16.851563-37.574218 37.570313v15.03125c0 7.410156 2.167968 14.324218 5.886718 20.152344-21.832031 11.617187-35.945312 34.640624-35.945312 60.003906v50.097656h15.03125v-50.097656c0-21.320313 12.773438-40.507813 32.085938-48.699219 5.90625 3.863281 12.949218 6.117187 20.515624 6.117187 7.457032 0 14.40625-2.195312 20.253907-5.953124 19.484375 8.121093 32.347656 27.195312 32.347656 48.535156v50.097656h15.03125v-50.097656c0-25.367188-14.136719-48.253906-36.066406-59.816406zm-9.023438-20.339844c0 12.429687-10.113281 22.542968-22.542969 22.542968-12.433593 0-22.542968-10.113281-22.542968-22.542968v-15.03125c0-12.429688 10.109375-22.542969 22.542968-22.542969 12.429688 0 22.542969 10.113281 22.542969 22.542969zm0 0"/><path d="m92.679688 473.925781h15.03125v38.074219h-15.03125zm0 0"/><path d="m403.285156 473.925781h15.03125v38.074219h-15.03125zm0 0"/><path d="m474.429688 402.085938c3.792968-5.867188 6.007812-12.847657 6.007812-20.339844v-15.03125c0-20.71875-16.855469-37.570313-37.574219-37.570313s-37.574219 16.851563-37.574219 37.570313v15.03125c0 7.410156 2.167969 14.324218 5.886719 20.152344-21.832031 11.617187-35.945312 34.640624-35.945312 60.003906v50.097656h15.03125v-50.097656c0-21.320313 12.777343-40.507813 32.089843-48.699219 5.902344 3.863281 12.949219 6.117187 20.511719 6.117187 7.457031 0 14.40625-2.195312 20.257813-5.953124 19.484375 8.121093 32.34375 27.195312 32.34375 48.535156v50.097656h15.03125v-50.097656c0-25.367188-14.132813-48.253906-36.066406-59.816406zm-9.023438-20.339844c0 12.429687-10.113281 22.542968-22.542969 22.542968-12.429687 0-22.542969-10.113281-22.542969-22.542968v-15.03125c0-12.429688 10.113282-22.542969 22.542969-22.542969 12.429688 0 22.542969 10.113281 22.542969 22.542969zm0 0"/><path d="m467.410156 473.925781h15.03125v38.074219h-15.03125zm0 0"/><path d="m214.917969 144.78125h15.03125v38.074219h-15.03125zm0 0"/><path d="m201.894531 132.757812c0-21.316406 12.777344-40.503906 32.089844-48.699218 5.902344 3.863281 12.945313 6.117187 20.511719 6.117187 7.457031 0 14.40625-2.191406 20.257812-5.953125 19.480469 8.121094 32.34375 27.199219 32.34375 48.535156v50.097657h15.03125v-50.097657c0-25.367187-14.132812-48.253906-36.066406-59.8125 3.792969-5.867187 6.007812-12.851562 6.007812-20.34375v-15.027343c0-20.71875-16.855468-37.574219-37.574218-37.574219s-37.574219 16.855469-37.574219 37.574219v15.027343c0 7.414063 2.167969 14.324219 5.886719 20.152344-21.835938 11.621094-35.945313 34.644532-35.945313 60.003906v50.097657h15.03125zm30.058594-95.183593c0-12.433594 10.113281-22.542969 22.542969-22.542969 12.429687 0 22.542968 10.109375 22.542968 22.542969v15.027343c0 12.433594-10.113281 22.546876-22.542968 22.546876-12.429688 0-22.542969-10.113282-22.542969-22.546876zm0 0"/><path d="m279.042969 144.78125h15.03125v38.074219h-15.03125zm0 0"/><path d="m304.367188 464.339844 3.542968 14.605468c5.011719-1.214843 10.042969-2.617187 14.964844-4.171874l-4.523438-14.332032c-4.59375 1.449219-9.300781 2.761719-13.984374 3.898438zm0 0"/><path d="m253.453125 470.414062c-15.875 0-31.644531-1.746093-47.070313-5.199218l27.082032-11.878906-6.035156-13.761719-55.054688 24.140625 38.59375 46.097656 11.523438-9.652344-16.449219-19.644531c15.5625 3.269531 31.4375 4.925781 47.410156 4.925781 13.128906 0 26.332031-1.125 39.246094-3.347656l-2.546875-14.8125c-12.074219 2.078125-24.421875 3.132812-36.699219 3.132812zm0 0"/><path d="m440.28125 149.074219 13.054688-7.445313c-2.554688-4.476562-5.296876-8.929687-8.160157-13.234375l-12.515625 8.320313c2.671875 4.019531 5.234375 8.179687 7.621094 12.359375zm0 0"/><path d="m424.214844 124.894531 11.925781-9.144531c-6.128906-7.992188-12.871094-15.679688-20.046875-22.855469-19.90625-19.894531-42.898438-35.773437-68.34375-47.199219l-6.15625 13.710938c23.773438 10.675781 45.265625 25.519531 63.875 44.117188 6.710938 6.710937 13.015625 13.902343 18.746094 21.371093zm0 0"/><path d="m468.410156 255.503906c0 3.089844-.089844 6.1875-.222656 9.289063l-17.1875-24.171875-12.246094 8.707031 34.832032 49 37.285156-47.160156-11.792969-9.324219-15.730469 19.902344c.054688-2.082032.09375-4.164063.09375-6.238282 0-24.289062-3.792968-48.277343-11.277344-71.300781l-14.296874 4.644531c7 21.519532 10.546874 43.945313 10.542968 66.652344zm0 0"/><path d="m452.910156 175.207031 13.945313-5.609375c-1.925781-4.789062-4.039063-9.574218-6.28125-14.214844l-13.535157 6.542969c2.097657 4.332031 4.074219 8.800781 5.871094 13.28125zm0 0"/><path d="m75.511719 134.957031-12.433594-8.441406c-2.902344 4.273437-5.6875 8.695313-8.289063 13.148437l12.980469 7.578126c2.429688-4.160157 5.035157-8.292969 7.742188-12.285157zm0 0"/><path d="m40.308594 282.777344c-1.148438-9.011719-1.726563-18.191406-1.726563-27.285156 0-23.425782 3.769531-46.523438 11.207031-68.648438l-14.246093-4.789062c-7.957031 23.671874-11.992188 48.378906-11.992188 73.4375 0 9.722656.621094 19.539062 1.847657 29.179687zm0 0"/><path d="m60.882812 160.023438-13.46875-6.675782c-2.289062 4.621094-4.453124 9.382813-6.425781 14.152344l13.890625 5.742188c1.839844-4.453126 3.859375-8.898438 6.003906-13.21875zm0 0"/><path d="m125.238281 32.714844-2.992187 14.726562 23.601562 4.800782c-20.15625 10.671874-38.59375 24.296874-54.957031 40.65625-6.628906 6.632812-12.90625 13.71875-18.652344 21.058593l11.835938 9.265625c5.375-6.867187 11.242187-13.492187 17.445312-19.695312 16.523438-16.523438 35.296875-30.058594 55.921875-40.347656l-14.582031 27.71875 13.296875 6.996093 27.996094-53.203125zm0 0"/><path d="m338.160156 301.089844h15.027344v15.027344h-15.027344zm0 0"/><path d="m157.808594 301.089844h15.027344v15.027344h-15.027344zm0 0"/><path d="m308.101562 273.535156h15.027344v70.136719h-15.027344zm0 0"/><path d="m187.867188 273.535156h15.027343v70.136719h-15.027343zm0 0"/><path d="m278.042969 258.503906h15.027343v100.195313h-15.027343zm0 0"/><path d="m217.925781 258.503906h15.027344v100.195313h-15.027344zm0 0"/><path d="m247.984375 238.464844h15.027344v140.273437h-15.027344zm0 0"/><path d="m246.980469 115.726562h15.03125v15.027344h-15.03125zm0 0"/><path d="m435.347656 446.371094h15.03125v15.03125h-15.03125zm0 0"/><path d="m60.617188 446.371094h15.03125v15.03125h-15.03125zm0 0"/></svg>